<svg xmlns="http://www.w3.org/2000/svg" viewBox="0 0 493.2 409.2">
  <g data-name="Layer 2">
    <g data-name="Layer 1">
      <path fill="#eae2c2" d="M269.2 352.1a201.5 201.5 0 0 1-33-5.7c-4.4-1.1-9.8-3.9-14.4-3.6-4 .3-6.3 3.2-8.9 6-12.8 14-28.3 25.8-47 30-2.1-.9-4.6 2-2.7 4.2a107.5 107.5 0 0 0 29 24c5.2 2.7 9.2 3 14.7.8a182 182 0 0 0 15.4-6.8c20.3-10 39.1-24.3 49-45a2.5 2.5 0 0 0-2.1-3.9zm72.4-74.7c-2-3.8-5.3-3.5-9.2-3.2-13 1-25.7 2.6-38.5 4.6-1.8.3-2.1 2.4-1.5 3.7a104.3 104.3 0 0 1 2.6 83.4c-1 2.5 2.2 3.8 4 2.4l39.2-2.6a2.6 2.6 0 0 0 2.4-1.9 154.3 154.3 0 0 0 4.8-70.4c-.9-5-1.4-11.5-3.8-16zm-56-80.4a2.5 2.5 0 0 0-2.5-1.8q-27.8 1.5-55.5 4.2a2.5 2.5 0 0 0-2.4 3.2c7.4 29.6 12 62 1.4 91.2a2.2 2.2 0 0 0-1.1 1.1l-3.5 7a2.5 2.5 0 0 0 2.8 3.7 96.8 96.8 0 0 0 53-36.2c7-9.5 12.6-20.7 14.1-32.5 1.8-13.6-2.3-27-6.3-39.9zm83-54.9a93.9 93.9 0 0 1-51.2-6.3 2.5 2.5 0 0 0-3.7 1.5 116.7 116.7 0 0 0-6 47.9c1.6 17.3 7.1 34.2 5.2 51.7a2 2 0 0 0 2.4 2.3 2.7 2.7 0 0 0 .4.1 426.6 426.6 0 0 0 51.6 4.6 2.6 2.6 0 0 0 2.5-2.5c3.4-31.4-14-65.7 1.6-95.6a2.5 2.5 0 0 0-2.8-3.7zm74.6-31.3c-1.8-6.6-4.1-14-3.7-21a2.7 2.7 0 0 0 0-.3 2.2 2.2 0 0 1 .4-.8c2-2-.5-5.4-3-4-23.5 14-41.6 39-51.9 64-2.6 6.6-5.8 13.9-6 21 0 6.8 2.5 13.3 5.5 19.2s6.8 12.5 11.9 17c2.5 2.3 7.8 4.2 9.2 7.2 1.3 2.8 5 .7 4.6-1.9-2.7-15.7 4.9-31 12.4-44.4a198 198 0 0 1 25.8-35.6 2.6 2.6 0 0 0 .4-3c-2.6-5.5-4-11.6-5.6-17.4zm-74.5-65c-10 21.5-36.6 25.3-54.1 38.2a88 88 0 0 0-32.7 47.3 2.3 2.3 0 0 0 .8 2.5 2.6 2.6 0 0 0 4.3 1.4c18-16.3 42.4-22.1 62-36 16.9-11.7 30.4-31.6 24.3-52.8-.6-2-3.7-2.6-4.6-.6zm123.8-5.6a74.3 74.3 0 0 1-21-38.4A2.1 2.1 0 0 0 469 0a2 2 0 0 0-2.3 1.3c.1-.3.2-.2 0 0a2.7 2.7 0 0 0-.1.5 2.3 2.3 0 0 1 0-.5 2 2 0 0 1-.2.2l-1.3 1-4.5 2.8-11 6.7c-6 3.6-12.6 6.8-18 11.2a105.3 105.3 0 0 0-26.2 33.6 89 89 0 0 0-7 17.6c-1.1 4.2-.5 11.2-3.3 14.7-2 2.5 1.2 5.9 3.5 3.6a180.2 180.2 0 0 1 92.7-48.3c1.9-.4 2.4-3 1.1-4.2zm-25.7-39v.1z"/>
      <path fill="#bcb080" d="M291.2 230.5a65.5 65.5 0 0 1-22.4 12.1 64.8 64.8 0 0 1-9.5 2.2c-1.2.2-4.4 0-5.5 1.3s-.6 2.9-.3 4.3a99.6 99.6 0 0 1 1.3 13.9c.2 9.6-.7 19.7-4.8 28.5a.6.6 0 0 0 1 .7c1.5-1.4 3.8-2 5.5-3.2l5-3.8a90.3 90.3 0 0 0 11.2-10.9 101.8 101.8 0 0 0 15.3-24.1c2.9-6.6 5-13.3 4.3-20.6a.6.6 0 0 0-1.1-.4zM435.8 20c-12.8 5.5-21.4 17.6-28.4 29.2A78 78 0 0 0 395 89.8v.2a.6.6 0 0 0 0 .5v.4c0 .8 1.3.8 1.3 0V90a56.9 56.9 0 0 1 36.8-38.4.6.6 0 0 0 .4-.8 31 31 0 0 1 3.2-29.8c.4-.6-.4-1-.9-.9zM323.3 158.8q15.5 2.3 31.3 3.3c3.2.3 3.2-4.7 0-5q-15-1-30-3.1c-3.2-.5-4.6 4.3-1.4 4.8zm-1.7 14.1q14.4 3 29 4.5c3.2.3 3.1-4.7 0-5q-14-1.5-27.7-4.3c-3.1-.6-4.5 4.2-1.3 4.8zm23.6 27.1a47.8 47.8 0 0 1 8 .3 2.5 2.5 0 0 0 2.5-2.5 2.6 2.6 0 0 0-2.5-2.5 47.8 47.8 0 0 0-8-.3c-3.2.1-3.2 5.1 0 5zm3.7 8a20.8 20.8 0 0 0 7.3-.4c3.2-.8 1.8-5.6-1.3-4.9a16.9 16.9 0 0 1-6 .3 2.5 2.5 0 0 0-2.5 2.5 2.6 2.6 0 0 0 2.5 2.5zm-24 15c9.8.7 19.6 1.2 29.3 2.3 3.2.3 3.2-4.7 0-5-9.8-1.1-19.5-1.6-29.3-2.3-3.2-.2-3.2 4.8 0 5zm11 12.2a50 50 0 0 0 11 .9c3.2-.1 3.2-5.1 0-5a44 44 0 0 1-9.6-.7c-3.2-.6-4.5 4.2-1.4 4.8zm53.9-69a70.2 70.2 0 0 0 11.7 15.4c2.2 2.3 5.8-1.2 3.5-3.5a65.3 65.3 0 0 1-11-14.5c-1.5-2.8-5.8-.3-4.2 2.5zm6.8-19.7a101 101 0 0 0 14 19.3c2.2 2.4 5.7-1.1 3.6-3.5a95.4 95.4 0 0 1-13.3-18.3c-1.5-2.8-5.8-.3-4.3 2.5zm9.1-15.4a109.5 109.5 0 0 0 12.8 19.2c2 2.4 5.6-1.1 3.5-3.6a103.5 103.5 0 0 1-12-18.1c-1.4-2.9-5.8-.3-4.3 2.5zm-104.3-12.3A134.1 134.1 0 0 1 317 96c2-2.4-1.4-6-3.5-3.5a140.4 140.4 0 0 0-16.5 23.7c-1.6 2.9 2.8 5.4 4.3 2.6zM321 107l11.3-20.6c1.6-2.9-2.8-5.4-4.3-2.6l-11.4 20.7c-1.5 2.8 2.8 5.4 4.4 2.5zm17.7-10.6 8.4-19.5c1.3-3-3-5.5-4.3-2.5L334.5 94c-1.3 3 3 5.5 4.3 2.5zm17-13a33 33 0 0 0 3.3-11.3c.4-3.2-4.6-3.2-5 0a26 26 0 0 1-2.7 8.7c-1.4 2.9 2.9 5.4 4.3 2.5zm100-62a172.9 172.9 0 0 0 7.6 17.3c1.4 2.9 5.8.3 4.3-2.5a160.9 160.9 0 0 1-7-16.1c-1.2-3-6-1.7-4.9 1.3zm-10.7 7q2 7.5 4.7 14.7c1.2 3 6 1.7 4.8-1.4q-2.7-7.2-4.7-14.6c-.8-3-5.7-1.8-4.8 1.3zm-9.3 11.3a37.1 37.1 0 0 1 2.3 5.4 2.6 2.6 0 0 0 3.1 1.7 2.5 2.5 0 0 0 1.8-3 45.5 45.5 0 0 0-2.9-6.6c-1.5-2.9-5.8-.4-4.3 2.5z"/>
      <path fill="#bcb080" d="M420.8 61.2a17.1 17.1 0 0 0 2 4.6 2.5 2.5 0 1 0 4.3-2.6 10.8 10.8 0 0 1-1.4-3.3 2.5 2.5 0 1 0-4.9 1.3zM243.6 218.8q14.3-.9 28.6-2.6c3.2-.4 3.2-5.4 0-5q-14.3 1.7-28.6 2.6c-3.2.2-3.2 5.2 0 5zm2 10.6a220.5 220.5 0 0 0 22.3-2.9c3.2-.5 1.8-5.3-1.3-4.8a207.3 207.3 0 0 1-21 2.7c-3.2.2-3.2 5.2 0 5zm.6 13 3-.4a2.6 2.6 0 0 0 2.5-2.5 2.5 2.5 0 0 0-2.5-2.5l-3 .3a2.6 2.6 0 0 0-2.5 2.5 2.5 2.5 0 0 0 2.5 2.5zm-6.9 127 5.7 2.9a2.6 2.6 0 0 0 3.5-1 2.5 2.5 0 0 0-1-3.4l-5.7-2.8a2.6 2.6 0 0 0-3.4.8 2.5 2.5 0 0 0 .9 3.5zm-4 8.2 4.6 2a2.5 2.5 0 0 0 3.1-1.8 2.6 2.6 0 0 0-1.7-3.1l-4.7-2a2.5 2.5 0 0 0-3.1 1.8 2.6 2.6 0 0 0 1.7 3.1zm-27.3-3.3 15.7 11.3c2.7 1.9 5.2-2.5 2.6-4.3L210.4 370c-2.6-1.9-5.1 2.5-2.5 4.3zm-9.6 6.7 14 11.6c2.5 2 6-1.5 3.6-3.5l-14-11.6c-2.5-2-6 1.4-3.6 3.5zm-6.4 8.7a36 36 0 0 1 7.8 5.3c2.4 2.1 6-1.4 3.5-3.5a41 41 0 0 0-8.8-6.1c-2.9-1.4-5.4 2.9-2.5 4.3zm142.8-201.8c-1.7-.8-4-1-5.8-1.4l-7.8-1.8a2.6 2.6 0 0 0-3.1 2.6 2.7 2.7 0 0 0-.2.5 54.1 54.1 0 0 0 0 17.7 2.5 2.5 0 0 0 2.4 1.8h7.4c1.6 0 3.8.2 5.4-.5 3-1.5 2.5-6.9 2.8-9.7s2-7.5-1.1-9.2zm-9.2 14.5h-3.2a46.5 46.5 0 0 1 .2-12.2l3.7.9c1.7.3 3.6.5 5.3 1 0 1.7-.6 3.7-.7 5.1-.2 1.7-.3 3.5-.6 5.2a26.2 26.2 0 0 1-4.7 0zm111.8-89.3-6-9.8a2.5 2.5 0 0 0-3.5-.9 53.6 53.6 0 0 0-11 10.1 2.6 2.6 0 0 0 .1 3.5v.1a86.8 86.8 0 0 0 6.7 10.4c.9 1.2 2.8 1.9 3.9.5l9.4-10.9a2.6 2.6 0 0 0 .3-3zm-15.5 1.3a49 49 0 0 1 6.6-6.2l3.6 5.9-6.1 7q-2.2-3.2-4.1-6.7zM246.9 264a25.5 25.5 0 0 0-6.2.4 2.4 2.4 0 0 0-1.8 1.8c-.5 2.4-1 4.9-1.3 7.3-.3 2-.8 4.5-.6 6.5.6 4.3 6.2 3 9.2 3 3.2-.2 3.2-5.2 0-5l-4 .2v-.8a61.8 61.8 0 0 1 1.2-8.3 21.6 21.6 0 0 1 3.5-.1c3.2.2 3.2-4.8 0-5zM236 356.3c-3.6-1.7-8.4-5.2-12.5-5.2a2.4 2.4 0 0 0-1.6.3c-2.2 1.3-3.7 4.2-5 6.3l-2.7 4.2a12 12 0 0 0-1.2 1.8 1.7 1.7 0 0 1-.6.7 5.8 5.8 0 0 1 .9-.3c-1.8.6-2.7 3.6-.6 4.5 3.5 1.7 9.8 6.4 13.6 3.8 4.2-3 7.8-8.4 10.6-12.7a2.5 2.5 0 0 0-.9-3.4zm-10.8 10.1-2 2a3.3 3.3 0 0 0-2.1-1.3 34.2 34.2 0 0 0-3.3-1.6l1.3-2c1.2-2 2.9-5.7 4.8-7.3 2 .3 4.8 1.9 7.1 3.2a65.7 65.7 0 0 1-5.9 7zm95.5-77.6c-.3-1.4-1.9-2-3.1-1.8a64.6 64.6 0 0 0-10.4 2.4l-.2.1a2.3 2.3 0 0 0-2.3 3 74.8 74.8 0 0 1 3.1 15.2 2.5 2.5 0 0 0 3.2 2.4c3.2-.9 10.2-1.1 11.2-5 .7-2.3 0-5.4-.3-7.8-.3-2.8-.7-5.7-1.2-8.5zm-3.2 14.4a8 8 0 0 1-2.4.6l-2.7.7a81 81 0 0 0-2.1-10.8l6-1.4.5 3.7c.2 1.7-.1 4.4.5 6 .4 1 .8.7.2 1.2zm8.7-8.8h5.7c3.2 0 3.2-5 0-5h-5.7c-3.2 0-3.2 5 0 5zm4.7 7.9h2.7a2.5 2.5 0 0 0 0-5h-2.7a2.5 2.5 0 1 0 0 5zm-17.3 17.3h20.3c3.2 0 3.2-5 0-5h-20.3c-3.3 0-3.3 5 0 5zm2 11.7q7.5-.5 15-.3c3.2.1 3.2-4.9 0-5q-7.5-.2-15 .3c-3.2.2-3.3 5.2 0 5zm-1 14 12-.3c3.2 0 3.2-5 0-5l-12 .4c-3.2 0-3.3 5 0 5z"/>
      <path fill="#cf4327" d="M169.7 52.5c-1.3-3.7-3-8.8-7.7-8.9-6.3-.2-8.5 7.3-9.2 14.5A35.2 35.2 0 0 0 150 54c-2.3-3-6.4-7.6-10.5-6-4.6 1.8-4 8.7-3.7 12.5a32.4 32.4 0 0 0 .7 4.2 57 57 0 0 0-4.5-3.2c-3-1.9-7.7-5.2-10.8-1.5-7.3 8.8 9.2 22.1 14.7 26.7 2.2 1.8 5.3-.8 4.1-2.8l27.5-12.6c.9 2.1 4.7 1.8 4.8-1a52.6 52.6 0 0 0-2.6-17.7z"/>
      <path fill="#3b301b" d="M216 66a2.2 2.2 0 0 0-1.8-2c-46.4-11.9-96.6 10.6-115.5 55.3a93.6 93.6 0 0 0-7.6 35.2c-.2 12.5 1.8 25 .6 37.4-2.1 23-20.5 46.6-44 50.3-8 1.3-22.3-2.1-27.2 6.5-2 3.5-.7 7.9 1.9 10.7a12.8 12.8 0 0 0 4.1 2.9 7 7 0 0 0-2.9 4.6c-1.1 6.8 5.3 9.4 11.2 10a7.3 7.3 0 0 0-.3 3.3c.7 4.6 5.4 7 9.4 8 10.2 3 21.8 3 32.3 2.1 22-1.6 44.2-8 63-19.5a124.7 124.7 0 0 0 45.8-48.7 97.4 97.4 0 0 0 10.3-32.3 152 152 0 0 0-1.7-39.5c-2.1-15.6-4.4-31-3.4-46.8.4-7.2 1.7-15 6-21a46.5 46.5 0 0 1 18.7-13.8A2 2 0 0 0 216 66z"/>
      <path fill="#3b301b" d="m182.4 166 20.8-7c6.4-2.2 13.8-3.7 19.8-6.8 5.1-2.7 6.7-9.6 8.9-14.5l8.5-19.5c2.6-5.8-6-11-8.6-5l-7.4 16.9c-2.1 4.8-3.6 12.2-8.7 14.2-11.7 4.6-24 8.1-35.9 12.2-6 2-3.5 11.7 2.7 9.6zm-2-32 25-10c4-1.6 5.8-2.7 8.5-5.7l13.7-15.1c4.3-4.8-2.7-11.9-7-7l-13 14.2c-.8 1-1.6 2-2.6 2.9a10.3 10.3 0 0 1-.7.8c1.7-1.2-3.3 1-3.3 1l-23.2 9.3c-5.9 2.4-3.3 12 2.7 9.7z"/>
      <path fill="#eae2c2" d="m172.2 84.8-.2-.2a2.9 2.9 0 0 0-.2-.3c-14-15.6-39.6 5.3-29.5 22.7 5 8.7 16.8 10 24.7 4.5 8.4-5.8 11-18.4 5.2-26.7z"/>
      <path fill="#3b301b" d="M168.7 92.7a2.9 2.9 0 0 0-.2-.6 10.1 10.1 0 0 0-12.5-5c-4.9 1.7-8.8 8-7.3 13.2 1.7 5.6 8.9 7.8 14 6a10.5 10.5 0 0 0 6-13.6zm62.7 23.9a4.1 4.1 0 0 1-3-2.4c-.7-1.4-2.9-.1-2.2 1.3a6.4 6.4 0 0 0 4.5 3.5c1.6.3 2.2-2.1.7-2.4z"/>
      <path fill="#cf4327" d="M216 66a2.2 2.2 0 0 0-1.7-1.9 103.1 103.1 0 0 0-19.8-3 2.5 2.5 0 0 0-2.5 2.5 50 50 0 0 0 3.9 14.2c.7 1.6 2.8 1.5 4 .5a60 60 0 0 1 15-9.6A2 2 0 0 0 216 66z"/>
      <path fill="#3b301b" d="M111.2 141.3C103.6 121.7 91.9 100 69.5 95c-7-1.6-18.3-1.4-19.5 8-.4 3.9 2 6.8 5 9l4.6 3.3a23.7 23.7 0 0 0-9.7.8c-6 1.8-10.8 6.4-11.6 12.7a12 12 0 0 0 8 13.2c3.4 1.1 7 1 10.5 1.2a22.5 22.5 0 0 0-7.8 5c-5.5 5.4-7 14.6.4 19.2 4 2.5 8.7 2.4 13.3 1.9 5.5-.7 10.6-1.2 16 0a38.4 38.4 0 0 1 25.5 19c1.5 2.7 5.8.2 4.3-2.6l-2-3.1 2-38.2c1.8.1 3.4-1 2.7-3z"/>
      <path fill="#eae2c2" d="m270.2 124.5-7.5-11.3a2.5 2.5 0 0 0-1.4-1 2.2 2.2 0 0 0-3 1 2.2 2.2 0 0 0-.3.7l-5.7 11.2a2.5 2.5 0 0 0 2.1 3.8l13.6-.6c1.8 0 3.3-2.1 2.2-3.8z"/>
      <path fill="#e5a024" d="m261.3 112.2-44.6-22.7a1.9 1.9 0 0 0-2.6.7l-6.5 12.7a1.9 1.9 0 0 0 .7 2.6l44.6 22.7a2 2 0 0 0 2.3-.2c1.6-1.8 4.2-3.7 5.3-5.9s1.2-5.4 1.7-7.7a2 2 0 0 0 0-.3 1.6 1.6 0 0 0-.9-1.9zm-46.6-13.6 46.4 23.7"/>
      <path fill="#eae2c2" d="m214.1 99.7 46.4 23.6c1.4.8 2.6-1.4 1.2-2.1l-46.3-23.6c-1.5-.8-2.7 1.4-1.3 2.1z"/>
      <path fill="#cf4327" d="M216.8 89.4c-4.6-2-10-.8-12.4 3.8a9.3 9.3 0 0 0 3.8 12.4 2.5 2.5 0 0 0 3.4-1l6-11.8a2.7 2.7 0 0 0 .3-.7 2 2 0 0 0-1.1-2.7z"/>
      <path fill="#3b301b" d="m270.2 124.5-1.7-2.4a2.1 2.1 0 0 0-.8-1 2.6 2.6 0 0 0-.6-.1 2.3 2.3 0 0 0-1.7 0l-.2.2a2.1 2.1 0 0 0-1 .9l-1.3 2.6a2.5 2.5 0 0 0 2.2 3.7l3-.1c1.7 0 3.2-2.1 2-3.8zm-36.3-4.7a43.6 43.6 0 0 1 2.8-4.2 1.3 1.3 0 0 0 0-1.7 1.3 1.3 0 0 0-1.8 0 49 49 0 0 0-3.2 4.6 1.3 1.3 0 0 0 2.2 1.3zm-88.2 132.7c-3.5-5.4-12.2-.4-8.7 5 5.8 9 12 24.3.8 32.2a5 5 0 0 0-2.2 3.7 4.1 4.1 0 0 0-.6 3.9l2.9 7c1 2.4 3.4 4.4 6.1 3.5 2.4-.8 4.6-3.6 3.5-6.2l-2.2-5.3c13-11.5 9-30.3.4-43.8z"/>
      <path fill="#3b301b" d="M170.5 309.3a48.6 48.6 0 0 0 12.6-36c-1.1-12.5-8.4-29.7-22.6-31.7-6.3-1-9 8.7-2.7 9.6 10.8 1.6 15.4 16 15.5 25.4a40.1 40.1 0 0 1-13.1 29.1 4.4 4.4 0 0 0-1.3 4.6 4.2 4.2 0 0 0 1.4 2.8 21.2 21.2 0 0 1 2.6 2.6l.1.2.5.7 1 1.9a5 5 0 0 0 6.9 1.8 5.1 5.1 0 0 0 1.8-6.8 24.5 24.5 0 0 0-2.7-4.2z"/>
      <path fill="#cf4327" d="m182.3 155.5.5 7a2.6 2.6 0 0 0 2.5 2.5 2.5 2.5 0 0 0 2.5-2.5l-.5-7a2.6 2.6 0 0 0-2.5-2.5 2.5 2.5 0 0 0-2.5 2.5zm4 22a19 19 0 0 1-.9 6.3c-1 3.1 3.9 4.4 4.9 1.4a23.5 23.5 0 0 0 1-7.7c0-3.2-5-3.2-5 0zm-6.1 23.3a21.8 21.8 0 0 0-2.3 6.5 2.6 2.6 0 0 0 1.7 3.1 2.5 2.5 0 0 0 3.1-1.7 17.7 17.7 0 0 1 1.8-5.4c1.5-2.9-2.8-5.4-4.3-2.5zM170 225.2l-2 2.5a2.7 2.7 0 0 0-.7 1.8 2.5 2.5 0 0 0 .7 1.8c.9.8 2.7 1 3.5 0l2-2.5a2.7 2.7 0 0 0 .8-1.8 2.5 2.5 0 0 0-.8-1.8c-.9-.8-2.6-1-3.5 0zm-16 16.5-2.5 3a2.6 2.6 0 0 0 0 3.6 2.5 2.5 0 0 0 3.5 0l2.5-3a2.6 2.6 0 0 0 0-3.6 2.5 2.5 0 0 0-3.5 0zm-18 14.6-3 2a2.5 2.5 0 1 0 2.5 4.3l3-2a2.5 2.5 0 1 0-2.5-4.3zm-16.3 10.3-3.5 1a2.5 2.5 0 1 0 1.3 4.9l3.5-1a2.5 2.5 0 1 0-1.3-4.9zm-17.6 6-3 1a2.5 2.5 0 0 0 1.4 4.7l3-1a2.5 2.5 0 0 0-1.4-4.8zM86.3 275l-4-.5a2.5 2.5 0 0 0-2.5 2.5 2.6 2.6 0 0 0 2.5 2.5l4 .5a2.5 2.5 0 0 0 2.5-2.5 2.6 2.6 0 0 0-2.5-2.5zm22.5-9.1a7.4 7.4 0 0 0 4.8-1.7 2.5 2.5 0 0 0 0-3.6 2.6 2.6 0 0 0-3.6 0c.6-.4-.1.1-.2.2-.5.2.4-.1-.2 0h-.5.1-.4a2.5 2.5 0 0 0-2.5 2.6 2.5 2.5 0 0 0 2.5 2.5zm16.8-8.9 2.5-1.5a2.5 2.5 0 1 0-2.6-4.3l-2.5 1.5a2.5 2.5 0 1 0 2.6 4.3zm15.5-10.4 2-1.5a2.7 2.7 0 0 0 1.1-1.5 2.5 2.5 0 0 0-.2-2c-.7-1-2.3-1.7-3.4-.9l-2 1.5a2.7 2.7 0 0 0-1.2 1.5 2.5 2.5 0 0 0 .3 2c.6 1 2.3 1.7 3.4.9zm15.4-13.4 2.5-3.5a2.5 2.5 0 0 0-1-3.5 2.6 2.6 0 0 0-3.4 1l-2.4 3.4a2.5 2.5 0 0 0 .9 3.5 2.6 2.6 0 0 0 3.4-1zm12.5-17.5 1.5-3a2.5 2.5 0 0 0-4.3-2.6l-1.5 3a2.5 2.5 0 0 0 4.3 2.6zm8.6-21.7.5-2.4a2.5 2.5 0 1 0-4.8-1.4l-.5 2.5a2.5 2.5 0 1 0 4.8 1.3zm1.2-25.1v-3a2.5 2.5 0 1 0-5 0v3a2.5 2.5 0 0 0 5 0zm4-30.6a2.5 2.5 0 0 0-3.2-2.4l-2 .5a2.5 2.5 0 0 0-1.7 3 2.6 2.6 0 0 0 2 1.9v.6a2.5 2.5 0 0 0 5 0zm-17.4 37-.5 3.4a2.6 2.6 0 0 0 1.7 3.1c1.2.3 3-.3 3.1-1.7l.5-3.5a2.6 2.6 0 0 0-1.7-3.1c-1.2-.3-3 .4-3.1 1.7zm-6.4 19.3-2.5 3a2.6 2.6 0 0 0 0 3.6 2.5 2.5 0 0 0 3.5 0l2.5-3a2.6 2.6 0 0 0 0-3.6 2.5 2.5 0 0 0-3.5 0zm-10.9 19-2 2.6a2.7 2.7 0 0 0-.7 1.7 2.5 2.5 0 0 0 4.3 1.8l2-2.5a2.7 2.7 0 0 0 .7-1.7 2.5 2.5 0 0 0-4.3-1.8zM134 228.3l-2.9 2.7a2.5 2.5 0 0 0 0 3.5 2.5 2.5 0 0 0 3.6 0l2.8-2.6a2.5 2.5 0 0 0 0-3.6 2.5 2.5 0 0 0-3.5 0zm-15 11.6-3.5 2.5a2.6 2.6 0 0 0-.9 3.4 2.5 2.5 0 0 0 3.4 1l3.5-2.6a2.6 2.6 0 0 0 1-3.4 2.5 2.5 0 0 0-3.5-.9zm-16.5 10-2 2a2.5 2.5 0 1 0 3.6 3.5l2-2a2.5 2.5 0 0 0-3.5-3.6zm-16.5 12-1 .5a2.5 2.5 0 0 0-.9 3.4 2.6 2.6 0 0 0 3.4 1l1-.6a2.5 2.5 0 0 0 1-3.4 2.6 2.6 0 0 0-3.5-1zm-17.7 12.7c3.2 0 3.2-5 0-5s-3.2 5 0 5zm12 31.5c-.9-3-5.7-1.8-4.8 1.3C79.2 320 77.2 336 64.4 342a26.4 26.4 0 0 0 0-4.7c-.6-6.2-4.2-12.3-10.4-14.1-5.5-1.6-11.8.5-14.1 6-2.7 6 .2 12.6 5.3 16.2a19.7 19.7 0 0 0 12.7 3.4 50 50 0 0 1-21 23c-9.4 5.4-23 9-33.7 6.4-3.2-.8-4.5 4-1.4 4.8a54.2 54.2 0 0 0 38.2-7.3c9.8-5.9 20-16.2 23.4-28h.3c17.4-6 21.4-25.7 16.6-41.6zm-36.5 28.1c-.1-4.9 4.3-7.6 8.8-6.2 3.8 1.2 6 4.8 6.6 8.5a20.7 20.7 0 0 1 .1 7c-6.5 1-15.2-1.6-15.5-9.3z"/>
      <path fill="#3b301b" d="m236.5 121.2 3.2-3.7c1-1.2-.7-3-1.8-1.8l-3.1 3.7c-1 1.3.7 3 1.7 1.8zm2 1.5a8.8 8.8 0 0 0 4.6-2.8c1-1.3-.8-3-1.8-1.8a6.6 6.6 0 0 1-3.4 2.2 1.3 1.3 0 0 0 .6 2.4z"/>
      <path fill="#cf4327" d="m203.8 32.9 1.5-15.4c.3-3.2-4.7-3.1-5 0L198.8 33c-.3 3.2 4.7 3.1 5 0zm16.2 2.5 8.3-18.5c1.3-3-3-5.5-4.3-2.5l-8.3 18.5c-1.3 2.9 3 5.4 4.3 2.5zm10.7 10 13.5-8.3c2.7-1.7.2-6-2.5-4.4L228 41.1c-2.7 1.7-.2 6 2.6 4.3z"/>
      <path fill="#574730" d="M134 84.5a56.3 56.3 0 0 0-28.6 36.4c-1 4 5.2 5.8 6.3 1.7a50 50 0 0 1 25.6-32.5c3.7-2 .4-7.6-3.3-5.6zm-36.9 102A53.9 53.9 0 0 1 75 236.2c-3.4 2.4-.1 8 3.3 5.6a60.3 60.3 0 0 0 25.3-55.1c-.4-4.1-7-4.2-6.5 0zM68 104.8c14.2 3.7 21.6 17.5 29.2 29 7 10.5 15.5 20.9 28.3 24.2 4 1 5.7-5.2 1.7-6.3-14.3-3.7-21.7-17.4-29.3-28.9-7-10.5-15.4-21-28.2-24.3-4-1-5.8 5.2-1.7 6.3zm-11 22.4q-1.4 1.5-.4 1a2.2 2.2 0 0 1 .9 0 27.1 27.1 0 0 1 2.8.1l6.7.2c4.2.1 4.2-6.4 0-6.5-4.5-.1-16.6-2.5-16.4 5.2 0 4.2 6.6 4.2 6.5 0zm1.6 32.2a21 21 0 0 1 8-3.6c4-1 2.3-7.2-1.8-6.3a25.8 25.8 0 0 0-9.5 4.3 3.4 3.4 0 0 0-1.1 4.5c.8 1.3 3 2.2 4.4 1.1zM33 244.6a7.7 7.7 0 0 0-7 5 3.3 3.3 0 0 0 2.2 4 3.3 3.3 0 0 0 4-2.2c0 .2-.3.5 0 .2a3 3 0 0 1 .1-.3q.2-.2 0 0c-.4.3 0 0 0 0l.2-.2-.2.2a2 2 0 0 0 .4-.2c.5-.3-.2 0-.2 0s.9 0 .3 0h.2a3.3 3.3 0 1 0 0-6.5zm6.8 16.2a8.8 8.8 0 0 0-8.4 2.8 3.4 3.4 0 0 0 0 4.6c1.1 1.1 3.5 1.4 4.6 0 0-.1.9-1 .4-.6a5.4 5.4 0 0 1 .6-.3l.1-.1.3-.1h.7a3.3 3.3 0 0 0 4-2.3c.4-1.6-.5-3.7-2.3-4zm3 12-1.3 2a3.3 3.3 0 0 0 1.2 4.5 3.3 3.3 0 0 0 4.4-1.2l1.3-2a3.3 3.3 0 0 0-1.1-4.4 3.3 3.3 0 0 0-4.5 1.2zM170.4 74.4l11.3-3.3c4-1.2 2.4-7.4-1.7-6.3L168.7 68c-4 1.2-2.3 7.4 1.7 6.3z"/>
      <path fill="#db6653" d="m121.9 67.6 2.8 4.6a3.3 3.3 0 0 0 5.6-3.3l-2.8-4.6a3.3 3.3 0 0 0-5.6 3.3zm16.4-13a19.6 19.6 0 0 0 1.8 8.2c.7 1.6 3 2 4.4 1.2a3.3 3.3 0 0 0 1.2-4.5 12 12 0 0 1-1-5c.2-4.1-6.3-4.1-6.4 0zm18.7-3.4v5.3a3.3 3.3 0 1 0 6.5 0v-5.3a3.3 3.3 0 1 0-6.5 0z"/>
    </g>
  </g>
</svg>