<svg xmlns="http://www.w3.org/2000/svg" viewBox="0 0 212.4 197">
  <g data-name="Group 55">
    <path fill="#1e7ec1" d="M91.7 197h-6.1a1.2 1.2 0 0 1 0-2.5h4.9v-26.1a1.2 1.2 0 1 1 2.4 0v27.4a1.2 1.2 0 0 1-1.2 1.2Zm41.5 0H127a1.2 1.2 0 0 1-1.2-1.2v-27.4a1.2 1.2 0 1 1 2.4 0v26.1h4.9a1.2 1.2 0 0 1 0 2.5Z" data-name="Path 219"/>
    <ellipse cx="69.3" cy="62.4" fill="#1e7ec1" data-name="Ellipse 6" rx="69.3" ry="62.4" transform="translate(38.3 48.5)"/>
    <circle cx="20.1" cy="20.1" r="20.1" fill="#fcf1d5" data-name="Ellipse 7" transform="translate(87.5 70.6)"/>
    <circle cx="9.4" cy="9.4" r="9.4" data-name="Ellipse 8" transform="translate(98.8 81)"/>
    <g fill="#1e7ec1" data-name="Group 54">
      <path d="M23.8 190.6a14 14 0 0 1-10.6-4c-6-6.3-5.6-18.4-5.2-29 .3-8.2.6-17.5-2.6-19a2.4 2.4 0 0 1 2-4.4c6.2 2.8 5.9 12.4 5.5 23.5-.4 9.7-.8 20.8 3.8 25.5 1.7 1.7 4 2.6 7 2.6 3.5 0 6-1 7.8-2.7 4.4-4.5 4.3-14.4 4.2-23.9-.1-9.9-.2-19.2 4.6-24a11 11 0 0 1 8.2-3.2 2.4 2.4 0 0 1 0 4.9 6.4 6.4 0 0 0-4.8 1.7c-3.4 3.4-3.3 12.1-3.2 20.5.2 10.6.3 21.4-5.6 27.4a15 15 0 0 1-11.1 4.1Z" data-name="Path 226"/>
      <path d="M7.5 136a.6.6 0 0 1-.2-1.2 2.3 2.3 0 0 0 1.2-.9 1.1 1.1 0 0 0 0-1 .6.6 0 0 1 1.2-.3 2.3 2.3 0 0 1 0 1.8 3.5 3.5 0 0 1-2 1.6.5.5 0 0 1-.2 0Zm-1.9-.5a.6.6 0 0 1-.2 0L2 134.3a.6.6 0 1 1 .4-1.2l3.3 1.2a.6.6 0 0 1-.2 1.2Z" data-name="Path 227"/>
      <path d="m5.6 136.6-5-.3a.6.6 0 0 1 0-1.2l5 .3a.6.6 0 0 1 0 1.2Z" data-name="Path 228"/>
      <path d="M1.3 138.3a.6.6 0 0 1 0-1.2l4-.6a.6.6 0 0 1 .2 1.2l-4 .6a.6.6 0 0 1-.2 0Z" data-name="Path 229"/>
      <path d="M3.4 139.7a.6.6 0 0 1-.3-1.2l2.7-1a.6.6 0 0 1 .5 1.2l-2.7 1a.6.6 0 0 1-.2 0Zm185 51a15 15 0 0 1-11.2-4.2c-5.9-6-5.8-16.8-5.6-27.4 0-8.4.2-17.1-3.2-20.5a6.4 6.4 0 0 0-4.8-1.7 2.4 2.4 0 0 1 0-4.9 11 11 0 0 1 8.2 3.2c4.8 4.8 4.7 14.1 4.6 24-.1 9.5-.2 19.4 4.2 23.9 1.8 1.8 4.3 2.7 7.7 2.7 3.1 0 5.4-.9 7.1-2.6 4.6-4.7 4.2-15.8 3.8-25.5-.4-11.1-.7-20.7 5.6-23.5a2.4 2.4 0 0 1 2 4.4c-3.4 1.5-3 10.8-2.7 19 .4 10.6.8 22.8-5.2 29a14 14 0 0 1-10.6 4Z" data-name="Path 230"/>
      <path d="M205 136a.6.6 0 0 1-.3 0 3.5 3.5 0 0 1-2-1.6 2.3 2.3 0 0 1 0-1.9.6.6 0 1 1 1.2.5 1.1 1.1 0 0 0 0 .9 2.3 2.3 0 0 0 1.2 1 .6.6 0 0 1-.2 1.1Zm1.8-.5a.6.6 0 0 1-.2-1.2l3.3-1.2a.6.6 0 0 1 .4 1.1l-3.3 1.2a.6.6 0 0 1-.2 0Z" data-name="Path 231"/>
      <path d="M206.8 136.6a.6.6 0 0 1 0-1.2l5-.4a.6.6 0 0 1 0 1.3l-5 .3Z" data-name="Path 232"/>
      <path d="m211 138.3-4-.6a.6.6 0 0 1 .1-1.2l4 .6a.6.6 0 0 1 0 1.2Z" data-name="Path 233"/>
      <path d="M209 139.7a.6.6 0 0 1-.2 0l-2.7-1a.6.6 0 1 1 .5-1.2l2.7 1a.6.6 0 0 1-.3 1.2ZM80 52.9a9.9 9.9 0 0 1-1.7-3.2 46.4 46.4 0 0 1-2-6.6 55.2 55.2 0 0 1-1.3-18c.7-6.3 2.8-12.6 7.4-17.2 3.7-3.7 9.4-7.4 15-6.6 4.2.6 7.2 3.8 9 7.5a22.2 22.2 0 0 1 1.5 13.6A17 17 0 0 1 100 34a8.9 8.9 0 0 1-9-.6c-3.5-2.5-2.2-7.3-.3-10.3a21 21 0 0 1 23.3-8.3 18.5 18.5 0 0 1 9.7 7.3c2.4 3.7 3.5 8.7.5 12.3-.7.9-2.4 2.8-3.6 2l.3.5c-.1-2 2.8-3 4.4-3.3a16.3 16.3 0 0 1 8.1.1c6.3 1.9 9.4 9.8 6.8 15.6a15 15 0 0 1-7 7 20.6 20.6 0 0 1-11.2 2.1c-4-.3-7.9-1-12-1-3.2 0-6.5.4-9.8.8a37 37 0 0 1-10.3 0 20.1 20.1 0 0 1-9.9-5.3c-.6-.5-1.5.3-.9.8a22 22 0 0 0 8 5 24.1 24.1 0 0 0 8.2 1c6.1 0 12.1-1.4 18.3-1 3.8.2 7.5 1 11.3 1a20.9 20.9 0 0 0 9.6-2.6c5.3-3 9-8.5 7.8-14.7a13.4 13.4 0 0 0-4.2-7.5A12 12 0 0 0 131 32a17.7 17.7 0 0 0-7.3.8c-1.7.5-3.7 1.5-4 3.4-.1.4-.2 1 .2 1.2a2.1 2.1 0 0 0 1.5.4 5.4 5.4 0 0 0 3-1.8 9.6 9.6 0 0 0 2.8-8.4c-1-6.4-6.2-11.5-12.1-13.7A21.6 21.6 0 0 0 96.4 16a20.5 20.5 0 0 0-7.1 7.2c-1.4 2.5-2.4 6-1 8.7 2 4.2 8.7 5.2 12.5 3a17.5 17.5 0 0 0 7-8.5 22.8 22.8 0 0 0-2-20.8A12.7 12.7 0 0 0 98.4.3a15 15 0 0 0-11.1 2.4A26.1 26.1 0 0 0 77 13.5a35.9 35.9 0 0 0-3.4 14.2 58 58 0 0 0 1.1 14 43.5 43.5 0 0 0 3 9.8 7.3 7.3 0 0 0 1.4 2.2c.6.6 1.4-.3.9-.8Z" data-name="Path 234"/>
    </g>
    <path d="M122.1 133.2a4.7 4.7 0 0 1-3-1.1l-6.8-5.6a4.3 4.3 0 0 0-6.2.8l-1.6 2.2a4 4 0 0 1-2.4 2c-1.5.2-2.6-.8-3.3-1.4a28.4 28.4 0 0 1-3-3.2c-3.3-3.9-7.3-8.7-15.3-7.2-4.3.8-6.4 3-7.3 4.8a8.2 8.2 0 0 0-.5 6.8.9.9 0 1 1-1.6.7 10 10 0 0 1 .5-8.4c1.1-2 3.5-4.7 8.6-5.7 9-1.7 13.6 3.8 17 7.9a27.5 27.5 0 0 0 2.7 3c.7.5 1.3 1 1.9.9.4 0 .9-.7 1.3-1.2l1.5-2.2a6 6 0 0 1 8.8-1.2l6.9 5.6a3 3 0 0 0 3.8-.2 18.2 18.2 0 0 0 1.7-2 5.2 5.2 0 0 1 5.7-1.8l.7.2a3 3 0 0 0 3.6-2l1-3a.9.9 0 0 1 1.7.6l-1 3a4.7 4.7 0 0 1-5.8 3.1l-.7-.2a3.4 3.4 0 0 0-3.7 1.2 19.8 19.8 0 0 1-1.9 2.2 4.6 4.6 0 0 1-3.3 1.4Z" data-name="Path 236"/>
  </g>
</svg>