<svg xmlns="http://www.w3.org/2000/svg" viewBox="0 0 2629 2494">
  <g data-name="Group 22">
    <path fill="#93cfd1" d="M1365 688c1 21 6 45-15 57-6 4-13 6-19 8-5 2-14 5-16 10l-8 17c-12 24-21 49-34 72-7 15-21 24-28 39v-1l-1 3c0 17 9 33 3 50-3 8-8 16-12 23l-14 30c-7 11-18 18-25 29-3 4-4 9-6 13l-7 20-5 16c-1 0 0 0 0 0v-1a549 549 0 0 1-1 2c2 10 7 19 10 28 3 6 4 12 4 19 0 4-3 9-2 12 0 11 2 22 1 33l-2 18c-2 13-2 28-5 41-3 10-11 17-19 22l-18 11-7 7a3 3 0 0 1 0-1s0-1 0 0c-1 15 9 27 12 42 1 7-1 15-1 22l-4 35c0 1 0 0 0 0v-1c1 16 14 28 15 44 2 16-5 31-8 46l-1 29v26c1 16-5 32-3 48v-1l1 6c3 1 5 6 6 8l10 13c4 7 7 15 8 23 0 9-3 18-8 26l-8 13c-2 3-7 9-7 11v-1l3 17 3 23 3 17 7 38v-1a3 3 0 0 0 0 1c5 17 15 32 20 48l13 42c0 1 0 0 0 0a4 4 0 1 1 0-1l1 3a2 2 0 0 0-1-1c0 2 16 7 18 8 8 4 13 8 18 16 3 8 5 19 6 28a9 9 0 0 0 4 1h21a266 266 0 0 1 29-3 94 94 0 0 1 23 2c12 3 23 13 35 14l12 1c10-2 15-9 23-15 13-10 29-9 46-7l35 3c16 1 30 7 46 4 5-1 12-3 14-8s1-13 2-18c0-8 4-16 3-22-4-20-18-37-10-58a196 196 0 0 1 9-20c4-7 6-13 7-21 5-17 22-26 32-39 0-1 0-1 0 0v2-5c-3-17-10-35-5-52 5-15 14-27 19-41v1a2 2 0 0 1 0-1v-1a3 3 0 0 0 0 1c1 1 0 0 0 0-2-13-13-23-17-36-2-10 0-18 1-28l6-41c2-14 11-27 12-41-1-11-12-24-16-36-4-9-3-17 0-26 2-9 8-16 11-25l3-12c1-15 8-27 13-40 5-14-7-33-11-46l-4-15c-2-9-9-16-13-23s-9-16-9-24c1-8 3-16 6-23s9-16 7-24v1s1 0 0 0l-1-3-8-6-14-8c-8-4-18-10-22-18-9-16-3-37-8-55l-11-31-5-16c-4-19 14-34 14-53l1 1s-1 0 0 0l-2-2 1 1c-16-8-35-8-51-18-11-6-13-23-15-34-1-8-2-16-5-23a40 40 0 0 1-2-11c0-9 3-17 6-25 2-6 8-16 6-23 0-1 0 0 0 0s1 0 0 0c-6-12-14-22-21-33l-10-17c-5-7-12-13-18-19l-17-26-17-25c-7-11-9-26-12-39 0 3 0 3 0 0m2-27c9 18 10 40 20 58 0 1 0 1 0 0 6 10 14 20 21 29 4 6 7 12 12 17l17 17a87 87 0 0 1 12 15l20 28c4 4 8 10 10 15 6 14-2 30-6 43-1 4-3 8-2 12l5 16c3 11 4 22 8 32v-1c-1 0 0 0 0 0-1 3 35 12 39 13 7 3 15 7 19 15 4 7 3 16 1 24-2 7-6 13-9 20l-5 9-2 6 1 2c0 1 0 1 0 0l13 43c5 17 2 35 6 53-1 5 18 13 22 15 9 5 20 11 24 21 6 18-8 33-11 50-3 9 4 19 9 25 4 6 8 12 10 18a56 56 0 0 1 3 10 137 137 0 0 0 7 23c5 11 10 24 7 36-3 14-12 26-13 41a1 1 0 0 1 0-1c2 18-14 33-15 50 0 1 0 1 0 0 4 17 20 29 21 47 0 10-3 20-6 30a182 182 0 0 0-5 21c-2 10 0 22-1 33v16c2 0 6 9 7 11 5 6 10 11 13 18 4 7 7 15 6 24-2 17-11 32-14 48 0 2 0 1 0 0l2 9 5 17a69 69 0 0 1 2 22 46 46 0 0 1-10 24 93 93 0 0 1-14 14l-13 11a4 4 0 0 0 0-2 14 14 0 0 1 0 2v-1a79 79 0 0 1-18 28c-5 5-11 9-14 15 0-1 0-1 0 0-7 11 0 30-1 42 0 6-3 11-4 16-3 9-3 18-5 26-4 17-28 20-43 19l-24-5-25-1-27-1c-8-1-16-1-23 5-6 5-11 12-19 17-11 6-27 6-40 2l-24-9a85 85 0 0 0-13 0c-6-1-17 1-24 3a279 279 0 0 1-28 4c-14 1-27-2-34-14-6-9-5-20-9-29l1 2c-7-1-15-5-21-7-8-4-15-10-19-18l-7-17-12-33c-5-12-13-23-18-35s-6-26-9-38c-5-22-8-43-11-65-1-10-2-19 3-28a94 94 0 0 1 10-16c3-5 9-10 11-16v1a13 13 0 0 0 0-2v1s0 1 0 0c-8-17-21-32-20-52 0-15 8-32 8-45l4-45c2-18 10-34 12-52-1-11-8-21-12-31a47 47 0 0 1-3-17c0-10 2-20 3-29 0-8 3-18 1-26-4-17-18-33-12-51 7-18 30-23 42-37a11 11 0 0 0 0-2c1-1 0-1 0 0v1l2-31 2-23c0-9-2-17-3-26a72 72 0 0 1 0-12c1-3 2-7 1-10-3-12-11-22-14-35-2-10 0-17 3-26 5-18 9-37 19-52l19-22a41 41 0 0 0 6-10l15-28 6-14v1c3-11-3-24-3-35a43 43 0 0 1 3-20c6-11 16-20 25-29 8-8 13-18 19-28l39-66c6-10 16-14 27-17 8-2 20-3 25-11v1c7-16 1-35 2-51 1-9 5-17 10-25l5 10" data-name="Path 33"/>
    <path fill="#2d6e78" d="M2460 1464s146 115 167 273c17 126-79 16-106-5-52-39-148-51-148-51Z" data-name="Path 34"/>
    <path fill="#2d6e78" d="M2292 1438s-183-32-314 58c-106 73 40 70 74 76 63 12 137 76 137 76Z" data-name="Path 35"/>
    <path fill="#2d6e78" d="M2026 2112s-75 141-113 143-20-126-20-126Z" data-name="Path 36"/>
    <path fill="#2d6e78" d="M1953 1990s-159-13-182 17 95 86 95 86Z" data-name="Path 37"/>
    <path fill="#307980" d="M2502 1211c-18-12-41-15-72-6a384 384 0 0 0-189 180c-76 180-65 377-156 474s-153 155-282 205-241 91-341 94-197 8-170 35 120 39 117 68-120 194-122 229 210-196 313-246 307-83 468-141 338-197 390-350c27-77 146-470 44-542Z" data-name="Path 38"/>
    <path fill="#2d6e78" d="M1110 227s84-166 234-218c121-42 32 74 17 105-28 58-21 155-21 155Z" data-name="Path 39"/>
    <path fill="#2d6e78" d="M1099 311s-52 179 22 319c60 113 74-32 84-65 19-61 91-127 91-127Z" data-name="Path 40"/>
    <path fill="#2d6e78" d="M1791 672s58 163 80 154 35-134 35-134Z" data-name="Path 41"/>
    <path fill="#2d6e78" d="M1816 609s153-79 163-58-65 122-65 122Z" data-name="Path 42"/>
    <path fill="#307980" d="M797 194c11-46 180-138 437-36 293 115 454 179 569 328s277 268 351 262 203-44 212-12c4 15-33 32-75 41s72 107 73 130-165-113-236-131-263-47-391-98-230-131-390-173c-117-30-303-59-419-133S785 240 797 194Z" data-name="Path 43"/>
    <path fill="#2d6e78" d="M206 938S46 1034 6 1188c-32 123 76 26 106 8 56-32 153-32 153-32Z" data-name="Path 44"/>
    <path fill="#2d6e78" d="M400 875s186 5 297 119c89 91-53 60-88 60-64-1-149 47-149 47Z" data-name="Path 45"/>
    <path fill="#2d6e78" d="M470 1640s-23 171 0 174 93-103 93-103Z" data-name="Path 46"/>
    <path fill="#2d6e78" d="M582 1596s120 18 132 44-85 47-85 47Z" data-name="Path 47"/>
    <path fill="#307980" d="M265 603c29-24 164 62 206 194 28 90 52 267 67 370s38 391 91 482 71 135 144 159 194 56 206 76-53 30-83 47-8 82-14 153-12 71-30 74-47-241-135-297-232-147-311-274-162-276-197-455-78-423 56-529Z" data-name="Path 48"/>
    <path fill="#88c0c2" d="M2312 1635c19 12 7 38 6 56-1 25 6 41-8 64-22 38-18 82-39 118-7 13-18 27-24 41-7 17-10 35-16 53-5 17-10 35-17 52a190 190 0 0 1-12 24c-2 5-8 17-14 17-8 0-3-16-2-20 2-7 6-14 10-21 7-13 7-27 10-42 3-14 10-27 12-42l5-23c1-4 5-19-2-19-4-1-9 10-11 13l-7 20-7 16c-9 19-21 35-30 53-10 21-13 37-33 52-15 11-32 24-49 33l-25 11c-5 1-26 6-20-6 4-8 18-13 25-17l16-11c6-7 11-14 19-20s18-9 25-16c14-13 21-35 32-51 10-16 24-35 27-53 2-11-7-3-10 2-4 7-5 17-11 23s-15 10-23 12c-9 2-26 4-20-10 6-13 20-20 31-27 14-10 26-21 35-36 8-16 9-34 17-51 7-15 21-31 24-48 18-14 33-53 44-74 11-22 14-48 29-68 4-5 8-6 13-5Z" data-name="Path 49"/>
    <path fill="#848f91" d="M2303 1638c-42 37-118 205-88 208s52-11 61-43 44-181 27-165Z" data-name="Path 50"/>
    <path fill="#88c0c2" d="m1448 420 25 9c24 10 48 23 72 35 14 7 29 13 43 21s26 19 40 28c20 13 39 24 57 40l49 41c8 7 17 15 27 21 7 4 22 7 17-7-4-11-21-16-30-24l-28-28c-15-15-13-23 8-13 10 4 16 13 25 17 11 5 25 2 15-12-5-8-14-10-22-14l-26-14c-19-8-40-13-59-22-20-9-37-22-56-32-4-3-32-15-29-22 3-10 32 2 38 4 7 2 13 5 20 3 7-1 14-8 6-13-14-7-29-9-43-15l-68-27c-23-8-44-22-67-27-35-9-49-17-89-16-28 1-13 22 1 32 23 15 48 25 74 35Z" data-name="Path 51"/>
    <path fill="#88c0c2" d="m447 1253 8 29c2 16 4 32 9 47s11 30 14 46c4 20 6 40 16 59l28 49c8 16 14 34 25 49 8 12 25 21 29 35 3 7-1 12-9 10-10-2-14-13-19-20-9-10-15-24-22-35l-13-20c-13-15-10 6-15 11-11 9-32-37-35-44l-10-23c-4-8-10-11-10 1l3 18 4 29c1 7 8 23-2 25-23 7-27-51-26-63 1-23 2-35-2-58-3-22-3-42-7-63l-19-77c-4-17-10-48-3-64 8-19 20-1 31 10 15 16 20 25 25 49Z" data-name="Path 52"/>
    <path fill="#848f91" d="M1360 359c-3-29 182 25 207 47s-22 3-42 27c0 0-162-44-165-74Z" data-name="Path 53"/>
    <path fill="#848f91" d="M400 1195c-15-5 0 86 25 146s59 120 49 69l-14-72c-11-54-34-136-60-143Z" data-name="Path 54"/>
    <path fill="#88c0c2" d="M1995 2028a9 9 0 0 0-4-1c-9 2-16 9-24 13-12 5-26 9-39 10-14 1-35 3-42 16-8 14 23 11 29 11 14-1 29-2 42-6 10-3 21-7 29-13 4-3 8-7 10-12a31 31 0 0 0 2-7c0-5 1-10-3-11Z" data-name="Path 55"/>
    <path fill="#88c0c2" d="M2128 2102c-3 2-6 7-10 8-6 11-23 14-34 18-10 2-33 10-39 19-7 12 4 16 14 16 27 1 69-18 79-45 2-5 2-13-4-16a7 7 0 0 0-6 0Z" data-name="Path 56"/>
    <path fill="#88c0c2" d="M612 1625c0 6 6 16 12 22 16 19 29 40 51 54 19 12 23-14 11-25-7-7-17-8-25-14-13-11 2-11-1-23-3-10-25-17-34-18-9-2-13 0-14 4Z" data-name="Path 57"/>
    <path fill="#88c0c2" d="M506 1569c-8 2-8 10-5 17 7 17 23 25 35 36 13 11 22 26 36 35 5 3 16 8 20 2 6-8-11-20-15-25l-23-25c-7-8-11-17-19-24-7-6-17-18-28-17a13 13 0 0 0-1 1Z" data-name="Path 58"/>
    <path fill="#88c0c2" d="M1687 455c11-4 24 2 34 5 10 4 25 7 33 15 3 3 4 8 0 10-5 3-11-1-15-3-11-5-25-4-36-10-6-2-13-5-17-10-2-4-1-6 1-7Z" data-name="Path 59"/>
    <path fill="#88c0c2" d="M1493 453a43 43 0 0 1 7 2c10 2 18 9 27 14l24 15c9 6 19 11 27 18 4 2 21 18 16 22-4 2-20-10-23-12-8-6-19-16-29-20-7-2-8 3-14 3-7 1-11-10-14-14-6-10-17-13-24-22-4-5-1-6 3-6Z" data-name="Path 60"/>
    <path fill="#f2a552" d="M1362 673c-411 663-157 1217-157 1217h315s254-554-158-1217" data-name="Path 61"/>
    <path fill="#a0928e" d="M1386 766c-5-9-14-14-24-14s-18 5-23 14a1396 1396 0 0 0-185 754c9 194 59 316 61 321 4 11 14 18 25 18h245c11 0 21-7 25-18 2-5 52-127 61-321 9-178-16-453-185-754" data-name="Path 62"/>
    <path fill="#3a201a" d="M1380 894c-4-8-11-13-18-13s-13 5-17 13a1404 1404 0 0 0-136 658c7 169 43 275 45 280 3 9 10 15 18 15h181c8 0 15-6 18-15 2-5 38-111 45-280 7-156-12-396-136-658" data-name="Path 63"/>
    <path fill="#a0928e" d="M1479 987h-233l55-132h123Z" data-name="Path 64"/>
    <path fill="#d6954e" d="M1500 1081a320 320 0 0 0-12-38h-251a321 321 0 0 0-12 38c-5 17-9 39-9 39h293l-9-39Z" data-name="Path 65"/>
    <path fill="#d6954e" d="m1549 1400-2-41h-369l-3 41-1 36h377l-2-36" data-name="Path 66"/>
    <path fill="#d6954e" d="M1223 1839c5 10 14 16 24 16h231c10 0 19-6 24-16 1-3 15-38 29-98h-337c14 60 28 95 29 98" data-name="Path 67"/>
    <path fill="#dda880" d="M1515 1428s-5 14-3 16 12 2 12 2l-3-15Z" data-name="Path 68"/>
    <path fill="#63300d" d="m2088 1159-13-23a15 15 0 0 0-20-6l-121 64c-7 3-17 12-22 18l-13 17a35 35 0 0 0-5 9l-400 211a7 7 0 1 0 7 13l400-211a35 35 0 0 0 10 1l21-1c8 0 21-4 28-8l121-64a15 15 0 0 0 7-20Z" data-name="Path 69"/>
    <path fill="#dda880" d="M1549 1401s19 34 2 48c-12 10-32 18-38-30 8-13-8-56 36-18Z" data-name="Path 70"/>
    <path fill="#bd2f47" d="M1440 1246s55 46 80 85c13 21 25 52 32 70 15 40-20 42-36 32-10-6-1-24-32-71-11-17-38-37-61-49-32-15-28-85 17-67" data-name="Path 71"/>
    <path fill="#d63550" d="M1553 1403s5 3 5 17c0 19-30 26-42 15-4-2-7-6-6-15 0 0 4 14 24 9 21-6 21-16 19-26Z" data-name="Path 72"/>
    <path fill="#824e31" d="M1291 1495s-9 15 0 23 28 0 30-11 4-28 0-32l-21-16-9 36" data-name="Path 73"/>
    <path fill="#824e31" d="M1439 1495s10 15 0 23-27 0-30-11-3-28 0-32 22-16 22-16l8 36" data-name="Path 74"/>
    <path fill="#dda880" d="M1215 1428s6 14 3 16c-2 2-11 2-11 2l2-15Z" data-name="Path 75"/>
    <path fill="#445373" d="m1431 1342-64 23h-3l-64-23s-46 75-48 125 51 54 60 30c6-16 18-47 30-69 8-16 14-16 23-16s16 0 24 16c12 22 24 53 30 69 9 24 61 19 59-30s-47-125-47-125" data-name="Path 76"/>
    <path fill="#36425c" d="M1297 1353c-3 7-6 10-2 20 3 6 12 7 22 12a118 118 0 0 0 36 10c7 0 8 2 8 2l2-2a8 8 0 0 0 1-3 11 11 0 0 0 2 4l2 3s1-2 8-3c12-1 34-6 44-10 15-5 18-15 15-22a25 25 0 0 1-2-7c-13 23-31 25-57 25h-22c-26 0-44-2-57-29" data-name="Path 77"/>
    <path fill="#683e27" d="M1419 1497a18 18 0 0 0 2 4 19 19 0 0 1-2-4" data-name="Path 78"/>
    <path fill="#683e27" d="M1312 1497a18 18 0 0 1-2 3 18 18 0 0 0 2-3" data-name="Path 79"/>
    <path fill="#36425c" d="M1365 1402c-11 0-19 0-29 18-15 25-24 60-32 79-2 5-9 11-19 12h3c10 0 18-4 22-11a18 18 0 0 0 2-3c6-16 18-47 30-69 8-16 14-16 23-16s16 0 24 16c12 22 24 53 30 69a19 19 0 0 0 2 4c4 6 13 10 21 10h4c-10-2-17-7-19-12-8-18-17-54-32-79-10-18-18-18-30-18" data-name="Path 80"/>
    <path fill="#bd2f47" d="M1452 1285c-14 101-39 97-87 97-47 0-71 4-86-97-14-88 11-141 86-141 87-1 99 52 87 141" data-name="Path 81"/>
    <path fill="#bd2f47" d="M1365 1358s2 23-2 29 1 1-12 0a130 130 0 0 1-41-12c-11-5-21-6-23-15-3-16 2-15 0-34-1-8 78 32 78 32Z" data-name="Path 82"/>
    <path fill="#bd2f47" d="M1363 1360s-1 23 3 29-1 1 12 0c12-2 38-8 49-12 17-6 18-17 14-25-4-9 5-24 5-31s-83 39-83 39Z" data-name="Path 83"/>
    <path fill="#e63956" d="m1370 1382-2 2-2-2 2-1 2 1Z" data-name="Path 84"/>
    <path fill="#e63956" d="m1371 1372-2 1-2-1 2-2 2 2Z" data-name="Path 85"/>
    <path fill="#e63956" d="m1371 1359-2 1-2-1 2-2 2 2Z" data-name="Path 86"/>
    <path fill="#63300d" d="m1236 1449-400-211a35 35 0 0 0-5-9l-12-17c-5-6-15-15-23-18l-121-64a15 15 0 0 0-20 6l-12 23a15 15 0 0 0 6 20l121 64c7 4 20 8 28 8l21 1a35 35 0 0 0 11-1l399 211a7 7 0 1 0 7-13Z" data-name="Path 87"/>
    <path fill="#dda880" d="M1182 1401s-19 34-3 48c12 10 33 18 39-30-8-13 7-56-36-18Z" data-name="Path 88"/>
    <path fill="#bd2f47" d="M1291 1246s-55 46-80 85c-14 21-26 52-33 70-15 40 21 42 36 32 10-6 1-24 32-71 11-17 38-37 62-49 31-15 28-85-17-67" data-name="Path 89"/>
    <path fill="#ddd" d="M1336 1329s29 18 31 40c0 0 2-24 23-38Z" data-name="Path 90"/>
    <path fill="#d63550" d="M1319 1311s-6 17-2 24c0 0 20 3 29 8l2 9s18-6 18 28c0 0 13-56-47-69Z" data-name="Path 91"/>
    <path fill="#d63550" d="M1414 1309s3 17-1 24c0 0-19 3-27 8l-2 10s-17-5-18 29c0 0-12-59 48-71Z" data-name="Path 92"/>
    <path fill="#2e1a15" d="M1291 1177c-19 9-31 23-27 41 2 8 5 14 11 21 1-26 6-47 16-62m148-7c12 16 17 38 17 65l8-17c11-26-2-40-25-48" data-name="Path 93"/>
    <path fill="#972639" d="M1367 1163c-28 0-56 4-76 14-10 15-15 36-16 62l11 11 5-4a37 37 0 0 1 13-3c23 0 29 29 21 50 11 11 22 16 46 16 38 0 45-30 70-57l15-17c0-27-5-49-17-65-20-6-46-7-72-7" data-name="Path 94"/>
    <path fill="#972639" d="M1304 1243a37 37 0 0 0-13 3s-2 1-5 4l1 1c19 19 28 33 38 42 8-21 2-50-21-50" data-name="Path 95"/>
    <path fill="#dda880" d="M1419 1285c0 28-24 50-54 50s-53-22-53-50c0-27 24-49 53-49s54 22 54 49Z" data-name="Path 96"/>
    <path fill="#824e31" d="M1485 1235c0 46-54 84-120 84-65 0-119-38-119-84s54-84 119-84c66 0 120 38 120 84Z" data-name="Path 97"/>
    <path fill="#995c3a" d="M1446 1219c0 31-36 56-80 56-45 0-81-25-81-56s-16-79 81-79c92 0 80 48 80 79Z" data-name="Path 98"/>
    <path fill="#ab6741" d="M1431 1177c0 17-29 30-66 30-36 0-65-13-65-30s29-31 65-31c37 0 66 14 66 31Z" data-name="Path 99"/>
    <path fill="#d63550" d="M1178 1403s-6 3-6 17c1 19 30 26 43 15 3-2 6-6 6-15 0 0-5 14-25 9-20-6-21-16-18-26Z" data-name="Path 100"/>
    <path fill="#46c6c4" d="M1422 1245c-3-23 2-47 10-48s6 12 1 19c0 0 5 7-3 16s-8 13-8 13Z" data-name="Path 101"/>
    <path fill="#c0c646" d="M1422 1249c-10-20-15-44-7-48s10 9 8 18c0 0 6 5 2 16-4 12-3 14-3 14Z" data-name="Path 102"/>
    <path fill="#d4c498" d="M1446 1201c0 31-36 56-80 56-45 0-81-25-81-56v-16 34c0 31 36 56 81 56 44 0 80-25 80-56v-28 10Z" data-name="Path 103"/>
    <path fill="#48848a" d="m2012 1216 69-37a15 15 0 0 0 7-20l-13-23a15 15 0 0 0-20-6l-98 51s74 0 55 35Z" data-name="Path 104"/>
    <path fill="#48848a" d="m758 1173-83-43a15 15 0 0 0-20 6l-12 23a15 15 0 0 0 6 20l56 30c-19-35 53-36 53-36Z" data-name="Path 105"/>
    <path fill="#88c0c2" d="M702 1135c-20 10-32 28-35 50-3 25 10 43 14 66 5 22 1 45 7 67 1 8 5 20 13 24 7 3 15 1 21 4 7 5 10 18 13 26l16 47c9 26 16 55 34 76 25 28 26-2 19-23-4-9-10-19-12-29-2-11 2-21 0-32-1-10-6-18-10-27-6-15-10-30-15-46-3-12-10-23-19-32-9-8-16-12-16-25 1-14-3-27-9-38-4-8-17-19-18-27-2-9-10-15-12-25-3-11-2-27 7-36 10-9 26-5 35-14 20-19-25-9-33-6Z" data-name="Path 106"/>
    <path fill="#88c0c2" d="M836 1492c7 15 12 31 17 46 6 16 8 32 18 45 7 10 14 20 24 27 8 6 25 11 22-6-2-10-13-19-18-27-5-9-11-18-13-28-3-15 0-34-11-48l-16-17c-11-12-15-29-26-40-4-4-14-10-20-7-9 5 2 13 5 18a275 275 0 0 1 18 37Z" data-name="Path 107"/>
    <path fill="#88c0c2" d="M1973 1138c-29 16 39 23 44 29 14 19 13 34 1 53-10 17-18 36-29 53-8 14-25 26-30 42-3 10 4 17 5 27 3 20-13 31-21 47-9 14-25 24-32 40-6 14-9 25-20 35-13 12-26 18-37 32l-24 33c-9 10-21 20-20 35 20-1 44-26 48-44 2-10 28-22 37-27 12-8 24-16 34-27 9-10 15-24 27-32 11-7 18-4 22-18 5-15 15-27 19-42 6-17-1-34 9-50 8-11 12-25 19-37 8-14 21-25 27-41 6-17 4-38 2-55-3-32-40-63-72-56a31 31 0 0 0-9 3Z" data-name="Path 108"/>
    <path fill="#88c0c2" d="M1901 1513c-11-4-20 21-24 28-3 7-5 15-12 19-3 8-17 15-25 19-14 9-25 18-34 31-9 12-18 26-33 29-2 3-10 10-9 14 2 6 11 6 16 5 18-5 28-22 46-27 15-4 12-20 21-29 11-14 30-15 42-27 11-10 19-26 22-40 2-9-3-20-10-22Z" data-name="Path 109"/>
    <path fill="#867a77" d="M1221 1731a43 43 0 0 1 8 10 44 44 0 0 0-8-10" data-name="Path 110"/>
    <path fill="#b17d44" d="M1229 1741" data-name="Path 111"/>
    <path fill="#c88947" d="M1203 1808v3a62 62 0 0 0 9 32c8 14 21 25 38 30a80 80 0 0 0 13 4 70 70 0 0 1-19-18h-4c-11 0-21-7-25-18-1-1-6-13-12-33" data-name="Path 112"/>
    <path fill="#867a77" d="M1207 1790a61 61 0 0 0-4 18c6 20 11 32 12 33 4 11 14 18 25 18h4l-3-4c-8-2-14-8-18-16l-16-49" data-name="Path 113"/>
    <path fill="#b17d44" d="M1276 1744h-1a79 79 0 0 0-27 6c-19 7-34 22-41 40l16 49c4 8 10 14 18 16a62 62 0 0 1-9-33c0-37 33-66 73-66a81 81 0 0 1 13 1 77 77 0 0 0-32-12 81 81 0 0 0-10-1" data-name="Path 114"/>
    <path fill="#c88947" d="M1173 1788a65 65 0 0 1 25 5 65 65 0 0 0-25-5m0 0" data-name="Path 115"/>
    <path fill="#867a77" d="m1198 1793 3 1-3-1" data-name="Path 116"/>
    <path fill="#b17d44" d="M1378 1832a46 46 0 0 1 11 6 46 46 0 0 0-11-6" data-name="Path 117"/>
    <path fill="#c88947" d="M1196 1840a48 48 0 0 1 15 3 48 48 0 0 0-15-3m0 0" data-name="Path 118"/>
    <path fill="#eaeaea" d="M1343 1784a61 61 0 0 1 2 49c40-14 60 21 61 23a114 114 0 0 0-6-98c-2-1-29-12-57 26" data-name="Path 119"/>
    <path fill="#eaeaea" d="M1235 1756a78 78 0 0 1 41-12 81 81 0 0 1 10 1s-1-42 34-50a150 150 0 0 0-44-7c-35 0-66 12-91 31 2 0 40-2 50 37" data-name="Path 120"/>
    <path fill="#eaeaea" d="M1212 1843a62 62 0 0 1-9-32 61 61 0 0 1 2-15s-26-18-65-1a112 112 0 0 0 10 70c1-1 26-34 62-22" data-name="Path 121"/>
    <path fill="#eaeaea" d="M1307 1872a79 79 0 0 1-57 1s-16 6-31 55a149 149 0 0 0 57 11 147 147 0 0 0 76-20c-9-47-45-47-45-47" data-name="Path 122"/>
    <path fill="#ed6013" d="M1286 1745c25 3 47 18 57 39 28-38 55-27 57-26-17-30-45-53-80-63-35 8-34 50-34 50" data-name="Path 123"/>
    <path fill="#ed6013" d="M1250 1873c-17-5-30-16-38-30h-1c-35-12-60 21-61 22 14 28 39 50 69 63 15-49 31-55 31-55" data-name="Path 124"/>
    <path fill="#ed6013" d="M1406 1856c-1-2-21-37-61-23-6 17-20 31-38 39s36 0 45 47c24-15 43-37 54-63" data-name="Path 125"/>
    <path fill="#ed6013" d="M1205 1796c4-17 15-31 30-40-10-39-48-37-50-37-24 19-40 46-45 76 39-17 65 1 65 1" data-name="Path 126"/>
    <path fill="#7c572f" d="M1229 1741a53 53 0 0 1 6 14 53 53 0 0 0-6-14" data-name="Path 127"/>
    <path fill="#5e5553" d="M1207 1790a62 62 0 0 0-2 6 31 31 0 0 0-4-2 31 31 0 0 1 4 2 62 62 0 0 0-2 12 61 61 0 0 1 4-18" data-name="Path 128"/>
    <path fill="#7c572f" d="M1248 1750a76 76 0 0 0-13 6 68 68 0 0 0-28 34c7-18 22-33 41-40" data-name="Path 129"/>
    <path fill="#a3a3a3" d="M1274 1727a78 78 0 0 0-45 14 53 53 0 0 1 6 14v1a76 76 0 0 1 13-6 79 79 0 0 1 27-6h1a81 81 0 0 1 10 1v-1a68 68 0 0 1 2-16 81 81 0 0 0-14-1" data-name="Path 130"/>
    <path fill="#a3a3a3" d="M1201 1794a61 61 0 0 0 2 14 62 62 0 0 1 2-12 31 31 0 0 0-4-2" data-name="Path 131"/>
    <path fill="#956836" d="m1346 1791 2 6-2-6m-3-7" data-name="Path 132"/>
    <path fill="#a3a3a3" d="m1346 1780-3 4a63 63 0 0 1 3 7l2 6v-3a61 61 0 0 0-2-14" data-name="Path 133"/>
    <path fill="#a5430d" d="M1288 1728a68 68 0 0 0-2 16v1c25 3 47 18 57 39l3-4c-6-27-29-47-58-52" data-name="Path 134"/>
    <path fill="#a5430d" d="M1229 1741a65 65 0 0 0-28 53 31 31 0 0 1 4 2 62 62 0 0 1 2-6 68 68 0 0 1 28-34v-1a53 53 0 0 0-6-14" data-name="Path 135"/>
    <path fill="#367779" d="M1142 1842c8 33 31 61 61 78-23-13-42-32-53-55a119 119 0 0 1-8-23" data-name="Path 136"/>
    <path fill="#326e75" d="m1222 1919-3 9a143 143 0 0 1-16-8 147 147 0 0 0 73 19 152 152 0 0 0 21-1 151 151 0 0 1-21 1 149 149 0 0 1-57-11l3-9" data-name="Path 137"/>
    <path fill="#2b636e" d="M1344 1923a146 146 0 0 1-47 15 146 146 0 0 0 47-15m42-33h-1a131 131 0 0 1-15 16 131 131 0 0 0 16-16" data-name="Path 138"/>
    <path fill="#679092" d="M1370 1906a136 136 0 0 1-18 13 84 84 0 0 0-3-12 84 84 0 0 1 3 12l-8 4a139 139 0 0 0 26-17" data-name="Path 139"/>
    <path fill="#a97339" d="M1405 1859a123 123 0 0 1-20 31h1a123 123 0 0 0 19-31" data-name="Path 140"/>
    <path fill="#706663" d="m1405 1855 1 1-1-1m1 0v1l-1 3 1-4" data-name="Path 141"/>
    <path fill="#956836" d="M1400 1848a58 58 0 0 1 5 7 57 57 0 0 0-5-7m14-34a115 115 0 0 1-8 41 115 115 0 0 0 8-41m0 0" data-name="Path 142"/>
    <path fill="#a3a3a3" d="M1412 1795v1a116 116 0 0 1-12 52 57 57 0 0 1 5 7l1 1v-1a115 115 0 0 0 8-41 115 115 0 0 0-2-19" data-name="Path 143"/>
    <path fill="#a3a3a3" d="M1138 1815a115 115 0 0 0 4 27 119 119 0 0 0 8 23 59 59 0 0 1 5-6 118 118 0 0 1-17-44" data-name="Path 144"/>
    <path fill="#a3a3a3" d="M1347 1903a147 147 0 0 1-73 19 149 149 0 0 1-50-9l-2 6-3 9a149 149 0 0 0 57 11 151 151 0 0 0 21-1 146 146 0 0 0 47-15l8-4a84 84 0 0 0-3-12l-2-4" data-name="Path 145"/>
    <path fill="#a5430d" d="M1155 1859a59 59 0 0 0-5 6c11 23 30 42 53 55a143 143 0 0 0 16 8l3-9 2-6c-29-10-53-30-69-54" data-name="Path 146"/>
    <path fill="#a5430d" d="M1400 1848c-11 23-30 42-53 55l2 4a84 84 0 0 1 3 12 136 136 0 0 0 18-13 131 131 0 0 0 15-16 123 123 0 0 0 20-31l1-3-1-1a58 58 0 0 0-5-7" data-name="Path 147"/>
  </g>
</svg>