<svg xmlns="http://www.w3.org/2000/svg" viewBox="0 0 926 600">
  <g fill="#a4937a" data-name="Group 56">
    <path d="m8 116-2 4 2-6-1-4 1-5c1 3 0 7-1 11Zm-5 32 1-2v2Zm60-59ZM3 149Zm186-55-2 1c1-1-5-2 2-1ZM4 148l-1 1Zm279 372Zm91-277Zm-64 277Z" data-name="Path 237"/>
    <path d="M1 210c-1 0 0-4-1-3 1-5 1 1 1 0 1-7-1-17 1-27l3-17v-3l-1 3 1-12-1-2 1-7-1 4 2-12c-1-2-1 2-2 3l3-13v2l-1 1v3c1 4-1 12-1 18l1-2q1.6-23 4-46H9l-1 2-1 2 1-4v-2l1-3 3-2 2-1h10l3-1h6c1 0-3 0 2-1 3 0-3 1 2 1l6-1h9l11-1 9 1c-6-2 11 0 10-2l22 2-2-1h9l10 2c5-1-3-1-1-2-1 1 8 1 7 2l5-1 7 1h8c3-1-3-1-3-1 6 0 3 1 4 1h6l12 2v-1c5 1 15 1 21 3l-1 1 7 1-3-1h3l-4-1 17 2c1 0-11-1-5-1h-6c5-1-5-1 0-2l19 2c2 1-1 1 2 1 12 2 10-1 19 1 2 1 3 2 10 2l-2-1c8 0 4 2 14 2l-6-1c6-1 4 1 9 1l1-1 29 3s-2 0 1-1c12 2 27 2 40 1l2 1h3c5 0 0 0 3 1 3 0 4 0 2-1l4 1 4 3 4 4 2 5 1 9 2 8v5l1 7v-1l7 43c0 3 3 15 2 16l4 18v10h1v5l1 3v4l-1-3 3 14 2 14v-3l1 7-1 1 2 10h1v5a82 82 0 0 0 2 17h1v1l-1 3 2 11-2-2 1 3 1 1c0 2-1-3-1 1 2 4 2 3 2 0v3l1 2v-1l3 5 3 5 8 12q3.4 4.6 7 9l4 6 16 17c4 4 1 2 2 4 1 0 7 6 4 2 7 8 9 10 16 21l-1-2 3 4v-1c8 12 22 25 28 35h-1l4 4 3 5c3 5-2-3 1 1l17 25c4 3 8 9 12 16l3 5v1l1 2 1 4a9 9 0 0 1-4 6l-1 1-4 2v-1l-5 3 1-1a119.3 119.3 0 0 1-37 6h-38c-9 0-5-3-17-2l4 1c-19-2-38-1-56-2h3c-3 1-14 0-14-1l-2 1h-11c-3 0-10 0-8-1h-18l-13-1h-16c2 1-3 1-2 1-5 0-9 0-8-1-9 2-18-1-23 1l-41-1c1 1 15 0 14 1l-32-1 3 1-9-1-8 1h-17l-4-1-5-1c1 1-1 1-4 1-2 0-5-1-2 1l-2-1h-2l-2-1h-2a17 17 0 0 1-2-2l-1-1-4-2 2 2-9-11v1l-7-11-9-11c1 3-3-3-4-3l-3-5 2 2-9-12 2 3-5-8 3 5c-3-5 2-1-3-6l-5-6-5-8-1 1-9-13v2l-1-3-2-1c-4-6 3 1-3-5l1 1-15-20c-2-1 4 6 2 5l-21-29 1 2c0-2-5-6-8-11v1a112 112 0 0 1-13-23v1a66 66 0 0 1-7-16v-2l-3-22-1-20v-9l1 4v-8c0 5-1 0-1-2-1-6 2-1 1-9v-9c-1-1 0 3-1 4l1-14-1 7v-8l-1-8v2c2-5 1-11 2-19-1 7 0 1-1 2l-1-4Zm2-25v1l1-5Zm2-33v1l1-6Zm282-49Zm10 1ZM3 309v-4l-1 4Z" data-name="Path 238"/>
    <path d="M159 520Zm-35-15ZM7 127Zm333 394Zm37-255Zm-4-35h-1v-1ZM1 278l-1-1Zm-1-30Zm0-22Zm164 294Zm-78-67 2 2Zm197 67ZM88 455l3 4ZM5 127Zm0-2Zm1-2-1 2Zm-3 35Zm-1 9v-9h1Zm53 247-1-2 3 4Z" data-name="Path 239"/>
  </g>
  <g fill="#d4d4ea" data-name="Group 57">
    <path d="m29 137 1 6h1c-1 2-1 4-2 3l1-4-1-2Zm3 25Zm27-37Zm-27 38Zm103-35ZM32 162Zm193 163Zm90-194 1 1Zm-74 194ZM31 149Zm9 160Zm289-172-1-1Z" data-name="Path 240"/>
    <path d="m27 128 2-2 2-1h1l1-1a6 6 0 0 1 1 0h-3a10 10 0 0 0-1 1l-1 1 4-2h2a3 3 0 0 1 2 0l4 1c1 0-2-1 1-1 2 1-2 1 1 1h4l-1-1 6 1h7l5 1c-3-2 7 0 6-1l14 1h4l6 2c3-1-2-2-1-2l4 1 3-1c1 2 3 0 5 1h4c2-1-1-1-1-1 3 0 1 1 2 1 5 1 2 0 4-1l7 2v-1l12 1h1l-1 1h4c2-1-2 0-2-1l10 1c1-1-6 0-2-1h-5c4-1-2 1 1-1h11l1 1c8 1 6-2 12-1 1 1 2 2 6 1l-1-1c5 0 3 2 8 1h2v-1h18l25-2h6l20-1h-1l9 1h26l5 1 5 1 11 1 6 2v-1l3 2 2-1 1 1h-1a23.1 23.1 0 0 0 9 2l2 1h1v1h1l2 1 2 4v-2l-1-1 1 2h1v1l1 1v1l-1 1 2 10 1-1 3 20c-1-2-1-2-1 1h1c0 2-1-2-1 1 1 3 1 2 1 0l1 3v-1c0 2 2 6 1 8h1l2 16-1 4c1 4 3 9 3 14v3s1 5 1 2l2 16c0-1 0-2-1-1l1 2c1 9 5 20 5 27v7c1 3 1-3 1 0l2 18c3 5 3 18 5 24h-1l1 2v1h-1v4a9 9 0 0 1-8 5h-36c-6 0-3-3-10-2l2 1c-11-2-23-1-34-2h-19l-11-1h-18c1 0-2 0-1 1l-5-1c-5 1-11-2-14 0l-24-1 8 1-19-1 2 1-21-1h-1c3-1-5-1-5-2 2 2-7 1-3 3l-2-1v1l-7-1 1 1-8-1h-16c2 1-3 0-3 1h-2l-9-1 2 1h-6l4-1-4-1-5 1h-6l1 1-10-1 1 1h-6c-5 1-10 0-15-1l1 1c1 0 2 0 1 1l-1-1h-2l-1-1-1-1c-2 0-4-2-5-3l-4-11v-7l-1 1 1-17v-9c0-1 0-3 1-2-2-9 1-17-1-25v-5l1 2v-5c0 4-1 0-1-1-1-4 1-1 1-5h-1l1-6-1 2v-4l-1-5v1l-1-5v1c2-3 0-7 1-12-1 5-1 1-1 2l-1-3-1-7v-1c1-5-2-10-1-17v-12l-1 2-1-7-1-1v-2l-1-8v-4l-1 1c0 2 1 3 2 3l-1-2c2 2 1 8 2 11l1-1-5-28-1 1v1l-1 1Zm170 0Zm4 0h1l2-1ZM41 259h1v-2Zm-5-75 1 1-1-3Zm-2-19Zm295-28Z" data-name="Path 241"/>
    <path d="m259 325 1 1Zm-133-1Zm182-195ZM40 240Zm-1-17-1-3Zm-2-14Zm115 115Zm-65 0Zm137 1Zm-132-1ZM30 150Zm0 0Zm0-3Zm3 27-1-5 1-1Zm26 151Z" data-name="Path 242"/>
  </g>
  <g fill="#beb09d" data-name="Group 58">
    <path d="M74 362h1l-1-1h-2v-1h2l4-1h6l1-1 4 1s-2 0 1-1c2 1-2 1 1 2l3-1-1-1 6 1 6-1 5 1c-3-2 6-1 6-2l12 1-1-1 4-1c1 2 4 2 6 2 3-1-2-1-1-2 0 1 5 1 4 2l3-2c0 2 2 0 4 1l4-1h-1c3-1 1 0 2 1 4 0 2-1 3-1l7 1v-1l11 1v1h3l-1-1 2 1c1-1-3-1-3-1h10c0-1-6 0-3-1l-4 1c3-2-2 0 1-2h10l1 1c7 1 5-2 10-1 2 1 2 2 6 1l-1-1c5 0 2 2 7 1l-3-1 5 1 1-1 16 1v-1l22-1 3 1v-1c3 0 0 1 2 1 1 0 2 0 1-1 5 1 13 2 18 1h7l24-1 9 1 10-1 5 1v-1l3 1 1-1h2l-1 1 8-1 8 1-2-1h4v1l10-1h1l3 1 3 2 1 1 2 2 2 2 3 4c-1-2-2-1 0 1h1c0 1-2-2-1 1 2 1 2 0 2-1l2 1v-1c0 2 4 3 4 5h1l9 11 2 4 4 4 5 5 1 3c0-1 3 3 2 1l8 12-1-1 2 2c4 7 12 13 15 19l3 6c2 2-1-2 1 0l9 14 6 9 3 5 1 3h1v2l1 2v2l-1 2v-1c-1 2-3 5-5 5l-4 1h-13l-20 1c-5 1-3-2-9-1l2 1h-31l2 1-8-1c-2 0 0 1-1 1h-27l-9 1h-6c-5 1-10-1-13 1h-22c0 1 8-1 8 1l-18-1 2 1h-19c1-1-5-1-5-2 2 2-6 1-3 3l-2-1v1l-6-1 1 1-7-1v1l-15-1c2 1-2 1-3 2h-3l1-1h-8c-3-1 1-1-3-1l-5 1h-5l1 1-9-1 1 1-2-1-1 1c-4 0 1-1-3-1l1 1h-14c-1 1 4 0 2 1h-10l-9-3h1l-3-2-4-3 1 1-5-5-4-8v1l-5-7v-2c-6-5-8-13-13-18v1l-3-5 2 1-2-4c1 3-1 1-2 0-2-2 1-2-2-5v1l-3-5v2l-3-6 2 3-4-3v1l-3-4v1c0-4-3-5-5-9 2 4 0 1 0 2l-2-2c-1-2-3-2-4-5l-1-1c-2-4-6-6-9-12l-5-8-1-1v2l-4-5h-1c-2-2 0-2-2-3v2l-4-6 1 2-4-6 1 1v1l2 2-1-2 7 8v-2l-9-9c-4-4-1-9 3-9Zm156-7Zm4 0 1 1 2-1Zm-99 96v-1l-1-1Zm-42-54h1l-2-2Zm-12-14h1l-2-2Z" data-name="Path 243"/>
    <path d="M69 366v-2l1-1 1-1-2 6v2l-1 1v-2Zm10 17-1-1Zm26-26Zm-26 26 1 1Zm96-28-1 1c0-1-3-1 1-1Zm-96 27Zm256 103Zm3-132 1 1Zm11 132 2-1Zm-103 3Zm120-4Zm-16-131Zm0 0ZM72 373Zm259-20Zm-207 84Zm-10-13-1-1Zm-7-9Zm162 72Zm-59 1Zm124-3Zm-119 3ZM71 374Zm-1-1 1 1Zm-1-1 1 1Zm13 14Zm4 4-4-3Zm97 100Z" data-name="Path 244"/>
  </g>
  <g fill="#a4937a" data-name="Group 59">
    <path d="M168 432Zm19 3Zm-19-3Zm3-25Zm2 0Zm32 26Zm-42-8Zm1 1Zm-4-18Zm-9 0Zm0 0Zm18 26Zm0 0Zm-1-3Zm-15-20Zm-68-3 3 6 3 1-3-1h-1l-1-2Zm45 3Zm-13-28Zm14 28Zm38-34 2 2c-1-1 3 5-2-2Zm-39 34Zm236 34h1v1l1 1 1 4Zm-52-44Zm69 43h5Zm-64 1Zm84 17 1 1Zm-233-92Zm107 76Z" data-name="Path 245"/>
    <path d="m116 437 1-1h12l4-1c5 0-2 1-1 1h11l7-1h5l-2-3-10-16-2-3 2 3-5-6v-1l-2 1h-3l-2 1h-4l-13 2 4-1-15 2h4l6-2-3 1 20-3h-2l-36 5c-6 1-9-9-3-10h1l-1-1-3 2 1-1a14 14 0 0 1 2-1l8-2 7-1h3l-7 1 9-1 3-1h7c1-1-3 0 2-1h2l3-1h3l-1-1a56 56 0 0 1-3-5c-2-3-7-10-8-9a84 84 0 0 0-8-12l-3-4v-1l-1-1-1-1v-4l1-2a8 8 0 0 1 8-2l4 2 1 1 1 2 4 5-2-1 6 7 6 10c4 4-2-3 0-2l4 7 4 5 1 2 1 1v1h2l8-1c3-1-3-1-3-1 7 0 4 1 5 1 9-1 4-1 7-2l13-1h4l-1-1-1-2-6-10-1-2v-1l-1-1v-2l1 4-1-1v-5l5-4h2l3 2v1h1l1 2v-1l-2-3-2-1h-1l2 1-1-1h-4l-2 2h-1l1-1-1 1-1 1 1-1a5.3 5.3 0 0 1 7-2h2l1 2 1 1v1l6 9v1l4 7 1 2h10l11-1h17l1-1 34-1h51c6 0 1 0 3 1 3 0 4 0 2-1l38 2h-2l17 1h16l2 1a6 6 0 0 1 4 2l1 3-1 4-2 3h-18l-18-1h-21l-10-1h-10l-11-1-6 1-15-1 5 1h-10v-1l-20 1h2l-38 1c4 0 3-1-1-1l-1 1c-3 0 4-1-1-1-5 1-4 1-1 1h-6l2 1h-7l-4 1h-3l2 2 3 6 8 12 4 7 2 2 1 1h7l14-1c7 0 2 1 5 1l5-1h32l50-2h11c-1-2-1 0-1 0v-2l-1-1a7 7 0 0 1 9-9l3 3v1h1v1l1 2 1 3 1 2h5q4.5-.7 9-1h10v-1l-4-6-6-9-1-1-1-2v-3l1-1-1 1v1l2-3 2-2h7l1 1 1 2 2 2 3 4 6 8 2 5 2 2 1 1h20l3-1h3l2 1 1 1 3 3a8 8 0 0 1-4 9l-2 1h-10l-3-1-3 1h-2l4 7q3.7 7.4 7 15l6 14 1 2v5l-1 1-1 1-4 1-5-2 1 1 1 1h2l-5-2-1-2-1-1-1-2-2-6-1-3-6-11-4-8-6-11h-20l-3 1h-4v2l2 4 1 2 4 9 10 23 1 2v5c-1 3-3 4-6 5l-4-1-2-3-2-5-9-21 6 15-14-33 1 3-3-7-15 1h-15c2-1-9-1-10-1 3 1-13 0-6 1h-18l3 1-15-1 1 1h-31l-5 1h-7l3-1h-7l1 3 2 3-2-4 3 5 3 5-4-6 4 7 4 8 5 9v-1l1 4 1 1v1h1v3l-3 4a6 6 0 0 1-4 1q1.5 0 0 0h-1l-1-1-2-2-3-7 1 2-14-24 2 4-4-7-4-7h-25a51 51 0 0 1-8 0h-1l1 1h-3l5 8 9 12-1-2 11 16 1 2a6 6 0 0 1 1 4l-1 3c-2 1-5 2-7 1l-3-2-1-1v-1l-4-5q-5.2-8.2-11-16l-8-11 3 4-4-7-2-2v-1l-2-2v-1h-19l-10 1h-16l-3-1-2-2a6 6 0 0 1-1-5v3l-1-2 2-3Zm51-4Zm-1-3 1 1v1h1v1h1v1l-1-1v-1l-1 1 3 3v-1h-1 2v-1l1 1h1v-1l1 1 1-1 1 1v-1l3 1-1-1h1l1 1v-1l1 1v-1l1 1 1-1h-1l1 1v-1l1 1v-1l2 1h1v-1h2v1l2-1 2 1-1-1 1 1v-1l3 1v-1h7l2 1-1-1h2l-1-1v-1l-1-1-1-1-1-2v1l-2-3h1v-1l-1 1v-1h-1l-1-3-1-2v-1h-1l-1-2-2-3-1-1-1-3c-2 0-2-2-3-2v-1l-1-1v-1h-1l-2 1-1-1v1h-11l-1 1h-12l1 1-1-1-1 1-1-1v1l-1-1v1l-1-1h-2v1h-1l-1-1v1h1v2h1v1l1-1 1 3c-1 1 1 1 1 1l1 2 1 1 2 3 1 1h-1v1h1l1 1 1 1 1 2v-1l1 1v1Zm31 5Zm-1 0Zm-37-14Zm6 9Zm-10 3 1 3h1Zm-21-23 2-1-7 1Zm131-22Zm8 0Zm-86 91-2-4Zm-73-39 1-1Z" data-name="Path 246"/>
    <path d="M105 414Zm223-12Zm-162 48 1 1Zm-32-2Zm2 0Zm-3 0Zm-20-7Zm211 4Zm-83 22Zm129-15-1-1Zm-131 11-3-5Zm-133-49Zm-1 0Zm-3 1 3-1Zm37-3Zm0 0 6 8Zm87 53-1-2 3 5Z" data-name="Path 247"/>
  </g>
  <g fill="#a4937a" data-name="Group 60">
    <path d="M243 361c21 24 42 49 55 78 2 4-5 7-7 3-13-28-34-53-54-78-3-4 4-7 6-3Zm1-1Z" data-name="Path 248"/>
    <path d="m242 359-1-1 1 1h1v1Zm9 21Zm12 14Zm2 3Zm-14-17Zm-14-21Zm9 14Zm-4-5-1 1v-1Zm-5-7Zm12 16Zm0-12Zm-6-4Zm26 40Zm27 40 1 1Zm-59-82Zm60 83Zm-21-30Zm-6-8Zm9 13Zm3 5-1-1Zm-22-44Zm-23-19Zm39 60 1 1Zm7-10Zm-5 13Z" data-name="Path 249"/>
    <path d="m257 373-1 1h1l1 2 1 2 1 2v-2l2 2-1 1 2 1 1 2v-1l1 2-1-1 1 1 2 4 1-1 3 4v1h1l-1 1h1l2 3 1 2 4 4v2l2 2v1h1v1l2 2v1h1v1l1 2v-1l2 4 1 1 1 1 1 3v2l2 2v1h1l1 3 3 5v2h1v4l-1 1-2 2h-5l-2-3-1-2-2-4-1-3v1l-3-7v1l-1-2-1-1v-1l-2-2v-2c-1 1-1-1-1-2h-1v-1l-2-2-3-5 1 2-2-4v1l-3-4v-2l-1 1v-1l-1-1v-1l-2-4h-1l-1-2v1l-1-1h1v-1h-1l-1-1-1-2h-1v-1l-2-2v1l-3-4h1l-1-2-1 1-2-3-1-1v-1l-4-4v-2l-1-1-1-1v1l-1-2 1 1-1-1h-1c1-1 0-1-1-3v1h-1l-1-1v-1l-1-1v-1l-1-1v-1l1-1 1-2h1a1 1 0 0 0-1-1h3l-1 1h-2v2l-1 1h1l-1 1h1v1l2 2 1 1 1 1 1 2 2 2v-1l1 2v-1l1 1 1 2v1h2l-1 1h1v1h1v1l3 3 1 2h1v1l1 1 1 1c2 1 1 3 3 3h-1l2 1v3h1v-1l1 1 1 2v1l1 1 1-1 1 2v1l1 1 1 1v2l1 1v-1l1 2h1l1 1-1 1-1-1 1 2 1-1 2 3h-1l1 1h1v1l1 1v2l1-1v3l3 3 1 3v-1l1 2 2 1v3l1-1v3h1l-1 1h2l-1-1 1 2v-1l1 3h-1l1 1 1 3v-1l1 2 2 2h1l1-1 1 1 1-1v-1h-1 1v-1h-1l-1-3-2-5h-1v-1l-1-4-2-1-2-5-3-4v-1l-2-1 1-1-3-4-1-1-2-3v-1h-1l-2-4v1l-1-2-1-2-1-2v1l-1-2-1-1a1 1 0 0 0 0-1h-1l-1-2 1 1-1 1-1-3h-1l-1-1 1-1-2-1-2-3-1-2-4-5-6-6v-1l-1-1c0-1-2-1-2-3l-1-1-1-1-1-1v-2h2v1h1v1l1 1v-1l1 2 1 1v1h2l1 3h1v2l1-1v1h1v1l1 1Zm11 16-1-1Zm1 1Zm-5-1Z" data-name="Path 250"/>
    <path d="M265 388Zm-14-8Zm31 28Zm-38-34Zm-3-3Zm-2-2 1-1Zm29 37Zm-8-12 1 1Zm1 1Zm-21-37Zm0 0Zm1 0Zm-5 2Zm-1 1 1-1Zm4 4h-1v-1Zm2 3Zm14 17Zm2 4Zm3 1Zm21 31Zm8 14 1 1Zm-7-22Z" data-name="Path 251"/>
  </g>
  <g fill="#b1d07a" data-name="Group 61">
    <path d="m233 303-1-2 1-2v-1a2 2 0 0 1 0-1v-1l1-1h-1c1-1 1 1 1-1v-4l1-2v-6l1-6v-2l1-3-1 1 1-2v-8l1-3v-6h1v-1c-1-1 0 1-1 1l1-5c-1 0 0 3-1 1v2-5l1-1-1-5 1-3-1 1 1-4-1 1 1-2h-1v-14l-1-5 1-2h-1l1-1h-1v-9l-1-4v-6l-1-6v-4l-1-2-1-3 1-3v-1l-1-1v-1l1 1-1-4 1-1v-1a20 20 0 0 0 0-2v-1l1-1v-2a1.6 1.6 0 0 1 2-1h1l9-2h2l4-1 7-1 2 1 6-1h11l12 1h3l5 1h4l5 1a32 32 0 0 1 6 2v1h1v1h1l1 1v2l1 1 1 5v44l-1 3v4l1 1c0 1 0 3-1 2l1 7-1 11 1-4-1 9v9l-1 2c1-1 1 3 1 2v7l-1 7c1-1 1 1 1 1v1l-1 4 1-1v3l-1-1v6h1l-1 4v13l-1 1h-14v1h-5v-1l-12 1h-1l-2-1-1 1-3-1v1l-2-1 1 1-4-1 2 1h-4l-5-1c2 1 0 0 0 1h-5l-7-1h-11a3 3 0 0 0 1 0h-2l-4-1h1v1h6l-1-1h-10l-1-2h-1Zm5-78Zm0-2 1-1-1-1Zm52 83Zm-35 0Zm-9-1Z" data-name="Path 252"/>
    <path d="M236 305c1 0 2 0 1 1l-1-1h-2l-1-1 2 1Zm9 1Zm-10-19Zm11 19Zm-8-53Zm7 53Zm74-83Zm-86-52Zm86 44Zm-1 52Zm-79 38Zm80-98Zm-85-43v1a1 1 0 0 0 0-1Zm-1 10Zm48 133Zm-8 0Zm-6 0Zm51-51Zm-1 29Zm2-62Zm-2 60Zm-78 23Zm0 0Zm-1-1 1 1Zm10 1Zm2 0Zm67-8Z" data-name="Path 253"/>
  </g>
  <g fill="#8cab5a" data-name="Group 62">
    <path d="m155 241-1 1 1-2v1Zm-1 6Zm1-21Zm-1 22Zm3-48 1-1v1Zm-3 47Zm63 59Zm1 0Zm-2 0Zm4-110Zm2 105v1l-1-1Zm-39 4Zm39-10Zm-67-52Z" data-name="Path 254"/>
    <path d="M153 278v-1l1-2h-1l1-2h-1l1-2h-1l1-2-1 1v-3l1-4-1 1v-10l1-4v-3l1-10h-1v-4l1-1-1-1h1v-1h-1l1-2v-13l1-2-1 1 1-2v-6l1-2h-1l1-2v-3l1 1v-1l1-2a7 7 0 0 1 1-1v1h-2a4 4 0 0 1 1-1h1l2-1h7l-1-1 3 1-1-1 2 1v-1h6l9-1 1 1v-1l1 1v-1l7 1h12l3 1h8v1h3l1 1h2v1l-1-1h1l1 1 1 2v2l1 3v4h-1v2h1l-1 2h1l-1 6v6l-1 1c1 0 0 2 1 1l-1 6v12l-1 6v9l-1 8v8l-1 3-1 6v5l-1 3v9l-1 2-1 1a4 4 0 0 1-2 1h-1l-2-1h-23v1l-1-1h-1c1 0-2 0-1 1l-1-1v1l-2-1v1l-3-1h-10l-1-1h-4v1l-3-1h-5l-2-1v1h1l-2-1-2-1-1-2v-22Zm1-23Zm0-7 1 1v-2Zm25-54Zm1 0v1l1-1Zm-26 87v-1l-1 1Zm71-84Zm-8-2Zm-64 80Zm0-7Zm0-4Zm39 42Zm-23-2 1 1Zm47 2Zm-46-1Zm-16-62Zm0 0Zm0 0Zm0 8Zm6 53Z" data-name="Path 255"/>
  </g>
  <g fill="#a5937a" data-name="Group 63">
    <path d="M76 275v-1a4 4 0 0 1 0 3h-1l1-1Zm-1 8Zm1-21Zm-1 21Zm4-47Zm-4 47Zm62-24Zm-38-73Zm38 68Zm1-7Zm-2 45Zm-60-13Z" data-name="Path 256"/>
    <path d="m76 282-1 1 1-3-1 1 1-3v1h-1l1 1v-6h-1l1-1-1-1 1-1-1-1v1l1-1-1-1 1-1h-1l1-1v-5l1-2c-1 1 0-2-1-2l1-5v-1l1-2h-1s0-2 1-1l-1-1 1-2v-1h-1l1-1v-3l1-5 1-3c-1-1-1 2-1 0v2-9l1-2v-3l1-6v-8l1-1h-1l1-1h-1l1-7 1-3v-4l1-2h1v-1h6l3-1h2v-1l1 1 1-1h1l-1 1 3-1h8l-1-1h7v1h2v-1l2 1 1-1 5 1h1l5 1h5l2 1h2l1 1h2v3a2 2 0 0 1 0 1v3l-1 2h1l-1 6-1 9-1 16-1 3v-1l-1 6v12l-1 4v13l-1 8 1-3-1 7v6l-1 2c1 0 0 3 1 1v6l-1 5 1 1v2l-1 1-2 1-1-1h-3v1l-4-1h-15l-6-1H91l-1-1-1 1-2-1h-2l1 1-3-1h2l-2 1h-1l-2-1h-1l-1-1v1l-1-1v-3c-1-2-2-4-1-6v-6h-1Zm5-67Zm0-3v1Zm14 88Zm-19-9Zm0-7Zm27-98Zm-7 0Zm-7 114Zm-6 0Zm-5-1Zm58-15Zm-6 18Zm7-43Zm-5 43Zm-57-23Zm0-1Zm0 0Zm0 7Zm45 17Z" data-name="Path 257"/>
  </g>
  <g data-name="Group 66">
    <path fill="#bfaf9c" d="M572 528Zm0 2Zm4-11Zm-4 11Zm11-12Zm-8 15Zm13 2Zm-6 0Zm0 0Zm-10-7Zm0 3Zm8 2Zm-14-397Zm32 383Zm1 8Zm1-2ZM573 91v-1h1Zm0 5Zm27-6Zm-27 6Zm13 2Zm-3 0Zm-11-6Zm0 0Zm0 0Zm3 6-1-1Zm13 23-1 1h1v-1Zm-2 3Zm15-5Zm-16 5Zm3 6Zm-1-8Zm-2 3Z" data-name="Path 258"/>
    <g fill="#a5937a" data-name="Group 64">
      <path d="M925 490v6l-1-14c0-4 0-8 2-6l-1 9Zm-12-48 1 2Zm-21 126Zm20-128-2-2Zm-86 113-2 2c0-1-7 2 2-2Zm87-111-1-2ZM657 47l3-8-1 4-2 4Zm65 457ZM650 74l1-1v1l-1 2-1 1Zm221 86-1 1Zm51 309ZM629 103Zm174-78-1 1Z" data-name="Path 259"/>
      <path d="m600 523 1-1v-1a20 20 0 0 1 2-2l1-1 1-1v-1l3-2 20-23c6-5 2-1 5-3l4-4 6-6 3-2 3-1 1-1h1l-1-1-1-2-2-2-2-2 3 1-5-5 1 1a120 120 0 0 1-13-28 75.5 75.5 0 0 1-5-28v-7l1-5v-3c0-7-1 5-1-1l2-21v-5l1-4 2-10c-1-5 1-15 3-24l6-27v1l1-7v2l19-95c2-11 4-6 5-21l-1 4v-3l1-1v-2h-1l-1-1-4-1a94 94 0 0 1-19-14 44 44 0 0 1-15-28v5a31 31 0 0 1-1-20v-3l3-9 3-6v1l4-7c2-2 3-4 3-2l8-10a15.6 15.6 0 0 0 6-8l1-1v-2l1-5 3-7v-8l5-12c-1 1 2-5 0-3 3-6 5-11 6-10l8-15 4-6 2-3V3l1-1a5 5 0 0 1 2-1l5-1 5 4 1 1v1l1 2 1 3 4 13 8 24c1-1-6-17-5-17l4 10 1 5 1 2v3h4l11-2h-4a176.9 176.9 0 0 1 46 0c-2 1 1 1 4 2l5 1 2 1c-2-1 1-1 4-2l2-1c1-1 0-1-1-1h2l1-1 1-1h-1l3-3 2-2 4-6-2 2 11-13-1 1 11-14 1-2h1V9l1-1 5-2a6 6 0 0 1 5 4l1 2 1 3c0-2 0-1 1 1l2 4 1 1v6l-1-2 1 19v1l1 4v-1l-1-3v-1l-1 3v1l1 2v2h1l1 3v2l2 1 2 2 8 9c1 1 0-2 1-1l7 7 6 8v-1l1 1v1l3 2 2 4 2 4-1-2c6 9 9 20 11 30v-6a63 63 0 0 1-8 45v-1l1-1c-2 0-3 3-5 6-1 3-4 6-7 8l2-1a42 42 0 0 1-16 10h-1l-2 1v1l1 5v3l5 21v3l9 26c2 9 5 17 10 24l-1-3 5 14-3-4 4 9c-3-6 1-1 2 2 4 7-1 2 4 11l4 11-1-5c2 6 3 12 6 16l-3-8 5 10v-1l3 10-1-2c1 7 5 14 6 24v-5l1 2 2 5 2 15c1 0 1 5 2 4 0 6-1-2-1-1v8l1 4v4l1 10-1 5-1 5-1 7-2 6-2 5v3l2 3v-1l-1-1v-1l2 3 3 3 3 3 2 3 1 1 2 4 3 4-2-4 6 15-1-5 4 10v3l-3-8 1 2v2l-4-9c-1-4-3-9-6-12l1 1v1a89 89 0 0 1 11 58v1l2-1v-4l1-1v2a18 18 0 0 1-1 3l1 2-1 7v1l-1 3-2 5v1l1-2a41 41 0 0 1 1-4l-1 5-2 5-1 3-1 2-2 2-2 4c0 1 2-3 0 2-3 3 1-4-3 2l-1 3-3 4 2-2-5 6-4 5-6 7-4 4-13 10c-4 3-8 5-7 6-3 0-7 3-12 5a84 84 0 0 1-13 5l-10 4h-5l-9 1c-3 0-2 1 0 1 1 0 3 0 2 1h-5l-4-1h-8l-3-2h-3l-3-2-2-1h-2l-1-1h-1l-4-3h-1l1 1 2 1 1 1-4-4v-1l-1-1-2-3v-8l2-1 1-1 2-1 4-2 6-4v-1l11-6a76 76 0 0 1 14-6l-1 2 8-3h-4l4-1c3-2-5 2-5 1l20-8c1-1-12 6-6 1l-8 4c6-4-5 3 0-2l12-4 11-6c2 0-1 2 2 1 3-2 6-3 7-5l4-3 3-3 2-2 2-2 4-2 2-2 2-2 1-2-2 1 5-6 1-3 1-2 1-4-2 5-1 2 1-3v-1l1-2 1-4v-1l-1-1v-17a38 38 0 0 0-8-17c1 1 2 3 0 0l-4-4-2-2-1-1v-1h-1l-1 1-1 2-2 2-14 21-5 5v1c-4 5-1 0-3 2l-1 2-14 17-8 9-7 7 2-1-9 5-8 5 1-1a38 38 0 0 1-14 4h-3l-4-2-1-5v-1l1-1v-2a60 60 0 0 1 4-12l2-5 1-1v-1l-1-1-1-1-3-3-1-4v-1l-1-1-1 1h-1l-2 1h-5q-12 2.1-24 5h-11v1h-8l-3 1h-5l3-1h-14v1l-1 1v4l-2 7-1 3 1-4v4l-1 1-2 4-1 1-3 4-7 4-8-1-6-4 1 1v1a46 46 0 0 1-16-20l-1-2v-1h-1l-6 3c5-3 3-3-1-1l-1 2c-2 1 4-3-1-1-5 3-3 3 0 2l-3 1-3 2h1l-14 7-12 6-5 2-6 2h-4l-4-2c-2 0-4-4-4-7Zm258-276v1l2 5Zm46 153-1-2v6Zm6 42-2-4h-1l4 6Zm-27 23 1 1Zm0-1-1-1Zm-8-9 2 2-1-2h-1l-2-1Z" data-name="Path 260"/>
      <path d="m770 50-3-1-3-1Zm-61 466 1-3Zm29-12v-1l1 1Zm137-220 1 1Zm15 35 2 5a49 49 0 0 1-2-5Zm9 28ZM764 48Zm74 10v1l1 1-2-3ZM661 38l-1 1Zm174 16-1-3 1 3 2 3-1-1Zm89 412Zm0 2Zm0 3v-1l1 3Zm-19-39Zm0-1-3-3-1-5 1 4Zm-27-318v-1l-1-2v-2l-1-1 1 2 1 2Z" data-name="Path 261"/>
    </g>
    <path fill="#bfaf9c" d="M797 537Zm-2-14Zm-10 12Zm9 5Zm-4 0Zm6-2Zm-6 2Zm-1 0Zm-7-17Zm0 0Zm3 10Zm-6-5h-1l1-1v-2h1v-2h1l1 1v-1l-1-1h1l-1-1-1-1v-1l1-1h-1l1-1h-1v-1l1-1v1l1-1a2 2 0 0 1-1-1v-1h1v-1h1v-1h1l1 1v-1c1 1 0-1 1-1v1-1l1 1v-1l1-1v1h3l1-1v1h1l1 1v-1 1-1l1 1v1h1v7l-1 1v-1l-2 2h-2v1h2l-1 1h2l-1 1h1c-1 0 0-1 0 0v-1l1 1 1-1h1l-1 1 1-1 1 1 1 1h1v2h1v5h-1v2h-1l-1 1h1l-1 1v1h-1v1h-2l1 1h-1l-1 1-1-1 1 1h-3l-1-1h-1v1l-1-1v-1l-1-1v-2h-1v-2h-1l-1-1v1l-1-1v1l-1-1 1-1-1 1v-1l-1-1v-2h-2Zm8 5Zm-6-9Zm1 0Zm0-1v1h1v-2h-1v1h1l-1-1h1v2Zm-1-3Zm-1-3Zm1-1Zm6-5Zm0 26Zm-1-3Zm1-1Zm-7-7Zm12-3Zm-12 1Zm0 6Zm4 4Z" data-name="Path 262"/>
    <path fill="#bfaf9c" d="M780 530Zm2-7Zm-3 6Zm2-14c1 0 1 1 0 0l1 1Zm-1 1Zm5-4Zm-5 4Zm12-6Zm-13 8Zm2-3Zm-1 1Zm1-22v1l-1-1 1 1Zm-1 2Zm5-7Zm-5 7Zm13 10Z" data-name="Path 263"/>
    <path fill="#bfaf9c" d="M799 500h-1v1l-1 1v1l-2 2-1 1h-4l-1-1v1l-1-1-1-1 1-1-2 1 1-1h-1l1-1-1 1 1-1v-1h-2v1l-1-1h-2v-1h1v-1l-1 1v-1h-1v-1h-1v-1l1-1v-1h-1l1-1v1l-1-1v1h1v-1h-1v-2l1 1-1-1h1v-1h1l-1-1 2 1-1-1h1l-1-1 1 1-1-1 1 1h2l-1-1 1 1-1-1h1v-1l1 1v-1h4l1 1h1l1 2 1 1-1 1h1l-1 1 1-1-1 1 1-1v1h1l1 1h1v2h1v2Zm-16 0Zm-2-3Zm0-1Zm7-8Zm6 4Zm-13 7Zm6 5Zm0-4Zm4 6Zm-4-5Zm-7-6Zm0 1Zm6 5Zm-110 26v1l-1-1Zm-1 2Zm3-10Zm-3 10Zm12 7 1 1Zm2 1Z" data-name="Path 264"/>
    <path fill="#bfaf9c" d="M676 529h-1l1-1v1l1-2h-1v-1a1 1 0 0 1-1 0h1v-1l-1 1 1-1v-1h1l-1-1 1-1h1l-1-1h1l-1-1h1v-1l1-1h-1v-1h1v-1l1-1 2-1h-1l3-1 2 1 1 1 2 2v1h1l1 1v-1h1v1l1-3c2-1 4-2 6 0l6 10c1 2 1 4-1 5s-5 1-6-1l-2-5v4l-1 4-2 2h-1v1h-2l1 1-1-1h-3l-1-1h-1l-1-2v-1h-1v1h-1l-1 1h-1v-1l-1 1v-1h-1l-1-1v1h-1v-1h-1v-1l1-1h-1v-1Zm10 0Zm-4-14Zm0 18Zm-6-2h1v-1Zm0-2Zm13-11Zm-12 15Zm10 3Zm-12-8Zm0 2Zm-59-9v1Zm5 1-1 1Zm-6-1Zm-3 12Zm4-12Zm-1 0Zm-18 0h1l-1-1 1-1h-1l1-1h1l-1-1h2l-1-1h2l-1-1 2-1v1h4l1-1v1l1-1v1l1-1h2l1 1v1h1v2h1l1 1-1 1h1l-1 1 1 1v-1h1v1h1v-2h1v1l1-1v1h1l-1 1 1-1h1l-1 1 1-1v2a2 2 0 0 0-1 0h1l1-1v1h-1c0 1 2 0 1 1v1l1 1-1 1 1 1-1 1h1v3h-1v1h-1l-1 1h-1l-1 1h-1v-1l-2 1v-1l-1-1h-1v-1l-1-1h-1l1-1h-1l-1 1-1-1v2h-3l-1-1v1l-1-1-1 1v-2l-1 1v-1h-1l1-1h-1v-2l-1 1 1-1h-1v-1l-1-1h1v-1l1-1h-1v-1h-1v-1h-1l1-1-1 1 1-1-1-1Zm24 5Zm-20-10Zm14 6Zm0 0Zm-4 9v-1l-1 1Zm-10-1Zm-1-4Zm9 6Zm-4 1Zm0 0Zm-2 0Zm43-420Zm4 1Zm7 2-2-1v1l-2-1h1c-1 0-2 0-1-1h-3l-1-1h-3l-1-1h-3l-5-2s2 0 1 1l-3-2-4-1-1-2c0 2-2 0-1 2l-1-1v1l-1-1-2-1v1l-3-2-1 1h-1l1-1h-2l-1-1h-2l-2-1-1 1c-1-1 1-1-1-1h1l-4-1 1 1-5-1-1-1v1l-4-1h-2v-1h-7l1-1h-3l-1-1 1 1-2-1 1 1h-2l-3-1v1l-2-1h-2v1h-2l-1-1-1-1-1-1h-1l-1-2 1-2v1h-1l1 1v2l1-1-1-1 2-4-1-1 1-1h1l1-1h2v1l1-1h3l1 1c-1-1 1 0 1-1l3 1h1l1 1v-1l1 1 1-1 1 1h2l1 1v-1l3 1v1h1l-1-1 2 1h-1v-1h3v1h2l2 1-1-1 2 1h1l4 1h5l1 1h1c1 1 3 2 4 1l1 1 6 1 2 1h3l1 1v-1l1 1v-1l1 1h1l2 1-1-1 2 1 2 1v-1l4 2v1l1-1h2l4 1v1l3 1 1 1v-1l4 2 6 2 1 2v-1l4 3c1 0 2 1 2 3l-1 4v1l-3 2h-4l-3-2-2-1s1-1-1-1Zm-62-17Zm-17-1Zm-4-2a2 2 0 0 1 0-1Zm39-3Zm1 0v1h1Zm23 5Zm-6 10Zm-14-4Zm0 0Zm-7-1Zm12 30Zm-36-10 1-1v2l1-2v-1a1 1 0 0 1 0-1h1v-1l1 1v-1h3v-1l2 1 1 1 1-1v1l1-1 1 1v-1l2 1-1 1h1v-1l1 1v-1h-1v-1l2 1h1l1 1-1-1 1 1v-1l1 1v-1l2 1v-1h3v1h2l1 1v-1h3l1 1 2-1v1h1l1-1 1 1v-1 1h2v-1l2 1h3v1l2-1v1l1-1 1 1h2l1 1 1 1v1h1v5l-1 2h-1l-4 1h-2l-1-1v1l-4-1h-1v1l-1-1 1 1-1-1h-5l-3-1 1 1-2-1h-2l-1-1v1h-1l-1-1v1l-2-1h-1v-1l-1 1-1-1v1l-1-1h-2v1l-2-1h-1l-1-1h-3v1h-1v-1h-1v1h-1l-1-1 1 1h-1l-1-1h-2l-1-1v-1l1-2h-1v-1l1-1Zm22-2Zm-14 7Zm-7-1Zm0-3Zm33-3Zm-8 11Zm-7-2Zm15 3Zm-14-3Zm-4 0Zm13 17Zm-2 2Zm14-7Zm-14 7Zm33 1Z" data-name="Path 265"/>
    <path fill="#bfaf9c" d="M622 155h-1l-2 1h-1v-1l-1 1v-1h-1v1l-1-1h1l-1 1-1-1v-1l-1 1v-1h-1l1-1h-1v-2l1-1v-1h1l-1-1 2-1v1l-1-1v2l2-2-1-1h1v-1h1v1l1-1 1-1v1l1-1h1v-1l1 1v-1l1 1 1-1-1-1 1 1v-1l1 1h2l-1-1h2c1 1 0-1 1-1l1 1-1-1 1 1v-1l1 1-1-1h2l3-1 3-1h-1l1 1 3-2 1 1 1-2 1 1-1-1 1 1 1-1h1l1-1h2v-1h7l1 1 2 1 1 2v1h1l-1 1v4h-1l-1 1-3 1-2 1-1-1v1h-4v1h-3l-1 1h-1l-1 1-3-1 1 1h-2l-2 1-1-2v2h-3v1h-1v-1h-1l1 1h-1v-1h-1v1h-3v1h-4Zm-2 0Zm-6-3v-1l-1 1Zm0-3Zm20-8Zm10-3Zm-29 18Zm-1-1Zm23-3Zm-7 0Zm14-2Zm-14 3 1-1Zm-16-6Zm-1 3Zm14 4Zm206-56-1-1 1 1Zm-4 2Zm25 2Zm-25-2Zm55 25Z" data-name="Path 266"/>
    <path fill="#bfaf9c" d="m904 134-3-1h-1l-1-1-4-1c0-1 1-2-1-2v1c-1-2-3-2-5-3h1l-2-1h-1l-1-1-2-1-1-1h-3c-1 0-1-2-2-1a25 25 0 0 0-4-2s2 0 1 1l-2-2v1l-3-2h-1v-1l-1 1-1-1-1-1v1l-3-2-1 1v-1h-1l-1-1h-1a1 1 0 0 0-1 0l-1-1-1 1v-1l-2-1v1l-4-2h-1v1l-2-2v1l-2-1c-2 1-3-1-5-1a1 1 0 0 0-1-1h-2l-1-1 1 1h-2l-1-1v1h-1l-1-1h-1l-1-1a2 2 0 0 1-1-1v-1l1-2h-1l1-1-1-1 1-1 1-1h1v1l-1-1v2h-1c1-1 2-2 4-1v-1l1-1 1 1v-1h1v1l1-1v1h2l1 1 1-1 2 1h1l1 2v-2l1 1 1 1 1-1v1l1-1 1 1 2 1 1 1-1-1 2 1v-1h-1v-1l2 1v1h2l1 1v-1l1 1h1l3 1 4 1h1l3 2v-1l1 1c2 1 3 2 5 1l1 2 2-1 1 1h2l2 1v1h2l3 1v1h2l2 2 1 1h2v1h1l2 2h1l2 1h2v1l1 1h1v5l-1 3-3 2v-1l-1 1Zm-62-25Zm-11-5Zm-1-3 1-1Zm34 4Zm1 1Zm18 5Zm-47-3Zm-2 0Zm36 11Zm-10-5Zm22 10Zm-22-10Zm-28-16Zm0 0Zm-3 4Zm26 11Zm-28 11Zm24 1Zm-24-1Zm49 21Zm5 2h1l-2-1h-1l-1-1h-2l-1-1h-2v-1h-3l-3-2 1 1-3-2v1l-4-2 1 1-1-1v-1l-1 1h-1l-1-1v1l-1-1-2-1-1 1-1-1h-1v-1h-2v1l-2-1h-1l-3-1 1 1-4-1h-11v-1h-5v-2l-1-1v1h-1v-5l2-1 1-1h-1l2-1h2l-1-1 2 1h-3v1c1-1 3 0 4 1l-1-1h1l1-1v1h1v-1l1 1h1v-1l1 1 1-1h5l1 1v-1l1 1 1-1v1h1l1-1 1 1 2 1h1l-1 1h1v-1l1 1v-1h-1l1-1 2 1h2l1 1h1l3 1h1l4 1h1c0 1 2 2 3 1l1 1 4 1 2 1h2l1 1h2l1 1h1l1 1 4 1-1 1 1-1 2 1 2 2h1l2 1v1h1l2 2h-1l1 1v-1l1 1 1 2 1 1v2l-1 1 1 1-2 2-1 1-3 1-4-1h1l-1-1-2-2-4-2c-1 0 1-1-1-1Zm-48-13Zm-9-7Zm3-3Zm34 4Zm1 1Zm18 5Z" data-name="Path 267"/>
    <path fill="#bfaf9c" d="M824 132Zm37 7c1 1 1 0 0 0Zm-10-3Zm22 8Zm-22-8Zm-21-12Zm-6 1 1-1Zm21 10h1v1Zm-21 12 1 1h-1Zm-3 2Zm21 3Zm-21-3Zm41 29Z" data-name="Path 268"/>
    <path fill="#bfaf9c" d="M821 151v-2l2-1v1h-1v1a4 4 0 0 1 4-2v-1h2l1 1v-1l1 1h1l1 1 1-1 2 2v-1h1l1 1 1 1h1v-1l1 2v-1l2 2 1 1v-1h-1l1-1 1 1v1h2l1 1h1l2 2 1-1 3 2h1l2 2 1 1 4 2v1h2l1 2h2l1 2-1-1h1v1h2l2 2-1 1h2l2 2v1l2 1v1h1l1 1v1l2 1 1 1 1 1v4l-1 1c1 1 0 2-1 2l-3 2v-1h-3l-2-2-3-2v-1l-3-3-1-1h-1v-1h-1l-1-1-1-1-1-1-1-1c-1 1-1-1-2-1l-2-2 1 1-2-2-3-2v-1l-1 1-1-1-1-1v1l-2-2-1-1h-1v-1h-1v-1l-1 1-1-1-2-1v1l-3-2-1-1v1l-2-2v1l-1-1c-2 0-2-2-4-1h-1l1-1h-2l-1-1v1h-1l-1-1v-1l-1 1-1-1-1-1Zm0-1Zm29 7Zm1 0Zm-21 1Zm-9-5Zm44 12Zm-42-8Zm29 13Zm-8-5Zm0 0Zm-21-18Zm0 0Zm-3 4Zm20 12Z" data-name="Path 269"/>
    <path fill="#b1d07a" d="m723 309-2 1 1-2v1Zm-3 8Zm0-29Zm0 30Zm6-64Zm-5 63-1 1v-1Zm54-13-1 2 1-1Zm-42-125Zm42 120a2 2 0 0 1 0-1Zm-35-123Zm-11 5Zm-6 172Zm-1-8Zm-1-6Zm45 0Zm-15 26Zm23-59Zm-22 59 1-2Zm-32-54Zm0 0Zm1-1-1 1Zm0 13-1-3Zm24 54v1h-1Z" data-name="Path 270"/>
    <path fill="#8cab5a" d="M740 226h-1Zm-3 0Zm10-3Zm-10 4Zm19 5Zm1-13Zm-21 11Zm9 4Zm1 0Zm-8-8Zm0 0Zm-1 1Zm7 8Z" data-name="Path 271"/>
    <g fill="#92816c" data-name="Group 65">
      <path d="m803 489 1-1-1 4c0 1 0 2-1 1l1-2Zm2 14-1-1Zm1-34Zm-1 34 1 1Zm6-77Zm-6 77Zm57-159h1l1 1-1-1Zm2 1Zm-10-2Zm-44-24Zm14 40Z" data-name="Path 272"/>
      <path d="M803 495v2l1 2v2l1 2v-3l-2-8c0-2 1-4 3-4l-1-1v-6l1-2c0-1-1 1-1-1h1v-2l1-3-1-4 1-3v-4l2-7-1 1v-3l2-3c-1-2-1 0-2 0l1-3v-1l1-3-1-2v1l1-2-1-2 1-4 1-7h1v-2c-1-1 0 2-1 1l1-5c0-1 0 3-1 1v2-6l1-1c1-4-1-3-1-6 1-1 2-1 1-4v-5l1-10h-1v-13l1-2h-1c0-2 1 0 1-1l-1-1 1-11-1 1 1-5-1-15v-5l-1-6 1-3h-1l1-2-1-1v-10l-1 1v-8h-1v-14l-1 1v-4l-1-5v-2l1-3 1-1 2-1 5 1 2 2 1 1v4l1 9h-1l1 1c0 5 2 11 1 15v4c0 2 0-1 1 0v11c2 2 1 9 2 13h-1l1 2-1-1 1 13v4h1l-1-1h1v-1l4-4 7-6h-1l5-2 3-1 1-1h3l6-1h3l2 1 2-1 2 1 2 1 1 1 1 3v1a5.5 5.5 0 0 1-3 5h-13c-4 0-6 1-9 3h1l-8 8 1-1-1 1-3 2c2-1-1 3 1 2l-1 1-2 3h1l-3 4 1-1-4 9v3l-1 2h-1v2l1-1v3l-1-2v8h1l-1 5v10l-1 12v3l-1 9v6h-1c1 6-1 10-1 14h1l-1 3v-1l-1 3c1-2 1 0 1 0h-1v3l-1 3c1 1 1-1 1-1l-1 4 1-2v3l-1 2-1 6c1-2 0 0 1 0v1l-1 4v1l-1 9-1 2v1h-1l-2 2h-5v-1h-1v-4l-1 1Zm10-103Zm0-4Zm5 66Zm-5 42v-1l-1 2Zm-7 7h1l-2-1h1Z" data-name="Path 273"/>
      <path d="M811 331Zm7 134Zm-2 10Zm0 7Zm19-117Zm-13 33Zm43-52Zm-43 49Zm-20 100Zm0 0Zm0-1Zm9 10 1-2-3 2Zm11-91Zm-42 70v-1l1-2-1 1 1-2v-1l1-1v-1l1-3v-2l1-2v-3l2-5v-1l1-2c0-2-1 0-1 0l1-2v-1l1-2-1-1 1-1-1-1 1-3 2-4-1-1 1 1v-1l1-4c-1 0-1 3-1 1v2h-1l1-5v-4l1-3v-1l1-2h-1l1-7v-11h1l-1-1 1-7v-17l-1-4 1-2v-1l-1-1 1-1v1l-1-4v-7l-1-8h1v-1h-1l1-1h-1v-17s0-2-1-1v-6l1 1c0-1 0-2-1-1 1-4-2-8-1-11v-2l-1-8a3 3 0 0 1 0-1v-2l3-2c3-1 6 0 7 1l1 1v3l1 2v5l1 8v4l1 12v3l1 1v2l-1 2 1 4-1 3 1 4v2c1 2-1 5 1 6l-1 9 1-3-1 7h1v8c-1-1-1 2-2 2 1-1 1 2 2 1l-1 1h1l-1 3 1-1-1 3h1l-1 6 1 1v2l-1-1v4l-1 1 1 2-1 2h1l-1 4 1-1-1 1 1 1c0 1-1-1-1 1v5l1-1-2 8v3l-1 6h1l-1 4-2 10 1-1-1 3v-1l-1 2-1 2v2l-1 3 1-2v4c-2 1-1 2-2 4 1-2 0 0 1 0v1l-1 2v1l-2 6-2 3-1 1h1l-1 2v2l-3 1h1l-2 1-2-1h2l2-1 2-1h-1c-2 3-8 1-7-3s-1 0-1 0v-2Zm12-64Zm0-3v1h1Zm6 34h-1v1Zm-7 29Zm-3 7h1l-1 1Z" data-name="Path 274"/>
      <path d="M782 487v2l-1-2v-1l-1-1h1Zm7 0Zm-6-16Zm7 16Zm-1-44Zm0 44Zm14-128Zm0-6Zm-11 24Zm5 81Zm-1 6-1 1Zm-2 6Zm10-83Zm-2 24Zm1-52Zm0 51v1a1 1 0 0 1 0-1Zm-19 80Zm-1-1 1 1Zm0 0Zm8-4Zm11-63ZM694 314v1h1c-1 1-1 2-2 1l1-1Zm-1 9Zm11-10Zm-11 10Zm10 21Zm-10-21Zm4 138Zm1 7Z" data-name="Path 275"/>
      <path d="M692 338c0-2 1 0 1 0v-7l1-4v-3l-1-1 1-1h-1l1-3-1 1 1-3v6l1-12h-1l-1-1v-1l1-1 1-1-1 1 2-2h4v1h3v1l1 2v3l-1 2c1-1 0 3 1 3l-1 5 1 2-2 2c1 2 1 0 2 0l-1 2v5l1-1c0 2-1 1-1 1v5l-1 5v5s0-3 1-1l-1-2h1v5h-1c0 3 2 3 1 5l-1 3 1-1-1 3 1-1-1 2h1l-1 8h1l1 10-1 1v9h1l-1 3 1 11v4l1 5-1 2h1l-1 1 1 1v1l-1-1 1 4v2l1 2h-1l1 4 1 8h-1v2h1v3l1 7-1 1 1 6v1s0 2 1 1v7l-1-1 1 1 2 11v3l1 8 2 10v6c-1 2-3 3-6 4l-3-1-2-3-1-1v-8l-1 1-1-14v1l-1-4v-5l-1-4v-3l-1-4v-3l-1-6v-14c-1-1-1 0-1 1v-9l1-3c-1 1-1-2-2-1h1l-1-1 1-3-1 1 1-3h-1v-13l1-1-1-2v-7l-1-1c0-2 1 1 1-1l-1-6v-32l-1 1 1-3v-8l-1-2h1l1-5-1 1-1-1v-3c1 1 1 0 0 0Zm2-14Zm9 46Zm0 1-1 1 1 1Zm-10-8h1v-1Zm1-30Zm11 82Zm-12-60Zm0-7Zm0-6Zm2 90Zm-1-27Zm3 56Zm-3-54Zm-1-89Zm0 0Zm0-1Zm0 11Zm0 66Zm-22-64-1 1 1-1Zm-2 8Zm12-10Zm-12 10Zm9 19Zm-9-19Zm-7 129Zm0 6h1l-1 1Zm9-150Z" data-name="Path 276"/>
      <path d="m662 453 1-7h-1l1-8 1-2c-1 1 0-2-2-1l1-1h-1l1-3v-2l1-7c-1 1-1 0-1-1l1-4-1 1v-2l1 1v-5h-1l1-4v-7l1-8v-2h-1l1-6v-4l1-1v-11l1 1v-2l-1-1h1v-8l1-4c0 2 0 0-1 0v-1l1-2-1-1h1c0-2-1-4 1-6l1-4v-1l-1 1 1-3h-1l1-2-1 1 1-3-1 1 2-3v1h-1v4l2-10v-1l-1 1-1-1v-2h1l1-1v-1l-1 1h1l1-1 1-1h1l1 1v-1c1 1-1 1 1 1h2l1 1v2l1 1v2l-1 2c1-2 0 2 1 2l-2 5h1v2l-2 2h2l-1 1v2l-1 1 1 2h-1l1 2-1 3-1 4-1 1h1l-1 3c1 1 1-2 1-1v-1h1v4l-1 1v4l-1 3 1-1-1 3v1l-1 7h1v10l-1 1v1l-1 8 1-1-1 3v10l-1 4 1 4-1 2h1l-1 2h1v37c0 2 0 1-1 1l1 1v6h-1l1 1v13h1l-1 7c2 2 1 7 2 9h-1l1 1h-1v5l-1 1-1 2-3 1-3-1-3-2a7 7 0 0 1 0-1l-1-2v-2l1-4-1 1v-19l-1 1 1-3v-11h-1l1-2-1-5 1-10Zm5-78Zm2-29v1l1-1Zm1-7Zm6 41Zm-1 3Zm-1 40Zm-7-55-1-1Zm0-7Zm0-5 1-1Zm-4 83Zm1-25Zm-2 52Zm2-50Zm6-83Zm0-1Zm0 0Zm-1 10Zm-5 61Zm-36-44v1l-1-1Zm-1 2Zm8-9Zm-8 9Zm23 0Z" data-name="Path 277"/>
      <path d="M627 360h1l-1 1h1l1-2a2 2 0 0 0-1 0 1 1 0 0 1 0-1v-1h1v-1h1v-1h1v-1l1 1v-1h1v-1h2v1l1-1-1-1h1l1-1 1 1-1-1h3l-1-1 2-1 1 1h2l-1-1 1 1 2-1 1 1 1-1 1 1v-1h4v1l1-1h2v1h1v1l1-1 1 2h1l1 2v3l1 1-1 1-2 2-3 1h-2l-1-1h-3v-1l-1 1h-1l-2-1v1h-2l-1-1v2l-1-1v1h-3v1h-1l-1 1h1l-2 1-1 1-1 1v-1l-1 1h-1v1l-1-1c-1 1 0-1 0 0l-1-1v1h-1v-2l-1 1v-1h-1v-1l1-1v-1l-1 1Zm13-9Zm-7 15Zm-5-3Zm0-1v-1h-1Zm21-13Zm-21 17Zm16-5Zm-5 1Zm1 0Zm-13-2Zm-1 2Zm12 1Zm227 93Zm-1 2Zm5-10Zm-5 10Zm19-10Zm-19 9 1-1v1l-1-1v1h1l-1 1 1-1v-2a1 1 0 0 1-1-1v-1l1 1-1-1 1 1v-2h1l-1-1h1v-1h1v-1h1l-1-1h1l1-1h-1 1v-1h1l-1-1h1l1-1h-1l1-2h1l1-1v-1l1-1 1-1v-3h1v-1l1-1 1 1-1-1h1l-1-1h1l2-1v1l2-1 2 1 1 1 1 1v1l1-1v2l1 2v1h-1l-1 2v2h-1l-2 2v1h-1l-1 1v1l-1 1-1 1h1l-2 1h1l-1 1h-2l2 1-1-1v1h-1l-1 1 1 1h-2l1 1h-1c0 1-1 0 0 0l-1 1 1 1h-2v1l-1 1v1l-1-1-1 1h-1v-1l-1 1h-1l-1-1v1h-1v-1h-1v-1l1-1h-1v-1Zm8-13Zm-2 18Zm-5-3Zm0-1Zm11-21Zm-10 24Zm13-8Zm-4 3Zm8-7Zm-7 7Zm-12 0Zm0 0Zm0 3Zm11-1ZM716 162l-1-1h1v1l-1 1Zm1 4-1-1Zm4-21Zm-4 21Zm27-8Z" data-name="Path 278"/>
      <path d="M715 159v-1h1v-3h1v-2l1-1v-1h1l-1-1h1v-2h1l-1-1h1l1-2h1l1-1h-1v1l-1-1 1-2v1c2-1 0-2 1-2l1-1h-1l1-1v1l1-1h-1l2-2-1-1 2-3h1v-1l3-2h7l1 2h2v2h1l1 1 1 1 1 2v-1l1 3v1h1v1h1l1 2-1 1 2 1v1l1 2c0 2 3 3 3 4v1l1 3 1 1h1v3l-2 5-4 2-3-1 1 1-3-3-1-3v-1h-1v-1l-1-2v-1l-1-1h-1v-1l-1-2-1-3v1l-1-3v1l-2-3 1-1h-2v-3h-1l-1 1-1 1h1l-1 1-1 1-1 2h1l-2 2v1l-2 2h1l-1 2c0 2-2 2-2 3h1l-1 1h-1l1 1h-1l-1 1h1l-1 1 1-1v2l-2 1h1v1l-1 1-1 1h-2l-2-1v1l-1-1-1-1v-1l-1 1h2v1l-1-4h-1v-2Zm12-24Zm0 21Zm-6 10v-1h-1Zm-4-1h1l-1-1Zm25-32Zm-17 31Zm12-18Zm-3-3Zm8 12Zm-8-13Zm-19 22Zm0-1Zm4 3Zm13-20Zm-46-23Zm4 0Zm-5-1Zm-3 10Zm0-3h-1l1-1v-1h1l-1-1v-1h1v-1l1-1v-1l1 1v-1l1 1v-1 1h1v-1h1l1-1v1h1v2l1-1v1h1v1h1l-1 1h1l-1 1 1 1h-1l1 1v1h-1l1 1h-1v1l-1-1v1l-1-1 1 1h-2l1 1-1-1c0 2-1 0-1 1h-2l-1-1h-1v-2l-1 1 1-1h-1c-2 0-1-1-1-1Zm9-4Zm-8-1Zm2-1Zm0 0Zm7 5Zm-8-5Zm-3 6Zm1-2Zm0 0Zm4-5Zm-1 0Zm-3 4Zm9 16h-1Zm-1-1Zm4 1Zm-4-1Zm-3 9Z" data-name="Path 279"/>
      <path d="M685 146h1v-1l1-1v-2h1v-1l1 1v-1l1 1v-1 1h1v-1l1-1v1l1-1v1h1v2l1-1h1l-1 1h1v1h1l-1 1h1l-1 1 1 1v2h-1l1 1h-2v1l-1-1 1 1h-1v1l-1-1c0 2-1 0-1 1h-2l-1-1v-1h-1v-1l-1 1 1-1h-1v-3l1-1Zm10-2Zm-7-1Zm1-1Zm1 0Zm6 5Z" data-name="Path 280"/>
      <path d="m688 141 1 1Zm-2 6c-1 1-1 0 0 0Zm0-2Zm0 5Zm0-4Zm4-5Zm-1 0Zm-3 4Zm-14-6v1l-1-1Zm-1 0Zm5 1Zm-5-1Zm-3 10Z" data-name="Path 281"/>
      <path d="m677 145 1 1h-1v-1l1 1h-1v2c0-1 1 0 0 0v1l-1-1v1h-1v1h-2l-1 1v-1h-2l-1-1h-1v-2l-1 1 1-1h-1v-4h1v-1h-1l1-1v-1h1v-1l1 1-1-1v-1l1 1v-1h1v-1l1 1h-1v1h1v-2h1v1l1-1v2l1-2-1 1h1v2l1-1v1h1l-1 1 1-1-1 1 1-1v1l1 1-1 1 1 1h-1l1 1Zm-8-4Zm1-1Zm1 0Zm6 2Zm1 3Z" data-name="Path 282"/>
      <path d="M669 139Zm-3 7Zm1-2Zm0 5Zm0-5Zm4-6Zm0 1Zm-1 0 1-1v1Zm-3 4Zm132-11Zm0-1Zm4 1Zm-4-1Zm-4 10 1-1v1Z" data-name="Path 283"/>
      <path d="m804 137 1 1h-1l1 1h-1v1h-2v1h-1l-1 1v-1l-2 1v-1l-1-1-1 1v-2l-1 1 1-1h-1v-2l1-1-2 1 1-1v-1h1v-1l-1-1h1v-1h2l-1-1v1h1v-2h1v1-1h1v1-1l1-1v1l1-1v1h1l-1 1 1-1-1 1 1-1v1h1l-1 1 1-1h1l-1 1h1v1h1v4Zm-8-4Zm2-1Zm1 0Zm5 2Zm1 3Zm-8-6Zm-3 6Zm1-2Zm0 1Zm4-5Zm-1 0Zm-3 3Zm0 12Zm-1-1Zm5 1Zm-5-1Zm-3 10Zm3-9v-1l1 1c-1-1-1 0 0 0h-1v1h1v-2l1 1v-1 1l1-1v1l1-1-1 1 1-1v2h2l-1 1h1l1 1v2l-1 1h1v1h-1v1l-1-1 1 1h-1v1h-1l-1 1h-3l-1-1h-1v-1h-1v-2l-1 1 1-1h-1v-1l1-1-1 1 1-1v-2l1-1c0 1-1 0 0 0v-1h1c0-1 1 1 0 0h1l-1-1 1 1v-1l1 1v-1Zm5 2Zm-7-1Zm2-1Zm0 1Zm-1-1Zm-3 6Zm1-2Zm-1 0Zm5-5Zm-1 0Zm-4 4Zm-15-13Zm-1-1Zm5 1Zm-5-1Zm-3 10Zm-1-5 1-1h-1l1-1v-1h2v-2 1l1-1 1 1v-1l1-1v1l1-1v2l1-1-1 1 1-1v2l1-1v1h1l-1 1 1-1v1l1 1v2h-1l1 1v2l-1-1 1 1-1-1 1 1-1 1h-1c-1 0 0 2-1 1h-1l-1 1v-1l-2 1v-1l-1-1h-1l1-1h-2l1-2-1 1v-1l1-1h-1l1-1Zm10-2Zm-8-1Zm2-1Zm0 0Zm7 6Zm-8-6Zm-2 4Zm-1 0Zm4-5Zm1 0Zm-1 0Zm-4 4Z" data-name="Path 284"/>
    </g>
    <path fill="#f6eaea" d="m787 101 1-1v1Zm-2-1Zm14 0Zm-14 0Zm5 23Z" data-name="Path 285"/>
    <path fill="#f6eaea" d="m814 116-1 2h-1l-1 1h-3l-2 1h-3c0 2-2 1-2 2v-1l-5 1h-6l-1-1-1 1-1-1-1 1-1-1-1-1v1l-1-1-2-1v-1l-1 1-1-1-1-2h-1v-2h-1v-1h-1v-2l-1 1v-2l1-1 1-2v-1l1-1 1-1h1l-1-1v1h1v-1l1-1h1v-1h1l1-1 2 1-1-1h2l-1-1h2l-1 1v-1l-1 1h3v-1l-1-1 1 1v-1h2l1-1v1l1-1 1 1 1-1v1l1-1v1l1-1v1l2 1v-1l-1 1h1v-1l1 1-1-1h1v1c1 1 1-1 1-1 0 1 0 2 1 1h1l1 1 1-1 2 1v1l1-1 1 1 1 1 2 2v1l2 1-1 1h1v6h1Zm-36-10Zm6-4Zm1-1Zm20 1Zm9 7Zm-33-7Zm0 18Zm-4-5Zm0 0Zm10-15Zm-3 1 1-1Zm-9 11ZM674 92l-1 1h1l-1-1Zm-3 1Zm13-5Zm-13 5Zm20 20Z" data-name="Path 286"/>
    <path fill="#f6eaea" d="m709 101-1 1v2l-1 2h-1l1 1-2 1-2 2-1-1-4 2h-1l-3 1h-5l-2 1-2-1v1l-1-1h-2l-1-2v1l-1 1v-1h-1l-1-1-1 1v-1h-1v-1h-2l-1-1h-1l-2-2-1-1-1-1v-1l-1-2 1-1h-1l1-1-1 1 1-1h-1v-1l1-1h-1l1-1 1-1 1-1v-1h1c1 1 0 0-1 1h1l2-2h-1a1 1 0 0 1 0-1h1v-1l1 1v-1h1v-1l1 1v-1h2v-1l1 1v-1h4v1h2l-1-1 1 1v-2l1 1h3l1 1 1-1h2v1h1l1 1h1l3 1v1h2v1h2v1h1l2 1 1 1v-1l2 2-1 1 1 2Zm-40 1Zm2-6Zm1-2Zm19-5Z" data-name="Path 287"/>
    <path fill="#f6eaea" d="M701 92Zm-33 5Zm14 15Zm-6-3Zm13 4Zm-13-4 1 1Zm-3-17Zm-3 2 1-1Zm3 15v-1h1Zm-5 62-2 1v1h-2l2-1 1-1Zm-4 10Zm20-9Zm-20 9Zm53-5Zm-53 5Zm109 33 1 1Zm5 4Zm-114-43Zm126-3Zm-114 40Zm-3-7-1-1Zm-3-5Zm78-6Zm-22 5Zm46 15Zm-45-15Zm-63-24Zm0 0Zm0 0Zm1 11-1-2v-1Zm50 19Z" data-name="Path 288"/>
    <path fill="#66454d" d="m789 105-1-1Zm5-3Zm-6 3Zm4 13Z" data-name="Path 289"/>
    <path fill="#66454d" d="M786 111v-3h1v-1h1l-1-1 1-1 1 1-1-1v-1l1 1v-1l-1-1h2v-1h1l1 1v-1l1 1h1l1-1v1h3v2l1 1 1 1v2h1l-1 1v1h-1l1 1-1 1v1h-1l1 1h-1l-1 1-2 2-1-1 1 1h-4v-1 1l-1-1v1l-1-2v1l-1-1v-1l-1 1v-2h-1v-1h1v-1l-1 1 1-1h-1v-1l-1 1 1-1Zm2-5Zm0 0Zm8-2Zm-9 5Zm13 1Zm0-3Zm-13-1Zm0 7Zm0 0Zm1-9Zm0 0Zm0 1Zm-2 7Zm-108-12h1a3 3 0 0 1-1 0Zm0 1Zm2-6Zm-2 6Zm13 5Z" data-name="Path 290"/>
    <path fill="#66454d" d="M678 99v-1l-1-1h1v-1l1 1-1-1h1v-1l1 1h1l-1-1h1v-1h1v-1h5v1l1-1v1l1-1v1h2l-1 1h1l1 1v2h1v3l1 1h-1v2h-1v1h-1v1h-1v1h-1v1h-1v1l-1-1v1h-1l-1-1v1l-1-1h-1l-1-1v1l-1-1v-1h-1l-1-1 1-1-1 1 1-1-1 1v-1h-1v-1l1-1h-1v-1h1l-1 1h1v-1h-1l-1-1Zm5-6Zm-3 11Zm-1-2Zm0-1Zm9-8Zm-10 10Z" data-name="Path 291"/>
    <path fill="#66454d" d="M686 108c1 1 0 1 0 0Zm-3-1Zm7 0Zm-6 1Zm-6-7Zm0-1Zm0 1Zm4 6Zm40 21Zm6-8Zm-7 9Zm21 12Z" data-name="Path 292"/>
    <path fill="#66454d" d="M721 126v-1l1-1h1l-1-1 2-1h1l-1-1 1 1v-1l1 1v-1l-1-1 1 1v-1l1 1h1v-1h1v1l1-1 1 1-1-1 1 1v-1l2 1v-1h2l2 1h2l1 1h2l1 1v-1 1h1l1 1 1-1v1h1v1l1 1h1v2l1 1v2h1l-1 1v3l-3 3-3 2h-1l1 1-1-1-1 1h-1v1h-4l1 1-1-1h-2v1h-1l-1-1v1l-1-1h-1l-1-1v-1h-1l-1-1v1l-1-1v-1l-1-1h-1l1-1c-2 1-1-1-2-1h1v-1h-1l-1-1v-1h-1v-2l1-1h-1v-1l-1 1 1-1h-1l1-1v1-1h-1Zm12-5Zm-8 14Zm-3-4Zm0-2Zm19-7Zm-19 11Zm14 10Zm-6-2Zm11 1Zm-10-1Zm-10-11Zm8 10Z" data-name="Path 293"/>
  </g>
  <g data-name="Group 67">
    <path fill="#b1d07a" d="M762 337v-2l1-1-2-2h1c0-1-1 1-1-1v-2l1 1-1-3c0-1-1-3 1-3l-2-3c2 2 0-3 2-3-2-1-1-4-3-6h1v-2l-2-3h2l-2-2 1-1-1-2 1-2h1c-1-2-2-1-2-1-1-2 0-1 1-2l-2-3-2-6-1 1-1-2h2l-2-4c1-1 1 3 2 1v2l1-1-1-5h-2c-2-4 2-4 0-6-1 0-2 0-2-2h1c0-2-2-1-2-4l1 2c1-2-1-1-1-2l1-1-2-4-1-2v-1l1-1h-1l1-1h1l1-1 3-3v-1h1c1-1-1-1-1-2h1l1-2 1-3 2-5v-4l1 1v-14l-2-3-2-2v-3l-2-3-3-1v-1h-2v-1l-1-1v1c-2 0-4-2-4-3h-5l1-1h-6l-2 1h-3l-1 1h-1l-1 1-4 3c1-1 2 0 1 1l-1-1v2l-1-2v1a3 3 0 0 0-1 1v-1c0 1-3 1-3 3v-1l-5 8v2l-3 7 1 2c-1 0-1 3-1 1v4l2 5 2 6 1 2v2h1v1l-1 1v-1l-2 9c-2 1-2 3-3 5l-2 6h1l-1 1h1l-3 11-2 11c-1 2 3 1 1 5l-1-1v8l1 8-1-1c-1 1 0 4 1 4l-1 1v3s0 3 1 2v6c1 1 0 3 2 3-2 0-1 4 0 5l-1 1c0 1 0 3 1 2-1 3 2 5 0 7l5 11c-2 1-1-4-3-3l4 8h-1l2 5 1 4 1 1-1-1c1-1 3 2 4 2-3 0 0 3-3 3h1v1l2 2h-1c1 1 2 1 2 3l4 7-1 2 1 1h1l2 3-1-1 1 3v-2c1 1 1-1 2 1v3l2 2h-1l3 4v1c1 2 1-1 2 1h-1l4 6h-1l1 2 3 2 6 1 1-2h2v-1l1-1v1c2-2 2-4 3-8v1l2-5v-1l2-6 1-6v-2l-1 1v-2l1-1c1-2-2-1-1-3l1 1-1-3 1 1v-2l1-2 1-2c-2-1 0-3-2-5 2 2 1 0 2 0l1-1v-3l1-1h-1v-8l-2-5h1v-3l1-1c0-1-2 0-1-2l1 1-1-3c1-1 1 0 1 1l-1-4-1 1h1v1c-2 1 0 3 0 5h-1l-1-14h2v1h1l-1-1c1 0 2 0 2-2l-1-2h1Zm-14-77Zm-1-2a1 1 0 0 1-1 0h1Zm9 142Zm4-36-1 1v-2Zm0-9h-1v-2Z" data-name="Path 294"/>
    <path fill="#8cab5a" d="M751 260v-1h-2l1-1h-1v-2h-1l-1-1-1 1h-1v-1l-1 1v-1l1 1-2 1v-1l-1-1h-1l-1-1-1 2v-1l-1-1h1l-1 1v-1l-1 1v-1l-1 1v-1l-1 1v-1l-1 1v-1h-1l-2-1h-2v1l-2-1h-1l-1-1v1h-2l-1 1v-1 1h-1l-1 2h-1v2l1 1-1 1 2 2 1 1 1 1 1-1-1 1h2l1 1v-1l3 2 1-1h2v1h4c0 1 1-1 1 1l2-1-1 1 2-1-1 1 2-1v1l1-1v1l1-1h2v-1h2l1-1v1l1-1 1-1v-1h1l-1-1v-1Zm-4-4Zm-2 0Zm-13-2Zm18 6Z" data-name="Path 295"/>
    <path fill="#f6eaea" d="M849 202v1l-1 1-2 1-2 2v-1l2-1c4-2 2-8-2-8v-1l1 1 1-1h-2l-1-1h-6l-1-1v1h-4l-4-1-2 1c1-1-3 0-3-1l-6 1-2-1-3 1c-2 0 1 0 0-1l-2 1-1-1-2 1h-2v-1c-2 0-1 1-1 1l-2-1-3 1-6 1h-2v-1h-5l-1 1h-5l-3 1v-1l-3 1h-2l-8 1v-1l-12 1h-1l-1 1v-1c-3 1-7 2-10 1h1l-4 1-13-1-4 1-6-1-2 1v-1l-2 1v-1h-2l1 1-4-1h-3l-2-1v1l-5-1h1l-10-1h-1v-1h-4l-8-1-2 1-7-1-1 1h-1c-1 0-2 0-1-1l-2 2-1 1a5 5 0 0 0-1 1l-1 2v1h1l-1 1c-1 4-5 8-4 12s0 1 0 2v2h-1v5l1 1v1l1 2 1 3 1 1 1 1h1l5 4v-1l1 2v-1l9 6 8 6 5 2h-1l4 1 5 1 4-1 4-3-1 1 3-3h1l3-2-1 1 2-2 4-3 3-3 3-3h1l2-2 5-5 7-9c0 1-3 3-2 4l2-4 1-2 1-1v1h1v1l4 3h-1l1 1v-1l2 1c-1 0 2 3 0 2l1 1 2 2 3 2h-1l6 6v1l1 1 3 2h-1l2 2-1-2 2 1 1 2 2 2v1l2 1h4l2-1h-1l7-2-1 1 9-4 3-2v1l7-4h-1l5-2v-1l11-5h-1l3-1h-1l2-2c-2 1 0 1 1 1h-1l2-2 3-1-1 1 3-2-1 1 2-1 2-1h-1l5-3c-2 2-1 0 0 1h1l3-2 7-4 4-4v1l3-2h1l1-1v1l1-1 1-1v1l2-2v-2Zm-88-4Zm3 0Zm40 30Zm31-17Zm8-4 1-1Z" data-name="Path 296"/>
  </g>
</svg>