<svg xmlns="http://www.w3.org/2000/svg" viewBox="0 0 926 604">
  <g fill="none">
    <g fill="#A4937A">
      <path d="m513 68 2 4-2-6 1-4-1-5c-1 3 0 7 1 11h-1zm5 32-1-2v2h1zm-60-59s1 0 0 0zm60 60v2-2zM332 46l2 1c-1-1 5-2-2-1zm185 54 1 1-1-1zM238 472h-7 7zm-91-277v2-2zm64 277h-4 4z"/>
      <path d="M520 162c1 0 0-4 1-3-1-5-1 1-1 0-1-7 1-17-1-27l-3-17v-3l1 3-1-12 1-2-1-7 1 4-2-12c1-2 1 2 2 3l-3-13v2l1 1v6-3c-1 4 1 12 1 18l-1-2a1338 1338 0 0 0-4-46h1l1 2 1 2-1-4v-2l-1-3-3-2-2-1h-8 6-8l-3-1h-6c-1 0 3 0-2-1-3 0 3 1-2 1l-6-1h2-11l-11-1-9 1c6-2-11 0-10-2l-22 2 2-1h-9l-10 2c-5-1 3-1 1-2 1 1-8 1-7 2l-5-1-7 1h-8c-3-1 3-1 3-1-6 0-3 1-4 1h-6l-12 2v-1c-5 1-15 1-21 3l1 1-7 1 3-1h-3l4-1-17 2c-1 0 11-1 5-1h6c-5-1 5-1 0-2l-19 2c-2 1 1 1-2 1-12 2-10-1-19 1-2 1-3 2-10 2l2-1c-8 0-4 2-14 2l6-1c-6-1-4 1-9 1l-1-1-29 3s2 0-1-1c-12 2-27 2-40 1l-2 1h-3c-5 0 0 0-3 1-3 0-4 0-2-1l-4 1-4 3-4 4-2 5-1 9-2 8v-2 7l-1 7v-1l-7 43c0 3-3 15-2 16l-4 18v10h-1v5l-1 3v4l1-3-3 14-2 14v-3l-1 7 1 1-2 10h-1v7-2a82 82 0 0 1-2 17h-1v1l1 3-2 11 2-2-1 3-1 1c0 2 1-3 1 1-2 4-2 3-2 0v3a30 30 0 0 1-1 2v-1l-3 5-3 5-8 12a262 262 0 0 1-7 9l-4 6-16 17c-4 4-1 2-2 4-1 0-7 6-4 2-7 8-9 10-16 21l1-2-3 4v-1c-8 12-22 25-28 35h1l-4 4-3 5c-3 5 2-3-1 1l-17 25c-4 3-8 9-12 16l-3 5v1l-1 2-1 4a9 9 0 0 0 4 6l1 1 4 2v-1l5 3-1-1c12 4 25 6 37 6h38c9 0 5-3 17-2l-4 1c19-2 38-1 56-2h-3c3 1 14 0 14-1l2 1h12-1c3 0 10 0 8-1h18l13-1h16c-2 1 3 1 2 1 5 0 9 0 8-1 9 2 18-1 23 1l41-1c-1 1-15 0-14 1l32-1-3 1 9-1 8 1h17l4-1 5-1c-1 1 1 1 4 1 2 0 5-1 2 1l2-1h2l2-1h2a17 17 0 0 0 2-2l1-1 4-2-2 2 9-11v1l7-11 9-11c-1 3 3-3 4-3l3-5-2 2 9-12-2 3 5-8-3 5c3-5-2-1 3-6l5-6 5-8 1 1 9-13v2l1-3 2-1c4-6-3 1 3-5l-1 1 15-20c2-1-4 6-2 5l21-29-1 2c0-2 5-6 8-11v1a112 112 0 0 0 13-23v1a66 66 0 0 0 7-16v-2l3-22 1-20v2-11l-1 4v-8c0 5 1 0 1-2 1-6-2-1-1-9v-9c1-1 0 3 1 4l-1-14 1 7v-8l1-8v2c-2-5-1-11-2-19 1 7 0 1 1 2l1-4v-12zm-2-25v1l-1-5 1 4zm-2-33v1l-1-6 1 5zM234 55h-3 3zm-10 1h-6 6zm294 205v-4l1 4h-1z"/>
      <path d="M362 472h-5 5zm35-15h-1 1zM514 79v-1 1zM181 473h-1 1zm-37-255v-2 2zm4-35h1v-1zm372 47 1-1-1 1zm1-30v-4 4zm0-22v-1 1zM357 472c-3 0-1 0 0 0zm78-67-2 2 2-2zm-197 67zm195-65-3 4 3-4zm83-328v1-1zm0-2v1-1zm-1-2 1 2-1-2zm3 35zm1 9v-9h-1l1 9zm-53 247 1-2-3 4z"/>
    </g>
    <g fill="#D4D4EA">
      <path d="m492 89-1 6h-1c1 2 1 4 2 3l-1-4 1-2v-3zm-3 25v-1 1zm-27-37zm27 38v1-1zM386 80h1-1zm103 34v1-1zM296 277h-4 4zM206 83l-1 1 1-1zm74 194h-2 2zm210-176zm-9 160s0-1 0 0zM192 89l1-1-1 1z"/>
      <path d="m494 80-2-2-2-1h-1l-1-1a6 6 0 0 0-1 0h3a10 10 0 0 1 1 1l1 1-4-2h-2a3 3 0 0 0-2 0l-4 1c-1 0 2-1-1-1-2 1 2 1-1 1h-4l1-1-6 1h-7l-5 1c3-2-7 0-6-1l-14 1h1-5l-6 2c-3-1 2-2 1-2l-4 1-3-1c-1 2-3 0-5 1h-4c-2-1 1-1 1-1-3 0-1 1-2 1-5 1-2 0-4-1l-7 2v-1l-12 1h-1l1 1h-4 1-1c-2-1 2 0 2-1l-10 1c-1-1 6 0 2-1h5c-4-1 2 1-1-1h-11l-1 1c-8 1-6-2-12-1-1 1-2 2-6 1l1-1c-5 0-3 2-8 1h3-5v-1h-18s1 0 0 0l-25-2h-3s-1 0 0 0h-3l-20-1h1l-9 1h1-27l-5 1-5 1-11 1-6 2v-1l-3 2-2-1-1 1h-1 2c-4 2-9 2-9 2l-2 1h-1v1h-1l-2 1-2 4v-2l1-1-1 2h-1v1l-1 1v1l1 1-2 10-1-1-3 20c1-2 1-2 1 1h-1c0 2 1-2 1 1-1 3-1 2-1 0l-1 3v-1c0 2-2 6-1 8h-1l-2 16 1 4c-1 4-3 9-3 14v3s-1 5-1 2l-2 16c0-1 0-2 1-1l-1 2c-1 9-5 20-5 27v-1 8c-1 3-1-3-1 0l-2 18c-3 5-3 18-5 24h1l-1 2v2-1h1v4a9 9 0 0 0 8 5h36c6 0 3-3 10-2l-2 1c11-2 23-1 34-2h-2 17-1 5l11-1h18c-1 0 2 0 1 1l5-1c5 1 11-2 14 0l24-1-8 1 19-1-2 1 21-1h-1 3-1c-3-1 5-1 5-2-2 2 7 1 3 3l2-1v1l7-1-1 1 8-1h16c-2 1 3 0 3 1h4-2l9-1-2 1h6l-4-1 4-1 5 1h6l-1 1 10-1-1 1h7-1c5 1 10 0 15-1l-1 1c-1 0-2 0-1 1l1-1h2l1-1 1-1c2 0 4-2 5-3l4-11v1-8l1 1-1-17v1-10c0-1 0-3-1-2 2-9-1-17 1-25v1-6l-1 2v-5c0 4 1 0 1-1 1-4-1-1-1-5h1l-1-6 1 2v-8 4l1-5v1l1-5v1c-2-3 0-7-1-12 1 5 1 1 1 2l1-3 1-7v-1c0-3 0 0 0 0-1-5 2-10 1-17v-12l1 2 1-7 1-1v-4 2l1-8v3-8 1l1 1c0 2-1 3-2 3l1-2c-2 2-1 8-2 11l-1-1 5-28 1 1v1l1 1v-8zm-170 0h2-2zm-4 0h-1l-2-1 3 1zm160 131h-1v-2l1 2zm5-75-1 1 1-3v2zm2-19v-3 3zM192 89z"/>
      <path d="m262 277-1 1 1-1zm133-1h-1 1zM213 81h1zm268 111zm1-17 1-3-1 3zm2-14h-1 1zM369 276h-1 1zm65 0h-2 2zm-137 1h-1 1zm132-1h3-3zm62-174zm0 0v-1 1zm0-3v2-2zm-3 27 1-5-1-1v6zm-26 151h3-3z"/>
    </g>
    <g fill="#BEB09D">
      <path d="M447 314h-1l1-1h2v-1h-2l-4-1h-5 3-4l-1-1-4 1s2 0-1-1c-2 1 2 1-1 2l-3-1 1-1-6 1-6-1-5 1c3-2-6-1-6-2l-12 1 1-1-4-1c-1 2-4 2-6 2-3-1 2-1 1-2 0 1-5 1-4 2l-3-2c0 2-2 0-4 1l-4-1h1c-3-1-1 0-2 1-4 0-2-1-3-1l-7 1v-1l-11 1v1h-3l1-1-2 1c-1-1 3-1 3-1h-10c0-1 6 0 3-1l4 1c-3-2 2 0-1-2h-10l-1 1c-7 1-5-2-10-1-2 1-2 2-6 1l1-1c-5 0-2 2-7 1l3-1-5 1-1-1-16 1v-1l-22-1-3 1v-1c-3 0 0 1-2 1-1 0-2 0-1-1-5 1-13 2-18 1h1-8l-24-1-9 1-10-1-5 1v-1l-3 1-1-1h-2l1 1-8-1-8 1 2-1h-4v1l-10-1h1-2l-3 1-3 2-1 1-2 2-2 2-3 4c1-2 2-1 0 1h-1c0 1 2-2 1 1-2 1-2 0-2-1l-2 1v-1c0 2-4 3-4 5h-1l-9 11-2 4-4 4-5 5-1 3c0-1-3 3-2 1l-8 12 1-1-2 2c-4 7-12 13-15 19l-3 6c-2 2 1-2-1 0l-9 14-6 9-3 5-1 3h-1v2l-1 2v-1 3l1 2v-1c0-1 0-1 0 0 1 2 3 5 5 5l4 1h13l20 1c5 1 3-2 9-1l-2 1h31l-2 1 8-1c2 0 0 1 1 1h7-1 21l9 1h6c5 1 10-1 13 1h22c0 1-8-1-8 1l18-1-2 1h19-1 3-2c-1-1 5-1 5-2-2 2 6 1 3 3l2-1v1l6-1-1 1 7-1v1l15-1c-2 1 2 1 3 2h3l-1-1h7-2 6-3c3-1-1-1 3-1l5 1h5l-1 1 9-1-1 1 2-1 1 1c4 0-1-1 3-1l-1 1h14c1 1-4 0-2 1h10l9-3h-1l3-2 4-3-1 1 5-5a632 632 0 0 0 4-8v1l5-7v-2c6-5 8-13 13-18v1l3-5-2 1 2-4c-1 3 1 1 2 0 2-2-1-2 2-5v1l3-5v2l3-6-2 3 4-3v1l3-4v1c0-4 3-5 5-9-2 4 0 1 0 2l2-2c1-2 3-2 4-5l1-1c2-2 0 0 0 0 2-4 6-6 9-12l5-8 1-1v2l4-5h1c2-2 0-2 2-3v2l4-6-1 2 4-6-1 1v1l-2 2 1-2-7 8v-2l9-9c4-4 1-9-3-9zm-156-7h1-1zm-4 0-1 1-2-1h3zm99 96v-1l1-1-1 2zm42-54h-1l2-2-1 2zm12-14h-1l2-2-1 2z"/>
      <path d="M452 318v-2l-1-1-1-1 2 6v2l1 1v-2l-1-3zm-10 17 1-1-1 1zm-26-26zm26 26-1 1 1-1zm-96-28 1 1c0-1 3-1-1-1zm96 27v1-1zM186 437h-3 3zm-3-132-1 1 1-1zm-11 132-2-1 2 1zm103 3zm-120-4zm16-131zm0 0zm278 20zm-259-20zm207 84zm10-13 1-1-1 1zm7-9v-1 1zm-162 72c-1 1 0 0 0 0zm59 1h-2 2zm-124-3h-1 1zm119 3h3-3zm144-114v1zm1-1-1 1 1-1zm1-1-1 1 1-1zm-13 14v1-1zm-4 4 4-3-4 3zm-97 100h1-2z"/>
    </g>
    <g fill="#A4937A">
      <path d="M353 384zm-19 3v-1 1zm19-3zm-3-25zm-2 0zm-32 26zm42-8zm-1 1zm4-18zm9 0zm0 0zm-18 26c0-1 0 0 0 0zm0 0zm1-3h1-1zm15-20zm68-3-3 6-3 1h-3c-1 0 0 0 0 0h-5 8l3-1h1l1-2 1-4zm-45 3h3-3zm13-28c-1 0-1 0 0 0zm-14 28h-2 2zm-38-34-2 2c1-1-3 5 2-2zm39 34h-1 1c1 0 1 0 0 0zm-236 34h-1v1a21 21 0 0 0-1 1 103 103 0 0 0-1 4l3-6zm52-44h2-2zm-69 43a481 481 0 0 0-5 0h5zm64 1h-5 5zm-84 17-1 1 1-1zm233-92zm-107 76z"/>
      <path d="M405 389c0-1 0-1 0 0l-1-1h-12l-4-1c-5 0 2 1 1 1h-11l-7-1h-5l2-3 10-16 2-3-2 3a292 292 0 0 0 5-6v-1l2 1h3l2 1h8-4l13 2-4-1 15 2h-4l-6-2 3 1-20-3h2l36 5c6 1 9-9 3-10h-1l1-1a39 39 0 0 1 3 2h1-1l-1-1a14 14 0 0 0-2-1l-8-2-7-1h-3l7 1-9-1-3-1h-7c-1-1 3 0-2-1h-2l-3-1h-3 1-1l1-1a56 56 0 0 0 3-5c2-3 7-10 8-9a84 84 0 0 1 8-12l3-4v-1l1-1 1-1v-4l-1-2a8 8 0 0 0-8-2l-4 2-1 1-1 2a405 405 0 0 1-4 5l2-1-6 7-6 10c-4 4 2-3 0-2l-4 7-4 5-1 2-1 1v1h-2l-8-1c-3-1 3-1 3-1-7 0-4 1-5 1-9-1-4-1-7-2l-13-1s-1 0 0 0h-4l1-1 1-2a281 281 0 0 0 6-10l1-2v-1l1-1v-3 3-4 2l-1 4 1-1v-5l-5-4h-2l-3 2v1h-1l-1 2v-1l2-3 2-1h1l-2 1 1-1h4l2 2h1l-1-1 1 1 1 1-1-1c-2-3-5-3-7-2h-2l-1 2-1 1v1l-6 9v1l-4 7-1 2h-1v1-1h-9l-11-1h2-16 7-10l-1-1-34-1c1 0 3 0 0 0h-51c-1 0-2 0 0 0-6 0-1 0-3 1-3 0-4 0-2-1l-38 2h2l-17 1h2-18l-2 1a6 6 0 0 0-4 2l-1 3 1 4 2 3h18l18-1h21l10-1h14-4l11-1 6 1 15-1-5 1h10v-1l20 1h-2l38 1c-4 0-3-1 1-1l1 1c3 0-4-1 1-1 5 1 4 1 1 1h6l-2 1h7l4 1h3l-2 2-3 6-8 12-4 7-2 2-1 1h-7l-14-1c-7 0-2 1-5 1l-5-1h-29 2-6 1l-50-2h1-12c1-2 1 0 1 0v-2l1-1a7 7 0 0 0-9-9l-3 3v1h-1v1l-1 2-1 3-1 2h-5a124 124 0 0 0-9-1h-11 1v-1l4-6 6-9v1-1l1-1 1-2v-3l-1-1 1 1v2-1l-2-3-2-2h-7l-1 1-1 2-2 2-3 4-6 8-2 5-2 2-1 1h-20l-3-1h-3l-2 1-1 1-3 3a8 8 0 0 0 4 9l2 1h10l3-1 3 1h2-1 1l-4 7a356 356 0 0 0-7 15l-6 14-1 2v5l1 1 1 1 4 1 5-2-1 1-1 1h-2l5-2 1-2 1-1 1-2 2-6 1-3 6-11 4-8 6-11h20l3 1h4v2l-2 4-1 2-4 9-10 23-1 2v5c1 3 3 4 6 5l4-1 2-3 2-5 9-21-6 15 14-33-1 3 3-7 15 1h15c-2-1 9-1 10-1-3 1 13 0 6 1h18l-3 1 15-1-1 1h31l5 1h7l-3-1h7l-1 3-2 3 2-4-3 5-3 5 4-6-4 7-4 8-5 9v-1l-1 4-1 1v1h-1v3l3 4a6 6 0 0 0 4 1c-1 0-1 0 0 0h1l1-1 2-2 3-7-1 2 14-24-2 4 4-7 4-7h22-3 6a51 51 0 0 0 8 0h2-1l-1 1h3l-5 8-9 12 1-2-11 16-1 2c-1 1-1 1 0 0a6 6 0 0 0-1 4l1 3c2 1 5 2 7 1l3-2 1-1v-1l4-5a296 296 0 0 1 11-16l8-11-3 4 4-7 2-2v-1l2-2v-1h16-4 15-8l10 1h-1 9-2 10l3-1 2-2a6 6 0 0 0 1-5v3c0 1 0 1 0 0l1-2-2-3-1-1zm-51-4v-1 1zm1-3-1 1v1-1 1h-1v1-1 1h-1v1l1-1v1-2l1 1-3 3v-1h1v-1 1h-2 1-1v-1l-1 1v-1 1h-1v-1l-1 1-1-1-1 1v-1l-3 1 1-1h-1l-1 1v-1l-1 1v-1l-1 1-1-1h1l-1 1v-1l-1 1v-1l-2 1h-1 1-2s1 0 0 0h1v-1h-2v1l-2-1v1-1l-2 1 1-1-1 1v-1l-3 1v-1h-4s-1 0 0 0h-3l-2 1 1-1h-2l1-1v-1l1-1 1-1v1-1l1-2v1l2-3h-1v-1l1 1v-1h1l1-3 1-2v-1h1l1-2h-1 1l2-3 1-1c0-1 0 0 0 0l1-3c2 0 2-2 3-2v-1l1-1v-1h1l2 1 1-1v1h11l1 1h7-1 3-1 4l-1 1 1-1c-1 0 0 0 0 0l1 1v-1 1l1-1v1l1-1v1l1-1h2v1h1-1 1l1-1v1h-1v1c-1 0 1 0 0 0v1h-1v1l-1-1-1 3c1 1-1 1-1 1l-1 2-1 1-2 3-1 1h1v1h-1v1-1l-1 1v1-1l-1 1-1 2v-1l-1 1c1 0 0 0 0 0s0 1 0 0v1l-1 3zm-31 5zm1 0zm37-14v-1 1zm-6 9h-1 1zm10 3-1 3h-1 1-1l2-3zm21-23-2-1 7 1h-5zm-131-22h3-3zm-8 0h-6 6zm86 91 2-4-2 4zm73-39-1-1 1 1z"/>
      <path d="M416 366h-1 1zm-223-12h-1zm162 48-1 1 1-1zm32-2h1-1zm-2 0h2-2zm3 0h2-2zm20-7v1-1zm-211 4zm83 22zm-129-15 1-1-1 1zm131 11 3-5-3 5zm133-49h-1zm1 0h-1 1zm3 1-3-1 3 1zm-37-3zm0 0-6 8 6-8zm-87 53 1-2-3 5z"/>
    </g>
    <g fill="#A4937A">
      <path d="M278 313c-21 24-42 49-55 78-2 4 5 7 7 3 13-28 34-53 54-78 3-4-4-7-6-3zm-1-1v-1 1z"/>
      <path d="m279 311 1-1-1 1h-1v1l1-1zm-9 21zm-12 14c1 0 1 0 0 0zm-2 3zm14-17zm14-21h-1 1zm-9 14zm4-5 1 1v-1h-1zm5-7zm-12 16zm0-12zm6-4zm-26 40zm-27 40-1 1 1-1zm59-82zm-60 83zm21-30zm6-8v1-1zm-9 13zm-3 5 1-1-1 1zm22-44s1-1 0 0zm23-19zm-39 60-1 1 1-1zm-7-10zm5 13h-1 1z"/>
      <path d="m264 325 1 1h-1l-1 2-1 2v1-1 1-1l-1 2v-2l-2 2 1 1-2 1-1 2v-1l-1 2 1-1-1 1-2 4-1-1-3 4v1h-1l1 1h-1l-2 3-1 2-4 4v2l-2 2v1h-1v1h-1 1l-2 2v1c-1 0 0 0 0 0h-1v1l-1 2v-1l-2 4v1-1l-1 1-1 1-1 3v2l-2 2v1h-1l-1 3s0 1 0 0l-3 5v2h-1v4l1 1 2 2h5l2-3 1-2 2-4 1-3v1l3-7v1l1-2 1-1v-1l2-2v-2c1 1 1-1 1-2h1v-1l2-2 3-5-1 2 2-4v1l3-4v-2l1 1v-1l1-1v-2 1l2-4h2-1l1-2v1l1-1h-1v-1h1l1-1 1-2v1-1h1v-1l2-2v1l3-4h-1l1-2 1 1 2-3 1-1v-1l4-4v-2h1-1l1-1 1-1v1l1-2-1 1 1-1h1c-1-1 0-1 1-3v1h1l1-1v-1l1-1v-1l1-1v-1l-1-1v-1 1l-1-2h-1a1 1 0 0 1 1-1h-2 1-3 2-1l1 1h2-1 1v2h1-1l1 1h-1l1 1h-1v1h-1 1l-2 2s1-1 0 0l-1 1s0-1 0 0l-1 1-1 2-2 2v-1l-1 2v-1l-1 1-1 2v1-1 1h-1 1-2l1 1h-1v1h-1v1l-3 3-1 2h-1v2-1l-1 1-1 1v1-1c-2 1-1 3-3 3h1l-2 1v3h-1v-1l-1 1c0 1 0 1 0 0l-1 2v1l-1 1-1-1-1 2v1l-1 1v-1 1l-1 1v2l-1 1v-1l-1 2h-1l-1 1 1 1v-1 1l1-1s-1 0 0 0l-1 2-1-1-2 3h1l-1 1h-1v1l-1 1v2l-1-1v3h-1 1l-3 3-1 3v-1l-1 2-2 1v3l-1-1v3h-1l1 1h-2l1-1-1 2v-1l-1 3h1l-1 1-1 3v-3 2l-1 2-2 2h-1l-1-1-1 1s0-1 0 0l-1-1v-1h1v-1 1h-1v-1h1v-1 1l1-3c0-1 0-1 0 0l2-5h1v-2 1l1-4 2-1 2-5 3-4v-1l2-1-1-1 3-4 1-1 2-3v1-2h1l2-4v1l1-2 1-2 1-2v1l1-2v1-1l1-1a1 1 0 0 1 0-1h1l1-2-1 1 1 1 1-3v1-1h1l1-1-1-1v2-2l2-1 2-3 1-2s0 1 0 0l4-5 6-6v-1l1-1c0-1 2-1 2-3l1-1 1-1 1-1v-2h-2v1-1 1h-1v1h-1 1l-1 1v-1l-1 2-1 1v1h-2l-1 3h-1v2l-1-1v1h-1v1l-1 1c0 1 0 0 0 0zm-11 16 1-1-1 1zm-1 1h1-1zm5-1h-1 1c-1 0 0 0 0 0z"/>
      <path d="M256 340zm14-8s1 0 0 0c1 0 1 0 0 0zm-31 28zm38-34zm3-3v-1 1zm2-2-1-1 1 1zm-29 37zm8-12-1 1 1-1zm-1 1v-1 1zm21-37zm0 0h-1 1zm-1 0zm5 2zm1 1-1-1 1 1zm-4 4h1v-1l-1 1zm-2 3v-1 1zm-14 17c-1 0 0 0 0 0zm-2 4h1zm-3 1zm-21 31s0-1 0 0zm-8 14-1 1 1-1zm7-22v1-1z"/>
    </g>
    <g fill="#B1D07A">
      <path d="m288 255 1-2-1-2v-1 2-2a2 2 0 0 0 0-1v-1l-1-1h1c-1-1-1 1-1-1v-1c0-1 0 0 0 0v-3l-1-2v-6l-1-6v-2l-1-3 1 1-1-2v-6 1-3l-1-3v-6h-1v-1c1-1 0 1 1 1l-1-5c1 0 0 3 1 1v2c0-1 0 1 0 0v-5l-1-1 1-5-1-3 1 1-1-4 1 1-1-2h1v-14l1-5-1-2h1l-1-1h1v-9l1-4v-6l1-6v-4l1-2 1-3-1-3h1-1v-1l1-1v-1l-1 1 1-4-1-1v-1a20 20 0 0 1 0-2v-1l-1-1v-2a2 2 0 0 0-1-1 2 2 0 0 0-1 0h-1l-9-2c1 0 1 0 0 0h-1s1 0 0 0-1 0 0 0h-2 1l-4-1-7-1-2 1-6-1h-10 1-2l-12 1h-1a25 25 0 0 1-2 0c-2 0 1 0 0 0l-5 1h-4l-5 1a32 32 0 0 0-6 2v1h-1s1 0 0 0v1h-1l-1 1v2l-1 1-1 5v15-1 16-1 7c0 1 0 0 0 0v8l1 3v4l-1 1c0 1 0 3 1 2l-1 7 1 11-1-4 1 9v-1 10-1 1l1 2c-1-1-1 3-1 2v4-1 4l1 7c-1-1-1 1-1 1v2-1l1 4-1-1v3l1-1v6h-1l1 4v10-2 5l1 1h7s0 1 0 0h7v1h5v-1l12 1h-1 3-1l2-1 1 1 3-1v1l2-1-1 1 4-1-2 1h4l5-1c-2 1 0 0 0 1h5c1 0 0 0 0 0l7-1h6-1 6a3 3 0 0 1-1 0h3-1l4-1h-1v1h-2 1-5l1-1h10l1-2h1v1-1h-1zm-5-78zm0-2-1-1 1-1v2zm-52 83h1-1zm35 0h-1 2-1zm9-1h-1 2-1z"/>
      <path d="M285 257c-1 0 0 0 0 0-1 0-2 0-1 1l1-1h2l1-1-2 1h-1zm-9 1zm10-19zm-11 19zm8-53s0 2 0 0zm-7 53h-1 1zm-74-83v-2 2zm86-52v-1 1zm-86 44v-1 1zm1 52zm79 38zm-80-98zm85-43v1a1 1 0 0 1 0-1zm1 10v1zm-48 133zm8 0h1-1zm6 0zm-51-51c0-1 0-1 0 0zm1 29v-1 1zm-2-62zm2 60v1-1zm78 23h-1 1zm0 0zm1-1-1 1 1-1zm-10 1zm-2 0h2-2zm-67-8v1z"/>
    </g>
    <g fill="#8CAB5A">
      <path d="m366 193 1 1-1-2s0-1 0 0v-1 2zm1 6zm-1-21zm1 22zm-3-48-1-1v1h1zM367 199v1-1zm-63 59h-1 1zm-1 0zm2 0h-1 1zm-4-110zm-2 105v1l1-1h-1zm39 4zm-39-10zm67-52z"/>
      <path d="M368 230v-2 1l-1-2h1l-1-2h1l-1-2h1l-1-2 1 1v-3l-1-4 1 1v-4c0-1 0 0 0 0v-6l-1-4v1-5 1-3 1-3 5l-1-10h1v1-4 1-2l-1-1 1-1h-1v-1h1l-1-2v-13l-1-2 1 1-1-2v-4c0-1 0 0 0 0 0-1 0 0 0 0v-2l-1-2h1l-1-2v-3l-1 1v-2 1-1 1l-1-2a7 7 0 0 0-1-1v1h1v-1 1h1v1-1 1-1a4 4 0 0 0-1-1h-1l-2-1h-7l1-1-3 1 1-1-2 1v-1h-6l-9-1-1 1v-1l-1 1v-1l-7 1h-3 1-10l-3 1h-8v1h-3l-1 1h-2v1l1-1h-1l-1 1c1 0 0 0 0 0l-1 2v2l-1 3v4h1v1c0 1 0 0 0 0v1h-1l1 2h-1l1 6v6l1 1c-1 0 0 2-1 1a72 72 0 0 0 1 6v12c0 1 0-1 0 0l1 6v10-1l1 8v8l1 3 1 6v5l1 3v9l1 2 1 1a4 4 0 0 0 2 1h1l2-1h13-3 7-1 7v1l1-1h-1 2c-1 0 2 0 1 1l1-1v1l2-1v1l3-1h8-1 3-1 2-1l1-1h4v1l3-1h5l2-1v1h-1l2-1 2-1 1-2v-5 1-19 1zm-1-23v-1 1zm0-7-1 1v-2l1 1zm-25-54h1-1zm-1 0v1l-1-1h1zm26 87v-1l1 1h-1zM296 149h1-1zm8-2zm64 80v-1 1zm0-7zm0-4zm-39 42zm23-2-1 1 1-1zm-47 2zm46-1h-1 1zm16-62zm0 0zm0 0v-1 1zm0 8v-2 2zm-6 53h1-1z"/>
    </g>
    <g fill="#A5937A">
      <path d="M445 227v-1a4 4 0 0 0 0 3h1l-1-1v-1zm1 8zm-1-21zm1 21zm-4-47s1 1 0 0zm4 47zm-62-24v-1 1zm38-73zm-38 68v-1 1zm-1-7zm2 45zm60-13z"/>
      <path d="m445 234 1 1-1-3 1 1-1-3v1h1l-1 1v3-10 1h1l-1-1 1-1-1-1 1-1v1l-1-1 1-1-1-1h1l-1-1v-5l-1-2c1 1 0-2 1-2l-1-5v1-2l-1-2h1s0-2-1-1l1-1-1-2v-1h1l-1-1v-3l-1-5v1-2 1-1 1l-1-3c1-1 1 2 1 0v2c0-1 0 1 0 0v-9l-1-2v1-3 1-2l-1-6v-8l-1-1h1l-1-1h1l-1-7-1-3v-4l-1-2h-1v-1h-6l-3-1h-2v-1l-1 1-1-1h-1l1 1-3-1h-8l1-1h-7v1h-1s1 0 0 0-1 0 0 0h-1v-1l-2 1-1-1-5 1h-1l-5 1h-5l-2 1h-2l-1 1h-2v3a2 2 0 0 0 0 1v3l1 2h-1l1 6 1 9v1-1l1 16 1 3v-1l1 6v6-1 3c0 1 0 0 0 0v4l1 4v6s0 1 0 0v7l1 8-1-3 1 7v-1 8-1l1 2c-1 0 0 3-1 1v1s0 1 0 0v3-1 3l1 5-1 1v2-1 1l1 1 2 1h-2 3-1l1-1h3v1l4-1h-1 3-1 5c1 0-1 0 0 0h7-1 3l6-1h-1 4s1 0 0 0h9-1 3-1l1-1 1 1 2-1h2l-1 1 3-1h-2l2 1h2-1l2-1h1l1-1v1s0-1 0 0l1-1v-3h1-1c1-2 2-4 1-6v-4 1-3h1l-1-2zm-5-67zm0-3v1c0 1 0 0 0 0v-1zm-14 88zm19-9v-1 1zm0-7v-1 1zm-27-98zm7 0zM432 252zm6 0h1-1zm5-1zm-58-15c0-1 0-1 0 0zm6 18h-1 1zm-7-43zm5 43h1-1zm57-23zm0-1v1-1zm0 0zm0 7v2-2zm-45 17h-1z"/>
    </g>
    <g>
      <path fill="#BFAF9C" d="M572 530h-1 1zm0 2zm4-11s-1 0 0 0zM572 532zm11-12zm-8 15zm13 2zm-6 0zm0 0h1-1zm-10-7c-1 1-1 1 0 0zm0 3zm8 2v1-1zm-14-397v1-1zm32 383zm1 8zm1-2s-1 0 0 0c-1 0 0 0 0 0zM573 93h1-2 1v-1h1l-1 1zm0 5zm27-6h-1 1zm-27 6zm13 2zm-3 0zm-11-6zm0 0zm0 0zm3 6-1-1 1 1zm13 23-1 1h1-1 1v-1c0 1 0 0 0 0zm-2 3h-1 1zm15-5v1-1zm-16 5h1-1zm3 6v-1 1zm-1-8h-1 1zm-2 3v1-1z"/>
      <g fill="#A5937A">
        <path d="M925 492v6l-1-14c0-1 0 0 0 0 0-4 0-8 2-6l-1 9v5zm-12-48 1 2-1-2zm-21 126zm20-128-2-2 2 2zm-86 113-2 2c0-1-7 2 2-2zm87-111-1-2 1 2zM657 49l3-8-1 4a248 248 0 0 1-2 4zm65 457h-2 2zM650 76l1-1v-1 2l-1 2-1 1 1-3zm221 86-1 1 1-1zm51 309v-1 1zM629 105h-1 1zm174-78-1 1 1-1z"/>
        <path d="m600 525 1-1v-1a20 20 0 0 1 2-2l1-1 1-1v-1l3-2 20-23c6-5 2-1 5-3l4-4c1-1 2-2 0 0l6-6 3-2 3-1 1-1h1l-1-1-1-2-2-2-2-2 3 1-5-5 1 1c-5-8-10-18-13-28-4-10-5-20-5-28v-7l1-5v-3c0-7-1 5-1-1l2-21v-5l1-4 2-10c-1-5 1-15 3-24l6-27v1l1-7v2l19-95c2-11 4-6 5-21l-1 4v-3l1-1v-2h-1l-1-1-4-1a94 94 0 0 1-19-14 44 44 0 0 1-15-28v5a31 31 0 0 1-1-20v-3l3-9 3-6v1l4-7c2-2 3-4 3-2l8-10c3-2 5-5 6-8l1-1v-2l1-5 3-7v-8l5-12c-1 1 2-5 0-3 3-6 5-11 6-10l8-15a232 232 0 0 0 4-6l2-3V5l1-1a5 5 0 0 1 2-1l5-1 5 4 1 1v1l1 2 1 3 4 13 8 24c1-1-6-17-5-17l4 10 1 5 1 2v3h4l11-2h-4c16-2 32-2 46 0-2 1 1 1 4 2l5 1 2 1c-2-1 1-1 4-2l2-1c1-1 0-1-1-1h2l1-1 1-1h-1l3-3 2-2 4-6-2 2 11-13-1 1 11-14 1-2h1v-1l1-1 5-2a6 6 0 0 1 5 4l1 2 1 3c0-2 0-1 1 1l2 4 1 1v7-1l-1-2 1 19v-5 6l1 4v2-3l-1-3v-1l-1 3v1l1 2v2h1l1 3v2l2 1 2 2 8 9c1 1 0-2 1-1l7 7 6 8v-1l1 1v1l3 2 2 4 2 4-1-2c6 9 9 20 11 30v-6a63 63 0 0 1-8 45v-1l1-1c-2 0-3 3-5 6-1 3-4 6-7 8l2-1a42 42 0 0 1-16 10h-1l-2 1v1l1 5v5-2l5 21v3l9 26c2 9 5 17 10 24l-1-3 5 14-3-4 4 9c-3-6 1-1 2 2 4 7-1 2 4 11l4 11-1-5c2 6 3 12 6 16l-3-8 5 10v-1a157871665 157871665 0 0 0 3 10l-1-2c1 7 5 14 6 24v-5l1 2 2 5 2 15c1 0 1 5 2 4 0 6-1-2-1-1v8l1 4v4l1 10-1 5-1 5-1 7-2 6-2 5v3l2 3v-1l-1-1v-1l2 3 3 3 3 3 2 3 1 1 2 4 3 4-2-4 6 15-1-5 4 10v7-4l-3-8 1 2v2l-4-9c-1-4-3-9-6-12l1 1v1a89 89 0 0 1 11 58v1l2-1v-4l1-1v2a18 18 0 0 1-1 3l1 2-1 7v1l-1 3-2 5v2-1l1-2a41 41 0 0 1 1-4l-1 5-2 5-1 3-1 2-2 2-2 4c0 1 2-3 0 2-3 3 1-4-3 2l-1 3-3 4 2-2-5 6-4 5-6 7-4 4a611 611 0 0 0-13 10c-4 3-8 5-7 6-3 0-7 3-12 5a84 84 0 0 1-13 5l-10 4h-5l-9 1c-3 0-2 1 0 1 1 0 3 0 2 1h-5l-4-1h-8l-3-2h-3l-3-2-2-1h-2l-1-1h-1l-4-3h-1l1 1 2 1 1 1-4-4v-1l-1-1-2-3v-8l2-1 1-1 2-1a97 97 0 0 1 4-2l6-4v-1l11-6a76 76 0 0 1 14-6l-1 2 8-3h-4l4-1c3-2-5 2-5 1l20-8c1-1-12 6-6 1l-8 4c6-4-5 3 0-2l12-4 11-6c2 0-1 2 2 1 3-2 6-3 7-5l4-3 3-3 2-2 2-2 4-2 2-2 2-2 1-2-2 1 5-6 1-3 1-2 1-4-2 5-1 2 1-3v-1l1-2 1-4v-1l-1-1v-17c-1-6-4-12-8-17 1 1 2 3 0 0l-4-4-2-2-1-1v-1h-1l-1 1-1 2-2 2a3316 3316 0 0 0-14 21l-5 5v1c-4 5-1 0-3 2l-1 2-14 17-8 9-7 7 2-1-9 5-8 5 1-1a38 38 0 0 1-14 4h-3l-4-2-1-5v-1l1-1v-2a60 60 0 0 1 4-12l2-5 1-1v-1l-1-1-1-1-3-3-1-4v-1l-1-1-1 1h-1l-2 1h-5a364 364 0 0 0-24 5h-11v1h-8l-3 1h-5l3-1h-14v1l-1 1v4l-2 7-1 3 1-4v4l-1 1-2 4-1 1-3 4-7 4-8-1-6-4 1 1v1a46 46 0 0 1-16-20 25 25 0 0 1-1-2v-1h-1l-6 3c5-3 3-3-1-1l-1 2c-2 1 4-3-1-1-5 3-3 3 0 2l-3 1a47 47 0 0 1-3 2h1l-14 7-12 6-5 2-6 2h-4l-4-2c-2 0-4-4-4-7zm258-276v1a67 67 0 0 0 2 5l-2-6zm46 153-1-2v6l1-4zm6 42-2-4h-1l4 6-1-2zm-27 23 1 1-1-1zm0-1-1-1 1 1zm-8-9 2 2-1-2h-1l-2-1 2 1z"/>
        <path d="m770 52-3-1-3-1 6 2zm-61 466 1-3-1 3zm29-12v-1l1 1zm137-220 1 1-1-1zm15 35 2 5a49 49 0 0 1-2-5zm9 28v1-1zM764 50h-1 1zm74 10v1l1 1-2-3 1 1zM661 40l-1 1 1-1zm174 16-1-3 1 3 2 3-1-1-1-2zm89 412v2-2zm0 2v2-2zm0 3a64 64 0 0 1 0-1l1 3-1-2zm-19-39v-1 1zm0-1-3-3-1-5 1 4 3 4zm-27-318v-1a41 41 0 0 1-1-2v-2l-1-1 1 2 1 2v2z"/>
      </g>
      <path fill="#BFAF9C" d="M797 539h-1 1zm-2-14zm-10 12zm9 5zm-4 0zm6-2v-1zm-6 2zm-1 0zm-7-17zm0 0zm3 10zM779 530c1 0-1 0 0 0h-1l1-1v-2h1s0 1 0 0h-1 1c-1 0 0 0 0 0s1 0 0 0v-1h1-1v-1c0 1 0 0 0 0h1c0 1 0 0 0 0l1 1v-2 1l-1-1h1l-1-1v1-1l-1-1h1-1v-1 1-1h1-1s1 0 0 0l1-1h-1s1 0 0 0h-1 1l1-1h-2 1v-1h1-1l1-1h-1 1-1 1-1 1c-1 0 0 0 0 0 0 1 0 0 0 0v1l1-1a2 2 0 0 1-1-1v-1 1-1h1c-1 0-1 0 0 0h-1 1v-1 1-1h1v-1 1-1 1-1 1-1c0-1 0 0 0 0 1 0 0 0 0 0h1l1 1v-1 1-1 1-1c0-1 0 0 0 0 1 1 0-1 1-1v1-1 1c0-1 0 0 0 0v-1l1 1v-1l1-1v1c0-1 0 0 0 0h3s0-1 0 0l1-1v1h1c0 1 0 0 0 0l1 1v-1c0 1 0 0 0 0v1c0-1 0 0 0 0v-1l1 1v1h1c-1 0 0 0 0 0v2s0 1 0 0v5l-1 1v-1 1-1l-2 2h-2v1h1c-1 0 0 0 0 0h1l-1 1h2l-1 1h1c-1 0 0-1 0 0v-1l1 1 1-1v1-1 1-1h1l-1 1 1-1v1-1l1 1 1 1h1v2h1-1 1v1h-1 1v4h-1 1-1v2h-1l-1 1h1l-1 1c1 0 0 0 0 0v1h-1c1 0 0 0 0 0 0 1 0 1 0 0v1h-2l1 1h-1l-1 1-1-1 1 1h-1 1-2v1-1h-1 1-1v-1 1l-1-1v1-1 1-1h-1v1l-1-1h1-1v-1h-1 1l-1-1c0-1 0 0 0 0v-1c-1 0 1 0 0 0v-1h-1 1-1v-1s-1 0 0 0v-1h2-1s0-1 0 0h-1v-1 1h-1c0 1 0-1 0 0l-1-1v1l-1-1v1l-1-1 1-1-1 1v-1 1-1l-1-1v-1h1-1v-1c-1 0 0 0 0 0-1 0 0 0 0 0h-2zm8 5zm-6-9h1-1zm1 0zm0-1c1 1 0 0 0 0v1h1v-2h-1v1h1l-1-1h1v1-1 1c0 1 0 1 0 0v1l-1-1zm-1-3zm-1-3h1-1zm1-1zm6-5zm0 26h-1 1zm-1-3zm1-1h-1 1zm-7-7zm12-3zm-12 1zm0 6h-1 1zm4 4h1z"/>
      <path fill="#BFAF9C" d="M780 532c-1 0-1 0 0 0zm2-7h-1 1zm-3 6h-1 1zm2-14c1 0 1 1 0 0l1 1-1-1zm-1 1zm5-4h-1 1zm-5 4zm12-6zm-13 8h1zm2-3c-1 0-1 0 0 0zm-1 1zm1-22v1l-1-1 1 1v-1zm-1 2c0-1 0-1 0 0 0-1 0-1 0 0zm5-7h-1 1zm-5 7zm13 10z"/>
      <path fill="#BFAF9C" d="M799 502h-1v1l-1 1v1h-1 1l-2 2h-1 1l-1 1h-2s-1 0 0 0h-2l-1-1v1l-1-1-1-1 1-1-2 1 1-1h-1 1-1l1-1-1 1 1-1h-1 1-1 1v-2 1-1 1s0-1 0 0h-1v1-1h-1v1l-1-1h-2v-1h1v-1l-1 1v-1c-1 0 0 0 0 0h-1v-1h-1c1 0 0 0 0 0v-1l1-1v-1h-1s1 0 0 0l1-1v1l-1-1v1h1-1 1v-1h-1v-2 1-1l1 1-1-1h1c-1 0 0 0 0 0v-1h1l-1-1 2 1-1-1v1-1h1s-1 0 0 0l-1-1 1 1-1-1 1 1h1v-1 1h1-1 1l-1-1 1 1-1-1s0 1 0 0h1v-1l1 1v-1s0 1 0 0h1-1 4l1 1h1l1 2s1 0 0 0l1 1h-1 1l-1 1h1c-1 0 0 0 0 0l-1 1 1-1-1 1 1-1v1h1l1 1h1v2h1v2l1 1zm-16 0zm-2-3zm0-1zm7-8h1-1zm6 4zM781 501v-1 1zm6 5zm0-4v1-1zm4 6h1zm-4-5zm-7-6s0-1 0 0zm0 1zm6 5zm-110 26c1 0 1 0 0 0v1l-1-1h1zm-1 2zm3-10zM675 531zm12 7 1 1-1-1zm2 1v-1 1z"/>
      <path fill="#BFAF9C" d="M676 531h-1l1-1h-1 1c-1 0 0 0 0 0v1l1-2h-1v-1a1 1 0 0 1-1 0h1v-1l-1 1 1-1h-1 1s0-1 0 0v-1h1l-1-1 1-1h1-1 1l-1-1h1l-1-1h1-1 1v-1h1-1l1-1h-1s0 1 0 0v-1h1v-1l1-1h-1 1l2-1h-1l3-1 2 1 1 1 2 2v1c0 1 0 0 0 0s1 0 0 0h1v1-1 1-1l1 1v-1h1v1l1-3c2-1 4-2 6 0l6 10c1 2 1 4-1 5s-5 1-6-1l-2-5v4l-1 4h-1 1l-2 2h-1v1h-2l1 1-1-1h-3s-1 0 0 0l-1-1h-1l-1-2v1-2h-1v1h-1l-1 1h-1v-1l-1 1v-1c0 1 0 0 0 0h-1 1-2 1l-1-1v1h-1s0-1 0 0v-1h-1v-1l1-1h-1v-1h1zm10 0h-1 1zm-4-14zm0 18h-1 1zm-6-2h1v-1l-1 1zm0-2zm13-11zM677 535zm10 3zm-12-8zm0 2s1 0 0 0zm-59-9v1s0-1 0 0v-1zm5 1-1 1 1-1zm-6-1zm-3 12zm4-12zm-1 0s0 1 0 0zM597 523h1l-1-1h1-1l1-1h1-1 1-2l1-1h1l-1-1h2-1 1l-1-1h2l-1-1 2-1v1h2s0 1 0 0h2l1-1v1-1 1-1 1l1-1v1-1c0 1 0 0 0 0v1l1-1h1v1-1h1l1 1v1h1v1-1 2h1c-1 0 0 0 0 0l1 1-1 1h1l-1 1 1 1v-1 1-1h1v1s0-1 0 0h1v-2 1-1h1v1-1 1s0-1 0 0v-1 1-1 1l1-1v1h1l-1 1 1-1v1-1 1-1h1l-1 1 1-1v2a2 2 0 0 0-1 0h1l1-1v1h-1c0 1 2 0 1 1 0 0-1 0 0 0 0 0-1 0 0 0v1l1 1h-1 1-1 1l-1 1c1 0-1 0 0 0l1 1h-1 1l-1 1h1-1 1-1 1v2h-1 1v1h-1v1h-2 1l-1 1c0 1 0 0 0 0h-1 1-1l-1 1h-1v-1l-2 1v-1l-1-1h-1v-1s-1 0 0 0l-1-1v1-1h-1l1-1h-1 1-2 1l-1 1-1-1v2-1 1s0-1 0 0h-1 1-2v1-1h-1 1-1v-1 1l-1-1v1-1 1-1 1l-1-1-1 1v-2l-1 1v-1h-1l1-1h-1v-1h-1 1v-1l-1 1 1-1c-1 0 0 0 0 0h-1 1-1v-1h1-1l-1-1h1-1 1v-1h1-1l1-1h-1s0-1 0 0v-1h-1v-1h-1l1-1-1 1 1-1h-1 1l-1-1-1 2zm24 5c0-1 0-1 0 0 0-1 0-1 0 0 0-1 0-1 0 0zm-20-10zm14 6zm0 0h1-1zm-4 9v-1l-1 1h1zm-10-1zm-1-4zm9 6zm-4 1zm0 0zm-2 0zm43-420h1-1zm4 1zM657 118l-2-1v1l-2-1h1c-1 0-2 0-1-1h-3l-1-1h-3c1 0 0 0 0 0l-1-1h-3l-5-2s2 0 1 1l-3-2c-1 0 0 0 0 0l-4-1h-1 1l-1-2c0 2-2 0-1 2l-1-1v1l-1-1-2-1v1l-3-2-1 1h-1l1-1h-3 1l-1-1h-2l-2-1v1-1l-1 1c-1-1 1-1-1-1h1l-4-1 1 1-5-1-1-1v1l-4-1h-2v-1h-6 1-2l1-1h-3l-1-1 1 1-2-1 1 1h-3 1l-3-1c1 0 0 0 0 0v1l-2-1v1-1h-2v1h-2l-1-1-1-1-1-1h-1v-1 1l-1-2c0-1 0 0 0 0l1-2v1h-1l1 1v2l1-1-1-1 2-4-1-1 1-1h1l1-1h-1 3v1l1-1h3l1 1c-1-1 1 0 1-1l3 1h1l1 1v-1l1 1 1-1 1 1h1v-1 1h1l1 1v-1l3 1v1h1-1 1l-1-1 2 1c1 0-1 0 0 0h-1v-1h3v1h2l2 1-1-1 2 1s-1 0 0 0h1l4 1s-1 0 0 0h5l1 1c1 0 0 0 0 0h1c1 1 3 2 4 1l1 1 6 1 2 1h3l1 1v-1l1 1v-1l1 1h-1 2l2 1-1-1 2 1c-1 0 0 0 0 0l2 1v-1l4 2v1-1 1l1-1c1 0 0 0 0 0h2l4 1v1l3 1 1 1v-1l4 2h-1 1l6 2a635338 635338 0 0 0 1 2v-1l4 3c1 0 2 1 2 3l-1 4v1l-3 2h-4l-3-2-2-1s1-1-1-1l-6-3zm-62-17h-1 1zm-17-1v-1 1zm-4-2a2 2 0 0 1 0-1v1zm39-3zm1 0v1h1l-1-1zm23 5zM631 110c0 1 0 1 0 0zm-14-4zm0 0h1-1zm-7-1h1-1zm12 30h1-1zM586 125l1-1v1-1 2h-1 1l1-2v-1h-1 1a1 1 0 0 1 0-1h1-1 1v-1l1 1v-1 1-1h3v-1l2 1 1 1v-1 1l1-1v1l1-1v1-1l1 1v-1l2 1-1 1h1v-1l1 1v-1h-1v-1l2 1s-1 0 0 0h1l1 1-1-1 1 1v-1l1 1v-1l2 1v-1h3v1-1 1s1 0 0 0h3-1l1 1v-1h3l1 1 2-1v1h1v-1 1l1-1 1 1v-1c0 1 0 0 0 0v1h2v-1l2 1c-1 0-1 0 0 0v1-1h3v1l2-1v1l1-1 1 1h2l1 1 1 1v1h1v5l-1 2h-1l-4 1h-2l-1-1v1l-4-1h-1v1l-1-1 1 1-1-1h-3s-1 0 0 0h-2l-3-1 1 1-2-1h-2l-1-1v1h-1v-1 1l-1-1v1l-2-1v1-1h-1v-1l-1 1-1-1v1-1 1l-1-1v1-1h-2v1l-2-1h-1c1 0 0 0 0 0l-1-1h-3v1h-1v-1h-1v1h-1v-1 1l-1-1 1 1h-2 1l-1-1h-2c0-1 0 0 0 0l-1-1v-1l1-2h-1v-1l1-1h-2zm22-2zm-14 7zm-7-1v-1 1zm0-3h-1 1zm33-3zM612 134c1 0 1 0 0 0zm-7-2zm15 3zm-14-3h-1 1zm-4 0zm13 17h1-1c0 1 0 0 0 0zm-2 2v-1 1zm14-7v1-1zm-14 7zm33 1v-1 1z"/>
      <path fill="#BFAF9C" d="M622 157h-1l-2 1h-1v-1l-1 1v-1h-1v1l-1-1h1l-1 1h-1 1l-1-1v-1l-1 1s0-1 0 0v-1h-1l1-1h-1v-2l1-1v-1h1l-1-1h1-1l2-1v1l-1-1v2h-1 1l2-2-1-1h1v-1 1-1h1v1-1 1l1-1 1-1v1l1-1h1v-1l1 1v-1l1 1v-1 1l1-1-1-1 1 1v-1l1 1h2-1 1v-1 1l-1-1h2c1 1 0-1 1-1l1 1-1-1 1 1v-1l1 1-1-1h2l3-1c0-1 0 0 0 0 1 0 1 0 0 0l3-1h-1l1 1 3-2 1 1 1-2 1 1-1-1 1 1v-1 1l1-1h1s0-1 0 0l1-1h2c1 0 0 0 0 0v-1h5c1 0 0 0 0 0h2l1 1 2 1 1 2v1h1l-1 1v4h-1l-1 1-3 1-2 1-1-1v1h-4 1-1v1h-1s0 1 0 0h-2l-1 1s-1 0 0 0h-1l-1 1-3-1 1 1h-2l-2 1-1-2v2h-3v1h-1v-1h-1l1 1h-1v-1s0-1 0 0h-1v1h-1c-1 0-1 0 0 0h-2v1h-3s0 1 0 0h-1v1zm-2 0h-1 1zm-6-3v-1l-1 1h1zm0-3v1-1zm20-8v1-1zm10-3zM615 158c0-1 0 0 0 0zm-1-1zm23-3zm-7 0v1-1zm14-2zm-14 3 1-1-1 1zm-16-6h1-1zm-1 3v-1 1zm14 4zm206-56-1-1 1 1h1-1zm-4 2h1-1zm25 2s-1 0 0 0zm-25-2h1-1zm55 25h1-1z"/>
      <path fill="#BFAF9C" d="m904 136-3-1h-1l-1-1-4-1c0-1 1-2-1-2v1c-1-2-3-2-5-3h1l-2-1h-1l-1-1-2-1-1-1h-3c-1 0-1-2-2-1a25 25 0 0 0-4-2s2 0 1 1l-2-2v1l-3-2h-1v-1l-1 1v-1 1l-1-1-1-1v1l-3-2-1 1v-1h-2 1l-1-1h-1a1 1 0 0 0-1 0l-1-1v1-1l-1 1v-1l-2-1v1l-4-2h1-2v1l-2-2v1l-2-1c-2 1-3-1-5-1h1-2 1a1 1 0 0 0-1-1v1-1h-2s1 0 0 0l-1-1 1 1h-2l-1-1v1h-1l-1-1h-1 1-1l-1-1a2 2 0 0 1-1-1v-1l1-2h-1l1-1-1-1h1-1l1-1h1-1l1-1h1v1l-1-1v2h-1c1-1 2-2 4-1v-2 1l1-1 1 1v-1h1v1l1-1v1h2l1 1 1-1 2 1h1l1 2v-2l1 1 1 1 1-1v1l1-1 1 1 2 1v1-1l1 1-1-1 2 1v-1h-1v-1l2 1v1h2l1 1v-1l1 1c0-1 0 0 0 0h1l3 1s-1 0 0 0l4 1s1 0 0 0h1c0 1 0 0 0 0l3 2v-1l1 1c2 1 3 2 5 1l1 2 2-1 1 1h2l2 1h-1 1v1h2l3 1v1s-1 0 0 0c0 1 0 0 0 0h2l2 2 1 1h2v1h1l2 2h1l2 1h2v1l1 1h1v5l-1 3-3 2v-1l-1 1h1zm-62-25h1-1zm-11-5h-1 1zm-1-3 1-1-1 1zm34 4v1-1zm1 1zM883 113zm-47-3zm-2 0v-1 1zm36 11zm-10-5zm22 10zM860 116v1-1zm-28-16zm0 0zm-3 4v-1 1zm26 11zm-28 11zm24 1v1-1zm-24-1zm49 21zM881 149h1l-2-1h-1l-1-1h-2l-1-1h-2v-1h-3l-3-2 1 1-3-2v1l-4-2 1 1-1-1v-1l-1 1s-1 0 0 0h-1l-1-1v1l-1-1-2-1-1 1-1-1h1-2v-1h-2v1l-2-1h-1s1-1 0 0l-3-1 1 1-4-1h-1s0 1 0 0h-10v-1h-1v1-1h-2s1 0 0 0h-1 1-2 1-1v-2l-1-1v1h-1v-2h-1 1v-3l2-1 1-1h-1l2-1c-1 0 0 0 0 0h2l-1-1 2 1h-2 1-2v1c1-1 3 0 4 1l-1-1v-1 1h1l1-1v1h1v-1l1 1v-1 1h1v-1l1 1 1-1h5-1 1l1 1v-1l1 1 1-1v1h1v-1 1l1-1 1 1s1 0 0 0l2 1h1l-1 1h1v-1 1-1l1 1v-1h-1l1-1 2 1s-1 0 0 0h2l1 1h1-1 1l3 1h1l4 1c1 0 0 0 0 0h1c0 1 2 2 3 1l1 1 4 1 2 1h2l1 1h1-1 2l1 1h1l1 1 4 1-1 1 1-1v1-1 1-1l2 1 2 2h1l2 1v1h1l2 2h-1l1 1v-1l1 1 1 2 1 1v2l-1 1 1 1-2 2-1 1-3 1-4-1h1l-1-1-2-2-4-2c-1 0 1-1-1-1l-4-2zm-48-13zm-9-7zm3-3v1-1zm34 4h1-1zm1 1h1-1zm18 5z"/>
      <path fill="#BFAF9C" d="M824 134zm37 7c1 0 1 0 0 0 1 1 1 0 0 0zm-10-3zm22 8zm-22-8h1-1zm-21-12zm-6 1 1-1-1 1zm21 10h1v1zm-21 12 1 1h1-2v-1zm-3 2zm21 3v1-1zm-21-3zm41 29h1-1z"/>
      <path fill="#BFAF9C" d="M821 153c0-1 0 0 0 0v-2h1-1l2-1h-1 2-1c1 0 0 0 0 0 0-1 0 0 0 0v1h-1v1a4 4 0 0 1 4-2v-1h2-1 1l1 1v-1 1s0-1 0 0v-1l1 1h1l1 1 1-1 2 2v-1h1v2-2l1 1 1 1h1v-1 1-1l1 2v-1l2 2s0 1 0 0l1 1v-1h-1l1-1 1 1v1h2l1 1v-1 1h1l2 2 1-1 3 2s1 0 0 0c1 0 0 0 0 0h1l2 2 1 1 4 2v1h2l1 2v-1 1h1-1 2l1 2-1-1h1v1h2l2 2-1 1h2l2 2v1l2 1v1h1l1 1v1l2 1 1 1 1 1v1c0 1 0 0 0 0v3l-1 1c1 1 0 2-1 2l-3 2v-1 1-1h-3l-2-2-3-2v-1l-3-3s-1 0 0 0l-1-1h-1v-1h-1l-1-1-1-1-1-1-1-1c-1 1-1-1-2-1l-2-2 1 1-2-2c-1 0 0 0 0 0l-3-2v1-2l-1 1v-1 1l-1-1-1-1v1l-2-2c0 1 0 0 0 0h-1 1l-1-1h-1v-1h-1v-1l-1 1-1-1c-1 0 0 0 0 0l-2-1v1l-3-2-1-1v1l-2-2v1l-1-1s-1 0 0 0c-2 0-2-2-4-1h-1l1-1h-1c1 0 0 0 0 0h-1v-1 1l-1-1v1h-1l-1-1v-1l-1 1-1-1h-1 1l-1-1v-3zm0-1h1-1zm29 7zm1 0v1-1zm-21 1zm-9-5zM865 167zm-42-8zm29 13c0 1 0 0 0 0zm-8-5zm0 0h1-1zm-21-18zm0 0h1-1zm-3 4v-1 1zm20 12z"/>
      <path fill="#B1D07A" d="m723 311-2 1 1-2v-3 4h1zm-3 8h1-1zm0-29zm0 30zm6-64v-1 1zm-5 63-1 1v-1h1zm54-13-1 2 1-1v-1zm-42-125v-1 1zm42 120a2 2 0 0 1 0-1v1zm-35-123zm-11 5h1-1zm-6 172zm-1-8v-1 1zm-1-6h1-1zm45 0c0-1 0 0 0 0zm-15 26h1-1zm23-59zm-22 59 1-2-1 2zm-32-54v1zm0 0zm1-1-1 1 1-1zm0 13-1-3 1 3zm24 54v1h-1z"/>
      <path fill="#8CAB5A" d="M740 228h-1v1-1 1-1h1zm-3 0c0 1 0 1 0 0zm10-3s-1 0 0 0zm-10 4zm19 5zm1-13zm-21 11zm9 4h1-1zm1 0zm-8-8zm0 0zm-1 1zm7 8h-1z"/>
      <g fill="#92816C">
        <path d="m803 491 1-1-1 4c0 1 0 2-1 1l1-2v-2zm2 14-1-1 1 1zm1-34zm-1 34 1 1-1-1zm6-77v1-1zm-6 77zm57-159h1l1 1-1-1h-1zm2 1h1-1zm-10-2h1-2 1zm-44-24zm14 40z"/>
        <path d="M803 497v2l1 2v2l1 2v-3l-2-8c0-2 1-4 3-4l-1-1h-1 1v-5 2-3l1-2c0-1-1 1-1-1h1v-2c0-1 0 0 0 0l1-3-1-4 1-3v-4l2-7-1 1v-3l2-3c-1-2-1 0-2 0l1-3v-1l1-3-1-2v1l1-2-1-2 1-4 1-7h1v-2 1-1c-1-1 0 2-1 1l1-5c0-1 0 3-1 1v2c0-1 0 2 0 0v-6l1-1c1-4-1-3-1-6 1-1 2-1 1-4v1-5 2-3l1-10h-1v-13l1-2h-1c0-2 1 0 1-1l-1-1 1-11-1 1 1-5-1-15v-5l-1-6 1-3h-1l1-2-1-1v-1 1-10l-1 1v-8h-1v-11c0 2 0 1 0 0v-1c0-1 0-1 0 0v-2l-1 1v-4a94 94 0 0 0-1-5v-2l1-3 1-1 2-1 5 1 2 2 1 1v4l1 9h-1l1 1c0 5 2 11 1 15v4c0 2 0-1 1 0v11c2 2 1 9 2 13h-1l1 2-1-1 1 13v3-1 2h1l-1-1h1v-1l4-4 7-6h-1l5-2c1 0 0 0 0 0l3-1 1-1c1 0 0 0 0 0h3l6-1h3l2 1 2-1 2 1 2 1 1 1 1 3v1c0 2-1 4-3 5h-17 4c-4 0-6 1-9 3h1l-8 8 1-1-1 1-3 2c2-1-1 3 1 2l-1 1-2 3h1l-3 4 1-1-4 9v3l-1 2h-1v2l1-1v3l-1-2v8h1l-1 5v4-1 8-1l-1 12v-1 5-1l-1 9v6h-1c1 6-1 10-1 14h1l-1 3v-1l-1 3c1-2 1 0 1 0h-1v3l-1 3c1 1 1-1 1-1l-1 4 1-2v3l-1 2-1 6c1-2 0 0 1 0v1l-1 4v1c0 2 0 0 0 0l-1 9-1 2v1h-1l-2 2h-1 2-6v-1h-1v-1 2-5l-1 1v-5zm10-103zm0-4v2-2zm5 66v2-2zm-5 42v-1l-1 2 1-1zm-7 7h1l-2-1h1v1z"/>
        <path d="M811 333zm7 134zm-2 10zm0 7v1-1zm19-117c0-1 0 0 0 0zm-13 33v-2 2zm43-52v-1 1zm-43 49v1-1zm-20 100v1zm0 0zm0-1v1-1zm9 10 1-2-3 2h2zm11-91v2zm-42 70v-1l1-2-1 1 1-2v-1l1-1h-1 1v-2 1l1-3v-2l1-2v-3l2-5v1-2l1-2c0-2-1 0-1 0l1-2v-1l1-2-1-1c0-1 0 0 0 0l1-1-1-1 1-3 2-4-1-1 1 1v-2 1-1 1l1-4c-1 0-1 3-1 1v2h-1l1-5v-4l1-3v1-3 1l1-2h-1l1-7v-11h1l-1-1 1-7v-17l-1-4 1-2v-1l-1-1 1-1v1l-1-4v-3 1-6 1l-1-8h1v-1s0 1 0 0h-1l1-1h-1v-17s0-2-1-1v-6l1 1c0-1 0-2-1-1 1-4-2-8-1-11v1-3c0-1 0 1 0 0l-1-8a3 3 0 0 1 0-1v-2l3-2c3-1 6 0 7 1l1 1v1-1 3l1 2v5l1 8v4l1 12v3l1 1v2l-1 2 1 4-1 3 1 4s0 1 0 0v2c1 2-1 5 1 6l-1 9 1-3-1 7h1v8-1 1c-1-1-1 2-2 2 1-1 1 2 2 1l-1 1h1l-1 3 1-1-1 3h1l-1 6 1 1v2l-1-1v4-1 2-1l-1 1 1 2-1 2h1l-1 4 1-1-1 1 1 1c0 1-1-1-1 1v-1 6l1-1-2 8v3l-1 6h1l-1 4s0 1 0 0l-2 10 1-1-1 3v-1l-1 2c0-2 0 0 0 0l-1 2v2c0 1 0 0 0 0l-1 3 1-2v4c-2 1-1 2-2 4 1-2 0 0 1 0v1l-1 2v1c0 1 0 0 0 0l-2 6-2 3-1 1h1l-1 2v2h-1 1l-3 1h1l-2 1-2-1h3-1l2-1 2-1h-1c-2 3-8 1-7-3s-1 0-1 0v1-3zm12-64v1-1zm0-3v1h1l-1-1zm6 34h-1v1l1-1zm-7 29v-1 1zm-3 7h1l-1 1v-1z"/>
        <path d="M782 489c0 1 0 0 0 0v2l-1-2v-1l-1-1h1l1 2zm7 0v1-1zm-6-16zm7 16v-1 1zm-1-44v-1 1zm0 44h1-1zm14-128v-2 2zm0-6v-1 1zm-11 24zm5 81zm-1 6-1 1 1-1zm-2 6zm10-83c0-1 0-1 0 0zm-2 24h1-1zm1-52zm0 51v1a1 1 0 0 1 0-1zm-19 80zm-1-1 1 1-1-1zm0 0zm8-4v-2 2zm11-63v1zM694 316v-1 2h1c-1 1-1 2-2 1l1-1v-1zm-1 9zm11-10zm-11 10zm10 21v1-1zm-10-21zm4 138v2-2zm1 7v1-1z"/>
        <path d="M692 340c0-2 1 0 1 0v-7l1-4v-1 1-3l-1-1 1-1h-1l1-3-1 1 1-3v1c0-1 0-1 0 0v1-1 5l1-12h-1v1-1l-1-1v-1l1-1 1-1v-1 1l-1 1 2-2h4v1h3v1l1 2v3l-1 2c1-1 0 3 1 3l-1 5 1 2-2 2c1 2 1 0 2 0l-1 2v5l1-1c0 2-1 1-1 1v5l-1 5v2-1 4s0-3 1-1l-1-2h1v5h-1c0 3 2 3 1 5l-1 3 1-1-1 3 1-1-1 2h1l-1 8h1l1 10-1 1v1s0 1 0 0v8h1l-1 3 1 11v4l1 5-1 2h1l-1 1 1 1v1l-1-1 1 4v3-1l1 2h-1l1 4 1 8h-1v1s0-1 0 0 0 1 0 0v1h1v3l1 7-1 1 1 6v1s0 2 1 1v7l-1-1 1 1 2 11v3c0 1 0-1 0 0l1 8 2 10v-1 2-1 6c-1 2-3 3-6 4l-3-1-2-3-1-1v-8l-1 1-1-14v1l-1-4v-3 1-3l-1-4v-3l-1-4v-3l-1-6v-10 4-8c-1-1-1 0-1 1v-9 1-2 1l1-3c-1 1-1-2-2-1h1l-1-1 1-3-1 1 1-3h-1v-10 1-4 1-2 1l1-1-1-2v-7c0 1 0 1 0 0l-1-1c0-2 1 1 1-1l-1-6v1-9 1-4 1-11s0-1 0 0v-11l-1 1 1-3v1-3c0 1 0 0 0 0v-4 1-3 1-2 1l-1-2h1l1-5-1 1-1-1v-3c1 1 1 0 0 0zm2-14v1-2 1zm9 46v-1 1zm0 1-1 1 1 1v-2zm-10-8h1v-1l-1 1zm1-30v-2 2zM705 417zm-12-60zm0-7v-1 1zm0-6zm2 90zm-1-27v1-1zm3 56zM694 409v-1 1zm-1-89zm0 0zm0-1v1-1zm0 11v-2 2zm0 66v-1zm-22-64-1 1 1-1v-2 2c0 1 0 1 0 0zm-2 8v-1 1zm12-10zm-12 10zm9 19s0-2 0 0zm-9-19zm-7 129v1-1zm0 6h1l-1 1v-1zm9-150c0 1 0 0 0 0z"/>
        <path d="m662 455 1-7h-1l1-8v1-1l1-2c-1 1 0-2-2-1l1-1h-1l1-3v1-3l1-7c-1 1-1 0-1-1v-1 1l1-4-1 1v-2l1 1v-5h-1l1-4c0 1 0 1 0 0v-7c0-1 0 1 0 0l1-8v1-3h-1l1-6v-4l1-1v-9s0 1 0 0v-2l1 1v-2l-1-1h1v-4 1-3 2-4l1-4c0 2 0 0-1 0v-1l1-2-1-1h1c0-2-1-4 1-6l1-4v-1l-1 1 1-3h-1l1-2-1 1 1-3-1 1 2-3v1h-1v5-1l2-10v-1l-1 1h-1 1l-1-1v-2h1l1-1v-1l-1 1h1l1-1 1-1h1l1 1v-1c1 1-1 1 1 1h2-1 1l1 1v2l1 1v2l-1 2c1-2 0 2 1 2l-2 5h1v2l-2 2h2l-1 1v2l-1 1 1 2c0 1 0 0 0 0h-1l1 2-1 3-1 4-1 1h1c0 1 0 0 0 0l-1 3c1 1 1-2 1-1v-1h1v4l-1 1v4l-1 3 1-1-1 3v-1 2l-1 7h1v10l-1 1c1 1 0 0 0 0v1l-1 8 1-1-1 3v10l-1 4 1 4-1 2h1l-1 2h1v1s0-1 0 0v6-1 14h-1 1-1 1v2-1 16c0 2 0 1-1 1l1 1v6h-1l1 1v13h1l-1 7c2 2 1 7 2 9h-1l1 1h-1v5l-1 1-1 2-3 1-3-1-3-2a7 7 0 0 1 0-1l-1-2v-2l1-4-1 1v-13 1-7l-1 1 1-3v-11h-1l1-2-1-5 1-10-1 4zm5-78v-1 1zm2-29v1l1-1h-1zm1-7v-1 1zm6 41zm-1 3v-1 1zm-1 40v-1zM667 370l-1-1 1 1zm0-7v-1 1zm0-5 1-1-1 1zm-4 83c-1 0 0 0 0 0zm1-25v1-1zm-2 52v1zm2-50v-1 1zm6-83zm0-1v1-1zm0 0v1-1zm-1 10v-2 2zm-5 61v-1zm-36-44v1l-1-1h1zm-1 2h-1 1zm8-9v1-1zm-8 9zm23 0z"/>
        <path d="M627 362h1-1 1l-1 1h1l1-2a2 2 0 0 0-1 0 1 1 0 0 1 0-1v-1 1-1h1-1 1s0-1 0 0v-1h1v-1h1v-1l1 1v-1h1v-1 1-1h2v1l1-1h-1 1l-1-1v1-1h1l1-1 1 1-1-1h1s0 1 0 0h2l-1-1 2-1 1 1c0-1 0 0 0 0h2l-1-1 1 1 2-1 1 1 1-1 1 1v-1 1-1h2-1 3v1l1-1v1-1h2v1h1v1l1-1 1 2h1l1 2v1-1 3l1 1-1 1v1-1l-2 2-3 1h-2l-1-1h-3v-1l-1 1h-1l-2-1v1h-3 1l-1-1v2-1 1l-1-1v1-1 1h-3v1h-1c0 1 0 0 0 0l-1 1h1l-2 1c0-1 0 0 0 0l-1 1-1 1v-1l-1 1h-1v1l-1-1c-1 1 0-1 0 0l-1-1v1-1 1h-1v-2l-1 1v-1h-1 1-1v-1l1-1v-1l-1 1v-3zm13-9zm-7 15h-1 1zm-5-3zm0-1v-1h-1l1 1zm21-13zM628 368c0-1 0-1 0 0zm16-5zm-5 1h1-1zm1 0zm-13-2zm-1 2h1-1zm12 1zm227 93h-1 1zm-1 2zm5-10s-1 0 0 0zm-5 10zm19-10v-1 1zM864 459v1-1l1-1v1l-1-1v1h1l-1 1 1-1v-2h-1 1a1 1 0 0 1-1-1h1-1v-1l1 1-1-1 1 1v-2h1l-1-1h1v-1h1-1 1v-1c1 0 0 0 0 0h1l-1-1h2-1l1-1h-1v1-1h1v-1h1l-1-1h1c-1 0 0 0 0 0l1-1h-1l1-2h1-1 1l1-1v-1l1-1 1-1v-2h1-1v-1h1v-1l1-1 1 1-1-1h1-1 1l-1-1h1l2-1v1l2-1v1-1l2 1h-1 1l1 1 1 1v1l1-1v2l1 2v1h-1v1-1l-1 2v2h-1l-2 2c1 0 0 0 0 0v1h-1l-1 1c1 0 0 0 0 0v1l-1 1-1 1h1l-2 1h1l-1 1h-2l2 1-1-1v1h-1l-1 1 1 1h-1v-1 1h-1l1 1h-1c0 1-1 0 0 0l-1 1 1 1h-2v1s1 0 0 0l-1 1v1l-1-1-1 1h-1v-1l-1 1c0 1 0-1 0 0v-1 1h-1 1-2 1l-1-1v1h-1v-1c-1 0 0 0 0 0h-1v-1l1-1h-1v-1h1zm8-13v1-1zm-2 18v-1 1zm-5-3zm0-1h-1 1zM876 439v1zm-10 24zm13-8zm-4 3h1-1zm8-7h-1 1zm-7 7zm-12 0zm0 0zm0 3v-1 1zm11-1h-1zM716 164l-1-1h1v1l-1 1 1-1zm1 4-1-1 1 1zm4-21v-1 1zm-4 21v-1 1zm27-8z"/>
        <path d="M715 161v-1h1-1 1v-3h1v-2l1-1v-1h1l-1-1h1v-1c0 1 0 0 0 0v-1h1l-1-1h1l1-2h1l1-1h-1v1l-1-1 1-2v1c2-1 0-2 1-2l1-1h-1l1-1v1l1-1h-1l2-2-1-1 2-3h1v-1 1-1l3-2h7l1 2h2v2h1l1 1v1-1l1 1 1 2v-1l1 3s-1 0 0 0v1-1 1h1v1h1l1 2-1 1 2 1v1l1 2s0 1 0 0c0 2 3 3 3 4v1c0 1 0 0 0 0l1 3 1 1h1v3l-2 5-4 2-3-1 1 1-3-3-1-3v1-2h-1v-1s-1 0 0 0l-1-2v-1l-1-1h-1v-1l-1-2-1-3v1l-1-3v1l-2-3 1-1h-2 1-1v-3h-1v1-1l-1 1h1-1v-1 1l-1 1h1l-1 1-1 1-1 2h1l-2 2v1l-2 2h1l-1 2c0 2-2 2-2 3h1l-1 1h-1l1 1h-1l-1 1h1l-1 1 1-1v2l-2 1h1v1l-1 1v1-1l-1 1h-2l-2-1v1l-1-1-1-1v1-2l-1 1h2v1l-1-4h-1v-2l1-1zm12-24v1-1zm0 21h-1 1zm-6 10v-1h-1l1 1zm-4-1h1l-1-1v1zm25-32zM725 166h-1 1zm12-18zm-3-3zm8 12h1zm-8-13v1-1zm-19 22v-1 1zm0-1zm4 3h-2 2zm13-20v1zm-46-23v-1 1-1 1zm4 0zm-5-1zm-3 10h1-1zM682 131h-1l1-1h-1 1-1 1-1 1v-1h-1 1v-1 1h1l-1-1h1-1s1 0 0 0v-1h1v-1h-1 1l1-1h-1 1v1-1 1-1 1-1h1-1v-1l1 1v-1h-1 1c0 1 0 0 0 0l1 1v-1c0 1 0 0 0 0v1h1v-2 1-1 1-1 1h1v-1 1-1 1l1-1v2-2 1h1-1 1v2s-1 0 0 0v-1 1-1 1l1-1h-1 1v1h1-1 1-1 1-1 1v1h1-1 1l-1 1h1-1 1l-1 1 1 1h-1 1-1l1 1h-1 1c-1 0 0 0 0 0-1 0 0 0 0 0v1h-1l1 1h-1 1-1v1l-1-1v1l-1-1 1 1h-2l1 1-1-1c0 2-1 0-1 1h-2v-1 1l-1-1h-1v-2l-1 1 1-1h-1v-1 1c-2 0-1-1-1-1zm9-4h-1 1zm-8-1h1-1zm2-1zm0 0h1-1zm7 5zM684 125zm-3 6zm1-2zm0 0zm4-5zm-1 0zm-3 4zm9 16h-1v-1 1h1zm-1-1zm4 1s0-1 0 0zm-4-1zm-3 9z"/>
        <path d="M685 148h1v-1h1-1 1-1 1-1 1-1 1-1l1-1h-1 1v-1s-1 0 0 0v-1h1-1 1v1-1s1 1 0 0h1-1 1-1v-1l1 1v-1s0-1 0 0 0-1 0 0l1 1v-2 1c0-1 0 0 0 0 0 1 0 0 0 0v1h1v-2 1l1-1v1-1 1-1 1l1-1v1-1 2-2 1h1-1 1v-1 2s0 1 0 0v1l1-1h-1 2l-1 1h1-1 1-1 1v1h1-1 1l-1 1h1c-1 0-1 0 0 0l-1 1 1 1h-1 1v1-1 2h-1 1-1l1 1c-1-1 0 0 0 0h-2v1l-1-1 1 1h-1v1l-1-1c0 2-1 0-1 1h-2v-1 1l-1-1v-1 1-1 1-1h-1c1 0 0 0 0 0v-1l-1 1 1-1h-1v-1 1-2h1-1v-1l1-1-3 1zm10-2zm-7-1zm1-1zm1 0zm6 5z"/>
        <path d="m688 143 1 1-1-1zm-2 6c-1 1-1 0 0 0zm0-2zm0 5zm0-4c0-1 0-1 0 0 0-1 0-1 0 0zm4-5zm-1 0h1-1s1 0 0 0zm-3 4v-1 1zm-14-6v1l-1-1h1c0 1 0 0 0 0 0 1 0 1 0 0zm-1 0zm5 1zm-5-1zm-3 10z"/>
        <path d="M677 147h1-1l1 1h-1v-1l1 1h-1 1c-1 0 0 0 0 0h-1v1h1-2 1-1 1v1c0-1 1 0 0 0v1l-1-1v1h-1v1h-2l-1 1v-1h-2s1-1 0 0l-1-1c0 1 0 0 0 0h-1v-2l-1 1 1-1h-1v-1 1-2h1-1v-2s1 0 0 0h1v-1h-1 1-1 1-1 1c-1 0 0 0 0 0h-1l1-1c1 0 0 0 0 0v-1h1v-1l1 1-1-1h1-1 1-1v-1l1 1v-1s0-1 0 0h1v1-2l1 1h-1c0 1 0 0 0 0v1h1v-2h1-1 1v1-1 1-1 1-1 1l1-1v1-1 2l1-2-1 1h1v1-1 1-1 1s1 0 0 0v1-1 1h1-1l1-1v1h1-1 1l-1 1 1-1-1 1 1-1v1l1 1h-1 1-1 1l-1 1h1-1l1 1h-1l1 1h-1zm-8-4zm1-1h1-1zm1 0zm6 2h-1 1zm1 3z"/>
        <path d="M669 141s0 1 0 0v1-1zm-3 7zm1-2zm0 5zm0-5zm4-6s0 1 0 0zm0 1zm-1 0 1-1v1h-1zm-3 4zm132-11v-1 1-1 1zm0-1zm4 1s0-1 0 0zm-4-1zm-4 10 1-1v1h-1z"/>
        <path d="M804 139h1-1 1-1l1 1h-1 1c-1 0 0 0 0 0h-1c1 0 1 0 0 0l1 1h-1v1h-1s1 0 0 0h-1v1h-1s0 1 0 0l-1 1c0-1 0 0 0 0v-1l-2 1v-1l-1-1v1-1l-1 1v-2c0 1 0 1 0 0l-1 1 1-1h-1v-2 1-1s-1 0 0 0l1-1-2 1 1-1h-1 1v-1s1 0 0 0h1v-1h-1 1-1 1-1 1l-1-1h1c1 0 0 0 0 0v-1h1c-1 0 0 0 0 0v-1 1h1l-1-1v1h1v-1 1-1h1-1v-1h1v1c0-1 0 0 0 0v-1 1-1h1c-1 0-1 0 0 0v1h-1 1v-2 1-1 1l1-1v1-1 1s0-1 0 0v-1 1-1 1l1-1v1h1l-1 1 1-1-1 1 1-1v1-1 1-1 1s1 0 0 0h1l-1 1 1-1v1-1h1l-1 1h1-1 1v1-1 1-1 1h1v2s-1 0 0 0v2h-2zm-8-4h1-1zm2-1zm1 0zm5 2zm1 3zM797 133v1-1zm-3 6c0 1 0 0 0 0zm1-2zm0 1s0-1 0 0c0-1 0 0 0 0zm4-5zm-1 0zm-3 3zm0 12v-1 1zm-1-1zm5 1h-1 1zm-5-1zm-3 10zM794 148v-1 1-1l1 1c-1-1-1 0 0 0h-1v1h1v-2 1-1l1 1v-1 1-1s0 1 0 0v1l1-1v1-1 1l1-1-1 1 1-1v1s0-1 0 0v-1 2s0 1 0 0h1-1 1v-1 1h1l-1 1h1s-1 0 0 0c0 0-1 0 0 0v1-1l1 1h-1 1v1h-1 1v1l-1 1h1v1-1 1s1 0 0 0h-1v1l-1-1h1-1l1 1h-1v1-1 1h-1l-1 1v-1 1h-1c0 1 0 0 0 0h-2v-1 1l-1-1s-1 0 0 0h-1v-1s-1 0 0 0h-1v-1c-1 1 0 0 0 0v-1l-1 1 1-1h-1v-1h1-1 1-1l1-1-1 1 1-1h-1 1v-1h1-1 1-1v-1s1 1 0 0c0 0 1 0 0 0l1-1c0 1-1 0 0 0h-1 1v-1 1-1h1-1 1c0-1 1 1 0 0h1-1 1l-1-1 1 1v-1s0-1 0 0v-1 1s0-1 0 0l1 1v-1l-1 1zm5 2zm-7-1v1-1zm2-1v1-1zm0 1v-1 1zM793 148zm-3 6zm1-2h-1 1zm-1 0s1 0 0 0zm5-5c-1 0 0 0 0 0zm-1 0s0 1 0 0zm-4 4h1zm-15-13v-1 1zm-1-1zm5 1h-1 1zm-5-1zm-3 10zM770 142s1 0 0 0h1-1l1-1h-1 1-1 1-1l1-1c1 0 0 0 0 0v-1h1c-1 0 0 0 0 0h1-1 1v-1 1-2c0 1 0 0 0 0v1l1-1v1-1 1-1 1-1l1 1v-1 1h-1 1v-1 1-2 1c0-1 0 0 0 0l1-1v1-1 1l1-1v2l1-1-1 1 1-1v1-1 1-1 2-1 1c1 0 0 0 0 0h1-1l1-1v1h1l-1 1 1-1v1-1 1-1 1l1 1h-1 1v1h-1 1v1h-1l1 1v1s1 0 0 0v1l-1-1 1 1-1-1 1 1s0 1 0 0l-1 1v-1 1h-1 1-1c-1 0 0 2-1 1h-1l-1 1v-1 1-1l-2 1v-1l-1-1c0 1 0 0 0 0s-1 0 0 0h-1l1-1h-2l1-2-1 1v-1l1-1h-1s1 0 0 0l1-1h-2zm10-2c-1 0-1 0 0 0h-1 1zm-8-1v1-1zm2-1v1-1zm0 0v1-1zM781 144zm-8-6zm-2 4zm-1 0c1 0 1 0 0 0zm4-5zm1 0zm-1 0s0 1 0 0zm-4 4h1z"/>
      </g>
      <path fill="#F6EAEA" d="M787 103v-1 1l1-1v1h-1zm-2-1c1 0 0 0 0 0zm14 0s-1 0 0 0zm-14 0zm5 23v-1 1z"/>
      <path fill="#F6EAEA" d="m814 118-1 2h-1l-1 1h-1s-1 0 0 0h-2l-2 1h-3c0 2-2 1-2 2v-1 1-1l-5 1h-1 1-4 1-3l-1-1-1 1-1-1-1 1-1-1-1-1v1l-1-1-2-1v-1l-1 1-1-1v1-1l-1-2h-1v-1h-1 1v-1h-1s1 0 0 0v-1h-1 1-1s1 0 0 0v-2l-1 1v-2l1-1c1 0-1 0 0 0l1-2v-1l1-1 1-1h-1 2l-1-1v1h1v-1h1-1 1-1l1-1h1v-1h1v-1 1l1-1 2 1-1-1h2l-1-1h2l-1 1v-1l-1 1h3v-1l-1-1 1 1v-1h1v-1 1h1l1-1v1l1-1 1 1 1-1v1-1 1l1-1v1s0-1 0 0v-1 1l1-1v1l2 1v-1l-1 1h1v-1l1 1-1-1v1-1h1v1c1 1 1-1 1-1 0 1 0 2 1 1 0 0 0 1 0 0h1l1 1 1-1 2 1v1l1-1 1 1 1 1 2 2v1l2 1-1 1h1-1 1v1-1 2s1 0 0 0v3c0-1 0-1 0 0h-1 1v1h1v3zm-36-10zm6-4zm1-1h1-1zm20 1zm9 7v-1zM781 104zm0 18zm-4-5zm0 0zm10-15zm-3 1 1-1-1 1zm-9 11zM674 94l-1 1h1l-1-1v1-1h1zm-3 1zm13-5zm-13 5zm20 20v-1 1z"/>
      <path fill="#F6EAEA" d="m709 103-1 1v2l-1 2h-1l1 1-2 1-2 2v-1 1l-1-1-4 2h-1l-3 1h-2 1-4v1-1l-2 1-2-1v1l-1-1c-1 0 0 0 0 0h-2v-1 1l-1-2v2-1l-1 1v-1h-1l-1-1-1 1v-1h-1v-1h-2l-1-1h-1l-2-2h1-1l-1-1-1-1v-1l-1-2v1-1h1-1l1-1h-1l1-1-1 1 1-1h-1v-1l1-1h-1l1-1h-1 1l1-1 1-1v-1h1-1 1-1 1c1 0 0 0 0 0 0-1 0 0 0 0 1 1 0 0-1 1h1l2-2h-1a1 1 0 0 1 0-1h1c0-1 0 0 0 0v-1l1 1v-1 1-1h1v-1l1 1v-1h2v-1l1 1v-1 1-1h1c1 0 0 0 0 0h3v1h2l-1-1 1 1v-2l1 1h2s0 1 0 0h1l1 1 1-1h2v1-1 1h1l1 1h1l3 1v1h2v1-1 1h2v1s0-1 0 0h1l2 1v1-1 1-1l1 1v-1l2 2-1 1 1 2v1zm-40 1v1-1zm2-6h-1 1zm1-2zm19-5z"/>
      <path fill="#F6EAEA" d="M701 94v1-1zm-33 5h1-1zm14 15zm-6-3zm13 4zm-13-4 1 1-1-1zm-3-17h-1 1zm-3 2 1-1-1 1zm3 15v-1h1zm-5 62-2 1v1h-2l2-1 1-1h1zm-4 10v-1 1zm20-9zm-20 9v1-1zm53-5s-2-1 0 0zm-53 5zm109 33 1 1-1-1zm5 4h1-1zm-114-43zm126-3zm-114 40zm-3-7-1-1 1 1zm-3-5h1-1zm78-6h1-1zm-22 5h1-1zm46 15h1zm-45-15h1-1zm-63-24s-1 0 0 0zm0 0v-1 1zm0 0v-1 1zm1 11-1-2v-1l1 3zm50 19h-1 1z"/>
      <path fill="#66454D" d="M789 107s0-1 0 0l-1-1 1 1zm5-3v1-1zm-6 3zm4 13z"/>
      <path fill="#66454D" d="M786 113v-3h1c-1 0 1 0 0 0v-1s1 1 0 0h1l-1-1 1-1 1 1-1-1v-1l1 1h-1c0-1 0 0 0 0 1 1 0 0 0 0h1v-1l-1-1h1c-1 0 0 0 0 0h1v-1 1-1h1v1-1 1-1l1 1v-1 1-1l1 1h1v-1 1-1 1l1-1v1-1 1h3v2c1 0 0 0 0 0l1 1s1 0 0 0l1 1v2h1l-1 1h-1 1-1 1v1h-1l1 1h-1 1l-1 1v1h-1l1 1h-1l-1 1-2 2-1-1 1 1h-4v-1c0 1 0 1 0 0v1l-1-1v1l-1-2v1l-1-1v1-2l-1 1v-1 1-2h-1v-1 1-1h1v-1l-1 1 1-1h-1s1 0 0 0v-1l-1 1 1-1v-1 1zm2-5zm0 0h1-1zm8-2zm-9 5zm13 1zm0-3zM787 108v1-1zm0 7zm0 0zm1-9zm0 0zm0 1c-1 0 0 0 0 0zm-2 7zm-108-12h1-1 1a3 3 0 0 1-1 0zm0 1zm2-6zm-2 6zm13 5h-1 1z"/>
      <path fill="#66454D" d="M678 101h-1 1v-1h-1 1-1 1l-1-1h1v-1l1 1-1-1h1v-1 1-1l1 1h-1 2-1 1-1 1l-1-1v1-1h1v-1 1-1h1-1 1-1 1v-1h3s0 1 0 0h2v1l1-1v1-1 1-1 1l1-1v1-1c0 1 0 0 0 0v1h2l-1 1h1s1-1 0 0l1 1h-1 1v2h1v2s0-1 0 0v1l1 1h-1v2h-1v1h-1 1-1v1c1 0 0 0 0 0h-1s0 1 0 0v1h-1v1h-1v1l-1-1v1h-1v-2 2-1 1l-1-1v1-1 1l-1-1v1-1h-1v-1 1-1 1l-1-1v1-1 1-1 1l-1-1c1-1 0 0 0 0v-1h-1l-1-1h1-1l1-1-1 1 1-1-1 1v-1c0 1 0 0 0 0h-1 1v-1 1h-1v-1c1 0 0 0 0 0l1-1c-1 0 0 0 0 0h-1s1 0 0 0v-1h1l-1 1h1c0-1 0 0 0 0v-1h-1l-1-1h1-1l1-1zm5-6c0 1 0 1 0 0v1-1zm-3 11zm-1-2s0-1 0 0c0-1 0 0 0 0zm0-1zm9-8zm-10 10h1z"/>
      <path fill="#66454D" d="M686 110c1 1 0 1 0 0zm-3-1c0 1 0 0 0 0zm7 0zm-6 1c-1 0-1 0 0 0-1-1-1-1 0 0zm-6-7zm0-1zm0 1zm4 6zm40 21h-1 1v-1 1zm6-8v1-1zm-7 9zm21 12z"/>
      <path fill="#66454D" d="M721 128c-1 0 0 0 0 0v-1h1-1 1s-1 0 0 0h-1l1-1h1l-1-1 2-1h1l-1-1 1 1v-1l1 1v-1l-1-1 1 1v-1l1 1h1v1-1h1s-1 0 0 0h-1v-1h1v1l1-1 1 1-1-1 1 1v-1 1-1l2 1v-1h2v1-1 1-1l2 1v1-1h2l1 1h2-1 1l1 1v-1c0 1 0 0 0 0v1h1l1 1 1-1v1h1v1l1 1h1v2l1 1v2h1l-1 1v3l-3 3h-1 1l-3 2h1-2l1 1-1-1-1 1h-1v1h-4l1 1-1-1h-1s0 1 0 0h-1v1h-1l-1-1v1l-1-1h-1v-1 1l-1-1h1-1v-1 1-1h-1s1 0 0 0l-1-1v1l-1-1v-1l-1-1h-1l1-1c-2 1-1-1-2-1h1v-1h-1s1 0 0 0v-1 1l-1-1v-1c0 1 0 0 0 0h-1v-2l1-1h-1v-1l-1 1 1-1h-1l1-1v1h-1 1v1-3 1h-1v-1zm12-5zm-8 14zm-3-4h1-1zm0-2zm19-7zM722 135zm14 10zm-6-2zm11 1zm-10-1h-1 1zm-10-11s1 0 0 0zm8 10h-1z"/>
    </g>
    <g>
      <path fill="#B1D07A" d="M762 339v-2l1-1-2-2h1c0-1-1 1-1-1v-2l1 1-1-3c0-1-1-3 1-3l-2-3c2 2 0-3 2-3-2-1-1-4-3-6h1v-2l-2-3h2l-2-2 1-1-1-2 1-2h1c-1-2-2-1-2-1-1-2 0-1 1-2l-2-3-2-6-1 1-1-2h1-1 2l-2-4c1-1 1 3 2 1v2l1-1-1-5h-2c-2-4 2-4 0-6-1 0-2 0-2-2h1c0-2-2-1-2-4l1 2c1-2-1-1-1-2l1-1-2-4-1-2v-1l1-1h-1l1-1h1l1-1 3-3v-1h1c1-1-1-1-1-2h1l1-2 1-3 2-5v1-5l1 1v-14l-2-3-2-2v-3l-2-3-3-1v-1h-2v-1l-1-1v1c-2 0-4-2-4-3h-5l1-1h-6l-2 1h-3l-1 1h-1l-1 1-4 3c1-1 2 0 1 1l-1-1v2l-1-2v1a3 3 0 0 0-1 1v-1c0 1-3 1-3 3v-1l-5 8v2l-3 7 1 2c-1 0-1 3-1 1v4l2 5v-1 2-1l2 6 1 2v2h1v1l-1 1v-2 1l-2 9c-2 1-2 3-3 5l-2 6h1l-1 1h1l-3 11-2 11c-1 2 3 1 1 5l-1-1v8l1 8-1-1c-1 1 0 4 1 4l-1 1v3s0 3 1 2v6c1 1 0 3 2 3-2 0-1 4 0 5l-1 1c0 1 0 3 1 2-1 3 2 5 0 7l5 11c-2 1-1-4-3-3l4 8h-1l2 5 1 4 1 1-1-1c1-1 3 2 4 2-3 0 0 3-3 3h1v1l2 2h-1c1 1 2 1 2 3l4 7-1 2 1 1h1l2 3-1-1 1 3v-2c1 1 1-1 2 1v3l2 2h-1l3 4h-1 1v1c1 2 1-1 2 1h-1l4 6h-1l1 2 3 2 6 1 1-2h2v-1l1-1v1c2-2 2-4 3-8v1l2-5v-1l2-6 1-6v1-3l-1 1v-2l1-1c1-2-2-1-1-3l1 1-1-3 1 1v-4 2l1-2 1-2c-2-1 0-3-2-5 2 2 1 0 2 0l1-1v-3l1-1h-1v-8l-2-5h1v-3l1-1c0-1-2 0-1-2l1 1-1-3c1-1 1 0 1 1l-1-4-1 1h1v2-1c-2 1 0 3 0 5h-1l-1-14h2v1h1l-1-1c1 0 2 0 2-2l-1-2h1v1zm-14-77v-1 1zm-1-2a1 1 0 0 1-1 0h2-1zm9 142v-1 1zm4-36-1 1v-2l1 1zm0-9h-1v-2l1 2z"/>
      <path fill="#8CAB5A" d="M751 262v-1h-2 1-1 1-1l1-1h-1c1 0 0 0 0 0v-1h-1 1v-1h-1v-1 1l-1-1-1 1h-1v-1 1-1 1-1l-1 1v-1l1 1h-1 1l-2 1v-2 1l-1-1v1-1 1-1h-1s0 1 0 0l-1-1v1-1l-1 2v-2 1-1 1l-1-1h1l-1 1v-1l-1 1v-1l-1 1s0 1 0 0v-1 1-1l-1 1v-1l-1 1v-1s0 1 0 0h-2 1l-2-1v1-1 1-1h-2v1l-2-1h-1l-1-1v1h-2l-1 1v-1c0 1 0 0 0 0v1h-1l-1 2h1-1 1-2v2l1 1-1 1h1-1l2 2v-1 1l1 1 1 1 1-1-1 1h2l1 1v-1 1-1l3 2 1-1h2v1h4v1-1c0 1 1-1 1 1l2-1-1 1 2-1-1 1 2-1s0 1 0 0v-1 2l1-1v1-1 1l1-1h2v-1h1v1-1h1s-1 0 0 0l1-1v1l1-1v-1 1l1-1v-1h1l-1-1v-1zm-4-4zm-2 0v-1 1zm-13-2h-1 1zm18 6z"/>
      <path fill="#F6EAEA" d="M849 204v1c0-1 0-1 0 0l-1 1v1-1l-2 1-2 2v-1l2-1c4-2 2-8-2-8v-1l1 1 1-1h-2l-1-1h-3 2-5l-1-1v1h-2 1-3l-4-1-2 1c1-1-3 0-3-1l-6 1-2-1-3 1c-2 0 1 0 0-1l-2 1-1-1-2 1h-2v-1c-2 0-1 1-1 1l-2-1-3 1-6 1h-1 1-5 3v-1h-5l-1 1h-5l-3 1v-1l-3 1h1-3l-8 1v-1l-12 1h-1s-1 0 0 0l-1 1v-1c-3 1-7 2-10 1h1l-4 1-13-1-4 1-6-1-2 1v-1l-2 1v-1h-2l1 1-4-1h-4 1l-2-1v1l-5-1h1l-10-1c1 0 1 0 0 0h-1v-1h-4l-8-1-2 1-7-1-1 1h-1c-1 0-2 0-1-1l-2 2-1 1a5 5 0 0 0-1 1l-1 2v1h1l-1 1c-1 4-5 8-4 12s0 1 0 2v2h-1v5l1 1v1l1 2 1 3 1 1 1 1h1l5 4v-1l1 2v-1l9 6 8 6 5 2h-1l4 1 5 1 4-1 4-3-1 1 3-3h1l3-2-1 1 2-2 4-3 3-3 3-3h1l2-2 5-5 7-9c0 1-3 3-2 4l2-4 1-2 1-1v1h1v1l4 3h-1l1 1v-1l2 1c-1 0 2 3 0 2l1 1 2 2 3 2h-1l6 6v1l1 1 3 2h-1l2 2-1-2 2 1 1 2 2 2v1l2 1h3-1 2l2-1h-1l7-2-1 1 9-4 3-2v1l7-4h-1l5-2v-1l11-5h-1l3-1h-1l2-2c-2 1 0 1 1 1h-1l2-2 3-1-1 1 3-2-1 1 2-1 2-1h-1l5-3c-2 2-1 0 0 1h1l3-2h1-1l7-4 4-4v1l3-2h1l1-1v1l1-1 1-1c1 0 1 0 0 0v1l2-2v-2h-1zm-88-4h-1 2-1zm3 0h1-1zm40 30h1-1zm31-17h-1 1c1 0 0 0 0 0zm8-4 1-1-1 1z"/>
    </g>
  </g>
</svg>