<svg xmlns="http://www.w3.org/2000/svg" xmlns:xlink="http://www.w3.org/1999/xlink" viewBox="0 0 1082 317">
  <defs>
    <path id="a" d="M0 0h170.9v387.7H0z"/>
    <path id="d" d="M0 0h314v272H0z"/>
    <path id="f" d="M0 0h277v170H0z"/>
    <linearGradient id="c" x1="50%" x2="50%" y1="23.8%" y2="90.7%">
      <stop offset="0%" stop-color="#64748b"/>
      <stop offset="100%" stop-color="#94a3b8"/>
    </linearGradient>
  </defs>
  <g fill="none" fill-rule="evenodd">
    <g transform="translate(8 6)">
      <mask id="b" fill="#fff">
        <use xlink:href="#a"/>
      </mask>
      <g fill-rule="nonzero" mask="url(#b)">
        <path fill="#FFB400" d="M2 139.3a40.2 40.2 0 0 0 35.6 17.8c15.2-.3 30-7.7 36.2-18.4a7.6 7.6 0 0 1 2.5-2.4 93.3 93.3 0 0 1 2.9-13 64.7 64.7 0 0 1-19 2.7 77.6 77.6 0 0 1-36.2-9A48.6 48.6 0 0 1 4.8 99.2 163.6 163.6 0 0 0 0 132.3l-.1 5.3c.8.4 1.5 1 2 1.7z"/>
        <path fill="#FFB400" d="M29.6 106.6c17.7 9.6 42 10.3 54.2 1.4a5.7 5.7 0 0 1 2.4-1l2.6-4.3A72.8 72.8 0 0 1 102.4 87l-.4-.4c-32.1 8-71.4-29.2-57.7-58.2l-.5-.5a155.6 155.6 0 0 0-25.1 34.6 172.2 172.2 0 0 0-7.2 15.5c.3.8.4 1.6.4 2.5-.7 13.7 10.8 22.2 17.7 26zM57.2 201c13-6.5 21.2-18.3 21.5-30a79.7 79.7 0 0 1-3-16.3 58.8 58.8 0 0 1-38 14.2h-1.2a52.8 52.8 0 0 1-35.4-12.7 153.2 153.2 0 0 0 11.2 41.6 42.2 42.2 0 0 0 45 3.2z"/>
        <path fill="#FFB400" d="M53.2 248.2c12.2 4 24 1.1 32.5-7.9a39 39 0 0 0 7-40.7 6.7 6.7 0 0 1-.2-3.5 54.8 54.8 0 0 1-6-8.2 53.5 53.5 0 0 1-23.8 23.8 55.1 55.1 0 0 1-25.6 6.3 50.3 50.3 0 0 1-15.5-2.4 130 130 0 0 0 13 17.8 127 127 0 0 0 15 14.7 7.1 7.1 0 0 1 3.6.1z"/>
        <path fill="#FFB400" d="M88.6 274a6.6 6.6 0 0 1 2.2.2c11.3 3.9 25.8-.4 35.2-10.2a30 30 0 0 0 6-33.1 5.7 5.7 0 0 1-.4-2 202 202 0 0 0-21-17.7c-1-1-2.3-1.7-3.4-2.5a49.6 49.6 0 0 1-12.7 39.9 41.8 41.8 0 0 1-25.9 13l1.5 1c1.8 1 3.4 1.7 5 2.7l4.5 2.6a113.5 113.5 0 0 1 5 3.3 76.5 76.5 0 0 1 4 2.8zm46-1.8a50 50 0 0 1-31.6 15.2l2.3 2.8a63.6 63.6 0 0 1 4.5 6.7c.5.2 1 .4 1.5.8 10 6.9 28.9 6.6 41.3-.5 5.3-3 11.4-8.6 10.6-17.6a6.8 6.8 0 0 1 .5-2.8l-.5-1.3a123.8 123.8 0 0 0-16-29l-.6-.8a43 43 0 0 1-12 26.5zm23.8 35.2a57.4 57.4 0 0 1-28.2 7.1c-4.8 0-9.6-.6-14.3-1.9l.2.5a42.8 42.8 0 0 1 .8 4.3 71.6 71.6 0 0 1 .4 18c3.8 8.7 14.8 14.1 24.7 15.7 9 1.3 20-.2 25.9-7.5l.9-4c.5-2.6.8-5.4 1.2-8 .4-3.1.6-6.3.8-9.6l.1-8.1a110.7 110.7 0 0 0-1.5-15.7 37.2 37.2 0 0 1-11 9.2z"/>
        <path fill="#10294C" d="m102 86.7.4.4a73.5 73.5 0 0 1 12-8.5l3-2c19.2-13.3 19.2-36.6 5.8-56C109.8 1.4 88.3-6.7 69 6.7l-1.1.8A151.3 151.3 0 0 0 43.8 28l.5.5C30.6 57.5 70 94.8 102 86.7zm50.5 210.4c-12.5 7.1-31.4 7.4-41.3.5l-1.5-.8 2.7 5.3a60.3 60.3 0 0 1 3.7 10.4 55.3 55.3 0 0 0 14.3 1.9 56.8 56.8 0 0 0 28-7.2 34.3 34.3 0 0 0 11-9.4 111.5 111.5 0 0 0-5.3-20l-.5-1.2a5.4 5.4 0 0 0-.5 2.8c.8 9.2-5.4 14.6-10.6 17.7zM126 264c-9.3 9.9-23.7 14-35.2 10.1a4.7 4.7 0 0 0-2.2-.2 92.2 92.2 0 0 1 11.7 10.4l2.7 3a49 49 0 0 0 31.6-15.2 41.6 41.6 0 0 0 11.8-26.6 143.7 143.7 0 0 0-14.8-16.7 5.2 5.2 0 0 0 .4 2c6.5 16.4-1 27.9-6 33.1zm-31.6-15.5a49.6 49.6 0 0 0 12.6-40l-3-2-1.9-1.5-1.8-1.5a62.9 62.9 0 0 1-7.8-7.5 5.7 5.7 0 0 0 .2 3.5 39 39 0 0 1-7 40.7 30.5 30.5 0 0 1-32.5 8 6 6 0 0 0-3.6 0c4 3.3 8.2 6.4 12.6 9.5l4 2.3 2.3 1.4a42.3 42.3 0 0 0 25.9-13zm-31.7-36.8a53 53 0 0 0 23.8-23.7 62.7 62.7 0 0 1-6.7-13.7 30.3 30.3 0 0 1-1-3.2c-.3 11.7-8.7 23.5-21.5 30a42.2 42.2 0 0 1-44.8-3 76.4 76.4 0 0 0 2.2 4.6 160.3 160.3 0 0 0 7 12.9 54.4 54.4 0 0 0 15.6 2.4 59.1 59.1 0 0 0 25.4-6.3zM38 169a59.3 59.3 0 0 0 37.9-14.2 80 80 0 0 1 .4-17.3v-1a6.5 6.5 0 0 0-2.4 2.3C67.5 149.5 53 157 37.6 157.2A40 40 0 0 1 2 139.5a5 5 0 0 0-1.9-1.8c0 6.3.4 12.6 1.2 18.9A53.6 53.6 0 0 0 36.6 169l1.3-.1zm-14-52a77.6 77.6 0 0 0 36.3 9 64.7 64.7 0 0 0 19-2.7 85.4 85.4 0 0 1 7-16.3 5.7 5.7 0 0 0-2.4 1c-12.2 8.9-36.5 8.2-54.2-1.4-6.9-3.8-18.4-12.2-17.7-26.1a8.7 8.7 0 0 0-.4-2.6A158.7 158.7 0 0 0 4.8 99 49.8 49.8 0 0 0 24 117z"/>
      </g>
    </g>
    <path fill="url(#c)" d="M238.4 362.9 724.8 95.6 1087 362.9z" transform="translate(8 -32)"/>
    <g transform="rotate(15.3 430 2305.3)">
      <mask id="e" fill="#fff">
        <use xlink:href="#d"/>
      </mask>
      <g fill-rule="nonzero" mask="url(#e)" id="paper">
        <path fill="#e7e5e4" d="M0 199.9S97.8 133.3 130.4 0A1724.9 1724.9 0 0 0 314 60.1S275 205.6 169.7 272c0 0-118.7-42.5-169.7-72.1z"/>
        <path fill="#78716c" d="M174.6 48.5a2508.3 2508.3 0 0 1-32.3-12 3.2 3.2 0 0 0-2.5.2 3.2 3.2 0 0 0-1.6 1.9 293.3 293.3 0 0 1-3 9.4 3.3 3.3 0 0 0 1.9 4l32.1 12a3.3 3.3 0 0 0 4.1-2l3.4-9.4a3.2 3.2 0 0 0-2-4.1zm17.6 9.6a454.3 454.3 0 0 1-3.3 9.3 3.2 3.2 0 0 0 .1 2.4 3.2 3.2 0 0 0 1.8 1.7c25.4 8.7 54 18 81.2 25.3 1.7.6 3.5-.3 4.1-2l3.4-9.4a3.1 3.1 0 0 0-.2-2.4 3.2 3.2 0 0 0-1.8-1.6l-.2-.1a1166 1166 0 0 1-80.8-25.2 3.2 3.2 0 0 0-2.5 0 3.2 3.2 0 0 0-1.7 1.7l-.1.3zm28.1 48.2c-35.3-11-69.5-23.4-92-31.9a3.2 3.2 0 0 0-4 1.8L120 85a3.2 3.2 0 0 0-.2 2.4 3.2 3.2 0 0 0 1.6 1.9l.3.1c22.5 8.4 56.7 20.8 92.3 32a3.3 3.3 0 0 0 3.9-1.7c1.5-3 3-6.2 4.1-9.1a3.2 3.2 0 0 0-1.6-4.3l-.2-.1zm-65.6 20a1737.3 1737.3 0 0 1-44.4-16.6 3.2 3.2 0 0 0-3.9 1.4 395.5 395.5 0 0 1-5.2 8.5 3.1 3.1 0 0 0 .9 4.3l.6.4c12 4.6 27.3 10.4 44.2 16.5a3.3 3.3 0 0 0 3.8-1.3c2-2.8 3.8-5.7 5.6-8.6.6-.8.7-1.8.3-2.7a3.2 3.2 0 0 0-2-2zm18.6 9c-1.7 2.9-3.6 5.7-5.4 8.6a3.1 3.1 0 0 0-.4 2.8 3.1 3.1 0 0 0 2 2c21.8 7.4 45.2 14.8 67.2 20.7a3.3 3.3 0 0 0 3.6-1.5 427.1 427.1 0 0 0 5.4-8.9c.5-.7.6-1.5.4-2.4a3.2 3.2 0 0 0-1.5-1.9 3.2 3.2 0 0 0-.8-.3c-22-5.8-45-13-66.7-20.4a3.1 3.1 0 0 0-3.8 1.3zm-4.7 39c-34.4-11-63-22.6-81.6-30.7a3.1 3.1 0 0 0-3.8 1 228 228 0 0 1-6.5 7.7 3.2 3.2 0 0 0-.8 2.8 3.2 3.2 0 0 0 1.8 2.3 893.6 893.6 0 0 0 82.2 31.3 3.3 3.3 0 0 0 3.5-1l6.8-8.2a3.2 3.2 0 0 0 .6-3 3.2 3.2 0 0 0-2.2-2.2zm15.1 21.8c9.2 2.7 18.7 5.3 28.8 7.9a3.3 3.3 0 0 0 3.3-1.2c2.4-2.8 4.6-5.7 6.8-8.6a3.2 3.2 0 0 0-.8-4.5 3.2 3.2 0 0 0-1-.5 734 734 0 0 1-28.5-7.7 3.2 3.2 0 0 0-3.5 1.1c-2 2.9-4 5.6-6.5 8.4a3.2 3.2 0 0 0-.6 2.9 3.2 3.2 0 0 0 2 2.2zM79.9 182.5a598 598 0 0 1-20.5-9.7 3.3 3.3 0 0 0-3.5.5 186.8 186.8 0 0 1-8.2 6.9 3.2 3.2 0 0 0-1.3 2.8 3.2 3.2 0 0 0 1.8 2.6 1123.8 1123.8 0 0 0 21.5 10.1c1.2.6 2.6.4 3.6-.5l7.8-7.5a3.2 3.2 0 0 0-.2-4.5 3.3 3.3 0 0 0-1-.7zm82.8 33.5a993 993 0 0 1-60.4-23.6 3.2 3.2 0 0 0-3.6.7 315 315 0 0 1-7.4 7.5 3.2 3.2 0 0 0 .9 5.2c18 7.8 38.7 16.4 60.7 24a3.3 3.3 0 0 0 3.4-.7 282 282 0 0 0 7.8-8c.7-.8 1-1.9.7-3a3.2 3.2 0 0 0-2-2.1z"/>
      </g>
    </g>
    <g transform="translate(384 75)">
      <mask id="g" fill="#fff">
        <use xlink:href="#f"/>
      </mask>
      <g fill-rule="nonzero" mask="url(#g)">
        <path fill="#FFB400" d="M209 147c9-.6 18-2.9 26.5-6.4 0 0 6-3 9.8-5.5 1.5-1.2 3-2.5 4.2-4 3.6-4.3 6.3-9.1 8.4-14.1 0 0 2.1-9.9 2.3-20.1-1.9-14.2-10.9-27.8-23.5-40-5-5.1-10.4-10-16.3-14a215 215 0 0 0-9.7-7c-35.2-9.6-55.7 17-61.6 26-13.6 20.8-15.7 45.7-6 61.7 2.4 2 5.2 3.8 7.9 6a79.7 79.7 0 0 0 58 17.4zM29.2 135.3a74 74 0 0 0 27.1 4c10.5-5.6 21.6-11.7 32.7-17.3-20-9-33-32.4-36-55.8a77.5 77.5 0 0 1 12.3-56C20.8 31.3 5.7 74.6 1.5 110.7A44.2 44.2 0 0 0 29 135.3z"/>
        <path fill="#FFB400" d="M67.5 64.1c3.4 24 18.5 47.8 41 47 .7 0 1.6 0 2.4.4a26.1 26.1 0 0 1 12.6 1.9 83.7 83.7 0 0 1 13-59.5A75.1 75.1 0 0 1 185 20 158 158 0 0 0 107 .4l-1.4.4c-33.4 8-41.3 39-38 63.3zm-43.2 85.2c-9-2.9-17.4-8-24.3-14.4-.2 11.7.6 23.4 2.5 35.1l.4-.2c2.3-1.3 14.3-8.4 30.9-17.8-3.2-.8-6.5-1.6-9.5-2.7z"/>
        <path fill="#FFF" d="M202.3 133.7a56.1 56.1 0 0 0-2.9-4.6c-1.9-3-3.8-6.3-5.9-9.2l-.6-.9c-7.3-8.1-26.4 5.5-12.4 15.3l3.2 2 3.8 3c1.2 1 2.5 2 3.5 3.3 1 1 2.5 2.3 3.4 3.4l.8.8a160.4 160.4 0 0 1 14.3 16.3l4.2 5.6c.2.3.6.5 1 .5.7-.2.9-.7.9-1.3l-.7-2.5a100 100 0 0 0-5.4-17.5l-.4-1.3a156.4 156.4 0 0 0-4-8.6l-2.8-4.3zm37.2-9.4a56.1 56.1 0 0 0-3-4.6c-1.9-3-3.7-6.3-5.8-9.2l-.7-.9c-7.3-8.1-26.4 5.5-12.3 15.3l3.1 2 3.8 3c1.2 1 2.5 2 3.5 3.3 1 1 2.6 2.3 3.4 3.4l3.8 3.7a101.5 101.5 0 0 1 10.3 12.1c1.6 2.4 3.5 4.7 5.2 7 .2.2.6.4 1 .4.7-.2.9-.7.9-1.3a89 89 0 0 0-7.8-23.8c-.8-2-1.9-4-3-6-.5-1.5-1.4-3-2.4-4.4zm14.9-36.4c-7.4-8.1-26.5 5.5-12.4 15.3l3.1 2 3.8 3c1.3 1 2.5 2 3.6 3.3 1 1.3 2.5 2.3 3.3 3.4l2.1 2a133.3 133.3 0 0 1 13.2 15.5l4 5.2c.4.4 1 .7 1.5.2.4-.2.4-.6.4-1l-.8-4.2c-1.3-5.4-3-10.8-5-16-1.3-3.4-3-6.5-4.5-9.7-.8-1.6-1.9-3.1-2.7-4.6a56.1 56.1 0 0 0-3-4.6c-.1-.4-.4-.6-.6-1-1.6-2.7-3.3-5.2-5.2-8l-.8-.8z"/>
        <path fill="#10294C" d="M33.8 152c6.9-4 14.4-8.3 22.4-12.7-9.2.2-18.2-1-27-4a45 45 0 0 1-27.7-24.6c-.9 8.1-1.5 16-1.5 24.2 7 6.5 15.3 11.5 24.3 14.4 3.2 1 6.3 2.1 9.5 2.7zm19-86c3 24.4 16.2 47 36.1 56 7-3.6 13-7 19.7-10 .6-.3 1.7-.3 2.3-.5-.6-.4-1.7-.8-2.5-.8-22.4.8-37.5-23-40.9-47-3.3-24 4.6-54.7 38-62.9l1.4-.4c-8.8.4-17.4 1.3-26 3.4-3.1.8-6 2-9 3.3-2 1-4.6 2-6.7 3.1A76.5 76.5 0 0 0 52.8 66zm83.7-12.3a83.2 83.2 0 0 0-13 59.7c7 2.5 13.6 5.9 19.5 10.2-9-16-7.5-40.9 6-61.8C154.9 53 175.6 27 210.8 36c-8.4-5.6-17-11-25.8-15.9a74.7 74.7 0 0 0-48.4 33.7z"/>
      </g>
    </g>
  </g>
</svg>