<svg xmlns="http://www.w3.org/2000/svg" viewBox="0 0 1200 800">
  <path fill="#383a48" d="M1076.7 108a52.9 52.9 0 0 0-40.9-18h-135c-34.3 0-66.4 28.8-71.7 64.2l-57.5 386.6A58 58 0 0 0 784 588c10.1 11.6 24.7 18 40.9 18h135.1c34.3 0 66.4-28.8 71.6-64.2l57.5-386.6a58 58 0 0 0-12.5-47.2z"/>
  <path fill="#f3f6e6" d="M1011 93.5H875.8c-32.7 0-63.2 27.4-68.2 61.2l-57.5 386.7c-5 33.8 17.4 61.2 50 61.2h135.1c32.7 0 63.2-27.4 68.2-61.2l57.5-386.7c5-33.9-17.4-61.2-50-61.2z"/>
  <path fill="#383a48" d="M935.2 606h-135a53.1 53.1 0 0 1-40.9-18 57.7 57.7 0 0 1-12.5-47.2l57.5-386.6c5.2-35.4 37.3-64.2 71.6-64.2H1011c16.2 0 30.8 6.4 40.9 18a57.7 57.7 0 0 1 12.5 47.2L1007 541.8c-5.3 35.4-37.4 64.2-71.7 64.2zM875.9 97c-31 0-60 26-64.8 58.2l-57.5 386.6a51 51 0 0 0 11 41.7 46.2 46.2 0 0 0 35.6 15.7h135c31 0 60-26.2 64.8-58.3l57.5-386.7a51 51 0 0 0-11-41.6A46.2 46.2 0 0 0 1011 97H875.9z"/>
  <path fill="#383a48" d="M1011 90H872c-2 0-3.5 1.5-3.5 3.5s1.5 3.4 3.4 3.4h10.8a6 6 0 0 1 4.6 2 7.2 7.2 0 0 1 1.5 5.7c-.6 4.1.5 8.2 3 11.2 2.5 2.8 6 4.4 10 4.4h76.4c8 0 15.2-6.4 16.4-14.6.7-4.7 5.1-8.7 9.6-8.7h6.9c2 0 3.4-1.5 3.4-3.4-.1-2-1.6-3.5-3.6-3.5zM926 585.5H815.4c-2 0-3.5-1.6-3.5-3.5s1.5-3.4 3.5-3.4H926a3.4 3.4 0 1 1 0 7zM97.3 248c10-11.7 24.5-18 40.7-18h134.7c34.2 0 66.2 28.7 71.5 64l57.3 386c2.6 17.9-1.8 34.6-12.5 47a52.7 52.7 0 0 1-40.8 18H213.5c-34.1 0-66.2-28.7-71.4-64L84.8 295a57.9 57.9 0 0 1 12.5-47z"/>
  <path fill="#f3f6e6" d="M162.8 233.4h134.7c32.5 0 63 27.4 68 61.2l57.3 385.9c5 33.7-17.3 61.1-49.9 61.1H238.2c-32.6 0-63-27.4-68-61.1l-57.3-386c-5-33.7 17.4-61 50-61z"/>
  <path fill="#383a48" d="M238.3 745H373a53 53 0 0 0 40.7-18 57.6 57.6 0 0 0 12.5-47L369 294c-5.2-35.3-37.3-64-71.4-64H162.8a53 53 0 0 0-40.8 18 57.6 57.6 0 0 0-12.5 47l57.3 386c5.4 35.3 37.4 64 71.5 64zm59.2-508.1c30.8 0 59.8 26 64.6 58.2L419.4 681a51 51 0 0 1-11 41.5 46 46 0 0 1-35.4 15.7H238.3c-30.9 0-59.8-26.1-64.6-58.2l-57.3-385.9a51 51 0 0 1 10.9-41.5 46 46 0 0 1 35.5-15.7h134.7z"/>
  <path fill="#383a48" d="M162.8 230h138.6c2 0 3.5 1.5 3.5 3.5s-1.5 3.4-3.5 3.4h-10.7a6 6 0 0 0-4.6 2 7.1 7.1 0 0 0-1.5 5.7c.6 4.1-.5 8.2-3 11.1-2.4 2.9-6 4.5-10 4.5h-76.1c-8 0-15.2-6.5-16.4-14.6-.7-4.7-5-8.7-9.6-8.7h-6.8c-2 0-3.5-1.5-3.5-3.4.2-2 1.7-3.5 3.6-3.5zM247.4 724.5h110.4c2 0 3.5-1.5 3.5-3.4 0-2-1.5-3.5-3.5-3.5H247.5c-2 0-3.5 1.5-3.5 3.5 0 1.9 1.5 3.4 3.4 3.4z"/>
  <g transform="matrix(.59698 0 0 .59801 293 167)">
    <defs>
      <linearGradient id="a" x1="-106.3" x2="45.4" y1="48.8" y2="48.8" gradientTransform="rotate(-14.2 2024 -236.4)" gradientUnits="userSpaceOnUse">
        <stop offset="0" stop-color="#f3f6e6"/>
        <stop offset="1" stop-color="#f6e049"/>
      </linearGradient>
      <linearGradient id="b" x1="698.3" x2="907" y1="50.8" y2="50.8" gradientTransform="rotate(-14.2 2024 -236.4)" gradientUnits="userSpaceOnUse">
        <stop offset="0" stop-color="#f6e049"/>
        <stop offset="1" stop-color="#f3f6e6"/>
      </linearGradient>
    </defs>
    <path fill="#f6e049" d="m10.3 441.6 365-102.6 66.6 244L135.8 664 10.3 441.6z"/>
    <path fill="#383a48" d="M135.8 668.9a5 5 0 0 1-4.4-2.5L6 444a4.9 4.9 0 0 1-.3-4.4 5 5 0 0 1 3.3-3l365-102.4a4.6 4.6 0 0 1 3.8.5 5.1 5.1 0 0 1 2.4 3l66.5 244a4.6 4.6 0 0 1-.5 3.9 4.8 4.8 0 0 1-3.1 2.3L137 668.7a4.3 4.3 0 0 1-1.2.2zm-118-224.2L138.3 658l297.5-78.5-64-234.4z"/>
    <path fill="#383a48" d="m291.5 621.7 13.7-98 121.4 63.8-135.1 34.2z"/>
    <path fill="#383a48" d="M291.5 626.7a4.6 4.6 0 0 1-3.3-1.3 5.2 5.2 0 0 1-1.6-4.4l13.7-98a5 5 0 0 1 2.7-3.7 5.3 5.3 0 0 1 4.6 0L429 583a5 5 0 0 1 2.6 5 5 5 0 0 1-3.7 4.3l-135.2 34.2h-1.2zm17.7-95.2L297.5 615l115.3-29.1zm-62.1-156.8 12.2 52.2-63.1-37.3 50.9-15z"/>
    <path fill="#383a48" d="M259.3 431.9a4.3 4.3 0 0 1-2.5-.7l-63.1-37.3a5 5 0 0 1 1.2-9.1l50.9-14.8a4.9 4.9 0 0 1 3.9.5 4.8 4.8 0 0 1 2.3 3.2l12.3 52a5 5 0 0 1-1.9 5.3 7 7 0 0 1-3.1.9zM208.7 391l43.1 25.5-8.4-35.6z"/>
    <path fill="#f6e049" d="M432.3 285.6 308 317a71.9 71.9 0 0 0-50.9 87.9l19.6 77.6c18.7 74 92.7 119.4 164.9 101.2 72.2-18.3 115.7-93.4 97-167.4L519 338.8a72 72 0 0 0-86.7-53.2z"/>
    <path fill="#383a48" d="M409.1 592.8a137.8 137.8 0 0 1-72.6-20.8 143.8 143.8 0 0 1-64.6-88.2l-19.6-77.6a77 77 0 0 1 54.6-94l124.2-31.4a77 77 0 0 1 92.7 56.8l19.6 77.6c19.4 76.6-25.7 154.4-100.6 173.4a138.3 138.3 0 0 1-33.7 4.2zm23.2-307.2 1.2 4.8-124.3 31.5a67 67 0 0 0-47.3 81.9l19.6 77.6a134.5 134.5 0 0 0 60.2 82.2c30 18.4 65.1 23.9 98.7 15.4 69.5-17.6 111.4-90 93.3-161.3L514.1 340a67 67 0 0 0-80.5-49.5z"/>
    <path fill="#f6e049" d="m516.9 326.4 23 90.8a135.8 135.8 0 0 1-4.8 82.2 140.5 140.5 0 0 1-17.6 32.3h-.1l-7.2-1.4-87.4-17.2-29.8-5.8-110.2-21.6-5.5-1.1-2.1-.4-23-90.8a71.2 71.2 0 0 1-1.7-9 67.7 67.7 0 0 1-.5-10 72 72 0 0 1 47.2-66 69.5 69.5 0 0 1 6.9-2.1l125.7-31.8 3.5-.8 2.7-.5a71.9 71.9 0 0 1 80.9 53.2z"/>
    <path fill="#383a48" d="M517.4 536.7h-.7a.6.6 0 0 1-.4-.1L274.1 489a5 5 0 0 1-3.9-3.7l-23-90.8a81 81 0 0 1-1.8-9.6 77.2 77.2 0 0 1 50-81.4c2.4-1 4.9-1.6 7.4-2.3l125.7-31.8 3.8-1a20.2 20.2 0 0 1 2.8-.4 76.8 76.8 0 0 1 86.5 57l23 90.8a141 141 0 0 1-5 85.2 143.5 143.5 0 0 1-18.3 33.5 4.8 4.8 0 0 1-3.9 2zm-238.2-56.8 4.6.9L515.2 526a134.5 134.5 0 0 0 15.2-28.5 131.3 131.3 0 0 0 4.7-79.1l-23-90.8a65.8 65.8 0 0 0-28.2-39.4 67 67 0 0 0-47.1-10.1c-.9 0-1.7.3-2.4.4l-3.3.7L305.4 311a68 68 0 0 0-6.4 2 67 67 0 0 0-43.9 61.4 58 58 0 0 0 .5 9.3 62.1 62.1 0 0 0 1.6 8.4z"/>
    <path fill="#f6e049" d="m473 151.8 48.6 192 .8 4 .1.7a29 29 0 0 1 .2 5 36 36 0 0 1-70.9 7.9l-48.6-192a36.6 36.6 0 0 1-.4-16.1 44.4 44.4 0 0 1 1.5-5.2 36 36 0 0 1 68.7 3.7z"/>
    <path fill="#383a48" d="M486.7 393.7a41.1 41.1 0 0 1-39.8-31l-48.6-192a40.8 40.8 0 0 1-.4-18.4 33.9 33.9 0 0 1 1.7-6 41 41 0 0 1 78.3 4.2l48.6 192a37.3 37.3 0 0 1 .9 4.6l.1.7a57.8 57.8 0 0 1 .3 5.8 38.8 38.8 0 0 1-1.9 11.3 41 41 0 0 1-29 27.4 36.8 36.8 0 0 1-10.2 1.4zm-48.5-264.1a29 29 0 0 0-7.7 1A30.8 30.8 0 0 0 409 150a32 32 0 0 0-1.3 4.4 29.7 29.7 0 0 0 .3 13.9l48.6 192a31 31 0 0 0 59.7 1.8 31.7 31.7 0 0 0 1.5-8.6 30.2 30.2 0 0 0-.2-4.3l-.1-.4v-.1l-.7-3.5-48.6-192a30.7 30.7 0 0 0-14.2-19 29.3 29.3 0 0 0-15.8-4.6z"/>
    <path fill="#f6e049" d="M423 379.9a35.9 35.9 0 0 1-43.7-26.1l-52.1-206a36 36 0 1 1 69.8-17.6l52.1 206a36 36 0 0 1-26.1 43.7z"/>
    <path fill="#383a48" d="M414.1 386a41.1 41.1 0 0 1-39.7-31l-52.1-206a41 41 0 0 1 79.6-20.1l52.1 206a41 41 0 0 1-29.7 49.9 44.4 44.4 0 0 1-10.2 1.2zm-52-278.1a29 29 0 0 0-7.7 1 31 31 0 0 0-22.5 37.7l52.1 206a31 31 0 0 0 37.7 22.4 31 31 0 0 0 22.4-37.7l-52.1-206a30.7 30.7 0 0 0-14.2-19 30 30 0 0 0-15.7-4.4z"/>
    <path fill="#f6e049" d="M356.6 396.7a35.9 35.9 0 0 1-43.7-26.1l-60.1-237.4a36 36 0 1 1 69.8-17.6L382.7 353a36 36 0 0 1-26.1 43.7z"/>
    <path fill="#383a48" d="M347.7 402.8a41.1 41.1 0 0 1-39.7-31l-60.1-237.4a41 41 0 0 1 79.6-20.1l60.1 237.4a41 41 0 0 1-29.7 49.8 39.6 39.6 0 0 1-10.2 1.3zM287.8 93.3a29 29 0 0 0-7.7 1 31 31 0 0 0-22.5 37.7l60.1 237.4a31 31 0 0 0 37.7 22.4 31 31 0 0 0 22.5-37.7l-60.1-237.4a31.1 31.1 0 0 0-30-23.4z"/>
    <path fill="#f6e049" d="M296.4 423c-19.3 5-35.4 6.9-40.3-12.4L200.6 191a36 36 0 1 1 69.8-17.6l52.1 206a36 36 0 0 1-26.1 43.7z"/>
    <path fill="#383a48" d="M276.4 431.4c-10.9 0-21.2-4.1-25.1-19.6l-55.5-219.6a41 41 0 0 1 79.5-20.1l52.1 206a41 41 0 0 1-29.7 49.8c-6.1 1.5-13.8 3.5-21.3 3.5zm20-8.3zm-60.9-272a28.4 28.4 0 0 0-7.6 1 31 31 0 0 0-22.5 37.7l55.5 219.6c3.2 12.7 11.2 14.7 34.2 8.9a31 31 0 0 0 22.5-37.7l-52.1-206a31 31 0 0 0-30-23.5z"/>
    <path fill="#f6e049" d="m431.4 288.9-120.2 30.4a69.7 69.7 0 0 0-49.1 85.4l19.1 75.5c18.2 72 89.8 116.3 159.6 98.6s111.7-90.6 93.5-162.6l-19.1-75.5a69.8 69.8 0 0 0-83.8-51.8z"/>
    <path fill="#f6e049" d="M403.7 478.8C388.2 386.5 300 428 274.6 405.6l-60.8-53.3a41.4 41.4 0 1 0-53.9 62.9s138.4 132.4 206 164.9"/>
    <path fill="#383a48" d="M365.9 585a5.9 5.9 0 0 1-2.2-.4c-28.4-13.7-72-45.7-129.4-95.3-41.5-36-75.7-68.4-77.8-70.3a46.5 46.5 0 0 1 60.5-70.5l60.8 53.3c7 6.2 21 6.7 37.2 7.2 34.8 1.2 82.5 2.8 93.6 69a5 5 0 0 1-9.9 1.7c-9.8-58.1-49.2-59.4-84.1-60.6-18.1-.6-33.8-1.1-43.5-9.7L210.4 356a36.4 36.4 0 0 0-51.3 4 36.4 36.4 0 0 0 4 51.4l.2.2c1.4 1.3 138.6 132.2 204.7 164a5 5 0 0 1 2.3 6.7 4.8 4.8 0 0 1-4.4 2.7z"/>
    <path fill="url(#a)" d="m204.8 640.3-81.6 22L0 449l146.2-40 58.6 231.3z"/>
    <path fill="#383a48" d="M514 336a36.7 36.7 0 0 1-12.5 11.7c5.1-.2 10.3-.3 15.6-.1 1.4 0 2.8 0 4.3.2H522.6l.1.7 17.4 68.7c7.2 28.3 1.7 44-8.1 69.4l-.6-.3c-1.7-1-3.4-1.8-5.2-2.7C484.4 461 348.7 362 348.7 362a44.1 44.1 0 0 1-9.6-9.7 41.4 41.4 0 0 1-5.8-35.8 23 23 0 0 1 1.2-3.4 44 44 0 0 1 4.9-9 44.7 44.7 0 0 1 4.4-5.2 41.4 41.4 0 0 1 28.9-12h3.8a37.3 37.3 0 0 1 8.1 1.6 44 44 0 0 1 12.7 6.2l2.3 1.7 3.1 2.3 40.3 27 4 3 3.7 2.8-46.2-183.6a36 36 0 0 1 68.8 3.6L518 328.3l-.2.5-.9 2.2a46.3 46.3 0 0 1-2.9 5z"/>
    <path fill="#383a48" d="M531.8 491.7a4.6 4.6 0 0 1-2.3-.6l-.6-.3-5.3-2.8C482 465.6 351.1 370 345.5 366a44.3 44.3 0 0 1-10.7-10.8 46.9 46.9 0 0 1-6.5-40.1l1.3-3.8a48.7 48.7 0 0 1 5.5-10 46.7 46.7 0 0 1 37.3-19.2 29.5 29.5 0 0 1 4.2.2 41.6 41.6 0 0 1 9.1 1.7 44.8 44.8 0 0 1 14.2 7l5.4 4 36.9 24.8-42.8-170.3a4.8 4.8 0 0 1 .2-3 41 41 0 0 1 78.3 4.2l44.7 176.8a5 5 0 0 1-.1 2.7 6.9 6.9 0 0 1-.3.8l-1 2.4a42.9 42.9 0 0 1-3.1 5.5c-.8 1.3-1.8 2.5-2.7 3.7a10.9 10.9 0 0 1 1.8 0l4.4.3h.3a2.2 2.2 0 0 1 .8 0h.2a4.9 4.9 0 0 1 4.5 4.3.9.9 0 0 0 .1.5l17.3 68.4c7.4 29.3 2 45.8-8.2 72.5a5.2 5.2 0 0 1-2.9 2.9l-1.9.2zM373 292h-.4a36.5 36.5 0 0 0-25.4 10.5 35 35 0 0 0-3.9 4.6 33.6 33.6 0 0 0-4.3 7.9 17.6 17.6 0 0 0-1 3 36.7 36.7 0 0 0 5.1 31.5 35.7 35.7 0 0 0 8.4 8.5c1.4 1 135.9 99 177 121.2l.7.4c8.4-22.4 12.1-36.6 5.9-61.2l-16.6-65.8a9.2 9.2 0 0 1-1.6-.1c-4.4-.2-9.2-.1-15.2 0a5 5 0 0 1-5-3.6 5 5 0 0 1 2.4-5.7 31.3 31.3 0 0 0 10.8-10 23.8 23.8 0 0 0 2.3-4.1l.4-1L468.3 153a31 31 0 0 0-58.6-4.4l45.8 182a5 5 0 0 1-2.1 5.5 5.1 5.1 0 0 1-5.8-.1l-3.7-2.7-.2-.2-3.7-2.8-40.2-27-.2-.1-5.5-4.1a34.7 34.7 0 0 0-11.1-5.4 34.2 34.2 0 0 0-7.1-1.3 9.9 9.9 0 0 0-2.9-.3z"/>
    <path fill="#f6e049" d="m497.4 326.7-4.2-16.6a71.8 71.8 0 0 1 51.9-87.1l125.7-31.8a71.8 71.8 0 0 1 87.1 51.9l28.3 111.7"/>
    <path fill="#383a48" d="M786.3 359.9a5 5 0 0 1-4.8-3.8l-28.3-111.7a66.7 66.7 0 0 0-81-48.3l-125.8 31.7a66.7 66.7 0 0 0-48.3 81l4.2 16.6a5 5 0 1 1-9.7 2.5l-4.2-16.6A76.8 76.8 0 0 1 544 218l125.7-31.8a76.8 76.8 0 0 1 93.2 55.6l28.3 111.7a5 5 0 0 1-3.6 6 6.9 6.9 0 0 1-1.3.3z"/>
    <path fill="#f6e049" d="M740.2 318.2a35.9 35.9 0 0 1-43.7-26.1L644.4 86a36 36 0 1 1 69.8-17.6l52.1 206a36 36 0 0 1-26.1 43.7z"/>
    <path fill="#383a48" d="M731.3 324.3a41.1 41.1 0 0 1-39.8-31l-52.1-206a41 41 0 1 1 79.5-20.1l52.1 206a41 41 0 0 1-29.7 49.9 42 42 0 0 1-10 1.2zm8.9-6.1zm-61-272a28.4 28.4 0 0 0-7.6 1A31 31 0 0 0 649.1 85l52.1 206a31 31 0 0 0 37.7 22.5 31 31 0 0 0 22.4-37.7l-52.1-206a31 31 0 0 0-30-23.5z"/>
    <path fill="#f6e049" d="M664.1 296.6a35.9 35.9 0 0 1-43.7-26.1l-52.1-206a36 36 0 1 1 69.8-17.6l52.1 206a36 36 0 0 1-26.1 43.7z"/>
    <path fill="#383a48" d="M655.3 302.7a41.1 41.1 0 0 1-39.8-31l-52.1-206A41 41 0 1 1 643 45.5l52.1 206a41 41 0 0 1-29.7 49.8 35.7 35.7 0 0 1-10.1 1.4zm8.8-6.1zm-60.9-272a29 29 0 0 0-7.7 1 31 31 0 0 0-22.4 37.8l52.1 206a31 31 0 0 0 37.7 22.5 31 31 0 0 0 22.5-37.7l-52.1-206a30.7 30.7 0 0 0-14.2-19 29.5 29.5 0 0 0-15.9-4.5z"/>
    <path fill="#f6e049" d="M597.8 313.4a35.9 35.9 0 0 1-43.7-26.1L494 49.9a36 36 0 1 1 69.8-17.6l60.1 237.4a36 36 0 0 1-26.1 43.7z"/>
    <path fill="#383a48" d="M588.9 319.5a41.1 41.1 0 0 1-39.8-31L489 51A41 41 0 0 1 568.6 31l60.1 237.4a41 41 0 0 1-29.7 49.8 38.9 38.9 0 0 1-10.1 1.3zm8.9-6.1zM528.9 10a29 29 0 0 0-7.7 1 31 31 0 0 0-22.5 37.7L558.8 286a31 31 0 0 0 37.7 22.5 31 31 0 0 0 22.5-37.7L558.9 33.5a30.7 30.7 0 0 0-14.2-19 29.6 29.6 0 0 0-15.8-4.5z"/>
    <path fill="#f6e049" d="M537.6 339.8a35.9 35.9 0 0 1-43.7-26.1l-52.1-206A36 36 0 1 1 511.6 90l52.1 206a36 36 0 0 1-26.1 43.7z"/>
    <path fill="#383a48" d="M528.7 345.9a41.1 41.1 0 0 1-39.7-31l-52.1-206a41 41 0 0 1 79.6-20.1l52.1 206a41 41 0 0 1-29.7 49.9 45.7 45.7 0 0 1-10.2 1.2zm-52-278.1a29 29 0 0 0-7.7 1 31 31 0 0 0-22.5 37.7l52.1 206a31 31 0 0 0 37.7 22.4 31 31 0 0 0 22.4-37.7l-52.1-206a30.7 30.7 0 0 0-14.2-19 30.3 30.3 0 0 0-15.7-4.4z"/>
    <path fill="#f6e049" d="M631.2 394c-23-90.7-107.5-42-134.7-62.4l-64.9-48.2a41.4 41.4 0 0 0-48.5 67s148.8 120.8 218.7 147.7"/>
    <path fill="#383a48" d="M601.8 503a5.7 5.7 0 0 1-1.8-.2c-29.4-11.3-75.4-39.7-136.7-84.5-44.3-32.4-81-62-83.2-63.8a46.4 46.4 0 0 1 54.6-75.1l64.9 48.2c7.5 5.6 21.5 4.9 37.7 4.2 34.8-1.7 82.4-4 98.9 61a5 5 0 1 1-9.7 2.6c-14.5-57.1-53.9-55.2-88.7-53.6-18.1.9-33.8 1.6-44.1-6.1l-64.9-48.2a36.4 36.4 0 0 0-50.8 8.2 36.5 36.5 0 0 0 8.1 50.9l.2.2c1.5 1.2 148.9 120.5 217.4 146.8a5 5 0 0 1 2.9 6.5 5.5 5.5 0 0 1-4.8 3z"/>
    <path fill="#f6e049" d="m550.8 236.4 121.5-30.7a69.8 69.8 0 0 1 84.4 50.9l18.9 74.7A132.9 132.9 0 0 1 680.3 493a132.8 132.8 0 0 1-160.7-97l-18.8-74.6a69.9 69.9 0 0 1 50-85z"/>
    <path fill="#f6e049" d="m693.8 267.2 276-71.6 1.1 261.3-225.1 56.9a204.8 204.8 0 0 1-160.3-21.6L567 481"/>
    <path fill="#383a48" d="M691.1 526.3A211.2 211.2 0 0 1 583 496.6l-18.5-11.1a5 5 0 1 1 5.2-8.6l18.5 11a200.7 200.7 0 0 0 156.4 21h.1l221.4-55.8-1.1-251-269.8 70a5 5 0 0 1-2.5-9.7l276-71.6a4.8 4.8 0 0 1 4.3.9 5 5 0 0 1 1.9 3.9l1.1 261.3a5 5 0 0 1-3.8 4.9l-225.1 56.9a213 213 0 0 1-56 7.6z"/>
    <path fill="url(#b)" d="M980.5 449.9 839.1 485l-59.3-234.5 201.8-53.2-1.1 252.5z"/>
  </g>
  <path fill="#383a48" d="m342 172.3 13-19.2 71.5 48.5-13.1 19.1zM650 133l36.5-77.8 21 9.8-36.4 77.8zm-150-60 22.4-6.1 21.2 76.3-22.5 6.1z"/>
  <g fill="#383a48" transform="matrix(-.38214 .1196 .11042 .41388 463 392.8)">
    <circle cx="445" cy="5" r="5"/>
    <circle cx="445" cy="49" r="5"/>
    <circle cx="445" cy="93" r="5"/>
    <circle cx="445" cy="137" r="5"/>
    <circle cx="445" cy="181" r="5"/>
    <circle cx="445" cy="225" r="5"/>
    <circle cx="445" cy="269" r="5"/>
    <circle cx="445" cy="313" r="5"/>
    <circle cx="401" cy="5" r="5"/>
    <circle cx="401" cy="49" r="5"/>
    <circle cx="401" cy="93" r="5"/>
    <circle cx="401" cy="137" r="5"/>
    <circle cx="401" cy="181" r="5"/>
    <circle cx="401" cy="225" r="5"/>
    <circle cx="401" cy="269" r="5"/>
    <circle cx="401" cy="313" r="5"/>
    <circle cx="357" cy="5" r="5"/>
    <circle cx="357" cy="49" r="5"/>
    <circle cx="357" cy="93" r="5"/>
    <circle cx="357" cy="137" r="5"/>
    <circle cx="357" cy="181" r="5"/>
    <circle cx="357" cy="225" r="5"/>
    <circle cx="357" cy="269" r="5"/>
    <circle cx="357" cy="313" r="5"/>
    <circle cx="313" cy="5" r="5"/>
    <circle cx="313" cy="49" r="5"/>
    <circle cx="313" cy="93" r="5"/>
    <circle cx="313" cy="137" r="5"/>
    <circle cx="313" cy="181" r="5"/>
    <circle cx="313" cy="225" r="5"/>
    <circle cx="313" cy="269" r="5"/>
    <circle cx="313" cy="313" r="5"/>
    <circle cx="269" cy="5" r="5"/>
    <circle cx="269" cy="49" r="5"/>
    <circle cx="269" cy="93" r="5"/>
    <circle cx="269" cy="137" r="5"/>
    <circle cx="269" cy="181" r="5"/>
    <circle cx="269" cy="225" r="5"/>
    <circle cx="269" cy="269" r="5"/>
    <circle cx="269" cy="313" r="5"/>
    <circle cx="225" cy="137" r="5"/>
    <circle cx="225" cy="181" r="5"/>
    <circle cx="225" cy="225" r="5"/>
    <circle cx="225" cy="269" r="5"/>
    <circle cx="225" cy="313" r="5"/>
    <circle cx="181" cy="137" r="5"/>
    <circle cx="181" cy="181" r="5"/>
    <circle cx="181" cy="225" r="5"/>
    <circle cx="181" cy="269" r="5"/>
    <circle cx="181" cy="313" r="5"/>
    <circle cx="137" cy="137" r="5"/>
    <circle cx="137" cy="181" r="5"/>
    <circle cx="137" cy="225" r="5"/>
    <circle cx="137" cy="269" r="5"/>
    <circle cx="137" cy="313" r="5"/>
    <circle cx="93" cy="225" r="5"/>
    <circle cx="93" cy="269" r="5"/>
    <circle cx="93" cy="313" r="5"/>
    <circle cx="49" cy="225" r="5"/>
    <circle cx="49" cy="269" r="5"/>
    <circle cx="49" cy="313" r="5"/>
    <circle cx="5" cy="225" r="5"/>
    <circle cx="5" cy="269" r="5"/>
    <circle cx="5" cy="313" r="5"/>
  </g>
  <g fill="#383a48" transform="matrix(.38363 -.105 .09641 .41783 713.4 338.7)">
    <circle cx="445" cy="5" r="5"/>
    <circle cx="445" cy="49" r="5"/>
    <circle cx="445" cy="93" r="5"/>
    <circle cx="445" cy="137" r="5"/>
    <circle cx="445" cy="181" r="5"/>
    <circle cx="445" cy="225" r="5"/>
    <circle cx="445" cy="269" r="5"/>
    <circle cx="445" cy="313" r="5"/>
    <circle cx="401" cy="5" r="5"/>
    <circle cx="401" cy="49" r="5"/>
    <circle cx="401" cy="93" r="5"/>
    <circle cx="401" cy="137" r="5"/>
    <circle cx="401" cy="181" r="5"/>
    <circle cx="401" cy="225" r="5"/>
    <circle cx="401" cy="269" r="5"/>
    <circle cx="401" cy="313" r="5"/>
    <circle cx="357" cy="5" r="5"/>
    <circle cx="357" cy="49" r="5"/>
    <circle cx="357" cy="93" r="5"/>
    <circle cx="357" cy="137" r="5"/>
    <circle cx="357" cy="181" r="5"/>
    <circle cx="357" cy="225" r="5"/>
    <circle cx="357" cy="269" r="5"/>
    <circle cx="357" cy="313" r="5"/>
    <circle cx="313" cy="5" r="5"/>
    <circle cx="313" cy="49" r="5"/>
    <circle cx="313" cy="93" r="5"/>
    <circle cx="313" cy="137" r="5"/>
    <circle cx="313" cy="181" r="5"/>
    <circle cx="313" cy="225" r="5"/>
    <circle cx="313" cy="269" r="5"/>
    <circle cx="313" cy="313" r="5"/>
    <circle cx="269" cy="5" r="5"/>
    <circle cx="269" cy="49" r="5"/>
    <circle cx="269" cy="93" r="5"/>
    <circle cx="269" cy="137" r="5"/>
    <circle cx="269" cy="181" r="5"/>
    <circle cx="269" cy="225" r="5"/>
    <circle cx="269" cy="269" r="5"/>
    <circle cx="269" cy="313" r="5"/>
    <circle cx="225" cy="137" r="5"/>
    <circle cx="225" cy="181" r="5"/>
    <circle cx="225" cy="225" r="5"/>
    <circle cx="225" cy="269" r="5"/>
    <circle cx="225" cy="313" r="5"/>
    <circle cx="181" cy="137" r="5"/>
    <circle cx="181" cy="181" r="5"/>
    <circle cx="181" cy="225" r="5"/>
    <circle cx="181" cy="269" r="5"/>
    <circle cx="181" cy="313" r="5"/>
    <circle cx="137" cy="137" r="5"/>
    <circle cx="137" cy="181" r="5"/>
    <circle cx="137" cy="225" r="5"/>
    <circle cx="137" cy="269" r="5"/>
    <circle cx="137" cy="313" r="5"/>
    <circle cx="93" cy="225" r="5"/>
    <circle cx="93" cy="269" r="5"/>
    <circle cx="93" cy="313" r="5"/>
    <circle cx="49" cy="225" r="5"/>
    <circle cx="49" cy="269" r="5"/>
    <circle cx="49" cy="313" r="5"/>
    <circle cx="5" cy="225" r="5"/>
    <circle cx="5" cy="269" r="5"/>
    <circle cx="5" cy="313" r="5"/>
  </g>
</svg>