<svg xmlns="http://www.w3.org/2000/svg" viewBox="0 0 212.4 186.5">
  <g data-name="Group 32">
    <g data-name="Group 31">
      <path fill="#e24122" d="M130.7 22.7a2.5 2.5 0 0 1 3.4-1 2.6 2.6 0 0 1 .8 3.6 2.4 2.4 0 0 1-3.4 1 2.6 2.6 0 0 1-.8-3.6ZM146 9.1a3.9 3.9 0 0 0-1.4-5.6 5.9 5.9 0 0 0-4.2-.6 1.3 1.3 0 0 1-1.5-1 1.4 1.4 0 0 1 1-1.7 8.8 8.8 0 0 1 6.4 1c3.6 2.2 4.7 5.9 2.7 9.4-2.6 4.4-8.5 3.5-11.3 7.5a1.4 1.4 0 0 1-2 .5l-.1-.1a1.5 1.5 0 0 1-.5-2C138 11.8 144 12.7 146 9Z" data-name="Path 171"/>
    </g>
  </g>
  <g data-name="Group 35">
    <g data-name="Group 34" transform="translate(0 10.2)">
      <path fill="#1e7ec1" d="M155.6 132.7a1.1 1.1 0 0 1-.3 0l-30.4-8.6a1.1 1.1 0 0 1 .6-2.1l28.2 7.8-1-2a1.1 1.1 0 1 1 2.2-1l1.7 4.3a1.1 1.1 0 0 1-1 1.6Zm-102 0a1.1 1.1 0 0 1-1.1-1.6l1.8-4.3a1.1 1.1 0 1 1 2 1l-.8 2 28.1-7.9a1.1 1.1 0 0 1 .6 2.2l-30.4 8.5a1.1 1.1 0 0 1-.3 0Z" data-name="Path 172"/>
      <path fill="#1e7ec1" d="M106.2 26.2c-30.5 0-56.3 24-56.3 52.3 0 13.7 5 26.2 14.2 35.4a57 57 0 0 0 41.4 15.3h.8c33-.3 56.2-21.1 56.2-50.7 0-28.4-25.8-52.3-56.3-52.3Z" data-name="Path 173"/>
      <path fill="#fcf1d5" d="M106.2 45.6A16.7 16.7 0 1 0 123 62.3a16.7 16.7 0 0 0-16.7-16.7Z" data-name="Path 174"/>
      <circle cx="8.1" cy="8.1" r="8.1" data-name="Ellipse 3" transform="translate(98.6 52.9)"/>
      <g fill="#1e7ec1" data-name="Group 33">
        <path d="M17.6 138.7a103.7 103.7 0 0 1-12.2-.7 2.2 2.2 0 0 1 .6-4.5c18 2.2 31.3-.4 39.3-7.5 6.8-6 10-15.4 10-28.5a2.2 2.2 0 1 1 4.6 0c0 14.5-3.8 25-11.6 31.9-7 6.2-17.3 9.3-30.7 9.3Z" data-name="Path 175"/>
        <path d="M6.1 135a.6.6 0 0 1-.2-1 1.8 1.8 0 0 0 1-.8.8.8 0 0 0 0-.6.6.6 0 0 1 1-.4 2 2 0 0 1 0 1.5 2.9 2.9 0 0 1-1.6 1.3.6.6 0 0 1-.2 0Zm-1.5-.4a.6.6 0 0 1-.2 0l-2.7-1a.6.6 0 1 1 .4-1l2.7 1a.6.6 0 0 1-.2 1Z" data-name="Path 176"/>
        <path d="m4.6 135.5-4-.2a.6.6 0 0 1 0-1.2l4 .3a.6.6 0 0 1 0 1.1Z" data-name="Path 177"/>
        <path d="M1.2 137a.6.6 0 0 1-.1-1.2l3.2-.5a.6.6 0 0 1 .2 1.1l-3.3.5Z" data-name="Path 178"/>
        <path d="M2.8 138a.6.6 0 0 1-.2-1l2.2-.8a.6.6 0 1 1 .3 1L3 138a.6.6 0 0 1-.2 0ZM82.3 33.7l-.2-.2a5 5 0 0 1-.3-.5 11.1 11.1 0 0 1-.4-1.3 21.5 21.5 0 0 1-.7-3.7 29.4 29.4 0 0 1 .7-10.3 23 23 0 0 1 5.9-10.6C90 4.2 94 1.7 98.2 1.2a9 9 0 0 1 7.5 2.3 10.8 10.8 0 0 1 3 7 12 12 0 0 1-2 7.7 10.8 10.8 0 0 1-8.8 4.7 6.4 6.4 0 0 1-5.3-3.2 8.5 8.5 0 0 1-.5-6.2c1.2-4 5-6.3 8.7-7.3a18.6 18.6 0 0 1 13.7 1.4 14.9 14.9 0 0 1 5.4 5.3c1.4 2.4 2.3 5.5 1.4 8.2a7.5 7.5 0 0 1-1.8 2.9c-.5.5-1.5 1.5-2.4 1.4-.6-.1-.6-.8-.4-1.3a3 3 0 0 1 1.6-1.3 10.2 10.2 0 0 1 5.5-.8 9.6 9.6 0 0 1 6 3.2 9.8 9.8 0 0 1 1.2 11.6 11.5 11.5 0 0 1-6.1 4.5A32.6 32.6 0 0 1 115 43a60.8 60.8 0 0 1-11.3-.6A63.6 63.6 0 0 1 93 39.9a32.3 32.3 0 0 1-8.4-4 12.2 12.2 0 0 1-2.5-2.2c-.4-.5-1.2.3-.7.8a19 19 0 0 0 7 4.8 54 54 0 0 0 11.1 3.5A67 67 0 0 0 112 44a40.7 40.7 0 0 0 11.4-1.2c2.8-.8 5.8-2 7.7-4.4a10.9 10.9 0 0 0 1.4-11.3 11.5 11.5 0 0 0-5.5-5.5 12 12 0 0 0-6.5-.8c-1.6.3-3.7.9-4.6 2.4a2.5 2.5 0 0 0-.3 2 1.8 1.8 0 0 0 2 1.2c2-.4 3.9-2.7 4.6-4.5 1.1-2.9.5-6.1-.9-8.8a16.3 16.3 0 0 0-12.6-8.6 19 19 0 0 0-13.5 3 10.4 10.4 0 0 0-4.1 11.3 7.3 7.3 0 0 0 4.6 4.7 9 9 0 0 0 6.8-.5 12.6 12.6 0 0 0 6.6-7c2-5.5.2-12.7-5.4-15.2-3.2-1.5-6.9-1-10 .5A23.4 23.4 0 0 0 83 10.8a27.2 27.2 0 0 0-3.5 11.9 26.7 26.7 0 0 0 .8 9.4 7 7 0 0 0 1.2 2.4c.4.6 1.2-.2.7-.8Zm112.5 105c-13.4 0-23.7-3.1-30.7-9.3-7.8-7-11.6-17.4-11.6-32a2.2 2.2 0 1 1 4.5 0c0 13.2 3.3 22.6 10.1 28.6 8 7.1 21.2 9.7 39.3 7.5a2.2 2.2 0 0 1 .6 4.5 103.5 103.5 0 0 1-12.2.7Z" data-name="Path 179"/>
        <path d="M206.3 135a.5.5 0 0 1-.2 0 2.9 2.9 0 0 1-1.6-1.3 2 2 0 0 1 0-1.5.6.6 0 1 1 1 .4.8.8 0 0 0 0 .6 1.8 1.8 0 0 0 1 .8.6.6 0 0 1-.2 1Zm1.5-.4a.6.6 0 0 1-.2-1l2.7-1a.6.6 0 1 1 .4 1l-2.7 1a.6.6 0 0 1-.2 0Z" data-name="Path 180"/>
        <path d="M207.8 135.5a.6.6 0 0 1 0-1l4-.4a.6.6 0 0 1 0 1.2l-4 .2Z" data-name="Path 181"/>
        <path d="m211.2 137-3.3-.6a.6.6 0 0 1 .2-1.1l3.2.5a.6.6 0 0 1 0 1.1Z" data-name="Path 182"/>
        <path d="M209.6 138a.6.6 0 0 1-.2 0l-2.1-.8a.6.6 0 1 1 .3-1l2.2.7a.6.6 0 0 1-.2 1.1Z" data-name="Path 183"/>
      </g>
      <path d="M115.5 94.3a3 3 0 0 1-1.9-.7l-4.3-3.5a2.7 2.7 0 0 0-3.8.6l-1 1.3a2.6 2.6 0 0 1-1.5 1.2 2.6 2.6 0 0 1-2-.8 17.8 17.8 0 0 1-2-2c-2-2.4-4.5-5.5-9.5-4.5a6.1 6.1 0 0 0-4.6 3 5.1 5.1 0 0 0-.3 4.3.6.6 0 1 1-1 .4 6.3 6.3 0 0 1 .3-5.3 7.2 7.2 0 0 1 5.4-3.5c5.6-1 8.5 2.4 10.6 4.9a17.2 17.2 0 0 0 1.7 1.8c.4.4.8.7 1.2.6.3 0 .5-.4.8-.7l1-1.4a3.8 3.8 0 0 1 5.4-.8l4.4 3.6a1.8 1.8 0 0 0 2.4-.1 11.4 11.4 0 0 0 1-1.3 3.3 3.3 0 0 1 3.6-1.1h.4a1.8 1.8 0 0 0 2.3-1.1l.6-2a.6.6 0 0 1 1 .4l-.6 2a3 3 0 0 1-3.6 1.9l-.4-.2a2.1 2.1 0 0 0-2.3.8 12.4 12.4 0 0 1-1.2 1.4 2.9 2.9 0 0 1-2 .8Z" data-name="Path 184"/>
    </g>
  </g>
  <g data-name="Group 38">
    <g data-name="Group 37">
      <path fill="#fff" d="M55.7 113.8c0 13.2 6 26.3 14.3 36.6a46 46 0 0 0 9.6 9.6l.4.3c-4.7 8-13.7 12.6-22.4 16.1s-27 7.8-27 7.8-7.9-7.8-10.4-11.3a84.7 84.7 0 0 1-11.8-59.3 129 129 0 0 0 26.6 2c11-.6 20.4-2.3 20.7-1.8Z" data-name="Path 185"/>
      <path d="M55.1 113.7c.1 14.7 7 28.3 16.3 39.3a52.5 52.5 0 0 0 4.4 4.7 38.3 38.3 0 0 0 4 3l-.3-.7c-4.7 8.1-13.7 12.5-22.2 16a107.6 107.6 0 0 1-10.4 3.4l-10.7 2.9-5.8 1.4.6.1c-2.6-2.5-5.1-5.1-7.5-7.9a49.8 49.8 0 0 1-8.2-12.6 88.8 88.8 0 0 1-7.6-33.6 59.3 59.3 0 0 1 1.2-16l-.7.4a123.3 123.3 0 0 0 15 1.8 145.1 145.1 0 0 0 25.7-1l4.7-.5 1.3-.1h.5c.2 0 0 0-.1-.2.5.6 1.3-.2.8-.7-.3-.4-1.1-.3-1.5-.2-1.2 0-2.3.2-3.4.3l-11.5 1.2a122.6 122.6 0 0 1-25.5-.8l-5.7-.8a.6.6 0 0 0-.7.3 54.9 54.9 0 0 0-1.3 12 93 93 0 0 0 1 14.6c1.4 10 4.3 20.2 9.5 29a56.1 56.1 0 0 0 7.7 10l4.1 4.2c.4.5 1.2 1.6 2 1.6a18.6 18.6 0 0 0 2-.6L38 183c4.5-1.2 9-2.4 13.4-3.8a92.7 92.7 0 0 0 13.5-5.4 38 38 0 0 0 13.3-9.8 25.6 25.6 0 0 0 2.4-3.4.6.6 0 0 0-.2-.8 36.5 36.5 0 0 1-3.5-2.7 47.4 47.4 0 0 1-3.8-4 82.2 82.2 0 0 1-6.4-8.3 63.1 63.1 0 0 1-8.8-19.3 49 49 0 0 1-1.5-11.7c0-.7-1.2-.8-1.2 0Z" data-name="Path 186"/>
      <path d="M38.4 176.2a.6.6 0 0 1-.5-.3.6.6 0 0 1 .1-.6 10.2 10.2 0 0 0 1.3-1.7.6.6 0 0 1 .8-.1.6.6 0 0 1 .2.7 11.3 11.3 0 0 1-1.5 1.9.6.6 0 0 1-.4.2Zm3-5.8a.4.4 0 0 1-.1 0 .6.6 0 0 1-.5-.6 9 9 0 0 0 0-1 7.6 7.6 0 0 0-.4-3 .6.6 0 0 1 .3-.8.6.6 0 0 1 .8.3 8.7 8.7 0 0 1 .5 3.5 10.1 10.1 0 0 1 0 1.1.6.6 0 0 1-.7.5Zm-3.3-7.7a.6.6 0 0 1-.3 0 6.8 6.8 0 0 0-.6-.4 21.2 21.2 0 0 0-3.4-1 .6.6 0 0 1-.4-.7.6.6 0 0 1 .7-.5 21.4 21.4 0 0 1 3.6 1.2 7.8 7.8 0 0 1 .7.4.6.6 0 0 1 .3.6.6.6 0 0 1-.6.4Zm-8.5-2.6a.6.6 0 0 1-.1 0 18 18 0 0 1-4.3-1.8.6.6 0 0 1-.1-.8.6.6 0 0 1 .7-.1 16.9 16.9 0 0 0 4 1.6.6.6 0 0 1-.2 1Zm-6.7-5a.6.6 0 0 1-.5-.5 5.2 5.2 0 0 1-.1-1.2 6.5 6.5 0 0 1 0-1 7.2 7.2 0 0 1 1-2.5.6.6 0 0 1 .8-.1.6.6 0 0 1 .2.7 6 6 0 0 0-.8 2.1 5.4 5.4 0 0 0 0 .8 4.1 4.1 0 0 0 0 1 .6.6 0 0 1-.2.4.6.6 0 0 1-.4.2Zm21.2-.2a9.8 9.8 0 0 1-1.2-.1.6.6 0 0 1-.4-.4.6.6 0 0 1 0-.6.6.6 0 0 1 .6-.2 8.3 8.3 0 0 0 4-.3.6.6 0 0 1 .8.3.6.6 0 0 1-.3.7 9.1 9.1 0 0 1-3.5.6Zm-5-2.1a.6.6 0 0 1-.4-.2 3.2 3.2 0 0 1-.2-.4 7.2 7.2 0 0 0-2.8-2.5.6.6 0 0 1-.2-.7.6.6 0 0 1 .7-.2 8.2 8.2 0 0 1 3.3 2.9 2 2 0 0 0 .1.2.6.6 0 0 1 0 .6.6.6 0 0 1-.5.3Zm11.6-1.2a.6.6 0 0 1-.4-.3.6.6 0 0 1 0-.5 7.4 7.4 0 0 0 .8-2.1 11.5 11.5 0 0 0 .4-1.9.6.6 0 0 1 .6-.5.6.6 0 0 1 .5.6 12.5 12.5 0 0 1-.4 2 8.5 8.5 0 0 1-1 2.4.6.6 0 0 1-.5.3Zm-23.4-3.3a.6.6 0 0 1 0-1 11 11 0 0 1 4.6-.1.6.6 0 0 1 .4.7.6.6 0 0 1-.6.4 9.9 9.9 0 0 0-4.2 0 .6.6 0 0 1-.2 0Zm24-5.1a.6.6 0 0 1-.5-.4 8.5 8.5 0 0 0-2.7-3.1.6.6 0 0 1 0-.8.6.6 0 0 1 .7-.1 9.6 9.6 0 0 1 3 3.6.6.6 0 0 1 0 .5.6.6 0 0 1-.5.3Zm-6.8-5.5a.6.6 0 0 1-.2 0 30 30 0 0 0-2-.7h-.1a.6.6 0 0 1-.4-.7.6.6 0 0 1 .7-.4h.2l2 .7a.6.6 0 0 1 .4.6.6.6 0 0 1-.6.5Z" data-name="Path 187"/>
      <path fill="#e24122" d="M42.5 143.4a1.7 1.7 0 0 1-1.5-1.1l-4.2-11.8a1.7 1.7 0 0 1 1-2.2 1.7 1.7 0 0 1 2.2 1l4.2 11.9a1.7 1.7 0 0 1-.2 1.5 1.7 1.7 0 0 1-1.5.7Z" data-name="Path 188"/>
      <path fill="#e24122" d="M33.8 139.3a1.7 1.7 0 0 1-1.6-1.4 1.7 1.7 0 0 1 1.2-1.9l12.9-4a1.7 1.7 0 0 1 2.1 1.2 1.7 1.7 0 0 1-1.1 2l-13 4a1.7 1.7 0 0 1-.5.1Z" data-name="Path 189"/>
      <g data-name="Group 36">
        <path fill="#2fb195" d="M23.3 121.7a4.5 4.5 0 0 0-2.1-2.2c-1-.5-4.7-1-6.1 2a4.7 4.7 0 0 0 .3 4.6 3.1 3.1 0 0 0-1.2 3.2 3.3 3.3 0 0 0 3.3 2 4.7 4.7 0 0 0 4.5-2.5c4 3.8 7.3.3 7.7-.9 1.7-5.2-4.4-6.8-6.4-6.2Zm45.2 36.4c0-3-2-6-4.9-6.3-8-1.2-8.6 5.5-8.7 6-1 0-4.3.3-5 3.3-.9 3.5 2.7 5.9 4.4 6a4.8 4.8 0 0 0 9.1.6 3.8 3.8 0 0 0 3.7-.4c1.3-1 1-3 1-3.3a3 3 0 1 0 .4-6Z" data-name="Path 190"/>
      </g>
    </g>
  </g>
</svg>