<svg xmlns="http://www.w3.org/2000/svg" viewBox="0 0 195.7 151">
  <g data-name="Group 40" transform="translate(23)">
    <path fill="#2fb195" d="M70.6 18.7a35.5 35.5 0 0 1 35.3 35.6v65.3a13.9 13.9 0 0 1-13.8 14h-43a13.9 13.9 0 0 1-13.9-14V54.3a35.5 35.5 0 0 1 35.4-35.6Z" data-name="Path 191"/>
    <path fill="#2fb195" d="M26.8 105.4C13.5 105 0 100.4 0 92.8c0-7.2 12.5-12.6 29.1-12.6a63.8 63.8 0 0 1 14.3 1.5 1.7 1.7 0 0 1-.7 3.4A60.3 60.3 0 0 0 29 83.6c-15.1 0-25.7 4.9-25.7 9.2 0 4 9.5 8.7 23.5 9.1a1.7 1.7 0 0 1 0 3.5Zm93.6-9.4a1.7 1.7 0 0 1-.1-3.5c12.8-1 20.4-5.4 20.4-9 0-4.3-10.5-9.1-25.7-9.1a56.7 56.7 0 0 0-16.5 2.2 1.7 1.7 0 0 1-2.1-1.1 1.7 1.7 0 0 1 1-2.2A59.3 59.3 0 0 1 115 71c16.6 0 29.2 5.4 29.2 12.6 0 7.3-11.9 11.5-23.7 12.4h-.1Zm-24-64.8-.9-.8c1.5-1.5 3.7-1.7 5.8-1.8 2.8-.2 5.2-.4 5.7-3.5a3 3 0 0 0-1.8-3.2 8 8 0 0 0-2-.8 5.3 5.3 0 0 1-3.3 2.4c-1.4.3-2.6-.3-2.9-1.5a1.7 1.7 0 0 1 .7-1.8c1-.7 3-.8 4.9-.5a5.2 5.2 0 0 0 .1-2.9 4 4 0 0 0-.3-.8c-2.3 1.3-5.3 1.7-7 1a2.5 2.5 0 0 1-1.6-2.5c0-1.4 1.2-2.4 3-2.6a7.2 7.2 0 0 1 6 2.5 6.4 6.4 0 0 0 .8-.8c1.1-1.2 1.4-3.5.7-5.9a8.7 8.7 0 0 0-5.6-6.2C94.6.3 84.2 2 78.7 15c-1.2 3-5.7 5-8.4 5.4L70 19c2.5-.4 6.6-2.3 7.6-4.6C82.9 2 93.3-1.2 99 .4c3.6 1 5.7 4.3 6.4 7 .8 2.8.5 5.5-1 7a7.6 7.6 0 0 1-1 1 5.1 5.1 0 0 1 .5 1.2 6.4 6.4 0 0 1-.2 3.4 9 9 0 0 1 2.2 1 4.2 4.2 0 0 1 2.2 4.2c-.6 4-3.9 4.3-6.7 4.5-2 .2-3.9.3-5 1.5Zm4.2-10.5a4 4 0 0 0-2.2.5.5.5 0 0 0-.3.6c.2.8 1.3.7 1.6.6a4 4 0 0 0 2.3-1.6 9.5 9.5 0 0 0-1.4-.1Zm-3.3-7.6H97c-.6 0-2 .3-2 1.4a1.3 1.3 0 0 0 1 1.4c1.4.6 3.9.2 6-.9a6.2 6.2 0 0 0-4.6-2Z" data-name="Path 192"/>
    <circle cx="8.3" cy="8.3" r="8.3" fill="#fcf1d5" data-name="Ellipse 4" transform="translate(64 33.7)"/>
    <ellipse cx="4.8" cy="4.9" data-name="Ellipse 5" rx="4.8" ry="4.9" transform="translate(67.8 40.6)"/>
    <path d="M51.8 66a.6.6 0 0 1-.5-.4.6.6 0 0 1 0-.6c3.2-5 16-10.7 26.6-10.2 6.6.3 11.3 3 13.6 7.6a.6.6 0 0 1-.2.7.6.6 0 0 1-.8-.2c-2.7-5.4-8.4-6.8-12.7-7-10.2-.5-22.5 5-25.5 9.7a.6.6 0 0 1-.5.3ZM65 30.1a.6.6 0 0 1-.6-.4.6.6 0 0 1 .2-.7 11.7 11.7 0 0 1 13.9-.5.6.6 0 0 1 0 1 .6.6 0 0 1-.6 0 10.6 10.6 0 0 0-12.6.5.6.6 0 0 1-.3 0Z" data-name="Path 193"/>
    <path fill="#2fb195" d="M66.5 127c.4 6.2.4 12.4.6 18.7l.2 4 .6-.5-4.8.5c-.7 0-.7 1.2 0 1.2l4.8-.5a.6.6 0 0 0 .5-.6l-.6-18.8-.1-4c0-.8-1.2-.8-1.2 0Zm10.9 2c.5 6.6.3 13.2.7 19.8 0 .8 0 1.8.9 2.1a4.7 4.7 0 0 0 2 0l2.7-.2c.7 0 .7-1.2 0-1.2l-2 .2h-1.1a2.9 2.9 0 0 1-1.1.1c-.3-.1-.3-1.2-.3-1.5l-.1-4.4-.4-10.8c0-1.3 0-2.7-.2-4 0-.8-1.2-.8-1.1 0Z" data-name="Path 194"/>
    <path fill="#e24122" d="M84.6 50.1a15.6 15.6 0 0 1 2.8-4.2h-1a4.1 4.1 0 0 0 1.6 1.6.6.6 0 0 0 .7 0l2.4-2.8c.5-.5-.3-1.4-.8-.8l-2.4 2.7h.7a3 3 0 0 1-1.1-1.4.6.6 0 0 0-1 0 16.5 16.5 0 0 0-2.8 4.4.6.6 0 0 0 .2.7.6.6 0 0 0 .8-.2Zm-22.8 2.1a57 57 0 0 0-4.6-5.5.6.6 0 0 0-1 .5 2.4 2.4 0 0 1-.2 2.2l.7-.2a12.9 12.9 0 0 0-4-1.7c-.8-.1-1.1 1-.4 1.1a12 12 0 0 1 3.9 1.6.6.6 0 0 0 .7-.2 3.5 3.5 0 0 0 .4-3l-1 .5a54.6 54.6 0 0 1 4.5 5.3c.5.6 1.5 0 1-.6Z" data-name="Path 195"/>
    <path fill="#2fb195" d="M28 103.2a.6.6 0 0 1-.5-.3.6.6 0 0 1 .1-.7 5 5 0 0 1 3.6-1.4.6.6 0 0 1-.1 1.1 3.8 3.8 0 0 0-2.7 1.2.6.6 0 0 1-.4.1Z" data-name="Path 196"/>
    <path fill="#2fb195" d="M117.5 98a.6.6 0 0 1-.5-.4.6.6 0 0 1 0-.6l2.7-2.7a.6.6 0 0 1 .8 0 .6.6 0 0 1 0 .8l-2.6 2.7a.6.6 0 0 1-.4.1Zm3.4 0a.6.6 0 0 1-.5-.2.6.6 0 0 1 0-.6 3.3 3.3 0 0 0 .4-2 .6.6 0 1 1 1.1-.2 4.4 4.4 0 0 1-.6 2.8.6.6 0 0 1-.5.2Z" data-name="Path 198"/>
    <path d="M51 19.3a58 58 0 0 0-7.5-11 21.3 21.3 0 0 0-4.2-4.1 4.6 4.6 0 0 0-3.8-1 3.5 3.5 0 0 0-2.2 2.2 4.2 4.2 0 0 0 .3 3.9A5 5 0 0 0 30.3 8a3.2 3.2 0 0 0-2.7 1.5A4 4 0 0 0 28 13a25.3 25.3 0 0 0 3.2 4.7 50.7 50.7 0 0 0 4.9 5.2 21.4 21.4 0 0 0 5.3 3.9c.6.3 9.9-7 9.6-7.6Z" data-name="Path 199"/>
    <path d="M39.5 29.2 55 17c.6-.5-.3-1.3-.8-.8L38.7 28.4c-.6.5.2 1.3.8.8Z" data-name="Path 200"/>
    <path fill="#fcf1d5" d="M41.6 25.5a50.6 50.6 0 0 1 8.4-6.8c.6-.4 0-1.4-.6-1a52.1 52.1 0 0 0-8.6 7 .6.6 0 0 0 .8.8Z" data-name="Path 201"/>
  </g>
  <path d="M15.6 112.1a43.4 43.4 0 0 1-5.8-20 45.8 45.8 0 0 1 3.9-20.5A42.6 42.6 0 0 1 20 61.4c.5-.5 1.2.2.8.7a42.6 42.6 0 0 0-9 18.4 44.5 44.5 0 0 0 .4 20.4 41.1 41.1 0 0 0 4.4 10.7.5.5 0 0 1-.5.8.5.5 0 0 1-.5-.3Zm163.5-4.6a41.1 41.1 0 0 0 4.4-10.7 44.5 44.5 0 0 0 .3-20.4 42.6 42.6 0 0 0-8.9-18.3c-.4-.5.3-1.3.8-.7a42.6 42.6 0 0 1 6.3 10.1 45.8 45.8 0 0 1 4 20.5 43.4 43.4 0 0 1-5.8 20 .5.5 0 0 1-.5.3.5.5 0 0 1-.5-.8ZM3 102.8a34 34 0 0 1-.6-26.3c.2-.7 1.3-.4 1 .3a33 33 0 0 0 .5 25.4.6.6 0 0 1-.5.9.4.4 0 0 1-.4-.3Zm188.8-4.6a33 33 0 0 0 .5-25.5c-.3-.6.8-.9 1-.3a34 34 0 0 1-.6 26.3.4.4 0 0 1-.4.3.6.6 0 0 1-.5-.8Zm-52.5-54.1-2.7-2a.3.3 0 0 1 0-.5.2.2 0 0 1 .2 0l2.8 2a.3.3 0 0 1 0 .4.2.2 0 0 1-.1.1.2.2 0 0 1-.2 0Zm-2-6a.3.3 0 0 1 .2-.3h4.2a.3.3 0 0 1 0 .6h-4.2a.3.3 0 0 1-.3-.3Zm-.9-3.6a.3.3 0 0 1 0-.2.3.3 0 0 1 0-.2l3.7-1.6a.2.2 0 0 1 .3 0 .3.3 0 0 1-.1.4l-3.6 1.7a.2.2 0 0 1-.3 0Z" data-name="Union 6"/>
  <g data-name="Group 37">
    <path fill="#fff" d="M95 77.2a51 51 0 0 0 32.1 8.4 38 38 0 0 0 11.2-1.8l.4-.1c3.2 7.1 1.8 15.5 0 23.2s-8.1 22.3-8.1 22.3-9.2 1.4-12.8 1.4a71.2 71.2 0 0 1-46.3-21.2A108.5 108.5 0 0 0 86 92.2c5-7.8 8.6-15 9-15Z" data-name="Path 185"/>
    <path d="M94.7 77.6c10 7.2 22.7 9.2 34.8 8.3a44.2 44.2 0 0 0 5.4-.6 32.2 32.2 0 0 0 4-1.2l-.6-.3c3.2 7.3 1.7 15.6-.1 23a90.5 90.5 0 0 1-2.8 8.8l-3.4 8.8-1.9 4.6.4-.3-9 1.2a42 42 0 0 1-12.7-.7A74.7 74.7 0 0 1 82 117.8a49.8 49.8 0 0 1-10-8.8v.6a103.7 103.7 0 0 0 8.5-9.3 122 122 0 0 0 12-18l2-3.5.6-1 .2-.2c.1-.2 0 0-.1 0 .6 0 .5-1-.1-1-.4 0-.7.7-1 1L92.7 80l-4.9 8.5a103.2 103.2 0 0 1-13 17 84 84 0 0 1-3.4 3.4.5.5 0 0 0-.1.6 46.2 46.2 0 0 0 7.5 6.9A78.2 78.2 0 0 0 89 123c7.5 4 15.9 7 24.4 8a47.2 47.2 0 0 0 10.6-.5l5-.6c.4-.1 1.6 0 2-.6a15.6 15.6 0 0 0 .6-1.7l1.7-4c1.4-3.7 2.8-7.3 4-11a78 78 0 0 0 3-11.9 34 34 0 0 0 0-14 21.6 21.6 0 0 0-1.2-3.2.5.5 0 0 0-.6-.3 30.7 30.7 0 0 1-3.6 1 40 40 0 0 1-4.6.7 69.2 69.2 0 0 1-8.8.3 53.1 53.1 0 0 1-17.5-3.6 41.3 41.3 0 0 1-8.8-4.8c-.5-.3-1 .4-.6.8Z" data-name="Path 186"/>
    <path d="M129 119.9a.5.5 0 0 1-.5.2.5.5 0 0 1-.3-.4 8.6 8.6 0 0 0-.5-1.8.5.5 0 0 1 .3-.6.5.5 0 0 1 .6.3 9.5 9.5 0 0 1 .5 2 .5.5 0 0 1 0 .3Zm-2.5-5a.3.3 0 0 1 0 .1.5.5 0 0 1-.7 0 7.6 7.6 0 0 0-.6-.5 6.4 6.4 0 0 0-2.4-1.2.5.5 0 0 1-.3-.6.5.5 0 0 1 .6-.3 7.3 7.3 0 0 1 2.7 1.3 8.5 8.5 0 0 1 .7.6.5.5 0 0 1 0 .7Zm-6.8-1.5a.5.5 0 0 1-.2.2 5.7 5.7 0 0 0-.5.2 17.8 17.8 0 0 0-2.5 1.8.5.5 0 0 1-.6 0 .5.5 0 0 1 0-.7 18 18 0 0 1 2.6-2 6.6 6.6 0 0 1 .6-.2.5.5 0 0 1 .6.1.5.5 0 0 1 0 .6Zm-6 4.5a15 15 0 0 1-3.4 2 .5.5 0 0 1-.6-.2.5.5 0 0 1 .3-.6 14.2 14.2 0 0 0 3-1.9.5.5 0 0 1 .7.7Zm-6.8 2a.5.5 0 0 1-.6.2 4.4 4.4 0 0 1-.8-.5 5.4 5.4 0 0 1-.6-.6 6 6 0 0 1-1.2-1.9.5.5 0 0 1 .2-.6.5.5 0 0 1 .7.3 5 5 0 0 0 1 1.5 4.5 4.5 0 0 0 .5.5 3.5 3.5 0 0 0 .6.4.5.5 0 0 1 .3.3.5.5 0 0 1 0 .4Zm10.4-14.5a8.2 8.2 0 0 1-.7.8.5.5 0 0 1-.4.1.5.5 0 0 1-.4-.3.5.5 0 0 1 .2-.5 7 7 0 0 0 1.7-3 .5.5 0 0 1 .6-.3.5.5 0 0 1 .4.6 7.6 7.6 0 0 1-1.4 2.6Zm-3.9 2.4a.5.5 0 0 1-.4.2 2.7 2.7 0 0 1-.3 0 6 6 0 0 0-3 .6.5.5 0 0 1-.7-.2.5.5 0 0 1 .2-.6 7 7 0 0 1 3.7-.8 1.8 1.8 0 0 0 .2 0 .5.5 0 0 1 .4.3.5.5 0 0 1 0 .5Zm5-8.5a.5.5 0 0 1-.5.2.5.5 0 0 1-.3-.3 6.2 6.2 0 0 0-1-1.6 9.6 9.6 0 0 0-1.1-1.2.5.5 0 0 1 0-.6.5.5 0 0 1 .6 0 10.5 10.5 0 0 1 1.2 1.2 7.1 7.1 0 0 1 1.1 1.8.5.5 0 0 1 0 .5Zm-13.8 14.3a.5.5 0 0 1-.9-.5 9.3 9.3 0 0 1 2.3-3.2.5.5 0 0 1 .7 0 .5.5 0 0 1 0 .7 8.3 8.3 0 0 0-2 2.9.5.5 0 0 1-.1.1Zm8.3-18.9a.5.5 0 0 1-.5.2 7.1 7.1 0 0 0-3.4.3.5.5 0 0 1-.6-.3.5.5 0 0 1 .3-.6 8 8 0 0 1 3.9-.3.5.5 0 0 1 .4.3.5.5 0 0 1-.1.4Zm-7.1 2a.5.5 0 0 1-.1 0l-1.4 1-.1.2a.5.5 0 0 1-.7-.1.5.5 0 0 1 0-.7h.2l1.5-1.1a.5.5 0 0 1 .6 0 .5.5 0 0 1 0 .7Z" data-name="Path 187"/>
    <path fill="#e24122" d="M108.7 100.8a1.4 1.4 0 0 1-1.5.5l-10.1-3a1.4 1.4 0 0 1-1-1.7 1.4 1.4 0 0 1 1.8-1l10.1 3a1.4 1.4 0 0 1 1 1 1.4 1.4 0 0 1-.3 1.2Z" data-name="Path 188"/>
    <path fill="#e24122" d="M101.6 104.8a1.4 1.4 0 0 1-1.8.3 1.4 1.4 0 0 1-.6-1.7l3.6-10.7a1.4 1.4 0 0 1 1.9-1 1.4 1.4 0 0 1 .8 1.9l-3.6 10.7a1.5 1.5 0 0 1-.3.5Z" data-name="Path 189"/>
    <g data-name="Group 36">
      <path fill="#2fb195" d="M84.5 103.2a3.8 3.8 0 0 0-2.6.3c-.9.5-3 2.7-1.7 5.2a4 4 0 0 0 3.3 2 2.6 2.6 0 0 0 1.6 2.4 2.8 2.8 0 0 0 3-1.2 4 4 0 0 0 .6-4.3c4.5-.9 3.7-4.9 3.1-5.7-2.7-3.7-6.8-.4-7.3 1.3Zm47-12.8c-2-1.4-5-1.6-6.7.2-4.7 5-.5 8.7-.1 9-.6.5-2 3-.3 5 2 2.3 5.4 1 6.2 0a4 4 0 0 0 5-6A3.2 3.2 0 0 0 137 96c0-1.3-1.4-2.1-1.7-2.3a2.6 2.6 0 1 0-3.9-3.2Z" data-name="Path 190"/>
    </g>
  </g>
  <path fill="#2fb195" d="m54.9 104.6-3.8-.2a.6.6 0 0 1 .1-1.2l3.7.3a.6.6 0 0 1 0 1.1Zm-2.5 2.3a.6.6 0 0 1-.2 0 4.4 4.4 0 0 1-2.2-1.7.6.6 0 0 1 .2-.8.6.6 0 0 1 .8.2 3.3 3.3 0 0 0 1.6 1.2.6.6 0 0 1-.2 1.1Zm86.9-11.5a.6.6 0 0 1-.5-.4.6.6 0 0 1 0-.6 4.9 4.9 0 0 1 3.7-1.3.6.6 0 0 1 0 1.2 3.8 3.8 0 0 0-2.8.9.6.6 0 0 1-.4.2Z" data-name="Path 197"/>
  <path fill="#2fb195" d="M49.5 103a.6.6 0 0 1-.4-.3.6.6 0 0 1-.2-.4c0-.1.5-3 4.8-3.4a.6.6 0 0 1 0 1.2c-3.3.2-3.6 2.3-3.6 2.3a.6.6 0 0 1-.6.5Zm95.6-9.4a.6.6 0 0 1-.4-.2c-.1 0-1.9-1.8-3.6-.7a.6.6 0 0 1-.8-.2.6.6 0 0 1 .2-.8c2-1.2 4.1 0 5 .9a.6.6 0 0 1 .1.6.6.6 0 0 1-.5.4Z" data-name="Path 202"/>
</svg>