<svg xmlns="http://www.w3.org/2000/svg" viewBox="0 0 100 100"><path fill="#78a2d2" d="M59,35c16.016,0,29,10.074,29,22.5c0,6.408-3.459,12.186-9,16.284c0,0,0,8.216,3,12.216	c-8,0-13-5-14.573-6.968C64.76,79.659,61.932,80,59,80c-16.016,0-29-10.074-29-22.5S42.984,35,59,35z"/><path fill="#1f212b" d="M82,87c-8.15,0-13.301-4.987-14.946-6.858C64.434,80.712,61.728,81,59,81	c-16.542,0-30-10.542-30-23.5S42.458,34,59,34s30,10.542,30,23.5c0,6.383-3.188,12.321-8.989,16.774	c0.058,1.784,0.428,7.978,2.789,11.126c0.228,0.303,0.264,0.708,0.095,1.047S82.379,87,82,87z M67.427,78.032	c0.3,0,0.589,0.135,0.781,0.376c0.812,1.016,4.962,5.77,11.972,6.498C78.028,80.495,78,74.091,78,73.784	c0-0.317,0.15-0.615,0.405-0.804C83.948,68.881,87,63.383,87,57.5C87,45.645,74.439,36,59,36s-28,9.645-28,21.5S43.561,79,59,79	c2.783,0,5.541-0.316,8.198-0.941C67.274,78.041,67.351,78.032,67.427,78.032z"/><path fill="#1f212b" d="M59,76c-11.037,0-20.905-5.476-23.996-13.316c-0.101-0.257,0.025-0.548,0.282-0.648	c0.257-0.104,0.547,0.025,0.649,0.281C38.878,69.784,48.364,75,59,75c0.824,0,1.653-0.03,2.463-0.092	c0.273-0.021,0.516,0.187,0.536,0.462c0.021,0.275-0.186,0.515-0.461,0.536C60.703,75.969,59.849,76,59,76z M80.5,66.622	c-0.104,0-0.208-0.032-0.298-0.1c-0.222-0.165-0.267-0.478-0.102-0.699C81.997,63.278,83,60.4,83,57.5	c0-5.485-3.641-10.731-9.738-14.033c-0.243-0.131-0.333-0.435-0.201-0.678c0.131-0.242,0.436-0.332,0.678-0.201	C80.164,46.066,84,51.642,84,57.5c0,3.117-1.072,6.202-3.099,8.921C80.803,66.553,80.652,66.622,80.5,66.622z M49.5,56h-6	c-0.276,0-0.5-0.224-0.5-0.5s0.224-0.5,0.5-0.5h6c0.276,0,0.5,0.224,0.5,0.5S49.776,56,49.5,56z M60.5,51h-15	c-0.276,0-0.5-0.224-0.5-0.5s0.224-0.5,0.5-0.5h15c0.276,0,0.5,0.224,0.5,0.5S60.776,51,60.5,51z"/><path fill="#fefdef" d="M41,14c-16.016,0-29,10.074-29,22.5c0,6.408,3.459,12.186,9,16.284c0,0,0,8.216-3,12.216	c8,0,13-5,14.573-6.968C35.24,58.659,38.068,59,41,59c16.016,0,29-10.074,29-22.5S57.016,14,41,14z"/><path fill="#1f212b" d="M18,66c-0.379,0-0.725-0.214-0.895-0.553S16.973,64.703,17.2,64.4	c2.361-3.148,2.731-9.342,2.789-11.126C14.188,48.821,11,42.883,11,36.5C11,23.542,24.458,13,41,13s30,10.542,30,23.5	S57.542,60,41,60c-2.728,0-5.434-0.288-8.054-0.858C31.301,61.013,26.15,66,18,66z M41,15c-15.439,0-28,9.645-28,21.5	c0,5.883,3.052,11.381,8.595,15.48C21.85,52.169,22,52.467,22,52.784c0,0.307-0.028,6.711-2.18,11.122	c7.01-0.729,11.16-5.482,11.972-6.498c0.241-0.303,0.634-0.438,1.01-0.35C35.459,57.684,38.217,58,41,58c15.439,0,28-9.645,28-21.5	S56.439,15,41,15z"/><path fill="#1f212b" d="M41,55c-0.849,0-1.703-0.031-2.537-0.094c-0.275-0.021-0.482-0.261-0.461-0.536	c0.02-0.275,0.264-0.486,0.536-0.462C39.347,53.97,40.176,54,41,54c13.233,0,24-7.851,24-17.5c0-1.653-0.324-3.3-0.964-4.894	c-0.103-0.257,0.021-0.548,0.278-0.65c0.255-0.104,0.548,0.021,0.65,0.277C65.651,32.947,66,34.719,66,36.5	C66,46.701,54.785,55,41,55z M19.5,45.622c-0.152,0-0.303-0.069-0.401-0.201C17.072,42.702,16,39.617,16,36.5	C16,26.299,27.215,18,41,18c5.336,0,10.433,1.231,14.738,3.563c0.243,0.131,0.333,0.435,0.202,0.678	c-0.132,0.243-0.436,0.332-0.678,0.201C51.103,20.19,46.17,19,41,19c-13.233,0-24,7.851-24,17.5c0,2.9,1.003,5.778,2.901,8.323	c0.165,0.222,0.12,0.534-0.102,0.699C19.709,45.59,19.604,45.622,19.5,45.622z M62.5,28.378c-0.152,0-0.303-0.069-0.401-0.201	c-0.565-0.758-1.22-1.497-1.946-2.197c-0.199-0.192-0.205-0.509-0.013-0.707c0.192-0.2,0.508-0.203,0.707-0.014	c0.765,0.738,1.456,1.519,2.054,2.32c0.165,0.222,0.119,0.534-0.102,0.699C62.709,28.346,62.604,28.378,62.5,28.378z M58.5,24.42	c-0.104,0-0.21-0.032-0.3-0.101c-0.318-0.238-0.643-0.473-0.978-0.697c-0.229-0.153-0.291-0.464-0.137-0.693	c0.154-0.229,0.465-0.291,0.694-0.137c0.35,0.234,0.689,0.479,1.022,0.729c0.221,0.165,0.265,0.479,0.1,0.699	C58.802,24.351,58.651,24.42,58.5,24.42z"/><path fill="#1f212b" d="M42.5,30h-15c-0.276,0-0.5-0.224-0.5-0.5s0.224-0.5,0.5-0.5h15c0.276,0,0.5,0.224,0.5,0.5	S42.776,30,42.5,30z"/><path fill="#1f212b" d="M31.5,35h-6c-0.276,0-0.5-0.224-0.5-0.5s0.224-0.5,0.5-0.5h6c0.276,0,0.5,0.224,0.5,0.5	S31.776,35,31.5,35z"/><path fill="#1f212b" d="M46.5,40h-21c-0.276,0-0.5-0.224-0.5-0.5s0.224-0.5,0.5-0.5h21c0.276,0,0.5,0.224,0.5,0.5	S46.776,40,46.5,40z"/><path fill="#1f212b" d="M41.5,45h-14c-0.276,0-0.5-0.224-0.5-0.5s0.224-0.5,0.5-0.5h14c0.276,0,0.5,0.224,0.5,0.5	S41.776,45,41.5,45z"/><path fill="#1f212b" d="M56.5,35h-21c-0.276,0-0.5-0.224-0.5-0.5s0.224-0.5,0.5-0.5h21c0.276,0,0.5,0.224,0.5,0.5	S56.776,35,56.5,35z"/><path fill="#1f212b" d="M54.5,30h-9c-0.276,0-0.5-0.224-0.5-0.5s0.224-0.5,0.5-0.5h9c0.276,0,0.5,0.224,0.5,0.5	S54.776,30,54.5,30z"/><path fill="#1f212b" d="M56.5,40h-7c-0.276,0-0.5-0.224-0.5-0.5s0.224-0.5,0.5-0.5h7c0.276,0,0.5,0.224,0.5,0.5	S56.776,40,56.5,40z"/></svg>