<svg xmlns="http://www.w3.org/2000/svg" viewBox="0 0 100 100">
  <path fill="#78a2d2" d="M59 35c16.016 0 29 10.074 29 22.5 0 6.408-3.459 12.186-9 16.284 0 0 0 8.216 3 12.216-8 0-13-5-14.573-6.968A36.832 36.832 0 0 1 59 80c-16.016 0-29-10.074-29-22.5S42.984 35 59 35z"/>
  <path fill="#1f212b" d="M82 87c-8.15 0-13.301-4.987-14.946-6.858-2.62.57-5.326.858-8.054.858-16.542 0-30-10.542-30-23.5S42.458 34 59 34s30 10.542 30 23.5c0 6.383-3.188 12.321-8.989 16.774.058 1.784.428 7.978 2.789 11.126A.999.999 0 0 1 82 87zm-14.573-8.968c.3 0 .589.135.781.376.812 1.016 4.962 5.77 11.972 6.498C78.028 80.495 78 74.091 78 73.784a1 1 0 0 1 .405-.804C83.948 68.881 87 63.383 87 57.5 87 45.645 74.439 36 59 36s-28 9.645-28 21.5S43.561 79 59 79c2.783 0 5.541-.316 8.198-.941a.995.995 0 0 1 .229-.027z"/>
  <path fill="#1f212b" d="M59 76c-11.037 0-20.905-5.476-23.996-13.316a.5.5 0 1 1 .931-.367C38.878 69.784 48.364 75 59 75c.824 0 1.653-.03 2.463-.092a.5.5 0 0 1 .075.998c-.835.063-1.689.094-2.538.094zm21.5-9.378a.499.499 0 0 1-.4-.799C81.997 63.278 83 60.4 83 57.5c0-5.485-3.641-10.731-9.738-14.033a.5.5 0 1 1 .477-.879C80.164 46.066 84 51.642 84 57.5c0 3.117-1.072 6.202-3.099 8.921a.498.498 0 0 1-.401.201zM49.5 56h-6a.5.5 0 0 1 0-1h6a.5.5 0 0 1 0 1zm11-5h-15a.5.5 0 0 1 0-1h15a.5.5 0 0 1 0 1z"/>
  <path fill="#fefdef" d="M41 14c-16.016 0-29 10.074-29 22.5 0 6.408 3.459 12.186 9 16.284 0 0 0 8.216-3 12.216 8 0 13-5 14.573-6.968C35.24 58.659 38.068 59 41 59c16.016 0 29-10.074 29-22.5S57.016 14 41 14z"/>
  <path fill="#1f212b" d="M18 66a1.001 1.001 0 0 1-.8-1.6c2.361-3.148 2.731-9.342 2.789-11.126C14.188 48.821 11 42.883 11 36.5 11 23.542 24.458 13 41 13s30 10.542 30 23.5S57.542 60 41 60c-2.728 0-5.434-.288-8.054-.858C31.301 61.013 26.15 66 18 66zm23-51c-15.439 0-28 9.645-28 21.5 0 5.883 3.052 11.381 8.595 15.48a1 1 0 0 1 .405.804c0 .307-.028 6.711-2.18 11.122 7.01-.729 11.16-5.482 11.972-6.498a.998.998 0 0 1 1.01-.35c2.657.626 5.415.942 8.198.942 15.439 0 28-9.645 28-21.5S56.439 15 41 15z"/>
  <path fill="#1f212b" d="M41 55c-.849 0-1.703-.031-2.537-.094a.5.5 0 0 1 .075-.998c.809.062 1.638.092 2.462.092 13.233 0 24-7.851 24-17.5 0-1.653-.324-3.3-.964-4.894a.499.499 0 0 1 .278-.65.499.499 0 0 1 .65.277A14.108 14.108 0 0 1 66 36.5C66 46.701 54.785 55 41 55zm-21.5-9.378a.498.498 0 0 1-.401-.201C17.072 42.702 16 39.617 16 36.5 16 26.299 27.215 18 41 18c5.336 0 10.433 1.231 14.738 3.563a.5.5 0 0 1-.476.879C51.103 20.19 46.17 19 41 19c-13.233 0-24 7.851-24 17.5 0 2.9 1.003 5.778 2.901 8.323a.499.499 0 0 1-.401.799zm43-17.244a.498.498 0 0 1-.401-.201 18.086 18.086 0 0 0-1.946-2.197.5.5 0 1 1 .694-.721 19.214 19.214 0 0 1 2.054 2.32.5.5 0 0 1-.401.799zm-4-3.958a.491.491 0 0 1-.3-.101 22.61 22.61 0 0 0-.978-.697.5.5 0 1 1 .557-.83c.35.234.689.479 1.022.729a.5.5 0 0 1-.301.899z"/>
  <path fill="#1f212b" d="M42.5 30h-15a.5.5 0 0 1 0-1h15a.5.5 0 0 1 0 1zM31.5 35h-6a.5.5 0 0 1 0-1h6a.5.5 0 0 1 0 1zM46.5 40h-21a.5.5 0 0 1 0-1h21a.5.5 0 0 1 0 1zM41.5 45h-14a.5.5 0 0 1 0-1h14a.5.5 0 0 1 0 1zM56.5 35h-21a.5.5 0 0 1 0-1h21a.5.5 0 0 1 0 1zM54.5 30h-9a.5.5 0 0 1 0-1h9a.5.5 0 0 1 0 1zM56.5 40h-7a.5.5 0 0 1 0-1h7a.5.5 0 0 1 0 1z"/>
</svg>