<svg xmlns="http://www.w3.org/2000/svg" viewBox="0 0 100 100">
  <path fill="#a3a3cd" d="M85 69H18a5 5 0 0 1-5-5V21a5 5 0 0 1 5-5h67a5 5 0 0 1 5 5v43a5 5 0 0 1-5 5z"/>
  <path fill="#1f212b" d="M85 70H18a5.9 5.9 0 0 1-5.9-6L12 21a6 6 0 0 1 6-6h67a6 6 0 0 1 6 6v43a6 6 0 0 1-6 6zM18 17a4 4 0 0 0-4 4v43a4 4 0 0 0 4 4h67a4 4 0 0 0 4-4l.1-43c0-2.2-1.9-4-4.1-4H18z"/>
  <path fill="#d0d0e3" d="M87 26.5V54H17V23h70v3.5z"/>
  <path fill="#fefdef" d="M18.5 68h66c2.7 0 4.5-1.7 4.5-4.1V57H14v6.9c0 2.4 1.8 4.1 4.5 4.1z"/>
  <path fill="#ceccbe" d="M68.7 79H67c-2.7 0-4.9-1.8-4.9-4v-6H41v6.1c0 2.2-2.3 3.9-5 3.9h-.2c-1.4 0-2.4 1.1-2.4 2.5s1 2.5 2.4 2.5h33c1.3 0 2.3-1.1 2.3-2.5s-1-2.5-2.4-2.5z"/>
  <path fill="#1f212b" d="M68.7 85h-33c-1.8 0-3.3-1.6-3.3-3.5s1.5-3.5 3.4-3.5h.2c2.2 0 4.1-1.3 4.1-2.9v-5.5l-.2-.4 2.5-.5h18l2.7.5-.1.4V75c0 1.6 1.8 2.9 3.9 2.9h1.8c2 0 3.4 1.6 3.4 3.5S70.6 85 68.7 85zm-33-5c-.7 0-1.3.7-1.3 1.5S35 83 35.8 83h33c.7 0 1.3-.7 1.3-1.5s-.6-1.5-1.4-1.5H67c-3.3 0-5.8-2.2-5.8-5v-5H42v5.1c0 2.7-2.7 4.9-6 4.9h-.2zm54.8-23h-77a.5.5 0 1 1 0-1h77a.5.5 0 1 1 0 1z"/>
  <path fill="#ceccbe" d="M52 59.5a2.5 2.5 0 1 0 0 5 2.5 2.5 0 1 0 0-5z"/>
  <path fill="#1f212b" d="M52 65a3 3 0 1 1 0-6 3 3 0 0 1 0 6zm0-5a2 2 0 1 0 0 4 2 2 0 0 0 0-4zm.5-40h-2a.5.5 0 0 1-.5-.5c0-.3.2-.5.5-.5h2c.3 0 .5.2.5.5s-.2.5-.5.5zm-3 59h-13a.5.5 0 0 0 0 1h13a.5.5 0 0 0 0-1zm4 0h-2a.5.5 0 0 0 0 1h2a.5.5 0 0 0 0-1zm33-53c-.3 0-.5.2-.5.5V53H17v-2.5c0-.3-.2-.5-.5-.5s-.5.2-.5.5V54h71V26.5c0-.3-.2-.5-.5-.5zm-70 13c.3 0 .5-.2.5-.5V23h67.5c.3 0 .5-.2.5-.5s-.2-.5-.5-.5H16v16.5c0 .3.2.5.5.5zm-.5 7.5v-3c0-.3.2-.5.5-.5s.5.2.5.5v3c0 .3-.2.5-.5.5a.5.5 0 0 1-.5-.5z"/>
  <path fill="#78a2d2" d="M73.5 49c-.2-5.8-3.3-10.6-7.4-12h-5.2c-4.1 1.4-7.2 6.2-7.4 12h20z"/>
  <path fill="#ead6c7" d="M63.5 25.5a6 6 0 1 0 0 12 6 6 0 0 0 0-12z"/>
  <path fill="#1f212b" d="M53.5 50a.5.5 0 0 1-.5-.5c0-6.1 3.2-11.5 7.8-13a.5.5 0 0 1 .3.9C57 38.8 54 43.8 54 49.5c0 .3-.2.5-.5.5zm20 0a.5.5 0 0 1-.5-.5c0-5.7-3-10.7-7.1-12.1a.5.5 0 0 1 .3-1c4.6 1.6 7.8 7 7.8 13.1 0 .3-.2.5-.5.5z"/>
  <path fill="#1f212b" d="M63.5 38a6.5 6.5 0 1 1 0-13 6.5 6.5 0 0 1 0 13zm0-12a5.5 5.5 0 1 0 0 11 5.5 5.5 0 0 0 0-11z"/>
  <path fill="#78a1d1" d="M30.5 26.5h12v5h-12z"/>
  <path fill="#1f212b" d="M42.5 32h-12a.5.5 0 0 1-.5-.5v-5c0-.3.2-.5.5-.5h12c.3 0 .5.2.5.5v5c0 .3-.2.5-.5.5zM31 31h11v-4H31v4z"/>
  <path fill="#78a1d1" d="M30.5 35.5h12v5h-12z"/>
  <path fill="#1f212b" d="M42.5 41h-12a.5.5 0 0 1-.5-.5v-5c0-.3.2-.5.5-.5h12c.3 0 .5.2.5.5v5c0 .3-.2.5-.5.5zM31 40h11v-4H31v4z"/>
  <path fill="#78a1d1" d="M30.5 44.5h12v5h-12z"/>
  <path fill="#78a1d1" d="M30.5 44.5h12v5h-12z"/>
  <path fill="#1f212b" d="M42.5 50h-12a.5.5 0 0 1-.5-.5v-5c0-.3.2-.5.5-.5h12c.3 0 .5.2.5.5v5c0 .3-.2.5-.5.5zM31 49h11v-4H31v4z"/>
</svg>