<svg xmlns="http://www.w3.org/2000/svg" viewBox="0 0 48 48">
  <path fill="#455a64" d="M36 4H26a2 2 0 1 1-4 0H12a4 4 0 0 0-4 4v32a4 4 0 0 0 4 4h24a4 4 0 0 0 4-4V8a4 4 0 0 0-4-4"/>
  <path fill="#fff" d="M36 41H12a1 1 0 0 1-1-1V8c0-.6.4-1 1-1h24c.6 0 1 .4 1 1v32c0 .6-.4 1-1 1"/>
  <path fill="#90a4ae" d="M26 4a2 2 0 1 1-4 0h-7v4c0 1.1.9 2 2 2h14a2 2 0 0 0 2-2V4h-7z"/>
  <path fill="#90a4ae" d="M24 0a4 4 0 1 0 0 8 4 4 0 0 0 0-8m0 6a2 2 0 1 1 0-4 2 2 0 0 1 0 4"/>
  <path fill="#03a9f4" d="M14 18h9v2h-9v-2zm0 12h9v2h-9v-2z"/>
  <path fill="#43a047" d="M31 20.6 29.4 22 26 18.5l1.4-1.4 2.1 2z"/>
  <path fill="#43a047" d="M34 17.5 29.5 22l-1.4-1.4 1.4-1.4 3-3zm-3 15L29.4 34 26 30.5l1.4-1.4 2.1 2z"/>
  <path fill="#43a047" d="M34 29.5 29.5 34l-1.4-1.4 1.4-1.4 3-3z"/>
</svg>