<svg xmlns="http://www.w3.org/2000/svg" viewBox="0 0 48 48">
  <path fill="#ffcc80" d="M36 6H26a2 2 0 0 1-4 0H12a4 4 0 0 0-4 4v32a4 4 0 0 0 4 4h24a4 4 0 0 0 4-4V10a4 4 0 0 0-4-4"/>
  <path fill="#41a571" d="M36 43H12a1 1 0 0 1-1-1V10c0-.6.4-1 1-1h24c.6 0 1 .4 1 1v32c0 .6-.4 1-1 1"/>
  <path fill="#90a4ae" d="M26 6a2 2 0 0 1-4 0h-7v4c0 1.1.9 2 2 2h14a2 2 0 0 0 2-2V6h-7z"/>
  <path fill="#90a4ae" d="M24 2a4 4 0 1 0 0 8 4 4 0 0 0 0-8m0 6a2 2 0 1 1 0-4 2 2 0 0 1 0 4"/>
  <path fill="#fff" d="M17 29a2 2 0 1 0 0 4 2 2 0 1 0 0-4zm10 7a2 2 0 1 0 0 4 2 2 0 1 0 0-4zm1-16a2 2 0 1 0 0 4 2 2 0 1 0 0-4zm-9.4-2 1.4 1.4-4.6 4.6-1.4-1.4z"/>
  <path fill="#fff" d="M20 22.6 18.6 24 14 19.4l1.4-1.4zM32.6 27l1.4 1.4-4.6 4.6-1.4-1.4z"/>
  <path fill="#fff" d="M34 31.6 32.6 33 28 28.4l1.4-1.4zm-9-8.5 1.3 1.6-6.3 5.2-1.3-1.6zm-5 8.8 5.1 3.6L24 37l-5.1-3.6zM26 18h4l-2-3-2 3z"/>
  <path fill="#398e5f" d="M33 9v1a2 2 0 0 1-2 2H17a2 2 0 0 1-2-2V9h-2v1a4 4 0 0 0 4 4h14a4 4 0 0 0 4-4V9h-2z"/>
  <path fill="#ffb74d" d="M13 6h2v3h-2zm20 0h2v3h-2z"/>
</svg>