<svg xmlns="http://www.w3.org/2000/svg" viewBox="0 0 48 48">
  <path fill="#607d8b" d="M20 32h8v8h-8z"/>
  <path fill="#90a4ae" d="M4 9h40v27H4z"/>
  <path fill="#bbdefb" d="M6 11h36v23H6z"/>
  <path fill="#90a4ae" d="M15 39h18v2H15z"/>
  <path fill="#64b5f6" d="M17 31h14a6 6 0 0 0-6-6h-2a6 6 0 0 0-6 6z"/>
  <path fill="#ff9800" d="M26 23h-4v3s.3 1 2 1c1.6 0 2-1 2-1v-3zm1.5-4a1.5 1.5 0 1 0 0 3 1.5 1.5 0 1 0 0-3zm-7 0a1.5 1.5 0 1 0 0 3 1.5 1.5 0 1 0 0-3z"/>
  <path fill="#ffb74d" d="M28 17.2c0-2.2-1.8-2.2-4-2.2s-4 0-4 2.2V21a4 4 0 0 0 8 0v-3.8z"/>
  <path fill="#424242" d="M23.8 13c-2.5.2-4.8 2-4.8 5.6V20l1 1v-3l6.3-2.2L28 18v3l1-1v-1.2c0-2.4-.1-4.2-3-4.8l-.5-1h-1.7z"/>
  <path fill="#3f51b5" d="M17 29h6v4h-6zm8 0h6v4h-6zM9 29h6v4H9zm24 0h6v4h-6z"/>
</svg>