<svg xmlns="http://www.w3.org/2000/svg" viewBox="0 0 195.7 151">
  <g data-name="Group 41">
    <g data-name="Group 40" transform="translate(23)">
      <path fill="#2fb195" d="M70.6 18.7a35.5 35.5 0 0 1 35.3 35.6v65.3a13.9 13.9 0 0 1-13.8 14h-43a13.9 13.9 0 0 1-13.9-14V54.3a35.5 35.5 0 0 1 35.4-35.6Z" data-name="Path 191"/>
      <path fill="#2fb195" d="M26.8 105.4C13.5 105 0 100.4 0 92.8c0-7.2 12.5-12.6 29.1-12.6a63.8 63.8 0 0 1 14.3 1.5 1.7 1.7 0 0 1-.7 3.4A60.3 60.3 0 0 0 29 83.6c-15.1 0-25.7 4.9-25.7 9.2 0 4 9.5 8.7 23.5 9.1a1.7 1.7 0 0 1 0 3.5Zm93.6-9.4a1.7 1.7 0 0 1-.1-3.5c12.8-1 20.4-5.4 20.4-9 0-4.3-10.5-9.1-25.7-9.1a56.7 56.7 0 0 0-16.5 2.2 1.7 1.7 0 0 1-2.1-1.1 1.7 1.7 0 0 1 1-2.2A59.3 59.3 0 0 1 115 71c16.6 0 29.2 5.4 29.2 12.6 0 7.3-11.9 11.5-23.7 12.4h-.1Zm-24-64.8-.9-.8c1.5-1.5 3.7-1.7 5.8-1.8 2.8-.2 5.2-.4 5.7-3.5a3 3 0 0 0-1.8-3.2 8 8 0 0 0-2-.8 5.3 5.3 0 0 1-3.3 2.4c-1.4.3-2.6-.3-2.9-1.5a1.7 1.7 0 0 1 .7-1.8c1-.7 3-.8 4.9-.5a5.2 5.2 0 0 0 .1-2.9 4 4 0 0 0-.3-.8c-2.3 1.3-5.3 1.7-7 1a2.5 2.5 0 0 1-1.6-2.5c0-1.4 1.2-2.4 3-2.6a7.2 7.2 0 0 1 6 2.5 6.4 6.4 0 0 0 .8-.8c1.1-1.2 1.4-3.5.7-5.9a8.7 8.7 0 0 0-5.6-6.2C94.6.3 84.2 2 78.7 15c-1.2 3-5.7 5-8.4 5.4L70 19c2.5-.4 6.6-2.3 7.6-4.6C82.9 2 93.3-1.2 99 .4c3.6 1 5.7 4.3 6.4 7 .8 2.8.5 5.5-1 7a7.6 7.6 0 0 1-1 1 5.1 5.1 0 0 1 .5 1.2 6.4 6.4 0 0 1-.2 3.4 9 9 0 0 1 2.2 1 4.2 4.2 0 0 1 2.2 4.2c-.6 4-3.9 4.3-6.7 4.5-2 .2-3.9.3-5 1.5Zm4.2-10.5a4 4 0 0 0-2.2.5.5.5 0 0 0-.3.6c.2.8 1.3.7 1.6.6a4 4 0 0 0 2.3-1.6 9.5 9.5 0 0 0-1.4-.1Zm-3.3-7.6H97c-.6 0-2 .3-2 1.4a1.3 1.3 0 0 0 1 1.4c1.4.6 3.9.2 6-.9a6.2 6.2 0 0 0-4.6-2Z" data-name="Path 192"/>
      <circle cx="8.3" cy="8.3" r="8.3" fill="#fcf1d5" data-name="Ellipse 4" transform="translate(64 33.7)"/>
      <ellipse cx="4.8" cy="4.9" data-name="Ellipse 5" rx="4.8" ry="4.9" transform="translate(67.8 40.6)"/>
      <path d="M51.8 66a.6.6 0 0 1-.5-.4.6.6 0 0 1 0-.6c3.2-5 16-10.7 26.6-10.2 6.6.3 11.3 3 13.6 7.6a.6.6 0 0 1-.2.7.6.6 0 0 1-.8-.2c-2.7-5.4-8.4-6.8-12.7-7-10.2-.5-22.5 5-25.5 9.7a.6.6 0 0 1-.5.3ZM65 30.1a.6.6 0 0 1-.6-.4.6.6 0 0 1 .2-.7 11.7 11.7 0 0 1 13.9-.5.6.6 0 0 1 0 1 .6.6 0 0 1-.6 0 10.6 10.6 0 0 0-12.6.5.6.6 0 0 1-.3 0Z" data-name="Path 193"/>
      <path fill="#2fb195" d="M66.5 127c.4 6.2.4 12.4.6 18.7l.2 4 .6-.5-4.8.5c-.7 0-.7 1.2 0 1.2l4.8-.5a.6.6 0 0 0 .5-.6l-.6-18.8-.1-4c0-.8-1.2-.8-1.2 0Zm10.9 2c.5 6.6.3 13.2.7 19.8 0 .8 0 1.8.9 2.1a4.7 4.7 0 0 0 2 0l2.7-.2c.7 0 .7-1.2 0-1.2l-2 .2h-1.1a2.9 2.9 0 0 1-1.1.1c-.3-.1-.3-1.2-.3-1.5l-.1-4.4-.4-10.8c0-1.3 0-2.7-.2-4 0-.8-1.2-.8-1.1 0Z" data-name="Path 194"/>
      <path fill="#e24122" d="M84.6 50.1a15.6 15.6 0 0 1 2.8-4.2h-1a4.1 4.1 0 0 0 1.6 1.6.6.6 0 0 0 .7 0l2.4-2.8c.5-.5-.3-1.4-.8-.8l-2.4 2.7h.7a3 3 0 0 1-1.1-1.4.6.6 0 0 0-1 0 16.5 16.5 0 0 0-2.8 4.4.6.6 0 0 0 .2.7.6.6 0 0 0 .8-.2Zm-22.8 2.1a57 57 0 0 0-4.6-5.5.6.6 0 0 0-1 .5 2.4 2.4 0 0 1-.2 2.2l.7-.2a12.9 12.9 0 0 0-4-1.7c-.8-.1-1.1 1-.4 1.1a12 12 0 0 1 3.9 1.6.6.6 0 0 0 .7-.2 3.5 3.5 0 0 0 .4-3l-1 .5a54.6 54.6 0 0 1 4.5 5.3c.5.6 1.5 0 1-.6Z" data-name="Path 195"/>
      <g fill="#2fb195" data-name="Group 39">
        <path d="M28 103.2a.6.6 0 0 1-.5-.3.6.6 0 0 1 .1-.7 5 5 0 0 1 3.6-1.4.6.6 0 0 1-.1 1.1 3.8 3.8 0 0 0-2.7 1.2.6.6 0 0 1-.4.1Z" data-name="Path 196"/>
        <path d="M32 104.6h-.1l-3.7-.2a.6.6 0 0 1 0-1.2l3.8.3a.6.6 0 0 1 0 1.1Zm-2.5 2.3a.6.6 0 0 1-.2 0 4.4 4.4 0 0 1-2.3-1.7.6.6 0 0 1 .2-.8.6.6 0 0 1 .8.2 3.3 3.3 0 0 0 1.6 1.2.6.6 0 0 1-.1 1.1Zm86.8-11.5a.6.6 0 0 1-.5-.4.6.6 0 0 1 .1-.6 4.9 4.9 0 0 1 3.7-1.2.6.6 0 0 1-.1 1.1 3.8 3.8 0 0 0-2.7.9.6.6 0 0 1-.5.2Z" data-name="Path 197"/>
        <path d="M117.5 98a.6.6 0 0 1-.5-.4.6.6 0 0 1 0-.6l2.7-2.7a.6.6 0 0 1 .8 0 .6.6 0 0 1 0 .8l-2.6 2.7a.6.6 0 0 1-.4.1Zm3.4 0a.6.6 0 0 1-.5-.2.6.6 0 0 1 0-.6 3.3 3.3 0 0 0 .4-2 .6.6 0 1 1 1.1-.2 4.4 4.4 0 0 1-.6 2.8.6.6 0 0 1-.5.2Z" data-name="Path 198"/>
      </g>
      <path d="M51 19.3a58 58 0 0 0-7.5-11 21.3 21.3 0 0 0-4.2-4.1 4.6 4.6 0 0 0-3.8-1 3.5 3.5 0 0 0-2.2 2.2 4.2 4.2 0 0 0 .3 3.9A5 5 0 0 0 30.3 8a3.2 3.2 0 0 0-2.7 1.5A4 4 0 0 0 28 13a25.3 25.3 0 0 0 3.2 4.7 50.7 50.7 0 0 0 4.9 5.2 21.4 21.4 0 0 0 5.3 3.9c.6.3 9.9-7 9.6-7.6Z" data-name="Path 199"/>
      <path d="M39.5 29.2 55 17c.6-.5-.3-1.3-.8-.8L38.7 28.4c-.6.5.2 1.3.8.8Z" data-name="Path 200"/>
      <path fill="#fcf1d5" d="M41.6 25.5a50.6 50.6 0 0 1 8.4-6.8c.6-.4 0-1.4-.6-1a52.1 52.1 0 0 0-8.6 7 .6.6 0 0 0 .8.8Z" data-name="Path 201"/>
      <path fill="#2fb195" d="M26.6 103a.6.6 0 0 1-.5-.3.6.6 0 0 1-.1-.4c0-.1.4-3 4.7-3.4a.6.6 0 0 1 0 1.2c-3.3.2-3.6 2.3-3.6 2.3a.6.6 0 0 1-.5.5Zm95.5-9.4a.6.6 0 0 1-.4-.2s-1.8-1.8-3.5-.7a.6.6 0 0 1-.8-.2.6.6 0 0 1 .2-.8c2-1.2 4 0 5 .9a.6.6 0 0 1 0 .6.6.6 0 0 1-.5.4Z" data-name="Path 202"/>
    </g>
  </g>
  <g data-name="Group 43">
    <g data-name="Group 42">
      <path d="M174.9 58.1a42.6 42.6 0 0 1 9 18.3 44.5 44.5 0 0 1-.4 20.4 41.1 41.1 0 0 1-4.4 10.7c-.3.6.6 1.2 1 .6a43.4 43.4 0 0 0 5.8-20 45.8 45.8 0 0 0-3.9-20.6 42.6 42.6 0 0 0-6.3-10.1c-.5-.6-1.2.2-.8.7Zm17.4 14.6a33 33 0 0 1-.5 25.5c-.3.6.7 1.2 1 .5a34 34 0 0 0 .5-26.3c-.2-.6-1.3-.3-1 .3Z" data-name="Path 203"/>
    </g>
  </g>
  <g data-name="Group 45">
    <g data-name="Group 44">
      <path fill="#e24122" d="m147.8 115.3-3.3-31.4a1 1 0 0 0-1-1l-48.7-3.2-44.2 15.6a1 1 0 0 0-.7 1.1l2.5 34a1 1 0 0 0 .5.7 1 1 0 0 0 1 .1l45.5-14 46.2.4a2.1 2.1 0 0 0 1.6-.6 2.2 2.2 0 0 0 .6-1.7Z" data-name="Path 204"/>
      <path fill="#fcf1d5" d="m55.7 115.2-1 7.3 1 4.6 43-13.2-1.2-10Z" data-name="Path 205"/>
      <path d="M55.8 127.7a.6.6 0 0 1-.6-.4l-1.1-4.7a.6.6 0 0 1 0-.2l1-7.2a.6.6 0 0 1 .5-.5l41.8-11.3a.6.6 0 0 1 .5.1.6.6 0 0 1 .2.4l1.3 10a.6.6 0 0 1-.4.6l-43 13.2a.6.6 0 0 1-.2 0Zm-.5-5.2 1 3.9 41.9-13-1.1-8.7-40.8 11-1 6.8Z" data-name="Path 206"/>
      <path fill="#fcf1d5" d="m141.6 103.3 2.7 6.7-.8 4.2-44.7-.3-1.2-10Z" data-name="Path 207"/>
      <path d="m143.5 114.8-44.7-.3a.6.6 0 0 1-.6-.5L97 104a.6.6 0 0 1 .1-.4.6.6 0 0 1 .4-.2l44-.7a.6.6 0 0 1 .6.4l2.7 6.6a.6.6 0 0 1 0 .4l-.8 4.2a.6.6 0 0 1-.5.5Zm-44.2-1.5 43.7.3.7-3.6-2.5-6.1-43 .7 1.1 8.7Z" data-name="Path 208"/>
      <path fill="#fff" d="m98 106.7-3-30.4s-4.6-2-15.2.6a101.7 101.7 0 0 0-27.2 11.7l1.9 33.5s15.5-8.9 30.1-13.5c11.8-3.6 13.2-1.9 13.2-1.9Z" data-name="Path 209"/>
      <path d="M54.6 122.6a.6.6 0 0 1-.6-.5l-2-33.5a.6.6 0 0 1 .3-.5 103.2 103.2 0 0 1 27.3-11.7c10.8-2.7 15.5-.7 15.6-.6a.6.6 0 0 1 .4.5l2.8 30.4a.6.6 0 0 1-.4.6.6.6 0 0 1-.6-.1c-.1-.1-2.2-1.3-12.6 2a185 185 0 0 0-30 13.4.6.6 0 0 1-.3 0ZM53.3 89l1.7 32c3.4-1.9 16.8-9 29.4-13 7.8-2.5 11.2-2.6 12.7-2.3l-2.6-29c-1.2-.4-5.8-1.5-14.6.7A102.3 102.3 0 0 0 53.3 89Z" data-name="Path 210"/>
      <path fill="#fff" d="m98 106.7-3-30.4s3.6-2.6 15.3-2.9a101.4 101.4 0 0 1 30.2 4.1l3.7 32.5s-16.8-4-32.2-4.2c-12.6-.3-14.2 1-14.2 1Z" data-name="Path 211"/>
      <path d="M144.3 110.5a.5.5 0 0 1-.1 0c-.2 0-17-3.9-32.1-4.2-11.9-.2-13.8.9-13.9 1a.5.5 0 0 1-.5 0 .6.6 0 0 1-.4-.5l-2.8-30.4a.6.6 0 0 1 .3-.5c.1-.2 3.8-2.8 15.6-3a102.8 102.8 0 0 1 30.4 4 .6.6 0 0 1 .4.6l3.7 32.4a.6.6 0 0 1-.2.4.6.6 0 0 1-.4.2Zm-35.3-5.4h3.1c13.4.3 28 3.3 31.5 4.1L140.1 78a102.5 102.5 0 0 0-29.7-4c-9.6.2-13.7 2-14.7 2.6l2.7 29.3c1.2-.3 4-.8 10.6-.8Z" data-name="Path 212"/>
      <path fill="#fff" d="m104.2 68.2-9 8.1 2.6 30.4A22.2 22.2 0 0 1 108 99a31.2 31.2 0 0 1 8.5-1.6l-11-2.5 2.3-5.5-5.7-1.3 8.3-8.5-9.3.5Z" data-name="Path 213"/>
      <path d="M97.8 107.3a.6.6 0 0 1-.6-.6l-2.7-30.3a.6.6 0 0 1 .2-.5l9.1-8a.6.6 0 0 1 .7-.1.6.6 0 0 1 .3.6l-3 11 8.4-.3a.6.6 0 0 1 .6.3.6.6 0 0 1-.1.7l-7.6 7.6 4.7 1.2a.6.6 0 0 1 .4.3.6.6 0 0 1 0 .5l-2 4.8 10.3 2.3a.6.6 0 0 1-.1 1.1 30.8 30.8 0 0 0-8.3 1.7 21.8 21.8 0 0 0-9.8 7.4.6.6 0 0 1-.5.2Zm-2-30.7 2.5 28.5a22.6 22.6 0 0 1 9.4-6.6 30.6 30.6 0 0 1 5.1-1.3l-7.5-1.7a.6.6 0 0 1-.4-.3.6.6 0 0 1 0-.5l2-4.8-5-1.3a.6.6 0 0 1-.4-.4.6.6 0 0 1 .1-.5l7.2-7.4-7.8.4a.6.6 0 0 1-.4-.2.6.6 0 0 1-.1-.6l2.6-10-7.4 6.7Z" data-name="Path 214"/>
    </g>
  </g>
  <g data-name="Group 47">
    <g data-name="Group 46">
      <path d="M20.8 62.1a42.6 42.6 0 0 0-9 18.4 44.5 44.5 0 0 0 .4 20.4 41.1 41.1 0 0 0 4.4 10.7c.3.6-.6 1-1 .5a43.4 43.4 0 0 1-5.8-20 45.8 45.8 0 0 1 3.9-20.6A42.6 42.6 0 0 1 20 61.4c.5-.5 1.2.2.8.7ZM3.4 76.8a33 33 0 0 0 .5 25.4c.3.7-.7 1.2-1 .6a34 34 0 0 1-.5-26.3c.2-.6 1.3-.4 1 .3Z" data-name="Path 215"/>
    </g>
  </g>
  <g data-name="Group 49">
    <g data-name="Group 48">
      <path d="M136.3 34.3a.3.3 0 0 1 .2-.2l3.6-1.7a.2.2 0 0 1 .3.2.3.3 0 0 1-.1.3l-3.6 1.7a.2.2 0 0 1-.3 0 .3.3 0 0 1 0-.3Zm1 3.8a.3.3 0 0 1 .2-.3h4.2a.3.3 0 0 1 0 .6h-4.2a.3.3 0 0 1-.3-.3Zm-.9 3.8a.3.3 0 0 1 .2-.3.2.2 0 0 1 .2 0l2.8 2a.3.3 0 0 1 0 .4.2.2 0 0 1-.3 0l-2.7-2a.3.3 0 0 1-.2-.1Z" data-name="Path 216"/>
    </g>
  </g>
  <g data-name="Group 51">
    <g data-name="Group 50">
      <path fill="#2fb195" d="m50 102.9.8-1c0-.2.2-.4.4-.5l.2-.2c0-.1-.1 0 0 0v-.1c.2 0 .2-.1.3-.2h.1c.1 0-.1 0 0 0l.3-.1h.5c-.2 0 0 0 0 0a2.8 2.8 0 0 1 .6.1s.2.1 0 0a.7.7 0 0 0 1-.2 1 1 0 0 0-.2-1.2 3.5 3.5 0 0 0-1.7-.4 2.8 2.8 0 0 0-1.4.5 8.9 8.9 0 0 0-2 2 1 1 0 0 0 0 1.3.7.7 0 0 0 1 0Z" data-name="Path 217"/>
    </g>
  </g>
  <g data-name="Group 53">
    <g data-name="Group 52">
      <path fill="#2fb195" d="m145.3 93.6-.8-1c0-.2-.2-.3-.4-.5l-.2-.2s.1 0 0 0l-.3-.2h-.1c-.1-.1.1 0 0 0l-.3-.2h-.1c-.2 0 .2 0 0 0h-.4c.1 0 0 0 0 0a2.8 2.8 0 0 0-.6.2s-.2 0 0 0a.7.7 0 0 1-1-.3 1 1 0 0 1 .2-1.1 3.5 3.5 0 0 1 1.7-.5 2.8 2.8 0 0 1 1.4.5 8.9 8.9 0 0 1 2 2.1 1 1 0 0 1 0 1.2.7.7 0 0 1-1 0Z" data-name="Path 218"/>
    </g>
  </g>
</svg>