<?xml version="1.0" encoding="UTF-8"?>
<svg width="1200pt" height="1200pt" version="1.1" viewBox="0 0 1200 1200" xmlns="http://www.w3.org/2000/svg">
 <g>
  <path d="m318.75 862.5c-4.9727-0.003906-9.7383-1.9805-13.254-5.4961s-5.4922-8.2812-5.4961-13.254v-131.25h-126.23c-26.184-0.03125-51.289-10.445-69.805-28.961-18.516-18.516-28.93-43.621-28.961-69.805v-289.97c0.03125-26.184 10.445-51.289 28.961-69.805 18.516-18.516 43.621-28.93 69.805-28.961h402.47c26.184 0.03125 51.289 10.445 69.805 28.961 18.516 18.516 28.93 43.621 28.961 69.805v289.97c-0.03125 26.184-10.445 51.289-28.961 69.805-18.516 18.516-43.621 28.93-69.805 28.961h-128.48l-114.38 142.97c-3.5586 4.4375-8.9375 7.0234-14.625 7.0312zm-144.98-600c-16.242 0.019531-31.816 6.4805-43.301 17.965s-17.945 27.059-17.965 43.301v289.97c0.019531 16.242 6.4805 31.816 17.965 43.301s27.059 17.945 43.301 17.965h144.98c4.9727 0 9.7422 1.9766 13.258 5.4922 3.5156 3.5156 5.4922 8.2852 5.4922 13.258v96.551l86.609-108.27c3.5547-4.4492 8.9453-7.0352 14.641-7.0312h137.48c16.242-0.019531 31.816-6.4805 43.301-17.965 11.484-11.488 17.945-27.059 17.965-43.301v-289.97c-0.019531-16.242-6.4805-31.816-17.965-43.301s-27.059-17.945-43.301-17.965z"/>
  <path d="m918.75 1050c-5.6953-0.003906-11.078-2.5898-14.641-7.0312l-114.36-142.97h-165.98c-26.184-0.027344-51.293-10.441-69.809-28.957-18.52-18.52-28.934-43.625-28.965-69.809v-32.484c0-6.6992 3.5742-12.887 9.375-16.238 5.8008-3.3477 12.949-3.3477 18.75 0 5.8008 3.3516 9.375 9.5391 9.375 16.238v32.484c0.019531 16.242 6.4805 31.816 17.965 43.301s27.059 17.945 43.301 17.965h174.98c5.6953-0.003906 11.082 2.582 14.641 7.0312l86.609 108.27v-96.551c0-4.9727 1.9766-9.7422 5.4922-13.258 3.5156-3.5156 8.2852-5.4922 13.258-5.4922h107.48c16.242-0.019531 31.816-6.4805 43.301-17.965s17.945-27.059 17.965-43.301v-289.97c-0.015625-15.578-5.957-30.566-16.617-41.926-10.664-11.355-25.25-18.23-40.797-19.23-1.1875-0.070313-2.5156-0.10938-3.8516-0.10938l-88.703 0.14453-206.28-0.14453c-6.6992 0-12.887-3.5742-16.238-9.375-3.3477-5.8008-3.3477-12.949 0-18.75 3.3516-5.8008 9.5391-9.375 16.238-9.375h0.007812l206.25 0.14453 88.699-0.14453c2.0625 0 4.082 0.074219 6.0781 0.1875 25.086 1.5781 48.633 12.645 65.852 30.953 17.223 18.312 26.828 42.492 26.863 67.625v289.97c-0.03125 26.184-10.445 51.289-28.961 69.805-18.516 18.516-43.621 28.93-69.805 28.961h-88.734v131.25c-0.003906 4.9727-1.9805 9.7383-5.4961 13.254s-8.2812 5.4922-13.254 5.4961z"/>
  <path d="m375 543.75c-4.9727 0-9.7422-1.9766-13.258-5.4922-3.5156-3.5156-5.4922-8.2852-5.4922-13.258-0.023438-12.953 3.8008-25.625 10.988-36.402s17.414-19.176 29.387-24.133c12.602-5.2383 22.875-14.879 28.898-27.125 6.0234-12.25 7.3945-26.27 3.8516-39.449-3.5469-13.184-11.758-24.625-23.113-32.203-11.352-7.5742-25.07-10.766-38.605-8.9805-13.531 1.7891-25.953 8.4297-34.949 18.695-8.9961 10.266-13.957 23.449-13.957 37.098 0 6.6992-3.5742 12.887-9.375 16.238-5.8008 3.3477-12.949 3.3477-18.75 0-5.8008-3.3516-9.375-9.5391-9.375-16.238-0.007812-22.75 8.2539-44.727 23.242-61.84 14.992-17.109 35.691-28.191 58.246-31.176 22.551-2.9844 45.422 2.332 64.348 14.957 18.926 12.621 32.617 31.695 38.527 53.664 5.9102 21.965 3.6328 45.336-6.4062 65.75-10.039 20.414-27.156 36.484-48.16 45.219-5.1289 2.1211-9.5078 5.7188-12.59 10.336-3.0781 4.6133-4.7148 10.043-4.707 15.59 0 4.9727-1.9766 9.7422-5.4922 13.258-3.5156 3.5156-8.2852 5.4922-13.258 5.4922z"/>
  <path d="m393.75 600c0 10.355-8.3945 18.75-18.75 18.75s-18.75-8.3945-18.75-18.75 8.3945-18.75 18.75-18.75 18.75 8.3945 18.75 18.75"/>
  <path d="m1031.2 562.5h-300c-6.6992 0-12.887-3.5742-16.238-9.375-3.3477-5.8008-3.3477-12.949 0-18.75 3.3516-5.8008 9.5391-9.375 16.238-9.375h300c6.6992 0 12.887 3.5742 16.238 9.375 3.3477 5.8008 3.3477 12.949 0 18.75-3.3516 5.8008-9.5391 9.375-16.238 9.375z"/>
  <path d="m1031.2 637.5h-300c-6.6992 0-12.887-3.5742-16.238-9.375-3.3477-5.8008-3.3477-12.949 0-18.75 3.3516-5.8008 9.5391-9.375 16.238-9.375h300c6.6992 0 12.887 3.5742 16.238 9.375 3.3477 5.8008 3.3477 12.949 0 18.75-3.3516 5.8008-9.5391 9.375-16.238 9.375z"/>
  <path d="m1031.2 712.5h-300c-6.6992 0-12.887-3.5742-16.238-9.375-3.3477-5.8008-3.3477-12.949 0-18.75 3.3516-5.8008 9.5391-9.375 16.238-9.375h300c6.6992 0 12.887 3.5742 16.238 9.375 3.3477 5.8008 3.3477 12.949 0 18.75-3.3516 5.8008-9.5391 9.375-16.238 9.375z"/>
  <path d="m825 787.5h-93.75c-6.6992 0-12.887-3.5742-16.238-9.375-3.3477-5.8008-3.3477-12.949 0-18.75 3.3516-5.8008 9.5391-9.375 16.238-9.375h93.75c6.6992 0 12.887 3.5742 16.238 9.375 3.3477 5.8008 3.3477 12.949 0 18.75-3.3516 5.8008-9.5391 9.375-16.238 9.375z"/>
  <path d="m871.88 271.88c-4.9727 0.003906-9.7461-1.9727-13.258-5.4922l-46.875-46.875c-3.5156-3.5156-5.4922-8.2852-5.4922-13.258s1.9766-9.7422 5.4922-13.258l46.875-46.875c3.5156-3.5156 8.2852-5.4922 13.258-5.4922s9.7422 1.9766 13.258 5.4922l46.875 46.875c3.5156 3.5156 5.4922 8.2852 5.4922 13.258s-1.9766 9.7422-5.4922 13.258l-46.875 46.875c-3.5117 3.5195-8.2852 5.4961-13.258 5.4922zm-20.359-65.625 20.359 20.359 20.359-20.359-20.359-20.359z"/>
  <path d="m1012.5 318.75c0 10.355-8.3945 18.75-18.75 18.75s-18.75-8.3945-18.75-18.75 8.3945-18.75 18.75-18.75 18.75 8.3945 18.75 18.75"/>
  <path d="m750 93.75c0 10.355-8.3945 18.75-18.75 18.75s-18.75-8.3945-18.75-18.75 8.3945-18.75 18.75-18.75 18.75 8.3945 18.75 18.75"/>
  <path d="m262.5 1106.2c-14.918 0-29.227-5.9258-39.773-16.477-10.551-10.547-16.477-24.855-16.477-39.773s5.9258-29.227 16.477-39.773c10.547-10.551 24.855-16.477 39.773-16.477s29.227 5.9258 39.773 16.477c10.551 10.547 16.477 24.855 16.477 39.773-0.015625 14.914-5.9492 29.211-16.492 39.758-10.547 10.543-24.844 16.477-39.758 16.492zm0-75c-4.9727 0-9.7422 1.9766-13.258 5.4922-3.5156 3.5156-5.4922 8.2852-5.4922 13.258s1.9766 9.7422 5.4922 13.258c3.5156 3.5156 8.2852 5.4922 13.258 5.4922s9.7422-1.9766 13.258-5.4922c3.5156-3.5156 5.4922-8.2852 5.4922-13.258-0.003906-4.9727-1.9805-9.7383-5.4961-13.254s-8.2812-5.4922-13.254-5.4961z"/>
  <path d="m525 956.25c0 10.355-8.3945 18.75-18.75 18.75s-18.75-8.3945-18.75-18.75 8.3945-18.75 18.75-18.75 18.75 8.3945 18.75 18.75"/>
  <path d="m150 881.25c0 10.355-8.3945 18.75-18.75 18.75s-18.75-8.3945-18.75-18.75 8.3945-18.75 18.75-18.75 18.75 8.3945 18.75 18.75"/>
 </g>
</svg>
