<?xml version="1.0" encoding="UTF-8"?>
<svg width="700pt" height="700pt" version="1.1" viewBox="0 0 700 700" xmlns="http://www.w3.org/2000/svg">
 <g>
  <path d="m651.59 411.24c-4.2852-8.4297-6.5586-17.684-6.5586-27.273 0-13.195 4.2266-25.789 12.234-36.414l-0.66797-0.5 4.2227-3.0664c4.5273-3.3047 5.5352-9.6602 2.2266-14.188-2.6797-3.6836-7.3633-4.9961-11.461-3.6133-4.2773-8.4297-6.5508-17.676-6.5508-27.266 0-13.203 4.2266-25.797 12.234-36.422l-0.67188-0.50391 4.207-3.0586c4.5352-3.3047 5.5352-9.6523 2.2383-14.188-2.6875-3.6953-7.3789-4.9961-11.461-3.6133-4.2891-8.4336-6.5664-17.688-6.5664-27.273 0-13.203 4.2266-25.797 12.234-36.43l-0.67188-0.49609 4.1992-3.0586c3.0117-2.1836 4.5625-5.8047 4.1172-9.4766-0.44922-3.668-2.8711-6.8047-6.3086-8.1758l-272.99-109.21c-8.875-3.5195-21.789-1.875-29.434 3.6875l-302.7 220.14c-0.82422 0.60156-1.5195 1.3242-2.1211 2.1289l-0.019531-0.019531c-10.676 14.172-16.324 30.992-16.324 48.641 0 15.191 4.1992 29.734 12.16 42.531-7.9531 12.797-12.16 27.355-12.16 42.547 0 15.176 4.207 29.723 12.16 42.512-7.9531 12.797-12.16 27.348-12.16 42.523 0 17.648 5.6484 34.48 16.324 48.645l1.6992 2.2695 275.62 110.25c3.3164 1.3242 7.0703 1.9531 10.879 1.9531 6.6641 0 13.523-1.9531 18.578-5.6406l151.34-110.04c0-0.015625 0.015625-0.015625 0.015625-0.015625l151.36-110.1c4.5273-3.3125 5.5352-9.6602 2.2266-14.188-2.668-3.6758-7.3477-4.9844-11.445-3.5977zm-283.48-344.11c1.1484-0.83203 3.7305-1.7227 6.7148-1.7227 1.8359 0 2.8906 0.34375 3.2422 0.47656l255.91 102.38-287.83 209.33c-1.1562 0.83203-3.7461 1.7344-6.7188 1.7344-1.8203 0-2.8633-0.34375-3.2344-0.48828l-255.91-102.37zm129.39 455.58c-0.015625 0.007812-0.027344 0.019531-0.027344 0.027343l-151.32 110.03c-2.2539 1.625-7.3555 2.2812-9.9609 1.2539l-270.24-108.11c-6.9648-10.137-10.633-21.902-10.633-34.203 0-10.641 2.7852-20.859 8.0508-30.004l265.27 106.11c3.3242 1.3164 7.0859 1.9609 10.891 1.9609 6.6719 0 13.516-1.9453 18.562-5.6367l151.34-110.06c0-0.007812 0.015625-0.007812 0.015625-0.015624l116.66-84.855c-0.89062 4.8281-1.3945 9.7578-1.3945 14.742 0 13.754 3.4727 26.992 10.051 38.898zm0-85.062c-0.015625 0-0.027344 0.015624-0.027344 0.015624l-151.32 110.05c-2.2461 1.6328-7.3438 2.2617-9.9609 1.2305l-270.24-108.09c-6.9648-10.145-10.633-21.891-10.633-34.18 0-10.648 2.7852-20.887 8.0508-30.023l265.27 106.12c3.3164 1.3242 7.0703 1.9609 10.879 1.9609 6.6641 0 13.523-1.9531 18.578-5.6406l268.02-194.93c-0.89063 4.8242-1.3945 9.75-1.3945 14.75 0 13.754 3.4727 26.977 10.051 38.879zm0.007813-85.066-151.36 110.07c-2.2539 1.625-7.3711 2.2812-9.9531 1.2461l-270.25-108.11c-6.9648-10.129-10.633-21.891-10.633-34.195 0-10.648 2.7852-20.875 8.0508-30.016l265.27 106.13c3.1836 1.2734 6.9102 1.9375 10.793 1.9375 6.9492 0 13.746-2.0508 18.66-5.6289l268.02-194.91c-0.89062 4.8242-1.3945 9.75-1.3945 14.75 0 13.754 3.4805 26.984 10.066 38.891z"/>
  <path d="m472.07 242.48c2.1211 0 4.2227-0.65625 5.9766-1.9375l60.844-44.254c3.0039-2.1836 4.5625-5.8047 4.1172-9.4766-0.45312-3.6758-2.8711-6.8125-6.3086-8.1758l-165.96-66.383c-3.2344-1.3008-6.9219-0.83984-9.7578 1.2188l-60.844 44.262c-2.9961 2.1758-4.5625 5.7969-4.1094 9.4727s2.8711 6.8125 6.3086 8.1836l165.96 66.375c1.2188 0.46875 2.5 0.71484 3.7812 0.71484zm-103.68-109.29 143.68 57.465-41.441 30.141-143.68-57.465z"/>
 </g>
</svg>
