<?xml version="1.0" encoding="UTF-8"?>
<svg width="700pt" height="700pt" version="1.1" viewBox="0 0 700 700" xmlns="http://www.w3.org/2000/svg">
 <g>
  <path d="m456.4 552.3h-23.801v-24.5h-165.2v24.5h-23.801c-16.102 0-28.699 12.602-28.699 27.301 0 15.398 12.602 27.301 28.699 27.301h212.8c16.102 0 28.699-12.602 28.699-27.301 0.003906-15.402-12.598-27.301-28.699-27.301z"/>
  <path d="m608.3 93.102h-516.6c-23.801 0-43.398 19.602-43.398 44.102v329.7c0 24.5 19.602 44.102 43.398 44.102h515.9c23.801 0 43.398-19.602 43.398-44.102l0.003906-329.7c0.69922-24.5-18.898-44.098-42.699-44.098zm-258.3 396.9c-9.8008 0-18.199-8.3984-18.199-18.199s8.3984-18.199 18.199-18.199 18.199 8.3984 18.199 18.199c0 10.5-8.3984 18.199-18.199 18.199zm261.8-56h-523.6v-296.8c0-2.8008 2.1016-4.8984 4.1992-4.8984h515.9c2.1016 0 4.1992 2.1016 4.1992 4.8984z"/>
  <path d="m373.8 185.5c-0.69922-4.8984-4.1992-9.1016-9.8008-9.1016h-242.2c-4.8984 0-9.1016 4.1992-9.1016 9.1016v195.3c0 4.8984 4.1992 9.1016 9.1016 9.1016l242.2-0.003906c4.8984 0 9.1016-4.1992 9.1016-9.1016zm-124.6 13.301c0.69922-2.8008 2.8008-4.8984 4.8984-5.6016 1.3984-0.69922 2.8008-0.69922 4.1992-0.69922 4.1992 0 7.6992 2.1016 9.8008 5.6016 2.8008 4.8984 0 11.199-4.8984 14-2.1016 1.3984-4.8984 1.3984-7.6992 0.69922s-4.8984-2.8008-6.3008-5.6016c-0.69922-2.8008-0.69922-5.5977 0-8.3984zm40.602 0c0.69922-2.8008 2.8008-4.1992 4.8984-5.6016 1.3984-0.69922 2.8008-0.69922 4.1992-0.69922 4.1992 0 7.6992 2.1016 9.8008 5.6016 2.8008 4.8984 0 11.199-4.8984 14-4.8984 2.8008-11.199 0-14-4.8984-1.4023-2.8047-1.4023-5.6016 0-8.4023zm44.801-5.6016c1.3984-0.69922 2.8008-1.3984 4.1992-1.3984 4.1992 0 7.6992 2.1016 9.8008 5.6016 2.8008 4.8984 0 11.199-4.8984 14-4.8984 2.8008-11.199 0-14-4.8984-2.1016-4.9023-0.003906-11.203 4.8984-13.305zm20.297 38.5v140h-224v-140z"/>
  <path d="m152.6 256.2h91.699v14h-91.699z"/>
  <path d="m152.6 294.7h180.6v14h-180.6z"/>
  <path d="m154 333.2h180.6v14h-180.6z"/>
  <path d="m401.8 256.2c0 36.398 29.398 66.5 65.102 66.5 13.301 0 25.199-3.5 35.699-9.8008l3.5 3.5c0.69922 3.5 2.1016 6.3008 3.5 8.3984l48.301 48.301c3.5 3.5 7.6992 3.5 9.8008 3.5 3.5 0 7.6992-0.69922 9.8008-4.1992 2.1016-2.1016 3.5-5.6016 3.5-9.8008 2.1016-5.6016-2.1016-9.8008-3.5-11.199l-49-49c-1.3984-2.1016-4.8984-3.5-8.3984-3.5l-2.1016-2.8008c9.1016-11.199 13.301-25.199 13.301-40.602 0-36.398-29.398-65.102-65.102-65.102-35.703 0.003907-64.402 29.406-64.402 65.805zm65.098-40.598c22.398 0 40.602 18.199 40.602 40.602 0 22.398-18.199 40.602-40.602 40.602-22.398 0-40.602-18.199-40.602-40.602 0.003906-22.402 18.902-41.305 40.602-40.602z"/>
 </g>
</svg>
