<?xml version="1.0" encoding="UTF-8"?>
<svg width="700pt" height="700pt" version="1.1" viewBox="0 0 700 700" xmlns="http://www.w3.org/2000/svg">
 <g>
  <path d="m560.43 46.434h-110.11l-6.4609-23.047c-1.2852-4.582-5.4609-7.7422-10.215-7.7422h-167.3c-4.75 0-8.9297 3.1602-10.215 7.7422l-6.4609 23.047h-110.1c-22.316 0-40.473 18.156-40.473 40.473v556.96c0 22.316 18.156 40.473 40.473 40.473h420.86c22.316 0 40.473-18.156 40.473-40.473v-556.95c0-22.328-18.156-40.484-40.473-40.484zm-336.01 105.7c2.0039 2.6523 5.1328 4.1992 8.4531 4.1992h234.26c3.3203 0 6.4492-1.5469 8.4531-4.1992 2.0039-2.6406 2.6523-6.0781 1.7617-9.2695l-7.1289-25.434h59.691v495.93h-359.82v-495.93h59.691l-7.1289 25.434c-0.89062 3.1914-0.23438 6.6289 1.7734 9.2695zm49.973-115.28h151.21l27.535 98.266h-206.29zm305.3 607.02c0 10.617-8.6328 19.262-19.262 19.262h-420.86c-10.617 0-19.262-8.6445-19.262-19.262l0.003906-556.95c0-10.617 8.6445-19.262 19.262-19.262h104.16l-8.0078 28.574h-76.246c-5.8555 0-10.605 4.75-10.605 10.605v517.14c0 5.8555 4.75 10.605 10.605 10.605h381.04c5.8555 0 10.605-4.75 10.605-10.605l-0.007812-517.15c0-5.8555-4.75-10.605-10.605-10.605h-76.246l-8.0078-28.574h104.17c10.617 0 19.262 8.6445 19.262 19.262z"/>
  <path d="m478.47 381.39h-256.93c-5.8555 0-10.605 4.75-10.605 10.605s4.75 10.605 10.605 10.605h256.93c5.8555 0 10.605-4.75 10.605-10.605s-4.7539-10.605-10.605-10.605z"/>
  <path d="m210.93 222.3c0 5.8555 4.75 10.605 10.605 10.605h256.93c5.8555 0 10.605-4.75 10.605-10.605 0-5.8555-4.75-10.605-10.605-10.605l-256.93-0.003907c-5.8555 0-10.605 4.7539-10.605 10.609z"/>
  <path d="m478.47 466.24h-133.72c-5.8555 0-10.605 4.75-10.605 10.605 0 5.8555 4.75 10.605 10.605 10.605h133.72c5.8555 0 10.605-4.75 10.605-10.605 0-5.8555-4.7539-10.605-10.605-10.605z"/>
  <path d="m478.47 296.55h-133.72c-5.8555 0-10.605 4.75-10.605 10.605 0 5.8555 4.75 10.605 10.605 10.605h133.72c5.8555 0 10.605-4.75 10.605-10.605 0-5.8555-4.7539-10.605-10.605-10.605z"/>
  <path d="m478.47 551.09h-256.93c-5.8555 0-10.605 4.75-10.605 10.605 0 5.8555 4.75 10.605 10.605 10.605h256.93c5.8555 0 10.605-4.75 10.605-10.605 0-5.8516-4.7539-10.605-10.605-10.605z"/>
  <path d="m239.86 342.05c2.0664 2.0664 4.7852 3.1094 7.5 3.1094 2.7148 0 5.4297-1.0391 7.5-3.1094l54.824-54.824c4.1484-4.1484 4.1484-10.852 0-14.996-4.1484-4.1484-10.852-4.1484-14.996 0l-47.324 47.324-18.316-18.316c-4.1484-4.1484-10.852-4.1484-14.996 0-4.1484 4.1484-4.1484 10.852 0 14.996z"/>
  <path d="m239.86 511.75c2.0664 2.0664 4.7852 3.1094 7.5 3.1094 2.7148 0 5.4297-1.0391 7.5-3.1094l54.824-54.824c4.1484-4.1484 4.1484-10.852 0-14.996-4.1484-4.1484-10.852-4.1484-14.996 0l-47.324 47.324-18.316-18.316c-4.1484-4.1484-10.852-4.1484-14.996 0-4.1484 4.1484-4.1484 10.852 0 14.996z"/>
 </g>
</svg>
