<?xml version="1.0" encoding="UTF-8"?>
<svg width="700pt" height="700pt" version="1.1" viewBox="0 0 700 700" xmlns="http://www.w3.org/2000/svg">
 <g>
  <path d="m362.53 302.48h197.53v156.93h-197.53z"/>
  <path d="m362.53 222.84h197.53v52.906h-197.53z"/>
  <path d="m140.05 407.4h197.53v52.012h-197.53z"/>
  <path d="m140.05 222.84h197.53v159.28h-197.53z"/>
  <path d="m689.5 516h-32.621v-348.6 0.003907c-0.015625-17.301-6.8984-33.887-19.133-46.121s-28.82-19.113-46.121-19.133h-483.25c-17.293 0.019531-33.875 6.8945-46.105 19.117-12.234 12.227-19.121 28.801-19.148 46.094v348.6h-32.621c-5.8008 0-10.5 4.6992-10.5 10.5v40.402c0.0078125 8.2305 3.2812 16.121 9.0977 21.941 5.8203 5.8164 13.711 9.0898 21.941 9.0977h637.92c8.2305-0.007813 16.121-3.2812 21.941-9.0977 5.8164-5.8203 9.0898-13.711 9.0977-21.941v-40.363c0-2.7812-1.1055-5.4531-3.0742-7.4219s-4.6406-3.0781-7.4258-3.0781zm-625.38-348.6v0.003907c0.003906-11.738 4.6641-23 12.961-31.305s19.551-12.977 31.293-12.992h483.25c11.734 0.015626 22.98 4.6836 31.277 12.977 8.2969 8.2969 12.961 19.547 12.977 31.277v348.6h-22.133v-339.68c-0.011719-8.2266-3.2852-16.117-9.1016-21.934-5.8203-5.8203-13.707-9.0938-21.938-9.1055h-465.41c-8.2305 0.011719-16.117 3.2852-21.938 9.1055-5.8164 5.8164-9.0898 13.707-9.1016 21.934v339.72h-22.133zm366 348.6h-0.003906c-5.7969 0-10.5 4.7031-10.5 10.5v6.2617c-0.007813 1.7578-1.4297 3.1836-3.1914 3.1914h-132.86c-1.7617-0.007813-3.1836-1.4336-3.1914-3.1914v-6.2617c0-2.7812-1.1055-5.4531-3.0781-7.4219-1.9688-1.9688-4.6367-3.0781-7.4219-3.0781h-162.62v-339.72c0.007813-5.5391 4.4961-10.031 10.039-10.039h465.41c5.543 0.007813 10.031 4.5 10.039 10.039v339.72zm248.88 50.863c-0.007812 5.543-4.4961 10.031-10.039 10.039h-637.92c-5.543-0.007813-10.031-4.4961-10.039-10.039v-29.863h238.76c1 5.5859 3.9336 10.645 8.2812 14.289 4.3516 3.6484 9.8398 5.6523 15.516 5.6641h132.86c5.6758-0.011719 11.168-2.0156 15.516-5.6641 4.3516-3.6445 7.2812-8.7031 8.2852-14.289h238.79z"/>
 </g>
</svg>
