<svg xmlns="http://www.w3.org/2000/svg" viewBox="0 0 692 673">
  <g fill="none">
    <path fill="#3B301B" d="M234.2 452.3a193 193 0 0 0 84.9 41.3c34.6 6.8 67.9.8 99.2-15.3a129.7 129.7 0 0 0 62.6-70c13-31.8 20.8-66.3 28.1-99.7 2.7-12.3-3.6-25.2-16.2-28.6-11.6-3.2-26 3.9-28.6 16.2a830.9 830.9 0 0 1-23.1 86.6c-7.6 22.8-19 40-40 52s-45.3 18.8-69.6 14c-23-4.5-46.2-14.2-64.3-29.3-9.7-8-23.4-9.4-32.9 0-8.2 8.3-9.7 24.9 0 32.9h-.1Z"/>
    <path fill="#3B301B" d="M283 435c-17.7-23.8-66.7-41-58-77.5a5.2 5.2 0 0 0-5-6.6h-27a5.2 5.2 0 0 0-5 6.6c4.9 20-10 36-24.5 47.6-12.6 10.2-25.7 19.3-36 32-16.6 20.4-30.3 52.5-15.5 77.6 6.4 11 17.4 18.8 27.2 26.5 5 3.8 10 8 14.5 12.3 5 5 8.7 11 14.3 15.3 12.3 9.3 31.3 13.9 46 17.6 16.4 4.2 33.4 6.4 50.2 4.6 13.7-1.5 26.8-4.1 32.9-17.7 6.6-14.8 7.7-34.3 8.5-50.3 1-30.5-3.8-63-22.5-88Z"/>
    <path fill="#CF4327" d="M345 265.6a293 293 0 0 0-18.6 6.1 207.7 207.7 0 0 0 33-137c-.5-4-5.6-7.2-9-3.6-4 4.5-8 9.2-11.6 14.1-3.8-40.1-28-75-52.4-106.5-2.4-3-7.7-1.1-8.6 2.3l-6.9 27.6A210.2 210.2 0 0 0 224 12C219.5 8.1 212.8.5 206.6.5c-6 0-11.8 6.8-16.2 10.4A197.6 197.6 0 0 0 142 68.7L135.2 41c-.8-3.4-6.1-5.3-8.6-2.2C102.1 70 78 105 74.2 145.2c-3.6-4.9-7.5-9.6-11.6-14.1-3.3-3.6-8.3-.5-8.9 3.6a207.7 207.7 0 0 0 33 137 313 313 0 0 0-18.7-6c-3.6-1-7.8 2.6-6.4 6.3 13.3 36.1 40.7 68.7 77.9 81.4 40.3 13.8 88.8 17.1 129.4 3a141.5 141.5 0 0 0 82.5-84.4c1.4-3.8-2.8-7.4-6.3-6.4Z"/>
    <path fill="#3B301B" d="M302.5 139c-12.2-24-37.8-36.6-62.7-43.4a118 118 0 0 0-89.7 11.5 93.7 93.7 0 0 0-45.6 84.5 64.1 64.1 0 0 0 20.8 44.5 77.6 77.6 0 0 0 44.2 22.7 210.6 210.6 0 0 0-2.6 31c0 10.3-.4 22 3.7 31.6 6.7 16 23.9 29.2 41.8 27 16.3-2.2 26.9-16.6 32-31.1 6.7-19.6 2.8-40.2-2-59.8 55.2-7 85.4-68.6 60-118.6Z"/>
    <path fill="#EAE2C2" d="M199 162c-9.5-17.6-31.6-19.9-47-8.6-15 11-24.4 33.3-12.2 49.5a36.7 36.7 0 0 0 49.7 6.6c.2 0 .3-.2.4-.3a39 39 0 0 0 9-47.3zm82.8 16c-2.4-20.2-20.7-38.7-42-31a38.8 38.8 0 0 0-22 48.3 37 37 0 0 0 38.4 21.9c19.4-2.7 27.7-21.2 25.6-39.2z"/>
    <path fill="#3B301B" d="M270.8 181.6c-2.3-10.5-12.9-19.6-23.8-16.8-10 1.2-17.3 9.9-17 19.9.5 12.3 11.5 20 23.2 18.9 11-1.2 20.1-10.5 17.6-22zm-104.6-19.7a20.4 20.4 0 0 0-17 16.2 17.7 17.7 0 0 0 8.1 18.5c11.9 7.7 30.5 3.5 31.7-12.4 1-12.9-9.3-25.8-22.8-22.3zm239.4 21c-9.7-12.3-24.8-13-39-9.6-28.5 7.9-47 30.4-54.5 58.5-3 11.4-4.5 25.8 4.6 35 7.9 7.8 20.1 8.3 30.5 7a78.2 78.2 0 0 0 62.3-48.9c5-13.7 5.6-30-3.9-42zm-358.7-9.6c-14.2-3.3-29.3-2.7-39 9.6-9 11.5-9 27-4.5 40.3a77.8 77.8 0 0 0 62.8 50.6c10.4 1.3 22.7.8 30.5-7 8.8-8.8 7.8-22.5 5-33.6-7-28.6-26-52-54.8-60z"/>
    <path fill="#CF4327" d="M356.2 213.4a62.7 62.7 0 0 1-5.4-21c-.4-6.1 1.4-11.9 2.2-18 .7-5.8 1-13.3-5.7-15.5-10.7-3.5-24.5 10.5-27 19.8-2.6 9.6-4.7 17.1-9.6 26-3.6 6.4-7.6 13.3-8.4 20.8-2.6 21.6 22.4 26 38.2 30.4 4 1.1 8.4-3.8 5.8-7.6-7-10.2-11-22.2-11.3-34.6 4.5 2.9 9.5 4.9 14.8 5.8 1.1.3 2.4.1 3.4-.4a4.1 4.1 0 0 0 3-5.7zm-252.6-7.6c-2.1-4-4.5-7.7-6.3-11.8-2.3-5-2.5-10-3.9-15.3-2.4-9.1-15.9-23-26.5-20-7 2-7 9.7-6.2 15.7.7 5.5 2.5 10.8 2.3 16.4a60.5 60.5 0 0 1-5.5 22.6 4.2 4.2 0 0 0 3 5.7c1 .5 2.3.7 3.4.4 5.3-1 10.3-3 14.8-5.8a63.2 63.2 0 0 1-11.3 34.6c-2.5 3.8 1.7 8.7 5.9 7.6 15.4-4.3 39.9-8.4 38.3-29.4-.6-7.4-4.5-14.4-8-20.7zM234 221c-2.4-6-8.7-9.3-15-8.1a17 17 0 0 0-10.7 6.9 17.2 17.2 0 0 0-10-6.7 13.5 13.5 0 0 0-16 7.9 17.3 17.3 0 0 0 4.2 18.2c5.6 5.7 14.2 4 21.7 4 6.6 0 15.7 1.7 21-3.3 5.2-5 7.5-12.4 4.8-19zm-16.8-68.2c11.7-8.4 23.6-16.6 35.6-24.5 5.5-3.6.4-12.6-5.2-9-12 8-24 16.1-35.6 24.6-5.4 3.8-.2 12.8 5.2 8.9zm-21.5 148c-1.5-8.7-2.6-25.2 6.5-30.4 3.1-1.5 6.6-2.1 10-1.7 6.3.8 7 4 7.5 9.4.5 7.5.6 15.1.2 22.7-.2 6.7 10 6.7 10.3 0 .4-10.4 2.6-26.8-3.2-36.3-4.8-8-17-7.1-24.9-5-18.5 5.1-19.1 28.5-16.4 44.1 1.1 6.5 11 3.8 10-2.7zm-15.1-164 13.3 10.8c2 1.9 5.3 1.9 7.3 0 1.8-1.8 2.2-5.6 0-7.3l-13.3-10.7c-2-2-5.3-2-7.3 0-1.8 1.8-2.2 5.5 0 7.3z"/>
    <path fill="#3B301B" d="M480.4 292.6c10.4-.4 15.4 22.1 22.6 22.1 4.7 0 11-9.7 18.4-49.7.3-4.5.6-9 .7-13.6.2-8.5-13-8.8-13.1-.3l-.3 6h-2.4l.7-7.1c.4-3.6-3.1-6.7-6.5-6.8a6.7 6.7 0 0 0-6.7 6.5c-.3 2.2-.5 4.5-.6 6.8h-1.8l.6-5.4c.5-3.5-3-6.7-6.4-6.7a6.7 6.7 0 0 0-6.7 6.4l-.8 6.3-2.3.5c0-1 .2-2 .4-3 .5-3.6-3.2-6.7-6.4-6.8-4-.1-6.3 3-6.8 6.4a89.6 89.6 0 0 0-1 16.4c.3 21.6 3.4 27.5 6.5 28.2 3.8.9 6.2-6 12-6.2zm-294.2 89c-6.5 14.3-19.1 21.3-32.8 29.2-16.3 9.4-31.2 19.5-40.9 36-18.6 31.6-15.3 73.6 2 105 14.3 26.2 54.5 2.8 40-23.5-10.5-19.3-12.2-48.4 2.6-64 8.5-8.9 22.6-14.5 33.6-21.7a92.3 92.3 0 0 0 35.7-37.6c5.2-11.4 3.2-25-8.4-31.8-10-5.8-26.5-3.1-31.8 8.3z"/>
    <path fill="#CF4327" d="M274.6 487.9a65.2 65.2 0 0 0-26 10.9 68 68 0 0 1 11.7-27.8c2.7-3.8-1.7-8.6-5.8-7.5-9 2.2-17.3 6.5-24.4 12.4-.2-6-1.2-12-3.2-17.8-2-5.8-6.3-20-14-20-7.3 0-11.5 12.9-13.5 18.4A61.6 61.6 0 0 0 196 476a61.3 61.3 0 0 0-24.5-12.5c-4-1-8.5 3.8-5.8 7.6a68 68 0 0 1 11.7 27.7 65.2 65.2 0 0 0-26-10.9 5.2 5.2 0 0 0-2.7 10c4.9 2 11.2 18 13 22.1 4.3 10 4.3 20 5.9 30.5 2.7 17.8 14.9 27.1 30.6 34.2 14 6.4 30.2 10.2 43.4.2 12.5-9.4 17-26.2 17.4-41.1a75.1 75.1 0 0 1 20.8-47.2 5.2 5.2 0 0 0-5-8.7Z"/>
    <path fill="#3B301B" d="M240.9 515c-5-.7-10-.5-15 .6a40.5 40.5 0 0 0-8-20.6 6.4 6.4 0 0 0-9.7 0 40.4 40.4 0 0 0-8.2 21.5c-4-1.4-8.3-2-12.6-1.7-3.6.1-6.9 4.4-4.5 7.7 5.3 7.5 5.6 17.8 11.6 24.7 4.8 5.5 12.2 7.2 19.2 7.6 7 .3 13-1.3 17.6-6.5 6.4-7.2 5.4-17.6 11.9-24.7 2.3-2.5 1.8-8-2.3-8.6Z"/>
    <path fill="#3B301B" d="M466.8 610.4c.6-2.8-1-5.5-3.7-6.3-2.2-.5-4.4-.6-6.5-.3l-.6-1.9.4-.2c.4-.3.9-.5 1.4-.6l2.7-.5c2.8-.4 4.3-3.9 3.6-6.3a5.3 5.3 0 0 0-6.3-3.6c-2.6.4-5.1 1.2-7.4 2.5l-1-.9c1.6-1.4 3.4-2.6 5.3-3.4a5.2 5.2 0 0 0 2-7.1 5.3 5.3 0 0 0-7-2 25.4 25.4 0 0 0-9 6.8c-1.5-.5-3-.9-4.5-1.1a46.9 46.9 0 0 1 29-29.3c6.3-2 3.6-12-2.8-10a59.3 59.3 0 0 0-37.4 40.2c-6.8-5.2-14.3-7.8-22.1-2.4-8.2 5.7-9.6 15.7-10.3 24.9-43.8 23.2-99 17.6-143.6-3.1-27.6-12.9-50.4-25.6-70.2-46-9.2-9-17-19.5-23.4-30.8a70 70 0 0 1-9.5-30c-1-29.9-47.5-29.5-46.5.5 1.6 50.8 42.1 97.3 83.2 123.2 54 34.5 116.3 56 180.5 44.7a172.7 172.7 0 0 0 86.8-43c3-2.6 5.3-6 6.6-10 .5 0 1-.2 1.6-.4h1.7l.7.2c2.8.7 5.6-1 6.3-3.8Zm-51-17.7a118 118 0 0 1-12 9.4c1.6-6.8 5.1-13 12-9.4Zm42.3 21.3c-.4.1-.6 0 0 0Z"/>
    <path fill="#E5A024" d="M224.4 53c10 0 10-15.5 0-15.5s-10 15.5 0 15.5zM237 80.5c10 0 10-15.5 0-15.5s-10 15.5 0 15.5zm-42.3-40.2c10 0 10-15.4 0-15.4s-10 15.4 0 15.4zM141 104.8c10 0 10-15.5 0-15.5s-10 15.5 0 15.5zm-26.3-15.9c10 0 10-15.5 0-15.5s-10 15.5 0 15.5zM89.2 192.5c10 0 10-15.5 0-15.5s-10 15.5 0 15.5zm32.7 77c10 0 10-15.4 0-15.4s-10 15.5 0 15.5zm-27.4 30.7c10 0 10-15.5 0-15.5s-10 15.5 0 15.5zm50.4-15.2c10 0 10-15.5 0-15.5s-10 15.5 0 15.5zm-4 25.6c10 0 10-15.5 0-15.5s-10 15.5 0 15.5zm121.5 1.2c10 0 10-15.5 0-15.5s-10 15.5 0 15.5zm-9.5 37c10 0 10-15.5 0-15.5s-10 15.5 0 15.5zm33.8-14.8c10 0 10-15.5 0-15.5s-10 15.5 0 15.5zm-3.2-57c10 0 10-15.5 0-15.5s-10 15.5 0 15.5zm30.6 22.2c10 0 10-15.5 0-15.5s-10 15.5 0 15.5zm-1-61.3c10 0 10-15.5 0-15.5s-10 15.5 0 15.5zm18-40.2c10 0 10-15.5 0-15.5s-10 15.5 0 15.5zm-12.7-44.3c10 0 10-15.5 0-15.5s-10 15.5 0 15.5zM307.8 111c10 0 10-15.5 0-15.5s-10 15.5 0 15.5zm-39-11.6c9.9 0 10-15.5 0-15.5s-10 15.5 0 15.5zm17.9-24.3c10 0 10-15.5 0-15.5s-10 15.5 0 15.5zM71.2 177.6c10 0 10-15.5 0-15.5s-10 15.5 0 15.5zM210.6 75.2c10 0 10-15.5 0-15.5s-10 15.5 0 15.5z"/>
    <path fill="#574730" d="M172.6 405.4C153.5 420.7 132 431.6 120 454a90.8 90.8 0 0 0-8.7 62.2c2 9.8 17 5.7 15-4-4-19.3-.3-39.3 10.3-55.7 11.4-17.7 31-27.2 47-40 7.7-6.2-3.3-17.1-11-11zM233 624.8c48.9 19 102.9 33.9 153 10.3 9-4.3 1.1-17.7-7.8-13.4-45.9 21.6-97 5.3-141.4-12-9.3-3.5-13 11.5-3.8 15zm119.5-152.5c7.6-.4 15.1-1.6 22.5-3.5 9.6-2.7 5.5-17.6-4.2-15-6 1.7-12 2.7-18.3 3-9.9.6-10 16 0 15.5zM120.3 149.4a62.9 62.9 0 0 0-2 67.5c5 8.5 18.4.8 13.3-7.9a47.5 47.5 0 0 1 2-51.7c5.7-8.3-7.8-16-13.3-7.9zm250.9 49 2.6-1.7c.3-.2 2.2-1.1 1.8-1l2-.6 3-.8c4-1.2 6.4-5.4 5.3-9.5a8 8 0 0 0-9.5-5.3c-4.8 1-9.2 2.8-13.2 5.6-3.3 2.2-5.2 6.9-2.8 10.6 2.1 3.4 7 5.3 10.7 2.8v-.1zM29.4 182c-11.2 1.8-18 12-19.6 22.7-1.8 12.8 3.6 24.4 10.8 34.5 5.8 8 19.2.3 13.4-7.8-5.4-7.5-17.8-31.8-.6-34.5 9.9-1.5 5.7-16.4-4-14.9z"/>
    <path fill="#DB6653" d="M179.2 71.4a123.6 123.6 0 0 1 33.3-40.2c5-3.8 7.6-9.9 4.2-15.9-2.8-4.9-11-8-15.9-4.1a150.2 150.2 0 0 0-41.7 48.5c-7 13.2 13 25 20 11.7h.1zm-70 54.4a123.7 123.7 0 0 1 20.3-45c8.7-12.2-11.4-23.8-20-11.7a141.1 141.1 0 0 0-22.7 50.5c-3.3 14.6 19 20.8 22.4 6.2zM278 65l2 21.7a8 8 0 0 0 7.7 7.8c3.9 0 8.1-3.6 7.7-7.8L293.5 65a8 8 0 0 0-7.8-7.8c-3.9 0-8 3.6-7.7 7.8zM83.6 298.9c12.6 22 32 39.3 55.2 49.4 13.6 5.8 25.5-14.3 11.8-20a96.9 96.9 0 0 1-47-41.1c-7.5-13-27.6-1.3-20 11.7zM207 450.4c-2 4.4-3.1 9.1-3.3 14-.1 5 7.6 5 7.8 0 0-3.5.9-7 2.3-10a4 4 0 0 0-1.4-5.4c-1.9-1.1-4.3-.5-5.3 1.4zm30.6 36.3c1.6-3.7 4.6-6.5 8.3-8a4 4 0 0 0 2.7-4.8c-.6-2.1-2.8-3.3-4.8-2.7-5.6 2-10.2 6.2-13 11.5a4 4 0 0 0 1.5 5.4c1.8 1 4.2.4 5.3-1.4zm-64.5-9.1a17 17 0 0 1 4 8.9c.5 2 2.7 3.3 4.7 2.7a4 4 0 0 0 2.7-4.8c-.7-4.6-2.8-8.8-5.9-12.3-3.3-3.7-8.7 1.8-5.5 5.5zm-16.9 25.3a26 26 0 0 1 6.5 9.1c1 1.9 3.5 2.5 5.3 1.4a4 4 0 0 0 1.4-5.3c-1.8-4.1-4.4-7.8-7.7-10.7-3.6-3.4-9.1 2-5.4 5.5z"/>
    <path fill="#3B301B" d="M502.6 308.4a5.3 5.3 0 0 1 0-10.7c2.5 0 11-.6 17.6-7.4 7.8-8 7-18.3 6.8-20.2a5.3 5.3 0 0 1 10.6-1.3c.3 2.8 1.4 17.5-9.7 29a35.8 35.8 0 0 1-25.2 10.6Z"/>
    <g>
      <path fill="#EAE2C2" d="M681.7 235.2a33 33 0 0 0-61.5-8.5c-14 26.6 13.6 57 41.4 46 15-6 23-21.9 20.1-37.5Z"/>
      <path fill="#3B301B" d="M661.1 287.2c.5-.7.6-1.5.4-2.2l-18.4-87.1a3 3 0 0 0-3.6-2.4l-45.1 9.5a3 3 0 0 0-2.3 3.6l2.3 11L454.6 249l-21.6 4.6a3 3 0 0 0-2.3 3.5l2 9.3-40 8.4a3 3 0 0 0-2.3 3.6l1.4 6.5-15.8 3.4a3 3 0 0 0-2.4 3.5l3.4 16a3 3 0 0 0 3.6 2.3l15.9-3.4 1.4 6.6a3 3 0 0 0 3.5 2.3l40-8.4 2 9.3a3 3 0 0 0 3.5 2.3L600 286.5l8-1.7 2.4 11a3 3 0 0 0 3.6 2.3l45.1-9.5c.8-.2 1.5-.6 1.9-1.3Z"/>
      <path fill="#E5A024" d="m443.3 302.1-6.6-31.2c-.8-3.7-6.7-2.5-5.8 1.3l6.5 31.1c.8 3.8 6.7 2.6 6-1.2zm-45.9-.7-2.5-12c-.8-3.7-6.7-2.5-5.9 1.3l2.5 12c.8 3.7 6.7 2.5 6-1.3zm211.4-23L597.3 224c-.8-3.8-6.7-2.6-5.9 1.2l11.6 54.4c.8 3.7 6.6 2.5 5.8-1.3zm44.8 1.9L637.4 204c-.8-3.7-6.6-2.5-5.8 1.3l16 76.2c.9 3.8 6.8 2.6 6-1.2z"/>
      <path fill="#574730" d="M464 267.7c37.5-7.3 74.8-15.3 111.9-24.2 6.7-1.6 3.3-11.8-3.4-10.2a2617 2617 0 0 1-111.9 24.1c-6.8 1.3-3.3 11.6 3.4 10.3zm145.5-48.2 6-.5a5.4 5.4 0 1 0-.6-10.8l-6 .5a5.4 5.4 0 1 0 .6 10.8z"/>
    </g>
  </g>
</svg>