<svg xmlns="http://www.w3.org/2000/svg" viewBox="0 0 700 700">
  <path d="M560.4 46.4h-110l-6.5-23a10.6 10.6 0 0 0-10.3-7.8H266.3c-4.7 0-8.9 3.2-10.2 7.8l-6.4 23H139.6A40.5 40.5 0 0 0 99 87v557a40.5 40.5 0 0 0 40.5 40.4h420.8A40.5 40.5 0 0 0 601 644V87a40.5 40.5 0 0 0-40.5-40.5zm-336 105.7c2 2.7 5.2 4.2 8.5 4.2H467a10.6 10.6 0 0 0 10.2-13.4l-7-25.5h59.6v496H170.1v-496h59.7l-7.1 25.5c-1 3.2-.3 6.6 1.7 9.2zm50-115.2h151.2l27.5 98.2H246.8zm305.3 607c0 10.6-8.6 19.2-19.3 19.2H139.6a19.3 19.3 0 0 1-19.3-19.2v-557c0-10.6 8.7-19.2 19.3-19.2h104.1l-8 28.5h-76.2c-5.9 0-10.6 4.8-10.6 10.6V624c0 5.8 4.7 10.6 10.6 10.6h381c5.9 0 10.6-4.8 10.6-10.6V106.8c0-5.8-4.7-10.6-10.6-10.6h-76.2l-8-28.5h104.1c10.6 0 19.3 8.6 19.3 19.2z"/>
  <path d="M478.5 381.4h-257a10.6 10.6 0 0 0 0 21.2h257a10.6 10.6 0 0 0 0-21.2zM211 222.3c0 5.9 4.7 10.6 10.5 10.6h257a10.6 10.6 0 0 0 0-21.2h-257c-5.8 0-10.6 4.7-10.6 10.6zm267.5 243.9H344.8a10.6 10.6 0 0 0 0 21.3h133.7a10.6 10.6 0 0 0 0-21.3zm0-169.6H344.8a10.6 10.6 0 0 0 0 21.2h133.7a10.6 10.6 0 0 0 0-21.3zm0 254.4h-257a10.6 10.6 0 0 0 0 21.3h257a10.6 10.6 0 0 0 0-21.2zM239.9 342a10.6 10.6 0 0 0 15 0l54.8-54.8a10.6 10.6 0 1 0-15-15l-47.3 47.4-18.4-18.4a10.6 10.6 0 1 0-15 15zm0 169.8a10.6 10.6 0 0 0 15 0l54.8-54.9a10.6 10.6 0 1 0-15-15l-47.3 47.4-18.4-18.4a10.6 10.6 0 1 0-15 15z"/>
</svg>