<svg xmlns="http://www.w3.org/2000/svg" viewBox="0 0 700 700">
  <path d="M651.6 411.2a60 60 0 0 1 5.7-63.6l-.7-.5 4.2-3.1a10.2 10.2 0 0 0-9.2-17.8 60 60 0 0 1 5.7-63.7l-.7-.5 4.2-3a10.2 10.2 0 0 0-9.2-17.9 60 60 0 0 1 5.6-63.7l-.6-.5 4.2-3a10.2 10.2 0 0 0-2.2-17.7L385.6 47a33.7 33.7 0 0 0-29.4 3.7L53.5 270.8a10 10 0 0 0-2.2 2.2 80.3 80.3 0 0 0-4.1 91.1 80.1 80.1 0 0 0 0 85 80.1 80.1 0 0 0 4.1 91.2l1.7 2.3L328.6 653a32.2 32.2 0 0 0 29.5-3.7l151.3-110L660.9 429a10.2 10.2 0 0 0-9.2-17.8zM368 67.2a12.6 12.6 0 0 1 10-1.3l256 102.4-288 209.3a12.6 12.6 0 0 1-10 1.2L80.4 276.5zm129.4 455.5-151.3 110a13 13 0 0 1-10 1.3L66 526a60 60 0 0 1-2.6-64.3l265.2 106.1a32 32 0 0 0 29.5-3.7l151.3-110 116.7-84.9a81.3 81.3 0 0 0 8.7 53.6zm0-85-151.3 110a13 13 0 0 1-10 1.2L66 441a60 60 0 0 1-2.6-64.2l265.2 106a32.2 32.2 0 0 0 29.5-3.7l268-194.8a81.2 81.2 0 0 0 8.7 53.6zm0-85.1L346 462.6a13 13 0 0 1-10 1.3L66 355.8a60 60 0 0 1-2.5-64.2l265.2 106.1a32.3 32.3 0 0 0 29.5-3.7l268-194.9a81.2 81.2 0 0 0 8.7 53.6z"/>
  <path d="M472 242.5c2.2 0 4.3-.7 6-2l60.9-44.2a10.2 10.2 0 0 0-2.2-17.7l-166-66.3a10 10 0 0 0-9.7 1.2l-61 44.2a10.2 10.2 0 0 0 2.2 17.7l166 66.4c1.2.4 2.5.7 3.8.7zM368.5 133.2 512 190.7l-41.5 30.1L327 163.3z"/>
</svg>