<?xml version="1.0" encoding="UTF-8"?>
<svg xmlns="http://www.w3.org/2000/svg" viewBox="0 0 700 700">
  <path d="M456.4 552.3h-23.8v-24.5H267.4v24.5h-23.8a28.1 28.1 0 0 0-28.7 27.3c0 15.4 12.6 27.3 28.7 27.3h212.8a28.1 28.1 0 0 0 28.7-27.3c0-15.4-12.6-27.3-28.7-27.3zM608.3 93.1H91.7a43.8 43.8 0 0 0-43.4 44.1v329.7A43.8 43.8 0 0 0 91.7 511h515.9a43.8 43.8 0 0 0 43.4-44V137.2a42.7 42.7 0 0 0-42.7-44zM350 490c-9.8 0-18.2-8.4-18.2-18.2s8.4-18.2 18.2-18.2 18.2 8.4 18.2 18.2A18 18 0 0 1 350 490zm261.8-56H88.2V137.2c0-2.8 2.1-4.9 4.2-4.9h515.9c2.1 0 4.2 2.1 4.2 4.9z"/>
  <path d="M373.8 185.5c-.7-4.9-4.2-9.1-9.8-9.1H121.8a9.3 9.3 0 0 0-9.1 9.1v195.3c0 4.9 4.2 9.1 9.1 9.1H364c4.9 0 9.1-4.2 9.1-9.1zm-124.6 13.3a8 8 0 0 1 4.9-5.6c1.4-.7 2.8-.7 4.2-.7 4.2 0 7.7 2.1 9.8 5.6 2.8 4.9 0 11.2-4.9 14-2.1 1.4-4.9 1.4-7.7.7s-4.9-2.8-6.3-5.6a17 17 0 0 1 0-8.4zm40.6 0c.7-2.8 2.8-4.2 4.9-5.6 1.4-.7 2.8-.7 4.2-.7 4.2 0 7.7 2.1 9.8 5.6 2.8 4.9 0 11.2-4.9 14-4.9 2.8-11.2 0-14-4.9a9 9 0 0 1 0-8.4zm44.8-5.6a10 10 0 0 1 4.2-1.4c4.2 0 7.7 2.1 9.8 5.6 2.8 4.9 0 11.2-4.9 14-4.9 2.8-11.2 0-14-4.9-2.1-4.9 0-11.2 4.9-13.3zm20.3 38.5v140h-224v-140z"/>
  <path d="M152.6 256.2h91.7v14h-91.7zm0 38.5h180.6v14H152.6zm1.4 38.5h180.6v14H154zm247.8-77a66.2 66.2 0 0 0 100.8 56.7l3.5 3.5c.7 3.5 2.1 6.3 3.5 8.4l48.3 48.3a13 13 0 0 0 9.8 3.5c3.5 0 7.7-.7 9.8-4.2 2.1-2.1 3.5-5.6 3.5-9.8 2.1-5.6-2.1-9.8-3.5-11.2l-49-49c-1.4-2.1-4.9-3.5-8.4-3.5l-2.1-2.8a63 63 0 0 0 13.3-40.6 65 65 0 0 0-65.1-65.1 65 65 0 0 0-64.4 65.8zm65.1-40.6a40.6 40.6 0 1 1 0 81.3 40.6 40.6 0 0 1 0-81.3z"/>
</svg>