<svg xmlns="http://www.w3.org/2000/svg" viewBox="0 0 700 700">
  <path d="M362.5 302.5h197.6v157H362.5zm0-79.7h197.6v53H362.5zM140 407.4h197.6v52H140zm0-184.6h197.6v159.3H140z"/>
  <path d="M689.5 516h-32.6V167.4a65.3 65.3 0 0 0-65.3-65.3H108.4A65.3 65.3 0 0 0 43 167.4V516H10.5C4.7 516 0 520.7 0 526.5v40.4a31 31 0 0 0 31 31h638a31 31 0 0 0 31-31v-40.4a10.5 10.5 0 0 0-10.5-10.5zM64.1 167.4a44.3 44.3 0 0 1 44.3-44.3h483.2a44.3 44.3 0 0 1 44.3 44.3V516h-22.2V176.3a31 31 0 0 0-31-31H117.3a31 31 0 0 0-31 31V516H64zm366 348.6c-5.8 0-10.5 4.7-10.5 10.5v6.3c0 1.7-1.4 3.1-3.2 3.2H283.6a3.2 3.2 0 0 1-3.2-3.2v-6.3a10.5 10.5 0 0 0-10.5-10.5H107.3V176.3a10 10 0 0 1 10-10h465.4a10 10 0 0 1 10 10V516zM679 566.9a10 10 0 0 1-10 10H31a10 10 0 0 1-10-10V537h238.8a24.2 24.2 0 0 0 23.8 20h132.8a24.2 24.2 0 0 0 23.8-20H679z"/>
</svg>