<?xml version="1.0" encoding="UTF-8"?>
<svg xmlns="http://www.w3.org/2000/svg" viewBox="0 0 1200 1200">
  <path d="M318.8 862.5a18.8 18.8 0 0 1-18.8-18.8V712.5H173.8A98.9 98.9 0 0 1 75 613.7v-290a98.9 98.9 0 0 1 98.8-98.7h402.4a98.9 98.9 0 0 1 98.8 98.8v290a98.9 98.9 0 0 1-98.8 98.7H447.8l-114.4 143a19 19 0 0 1-14.6 7zm-145-600a61.3 61.3 0 0 0-61.3 61.3v290a61.3 61.3 0 0 0 61.3 61.2h145a18.8 18.8 0 0 1 18.7 18.8v96.5L424.1 682c3.6-4.4 9-7 14.7-7h137.4a61.3 61.3 0 0 0 61.3-61.3v-290a61.3 61.3 0 0 0-61.3-61.2z"/>
  <path d="M918.8 1050a19 19 0 0 1-14.7-7L789.7 900h-166a98.9 98.9 0 0 1-98.7-98.8v-32.5a18.8 18.8 0 0 1 37.5 0v32.5a61.3 61.3 0 0 0 61.3 61.3h175a19 19 0 0 1 14.6 7L900 977.8v-96.6a18.8 18.8 0 0 1 18.7-18.7h107.5a61.3 61.3 0 0 0 61.3-61.3v-290a61.4 61.4 0 0 0-61.3-61.2l-88.7.1-206.3-.1a18.8 18.8 0 0 1 0-37.5l206.3.1 88.7-.1a99 99 0 0 1 98.8 98.8v290a98.9 98.9 0 0 1-98.8 98.7h-88.7v131.2a18.8 18.8 0 0 1-18.8 18.8zM375 543.8a18.8 18.8 0 0 1-18.8-18.8 65.4 65.4 0 0 1 40.4-60.5 56.3 56.3 0 1 0-77.8-52 18.8 18.8 0 0 1-37.5 0A93.8 93.8 0 1 1 411 499.1a28 28 0 0 0-17.2 25.9 18.8 18.8 0 0 1-18.8 18.8zm18.8 56.2a18.8 18.8 0 1 1-37.6 0 18.8 18.8 0 0 1 37.6 0"/>
  <path d="M1031.2 562.5h-300a18.8 18.8 0 0 1 0-37.5h300a18.8 18.8 0 0 1 0 37.5zm0 75h-300a18.8 18.8 0 0 1 0-37.5h300a18.8 18.8 0 0 1 0 37.5zm0 75h-300a18.8 18.8 0 0 1 0-37.5h300a18.8 18.8 0 0 1 0 37.5zm-206.2 75h-93.8a18.8 18.8 0 0 1 0-37.5H825a18.8 18.8 0 0 1 0 37.5zm46.9-515.6c-5 0-9.8-2-13.3-5.5l-46.9-46.9a18.8 18.8 0 0 1 0-26.5l47-46.9a18.8 18.8 0 0 1 26.4 0l47 46.9a18.8 18.8 0 0 1 0 26.5l-47 46.9a18.7 18.7 0 0 1-13.2 5.5zm-20.4-65.6 20.4 20.3 20.3-20.3-20.3-20.4zm161 112.5a18.8 18.8 0 1 1-37.5 0 18.8 18.8 0 0 1 37.5 0M750 93.8a18.8 18.8 0 1 1-37.5 0 18.8 18.8 0 0 1 37.5 0M262.5 1106.2a56.2 56.2 0 1 1 0-112.5 56.2 56.2 0 0 1 0 112.5zm0-75a18.8 18.8 0 1 0 0 37.5 18.8 18.8 0 0 0 0-37.5zM525 956.3a18.8 18.8 0 1 1-37.5 0 18.8 18.8 0 0 1 37.5 0m-375-75a18.8 18.8 0 1 1-37.5 0 18.8 18.8 0 0 1 37.5 0"/>
</svg>