<svg xmlns="http://www.w3.org/2000/svg" viewBox="0 0 100 100"><path fill="#ead6c7" d="M59,87V76h6c5.523,0,10-4.477,10-10v-8l6.63-2.947c1.262-0.561,1.751-2.097,1.046-3.284 l-6.507-10.952c-0.239-0.433-0.387-0.908-0.455-1.398C73.726,25.059,61.407,14,46.5,14l0,0C30.208,14,17,27.208,17,43.5 c0,1.531,0.123,3.032,0.348,4.5h0.019c0.652,4.266,2.2,8.235,4.475,11.691C25.139,64.696,27,70.506,27,76.499V87H59z"/><path fill="#1f212b" d="M59,88c-0.552,0-1-0.447-1-1V76c0-0.553,0.448-1,1-1h6c4.962,0,9-4.037,9-9v-8 c0-0.396,0.233-0.753,0.594-0.914l6.63-2.947c0.346-0.153,0.599-0.437,0.714-0.797c0.115-0.359,0.072-0.736-0.122-1.062 l-6.507-10.952c-0.307-0.556-0.498-1.143-0.585-1.772C72.786,25.557,60.652,15,46.5,15C30.785,15,18,27.785,18,43.5 c0,1.367,0.104,2.77,0.31,4.169c0.021,0.058,0.036,0.118,0.045,0.18c0.625,4.087,2.08,7.887,4.322,11.293 C26.16,64.428,28,70.43,28,76.499V87c0,0.553-0.448,1-1,1s-1-0.447-1-1V76.499c0-5.678-1.727-11.299-4.993-16.258 c-2.369-3.597-3.916-7.602-4.6-11.905c-0.022-0.059-0.038-0.121-0.047-0.185C16.121,46.592,16,45.026,16,43.5 C16,26.683,29.682,13,46.5,13c15.145,0,28.13,11.299,30.205,26.282c0.053,0.386,0.167,0.74,0.34,1.053l6.491,10.924 c0.481,0.811,0.594,1.791,0.308,2.69c-0.286,0.898-0.945,1.634-1.807,2.018L76,58.649V66c0,6.065-4.935,11-11,11h-5v10 C60,87.553,59.552,88,59,88z"/><path fill="#1f212b" d="M59.5,76h-9c-0.276,0-0.5-0.224-0.5-0.5s0.224-0.5,0.5-0.5h9c0.276,0,0.5,0.224,0.5,0.5 S59.776,76,59.5,76z M48.5,76h-2c-0.276,0-0.5-0.224-0.5-0.5s0.224-0.5,0.5-0.5h2c0.276,0,0.5,0.224,0.5,0.5S48.776,76,48.5,76z"/><path fill="#f27c7c" d="M44.265,52.496c-0.03-0.148-0.045-0.297-0.045-0.446c0-0.148,0-0.297,0-0.446 c0-1.161,0.158-2.196,0.474-3.104s0.707-1.734,1.174-2.478c0.466-0.744,0.978-1.444,1.536-2.099 c0.557-0.654,1.069-1.317,1.536-1.988c0.466-0.67,0.858-1.384,1.174-2.143c0.316-0.76,0.474-1.615,0.474-2.568 c0-1.369-0.422-2.515-1.265-3.438c-0.844-0.923-2.093-1.384-3.749-1.384c-1.024,0-1.874,0.075-2.552,0.223 c-0.678,0.149-1.242,0.336-1.694,0.559c-0.451,0.223-0.813,0.484-1.084,0.782c-0.271,0.298-0.513,0.596-0.723,0.893 c0.723,0.03,1.333,0.306,1.829,0.826c0.498,0.521,0.745,1.183,0.745,1.988c0,0.893-0.264,1.668-0.791,2.322 c-0.527,0.655-1.393,0.983-2.598,0.983c-0.964,0-1.739-0.336-2.327-1.005c-0.587-0.67-0.881-1.511-0.881-2.523 c0-0.833,0.172-1.712,0.518-2.635c0.345-0.922,0.947-1.778,1.804-2.568c0.857-0.789,1.991-1.444,3.403-1.965 c1.412-0.521,3.201-0.782,5.366-0.782c1.503,0,2.915,0.112,4.237,0.336c1.324,0.223,2.48,0.625,3.471,1.206 c0.992,0.581,1.773,1.355,2.344,2.322c0.571,0.968,0.857,2.182,0.857,3.64c0,1.34-0.24,2.478-0.718,3.416 c-0.478,0.938-1.085,1.771-1.817,2.501c-0.733,0.73-1.526,1.4-2.379,2.009c-0.853,0.61-1.67,1.266-2.452,1.965 c-0.781,0.7-1.45,1.497-2.007,2.389c-0.557,0.893-0.896,1.965-1.016,3.215h-2.845V52.496z M48.5,59.5 c0,0.835-0.291,1.544-0.873,2.127C47.044,62.21,46.336,62.5,45.5,62.5c-0.81,0-1.513-0.291-2.108-0.873 C42.797,61.044,42.5,60.336,42.5,59.5c0-0.81,0.297-1.512,0.892-2.108C43.987,56.798,44.69,56.5,45.5,56.5 c0.836,0,1.544,0.298,2.127,0.892C48.209,57.988,48.5,58.691,48.5,59.5z"/><path fill="#1f212b" d="M45.5,63c-0.941,0-1.769-0.342-2.457-1.016C42.351,61.309,42,60.473,42,59.5 c0-0.944,0.35-1.772,1.039-2.461C43.729,56.35,44.557,56,45.5,56c0.972,0,1.807,0.351,2.484,1.043 C48.658,57.731,49,58.559,49,59.5c0,0.97-0.343,1.804-1.02,2.48S46.47,63,45.5,63z M45.5,57c-0.678,0-1.252,0.244-1.754,0.746 C43.244,58.247,43,58.821,43,59.5c0,0.703,0.243,1.281,0.742,1.77C44.244,61.761,44.819,62,45.5,62 c0.704,0,1.284-0.237,1.773-0.727S48,60.204,48,59.5c0-0.681-0.239-1.256-0.73-1.758C46.781,57.243,46.202,57,45.5,57z M47.11,53 h-2.846c-0.253,0-0.462-0.188-0.495-0.431c-0.033-0.173-0.05-0.346-0.05-0.52v-0.446c0-1.212,0.169-2.312,0.503-3.268 c0.327-0.939,0.738-1.808,1.222-2.58c0.478-0.762,1.009-1.487,1.579-2.157c0.542-0.636,1.049-1.291,1.507-1.949 c0.444-0.639,0.822-1.328,1.123-2.05c0.29-0.695,0.437-1.494,0.437-2.376c0-1.25-0.371-2.264-1.135-3.101 c-0.751-0.822-1.856-1.222-3.38-1.222c-0.979,0-1.803,0.071-2.444,0.212c-0.636,0.14-1.168,0.314-1.58,0.519 c-0.395,0.194-0.709,0.42-0.936,0.669c-0.064,0.071-0.128,0.143-0.188,0.214c0.482,0.158,0.913,0.434,1.286,0.825 c0.586,0.612,0.884,1.397,0.884,2.332c0,1.006-0.304,1.893-0.901,2.636c-0.624,0.776-1.629,1.17-2.987,1.17 c-1.108,0-2.018-0.396-2.703-1.175C35.338,39.54,35,38.58,35,37.449c0-0.892,0.185-1.837,0.55-2.811 c0.371-0.991,1.021-1.92,1.933-2.76c0.903-0.831,2.104-1.525,3.57-2.066C42.515,29.273,44.378,29,46.591,29 c1.527,0,2.981,0.115,4.321,0.343c1.374,0.231,2.599,0.657,3.64,1.267c1.06,0.621,1.908,1.462,2.521,2.5 C57.688,34.151,58,35.461,58,37.004c0,1.413-0.26,2.639-0.772,3.645c-0.5,0.979-1.143,1.863-1.91,2.628 c-0.753,0.749-1.573,1.442-2.44,2.062c-0.826,0.591-1.638,1.24-2.41,1.93c-0.742,0.666-1.388,1.434-1.916,2.281 c-0.514,0.822-0.831,1.831-0.942,2.998C47.583,52.805,47.368,53,47.11,53z M44.72,52h1.946c0.161-1.135,0.51-2.136,1.037-2.979 c0.578-0.927,1.283-1.768,2.097-2.497c0.801-0.715,1.64-1.387,2.495-1.998c0.823-0.589,1.603-1.247,2.317-1.958 c0.692-0.689,1.272-1.488,1.725-2.374C56.777,39.331,57,38.258,57,37.004c0-1.361-0.265-2.501-0.788-3.387 c-0.525-0.889-1.254-1.611-2.166-2.145C53.11,30.925,52,30.54,50.745,30.329C49.46,30.11,48.062,30,46.591,30 c-2.095,0-3.842,0.253-5.192,0.75c-1.343,0.496-2.433,1.123-3.239,1.864c-0.794,0.732-1.357,1.532-1.674,2.376 C36.163,35.851,36,36.678,36,37.449c0,0.895,0.248,1.611,0.757,2.194c0.493,0.561,1.132,0.834,1.951,0.834 c1.04,0,1.783-0.268,2.208-0.797c0.458-0.569,0.681-1.227,0.681-2.009c0-0.678-0.198-1.215-0.607-1.642 c-0.408-0.429-0.895-0.648-1.488-0.672c-0.183-0.008-0.348-0.115-0.429-0.279c-0.08-0.165-0.064-0.36,0.042-0.511 c0.221-0.311,0.477-0.627,0.761-0.939c0.312-0.343,0.727-0.644,1.232-0.894c0.492-0.243,1.083-0.439,1.809-0.599 c0.713-0.156,1.607-0.235,2.659-0.235c1.795,0,3.181,0.521,4.118,1.548c0.927,1.015,1.396,2.284,1.396,3.774 c0,1.015-0.173,1.943-0.513,2.761c-0.329,0.787-0.741,1.54-1.227,2.236c-0.477,0.685-1.003,1.366-1.565,2.026 c-0.539,0.633-1.041,1.319-1.493,2.04c-0.444,0.709-0.823,1.509-1.126,2.377c-0.296,0.852-0.446,1.84-0.446,2.939V52z"/></svg>