<svg xmlns="http://www.w3.org/2000/svg" viewBox="0 0 100 100"><circle cx="50" cy="50" r="35" fill="#f9e65c"/><path fill="#1f212b" d="M40.966,38.666C40.985,38.775,41,38.885,41,39c0,1.105-0.895,2-2,2s-2-0.895-2-2	c0-0.901,0.6-1.654,1.419-1.904C38.122,37.034,37.815,37,37.5,37c-2.481,0-4.5,2.019-4.5,4.5s2.019,4.5,4.5,4.5s4.5-2.019,4.5-4.5	C42,40.42,41.602,39.442,40.966,38.666z"/><path fill="#1f212b" d="M65.966,38.666C65.985,38.775,66,38.885,66,39c0,1.105-0.895,2-2,2s-2-0.895-2-2	c0-0.901,0.6-1.654,1.419-1.904C63.122,37.034,62.815,37,62.5,37c-2.481,0-4.5,2.019-4.5,4.5s2.019,4.5,4.5,4.5s4.5-2.019,4.5-4.5	C67,40.42,66.602,39.442,65.966,38.666z"/><path fill="#1f212b" d="M50,86c-19.851,0-36-16.149-36-36s16.149-36,36-36s36,16.149,36,36S69.851,86,50,86z M50,16	c-18.748,0-34,15.252-34,34s15.252,34,34,34s34-15.252,34-34S68.748,16,50,16z"/><path fill="#1f212b" d="M65.5,24.227c-0.087,0-0.174-0.022-0.254-0.069c-0.638-0.376-1.3-0.734-1.969-1.066	c-0.247-0.123-0.348-0.423-0.226-0.671c0.124-0.248,0.427-0.347,0.671-0.226c0.689,0.343,1.373,0.714,2.031,1.102	c0.238,0.141,0.317,0.447,0.177,0.685C65.838,24.139,65.671,24.227,65.5,24.227z"/><path fill="#1f212b" d="M68.5,26.249c-0.106,0-0.213-0.033-0.304-0.103c-0.323-0.247-0.651-0.487-0.983-0.721	c-0.227-0.159-0.281-0.471-0.122-0.696c0.159-0.227,0.472-0.281,0.696-0.122c0.344,0.241,0.684,0.489,1.017,0.744	c0.22,0.168,0.261,0.481,0.094,0.701C68.799,26.182,68.65,26.249,68.5,26.249z"/><path fill="#1f212b" d="M50,81c-17.094,0-31-13.906-31-31s13.906-31,31-31c3.665,0,7.256,0.635,10.672,1.887	c0.26,0.096,0.393,0.383,0.298,0.642c-0.095,0.261-0.385,0.392-0.642,0.298C57.022,20.614,53.548,20,50,20	c-16.542,0-30,13.458-30,30s13.458,30,30,30s30-13.458,30-30c0-8.439-3.585-16.535-9.836-22.213	c-0.205-0.186-0.22-0.502-0.034-0.706c0.187-0.204,0.503-0.219,0.706-0.034C77.296,32.914,81,41.279,81,50	C81,67.094,67.094,81,50,81z"/><path fill="#b07454" d="M50,59.5c6.5,0,8.455,4,8.455,4L58.5,63c0-4.694-3.806-8.5-8.5-8.5s-8.5,3.806-8.5,8.5v0.5	C41.5,63.5,43.5,59.5,50,59.5z"/><path fill="#1f212b" d="M58.455,64c-0.188,0-0.364-0.106-0.449-0.28C57.931,63.569,56.079,60,50,60	c-6.083,0-7.977,3.573-8.054,3.726c-0.104,0.205-0.335,0.313-0.563,0.26C41.159,63.932,41,63.731,41,63.5V63c0-4.963,4.037-9,9-9	s9,4.037,9,9l-0.047,0.545c-0.021,0.224-0.187,0.406-0.407,0.447C58.516,63.997,58.485,64,58.455,64z M50,59	c4.345,0,6.754,1.709,7.939,2.969C57.446,58.062,54.074,55,50,55c-4.046,0-7.4,3.02-7.928,6.923C43.285,60.669,45.706,59,50,59z"/></svg>